<?xml version="1.0" standalone="no"?>
<!DOCTYPE svg PUBLIC "-//W3C//DTD SVG 1.1//EN" "http://www.w3.org/Graphics/SVG/1.1/DTD/svg11.dtd" >
<svg>
<metadata>
Created by FontForge 20090914 at Thu Sep 29 23:09:28 2016
 By www-data
Copyright (c) 2015 by Dogu Kaya. All rights reserved.
</metadata>
<defs>
<font id="Kollektif" horiz-adv-x="732" >
  <font-face 
    font-family="Kollektif"
    font-weight="400"
    font-stretch="normal"
    units-per-em="1000"
    panose-1="2 11 6 4 2 1 1 1 1 2"
    ascent="809"
    descent="-191"
    x-height="479"
    cap-height="709"
    bbox="-51 -240.001 989.001 934"
    underline-thickness="80"
    underline-position="-115"
    unicode-range="U+0020-U+FB04"
  />
<missing-glyph horiz-adv-x="354" 
 />
    <glyph glyph-name="ff" unicode="ff" horiz-adv-x="699" 
d="M433 0v392.002h-229v-392h-97v392h-82v67l82 20v58c0 34 4.33301 63.5 13 88.5s20.5 45.5 35.5 61.5s32.167 27.833 51.5 35.5s40 11.5 62 11.5c27.333 0 55 -5.66699 83 -17v-71c-24 7.33301 -44.667 11 -62 11c-27.333 0 -48.5 -8.33301 -63.5 -25
s-22.5 -43.334 -22.5 -80.001v-73h229v58c0 34 4.33301 63.5 13 88.5s20.5 45.5 35.5 61.5s32.167 27.833 51.5 35.5s40 11.5 62 11.5c27.333 0 55 -5.66699 83 -17v-71c-24 7.33301 -44.667 11 -62 11c-27.333 0 -48.5 -8.33301 -63.5 -25s-22.5 -43.334 -22.5 -80.001v-73
h148v-87h-148v-392h-97z" />
    <glyph glyph-name="fi" unicode="fi" horiz-adv-x="499" 
d="M102 0l-0.00195312 392.001h-82v67l82 20v58c0.666992 36 6 66.5 16 91.5s23 45.333 39 61s34.333 27 55 34s42.334 10.5 65.001 10.5c30 0 59.167 -4.33301 87.5 -13s55.166 -22.334 80.499 -41.001l-41 -56l-43 15c-12 4 -25.167 7.66699 -39.5 11s-27.166 5 -38.499 5
c-23.333 0 -43.166 -7.33301 -59.499 -22s-24.5 -41.667 -24.5 -81v-73h261v-479h-97v392h-164v-392h-97z" />
    <glyph glyph-name="fl" unicode="fl" horiz-adv-x="497" 
d="M99 0l0.000976562 391.999h-82v67l82 20v51c0.666992 42 7.5 76.167 20.5 102.5s29.667 47 50 62s43.833 25.333 70.5 31s54 8.5 82 8.5c22.667 0 45.167 -1.16699 67.5 -3.5s44.166 -5.16602 65.499 -8.49902v-722h-97v651c-7.33301 0.666992 -14.5 1.16699 -21.5 1.5
s-14.167 0.5 -21.5 0.5c-15.333 0 -30 -1.5 -44 -4.5s-26.667 -8.5 -38 -16.5s-20.333 -19 -27 -33s-10 -32 -10 -54v-66h108v-87h-108v-392h-97z" />
    <glyph glyph-name="ffi" unicode="ffi" horiz-adv-x="826" 
d="M427 0l-0.00195312 392.002h-219v-392h-97v392h-82v67l82 20v58c0 34 4.33301 63.5 13 88.5s20.5 45.5 35.5 61.5s32.333 27.833 52 35.5s40.5 11.5 62.5 11.5c26.667 0 54 -5.66699 82 -17v-71c-24 7.33301 -44.667 11 -62 11c-27.333 0 -48.5 -8.33301 -63.5 -25
s-22.5 -43.334 -22.5 -80.001v-73h219v58c0.666992 36 6 66.5 16 91.5s23 45.333 39 61s34.333 27 55 34s42.334 10.5 65.001 10.5c30 0 59.167 -4.33301 87.5 -13s55.166 -22.334 80.499 -41.001l-41 -56l-43 15c-12 4 -25.167 7.66699 -39.5 11s-27.166 5 -38.499 5
c-23.333 0 -43.166 -7.33301 -59.499 -22s-24.5 -41.667 -24.5 -81v-73h261v-479h-97v392h-164v-392h-97z" />
    <glyph glyph-name="ffl" unicode="ffl" horiz-adv-x="833" 
d="M435 0l0.000976562 392h-229v-392h-97v392h-82v67l82 20v58c0 34 4.33301 63.5 13 88.5s20.5 45.5 35.5 61.5s32.167 27.833 51.5 35.5s40 11.5 62 11.5c27.333 0 55 -5.66699 83 -17v-71c-24 7.33301 -44.667 11 -62 11c-27.333 0 -48.5 -8.33301 -63.5 -25
s-22.5 -43.334 -22.5 -80.001v-73h229v51c0.666992 42 7.5 76.167 20.5 102.5s29.667 47 50 62s43.833 25.333 70.5 31s54 8.5 82 8.5c22.667 0 45.167 -1.16699 67.5 -3.5s44.166 -5.16602 65.499 -8.49902v-722h-97v651c-7.33301 0.666992 -14.5 1.16699 -21.5 1.5
s-14.167 0.5 -21.5 0.5c-15.333 0 -30 -1.5 -44 -4.5s-26.667 -8.5 -38 -16.5s-20.333 -19 -27 -33s-10 -32 -10 -54v-66h108v-87h-108v-392h-97z" />
    <glyph glyph-name="f_f_j" unicode="ffj" horiz-adv-x="814" 
d="M420 0l-0.00195312 392.001h-228v-392h-97v392h-82v67l82 20v58c0 34 4.33301 63.5 13 88.5s20.5 45.5 35.5 61.5s32.167 27.833 51.5 35.5s40 11.5 62 11.5c27.333 0 55 -5.66699 83 -17v-71c-24 7.33301 -44.667 11 -62 11c-27.333 0 -48.5 -8.33301 -63.5 -25
s-22.5 -43.334 -22.5 -80.001v-73h228v58c0.666992 36 6 66.5 16 91.5s23 45.333 39 61s34.333 27 55 34s42.334 10.5 65.001 10.5c30 0 59.167 -4.33301 87.5 -13s55.166 -22.334 80.499 -41.001l-41 -56l-43 15c-12 4 -25.167 7.66699 -39.5 11s-27.166 5 -38.499 5
c-23.333 0 -43.166 -7.33301 -59.499 -22s-24.5 -41.667 -24.5 -81v-73h261v-512c0 -31.333 -3.5 -57.5 -10.5 -78.5s-16.5 -38 -28.5 -51s-26 -22.333 -42 -28s-33 -8.5 -51 -8.5c-29.333 0 -60 5.66699 -92 17l18 72c9.33301 -1.33301 18 -2.33301 26 -3s15.333 -1 22 -1
c22.667 0 38.5 4.83301 47.5 14.5s13.5 26.834 13.5 51.501v440h-164v-392h-97z" />
    <glyph glyph-name="f_j" unicode="fj" horiz-adv-x="486" 
d="M93 0l-0.00195312 392h-82v67l82 20v58c0.666992 36 6 66.5 16 91.5s23 45.333 39 61s34.333 27 55 34s42.334 10.5 65.001 10.5c30 0 59.167 -4.33301 87.5 -13s55.166 -22.334 80.499 -41.001l-41 -56l-43 15c-12 4 -25.167 7.66699 -39.5 11s-27.166 5 -38.499 5
c-23.333 0 -43.166 -7.33301 -59.499 -22s-24.5 -41.667 -24.5 -81v-73h261v-512c0 -31.333 -3.5 -57.5 -10.5 -78.5s-16.5 -38 -28.5 -51s-26 -22.333 -42 -28s-33 -8.5 -51 -8.5c-29.333 0 -60 5.66699 -92 17l18 72c9.33301 -1.33301 18 -2.33301 26 -3s15.333 -1 22 -1
c22.667 0 38.5 4.83301 47.5 14.5s13.5 26.834 13.5 51.501v440h-164v-392h-97z" />
    <glyph glyph-name=".notdef" horiz-adv-x="354" 
 />
    <glyph glyph-name="space" unicode=" " horiz-adv-x="261" 
 />
    <glyph glyph-name="exclam" unicode="!" horiz-adv-x="258" 
d="M87 164l-13 545h113l-12 -545h-88zM131 -10c-17.333 0 -32.166 6 -44.499 18s-18.5 26.667 -18.5 44s6.16699 32.166 18.5 44.499s27.166 18.5 44.499 18.5s32 -6.16699 44 -18.5s18 -27.166 18 -44.499s-6 -32 -18 -44s-26.667 -18 -44 -18z" />
    <glyph glyph-name="quotedbl" unicode="&#x22;" horiz-adv-x="380" 
d="M138 462h-80l-16 245h112zM321 462h-80l-16 245h113z" />
    <glyph glyph-name="numbersign" unicode="#" 
d="M712 498v-67h-160l-35 -207h152v-67h-163l-27 -165l-65 11l25 152h-203l-27 -163l-65 11l25 151h-149v67h160l35 207h-152v67h163l27 165l65 -11l-25 -152h203l28 163l65 -11l-26 -152zM485 430h-203l-35 -207h203z" />
    <glyph glyph-name="dollar" unicode="$" horiz-adv-x="494" 
d="M158 108c18 -8.66699 38.6699 -13.999 62.0029 -15.999v211c-28 7.33301 -51.667 15.333 -71 24c-23.333 10 -43 22 -59 36c-38 30.667 -57 71.667 -57 123c0 25.333 5 49 15 71c10.667 23.333 24.667 42.666 42 57.999c20 17.333 42 29.666 66 36.999
c21.333 6.66699 42.666 10.334 63.999 11.001v77h65v-79c28.667 -4 54.334 -11.333 77.001 -22c36.667 -17.333 64.667 -41.333 84 -72l-73 -45c-18.667 21.333 -39 36 -61 44c-4.66699 2 -9.16699 3.5 -13.5 4.5s-8.83301 2.16699 -13.5 3.5v-192
c13.333 -3.33301 25.333 -7 36 -11s20.667 -8 30 -12c12.667 -5.33301 24.167 -11 34.5 -17s19.833 -12.667 28.5 -20c40 -33.333 60 -76.666 60 -129.999c0 -26.667 -5.66699 -52 -17 -76s-27.333 -44.333 -48 -61c-16.667 -14.667 -35.334 -26 -56.001 -34
s-43.334 -13.667 -68.001 -17v-86h-65v85c-39.333 2.66699 -76 12.667 -110 30c-41.333 21.333 -71.333 49 -90 83l80 42c11.333 -20.667 30.666 -37.334 57.999 -50.001zM285.003 93.001c63.333 8 94.998 40.667 94.998 98c0 13.333 -2.33301 24.333 -7 33
c-3.33301 8 -10 16.333 -20 25c-7.33301 6 -16.666 11.833 -27.999 17.5s-24.666 11.167 -39.999 16.5v-190zM188.001 413.001l14.499 -6c5 -2 10.833 -4 17.5 -6v177c-5.33301 -0.666992 -10.5 -1.66699 -15.5 -3l-15.5 -4
c-7.33301 -3.33301 -14.166 -6.83301 -20.499 -10.5s-12.166 -7.5 -17.499 -11.5c-8 -7.33301 -14 -16.333 -18 -27c-4 -11.333 -6 -22.666 -6 -33.999c0 -8 1 -16 3 -24c3.33301 -8.66699 9.33301 -17.334 18 -26.001c4.66699 -4 10.167 -8.16699 16.5 -12.5
s14.166 -8.5 23.499 -12.5z" />
    <glyph glyph-name="percent" unicode="%" horiz-adv-x="690" 
d="M354 140c0 20.667 4 40.334 12 59.001s18.833 34.834 32.5 48.501s29.667 24.5 48 32.5s38.166 12 59.499 12c20.667 0 40.334 -4 59.001 -12s35 -18.833 49 -32.5s25 -29.834 33 -48.501s12 -38.334 12 -59.001c0 -21.333 -4 -41.166 -12 -59.499s-19 -34.333 -33 -48
s-30.333 -24.5 -49 -32.5s-38.334 -12 -59.001 -12c-21.333 0 -41.166 4 -59.499 12s-34.333 18.833 -48 32.5s-24.5 29.667 -32.5 48s-12 38.166 -12 59.499zM506 226c-12 0 -23.167 -2.16504 -33.5 -6.49805s-19.333 -10.5 -27 -18.5s-13.834 -17.167 -18.501 -27.5
s-7 -21.5 -7 -33.5s2.33301 -23.333 7 -34s10.834 -19.834 18.501 -27.501s16.667 -13.834 27 -18.501s21.5 -7 33.5 -7c24 0 44.5 8.5 61.5 25.5s25.5 37.5 25.5 61.5s-8.5 44.333 -25.5 61s-37.5 25 -61.5 25zM181 410.002c-21.333 0 -41.166 4 -59.499 12
s-34.333 18.833 -48 32.5s-24.5 29.667 -32.5 48s-12 38.166 -12 59.499c0 20.667 4 40.334 12 59.001s18.833 35 32.5 49s29.667 25 48 33s38.166 12 59.499 12c20.667 0 40.334 -4 59.001 -12s35 -19 49 -33s25 -30.333 33 -49s12 -38.334 12 -59.001
c0 -21.333 -4 -41.166 -12 -59.499s-19 -34.333 -33 -48s-30.333 -24.5 -49 -32.5s-38.334 -12 -59.001 -12zM181 649.002c-12 0 -23.1689 -2.33105 -33.502 -6.99805s-19.333 -10.834 -27 -18.501s-13.834 -16.834 -18.501 -27.501s-7 -22 -7 -34s2.33301 -23.167 7 -33.5
s10.834 -19.333 18.501 -27s16.667 -13.834 27 -18.501s21.5 -7 33.5 -7s23.333 2.33301 34 7s19.834 10.834 27.501 18.501s13.834 16.667 18.501 27s7 21.5 7 33.5c0 24 -8.5 44.5 -25.5 61.5s-37.5 25.5 -61.5 25.5zM533.998 736.004l57 -34l-431 -727l-57 34z" />
    <glyph glyph-name="ampersand" unicode="&#x26;" horiz-adv-x="667" 
d="M447 513c-2 -12.667 -6.83984 -25.0029 -14.5068 -37.0029s-17.167 -23.833 -28.5 -35.5s-24.333 -23.5 -39 -35.5l-44 -37l39 -44c12.667 -14.667 25.667 -29 39 -43l75 -81c18.667 17.333 36.834 35.833 54.501 55.5s34.834 40.167 51.501 61.5l72 -64
c-18.667 -23.333 -37.334 -45 -56.001 -65s-38.667 -39.667 -60 -59l120 -131h-129l-20.5 21c-6.33301 6.66699 -12.166 13.334 -17.499 20.001l-26 30c-1.33301 -1.33301 -2.5 -2.16602 -3.5 -2.49902s-2.16699 -1.16602 -3.5 -2.49902l-43.5 -31
c-14.333 -10 -29.833 -18.833 -46.5 -26.5s-35 -13.834 -55 -18.501s-42.667 -7 -68 -7c-26 0 -51.167 4 -75.5 12s-45.666 19.667 -63.999 35s-33.166 34.166 -44.499 56.499s-17 48.166 -17 77.499c0 24.667 3.66699 47.334 11 68.001s17.333 39.834 30 57.501
s27.334 34.167 44.001 49.5s34.334 30 53.001 44l-61 68.5l-61 67.5v7c0 28 5.83301 54.167 17.5 78.5s26.834 45.333 45.501 63s40 31.5 64 41.5s48.667 15 74 15c24 0 47.5 -4.66699 70.5 -14s43.333 -22 61 -38s32 -34.667 43 -56s16.5 -44.333 16.5 -69
c0 -5.33301 -0.333008 -10.666 -1 -15.999zM303.993 84.9971c34 14 65.6699 31.667 95.0029 53l-52 58l-52 58l-53 58c-12.667 -9.33301 -25 -19.333 -37 -30s-22.833 -22 -32.5 -34s-17.334 -24.833 -23.001 -38.5s-8.5 -28.167 -8.5 -43.5c0 -32.667 9.5 -56.667 28.5 -72
s42.167 -23 69.5 -23c11.333 0 22.666 1.33301 33.999 4s21.666 6 30.999 10zM350.996 539.997c0 11.333 -2.50195 22.333 -7.50195 33s-11.667 20.167 -20 28.5s-18 15 -29 20s-22.5 7.5 -34.5 7.5c-23.333 0 -44.333 -8.16699 -63 -24.5s-30.667 -36.833 -36 -61.5
l96 -106c9.33301 6.66699 18.5 13.667 27.5 21l25.5 21c0.666992 0.666992 2.83398 2.5 6.50098 5.5s5.83398 4.83301 6.50098 5.5c8 6.66699 14.333 13 19 19s7.66699 14.667 9 26v5z" />
    <glyph glyph-name="quotesingle" unicode="'" horiz-adv-x="260" 
d="M165 463h-78l-12 246h110z" />
    <glyph glyph-name="parenleft" unicode="(" horiz-adv-x="283" 
d="M177 -138c-42 62.667 -74.833 132.17 -98.5 208.503s-35.5 157.166 -35.5 242.499s11.5 165.666 34.5 240.999s55.167 144 96.5 206l80 -20c-40 -58.667 -71.5 -124.167 -94.5 -196.5s-34.5 -149.166 -34.5 -230.499c0 -82.667 11.5 -160.334 34.5 -233.001
s54.833 -138.334 95.5 -197.001z" />
    <glyph glyph-name="parenright" unicode=")" horiz-adv-x="302" 
d="M23 -117c40.667 58.667 72.667 124.331 96 196.998s35 150.334 35 233.001c0 81.333 -11.167 158.166 -33.5 230.499s-53.5 137.833 -93.5 196.5l78 20c41.333 -62 73.5 -130.667 96.5 -206s34.5 -155.666 34.5 -240.999s-11.667 -166.166 -35 -242.499
s-56 -145.833 -98 -208.5z" />
    <glyph glyph-name="asterisk" unicode="*" horiz-adv-x="414" 
d="M173 514l-153 27l24 78l140 -57l-18 145h82l-17 -143l139 55l24 -78l-144 -29l103 -113l-65 -49l-81 140l-79 -139l-66 48z" />
    <glyph glyph-name="plus" unicode="+" horiz-adv-x="519" 
d="M301 546v-219h210v-66h-210v-219h-4h-62h-12v219h-215v66h215v219h12h62h4v0z" />
    <glyph glyph-name="comma" unicode="," horiz-adv-x="292" 
d="M124 -128h-81l33 246h113z" />
    <glyph glyph-name="hyphen" unicode="-" horiz-adv-x="385" 
d="M46 327h294v-66h-294v66z" />
    <glyph glyph-name="period" unicode="." horiz-adv-x="239" 
d="M43 52c0 17.333 6 32.166 18 44.499s26.667 18.5 44 18.5s32 -6.16699 44 -18.5s18 -27.166 18 -44.499s-6 -32 -18 -44s-26.667 -18 -44 -18s-32 6 -44 18s-18 26.667 -18 44z" />
    <glyph glyph-name="slash" unicode="/" horiz-adv-x="500" 
d="M437 736l57 -34l-431 -727l-57 34z" />
    <glyph glyph-name="zero" unicode="0" horiz-adv-x="580" 
d="M285 -10c-34.667 0 -67.1689 8.16797 -97.502 24.501s-57.166 39.5 -80.499 69.5c-22 29.333 -39.333 63 -52 101s-19 78.667 -19 122v87c0 48 6 91.667 18 131s28.667 73.333 50 102c21.333 29.333 47.5 51.833 78.5 67.5s65.167 23.5 102.5 23.5
c36.667 0 70.5 -7.66699 101.5 -23s57.167 -37.666 78.5 -66.999c21.333 -28.667 38.333 -62.834 51 -102.501s19 -83.5 19 -131.5v-87c0 -46 -6.5 -88.167 -19.5 -126.5s-30.5 -71.833 -52.5 -100.5c-22.667 -28.667 -49.167 -50.834 -79.5 -66.501
s-63.166 -23.5 -98.499 -23.5zM137.998 307.001c0 -32.667 4 -63.001 12 -91.001s19.667 -52 35 -72c13.333 -17.333 28.5 -30.833 45.5 -40.5s35.167 -14.5 54.5 -14.5c22 0 42 5.33301 60 16s33.5 25.5 46.5 44.5s23.167 41.833 30.5 68.5s11 56.334 11 89.001v87
c0 76 -15.333 134.333 -46 175c-26 33.333 -60 50 -102 50c-42.667 0 -77 -17 -103 -51c-29.333 -39.333 -44 -97.333 -44 -174v-87z" />
    <glyph glyph-name="one" unicode="1" horiz-adv-x="299" 
d="M124 615h-95v94h200v-709h-105v615z" />
    <glyph glyph-name="two" unicode="2" horiz-adv-x="551" 
d="M45 0l0.00195312 69.9971l204 232l73 86c18 20.667 31.667 37.334 41 50.001s15.333 23.667 18 33s4 21.333 4 36c0 37.333 -11 65.5 -33 84.5s-48.667 28.5 -80 28.5c-16 0 -30.833 -3.16699 -44.5 -9.5s-25.667 -14.833 -36 -25.5s-18.5 -22.667 -24.5 -36
s-9 -27.333 -9 -42h-102c0 28.667 5.66699 55.834 17 81.501s26.833 48.167 46.5 67.5s42.5 34.666 68.5 45.999s54 17 84 17s58 -5.66699 84 -17s48.667 -26.666 68 -45.999s34.666 -41.833 45.999 -67.5s17 -52.834 17 -81.501c0 -21.333 -2.83301 -42.166 -8.5 -62.499
s-14.834 -38.166 -27.501 -53.499l-251 -294h302v-97h-457z" />
    <glyph glyph-name="three" unicode="3" horiz-adv-x="540" 
d="M330 464c31.333 -2.66699 58.1641 -10.6689 80.4971 -24.002s40.833 -30.166 55.5 -50.499s25.334 -43.333 32.001 -69s10 -51.834 10 -78.501c0 -33.333 -6.5 -65.166 -19.5 -95.499s-30.5 -57 -52.5 -80s-47.667 -41.5 -77 -55.5s-60.666 -21 -93.999 -21
c-27.333 0 -53.333 4.5 -78 13.5s-47 21.333 -67 37s-37.667 34.167 -53 55.5s-27 44 -35 68l92 35c4.66699 -15.333 11.667 -29.833 21 -43.5s20.5 -25.5 33.5 -35.5s27.333 -17.667 43 -23s32.167 -7.66602 49.5 -6.99902c18.667 0.666992 36.334 5.16699 53.001 13.5
s31.167 19.333 43.5 33s22.333 29 30 46s11.834 35.167 12.501 54.5c0.666992 20 -2.5 39 -9.5 57s-17 33.833 -30 47.5s-28.167 24.667 -45.5 33s-36 12.833 -56 13.5c-6.66699 0 -13.334 -0.666992 -20.001 -2s-13.334 -3 -20.001 -5l-39 50l124 184h-214v94h349v-67
l-60 -89l-22 -32.5c-7.33301 -10.333 -13.666 -19.833 -18.999 -28.5l-13 -20.5z" />
    <glyph glyph-name="four" unicode="4" horiz-adv-x="642" 
d="M76 130l-33 51l371 528h83v-485h114v-94h-114v-130h-105v130h-316zM193 224h197v285z" />
    <glyph glyph-name="five" unicode="5" horiz-adv-x="538" 
d="M243 90c20 0 38.833 3.83789 56.5 11.5049s33.167 18.167 46.5 31.5s23.833 28.833 31.5 46.5s11.5 36.5 11.5 56.5c0 25.333 -5.5 48.833 -16.5 70.5s-26.167 39.167 -45.5 52.5c-8 6 -17.833 11.167 -29.5 15.5s-24.334 7.16602 -38.001 8.49902s-27.667 1.33301 -42 0
s-28.166 -5 -41.499 -11c-14.667 -6.66699 -27.334 -15.334 -38.001 -26.001l-60 40l37 323h310v-94h-223l-16 -152c35.333 11.333 71 14.666 107 9.99902s66.333 -16 91 -34c32.667 -22.667 58 -51.834 76 -87.501s27 -74.167 27 -115.5c0 -34 -6.33301 -65.833 -19 -95.5
s-30 -55.667 -52 -78s-47.833 -40 -77.5 -53s-61.5 -19.5 -95.5 -19.5c-38.667 0 -74.5 8.66699 -107.5 26s-60.833 40 -83.5 68c-13.333 15.333 -24.333 33.666 -33 54.999l86 49c4.66699 -15.333 12.334 -29.333 23.001 -42c13.333 -17.333 30 -31 50 -41
s41.667 -15 65 -15z" />
    <glyph glyph-name="six" unicode="6" horiz-adv-x="569" 
d="M287 -10c-34 0 -65.834 6.50195 -95.501 19.502s-55.5 30.667 -77.5 53s-39.333 48.333 -52 78s-19 61.5 -19 95.5c0 23.333 3.5 45.666 10.5 66.999s15.833 42.666 26.5 63.999c2.66699 4.66699 7.33398 13.334 14.001 26.001l23.5 44.5l29.5 55.5l33 60l85 156h110
l-131 -239c34.667 8.66699 68.167 10 100.5 4s60.5 -17.667 84.5 -35c32 -22.667 57.167 -51.834 75.5 -87.501s27.5 -74.167 27.5 -115.5c0 -34 -6.5 -65.833 -19.5 -95.5s-30.5 -55.667 -52.5 -78s-47.833 -40 -77.5 -53s-61.5 -19.5 -95.5 -19.5zM175.999 336.002
c-8.66699 -17.333 -16.667 -35.332 -24 -53.999s-11 -34 -11 -46c0 -20 3.83301 -39 11.5 -57s18.167 -33.667 31.5 -47s28.833 -24 46.5 -32s36.5 -12 56.5 -12s39 4 57 12s33.5 18.667 46.5 32s23.333 29 31 47s11.5 37 11.5 57c0 25.333 -5.33301 48.833 -16 70.5
s-25.667 39.167 -45 52.5c-12 8.66699 -26.167 15.5 -42.5 20.5s-33.333 7.16699 -51 6.5s-35.167 -4.33398 -52.5 -11.001s-33 -17.667 -47 -33z" />
    <glyph glyph-name="seven" unicode="7" horiz-adv-x="484" 
d="M304 615h-274v94h407v-1v-47l-275 -661h-113z" />
    <glyph glyph-name="eight" unicode="8" horiz-adv-x="515" 
d="M33 216c0 34.667 7.83203 67.167 23.499 97.5s38.5 54.5 68.5 72.5c-22 17.333 -38 37.5 -48 60.5s-15 47.167 -15 72.5c0 26.667 5.16699 52 15.5 76s24.5 45.167 42.5 63.5s39 32.833 63 43.5s49.333 16 76 16s51.834 -5.33301 75.501 -16s44.5 -25.167 62.5 -43.5
s32.167 -39.5 42.5 -63.5s15.5 -49.333 15.5 -76c0 -25.333 -5.5 -49.5 -16.5 -72.5s-26.167 -43.167 -45.5 -60.5c12.667 -8 24.667 -18.167 36 -30.5s21 -26 29 -41s14.333 -30.833 19 -47.5s7 -33.667 7 -51c0 -30.667 -6 -59.667 -18 -87s-28.333 -51.333 -49 -72
s-44.5 -37 -71.5 -49s-55.833 -18 -86.5 -18s-59.667 6 -87 18s-51.333 28.333 -72 49s-37 44.667 -49 72s-18 56.333 -18 87zM258.999 621c-13.333 0 -25.6641 -2.83301 -36.9971 -8.5s-21.333 -13.167 -30 -22.5s-15.334 -20.166 -20.001 -32.499s-7 -25.166 -7 -38.499
c0 -18.667 4.66699 -35.5 14 -50.5s21.666 -26.5 36.999 -34.5c12.667 -6.66699 27 -10 43 -10s30.333 3.33301 43 10c15.333 8 27.5 19.5 36.5 34.5s13.5 31.833 13.5 50.5c0 13.333 -2.33301 26.166 -7 38.499s-11.334 23.166 -20.001 32.499s-18.667 16.833 -30 22.5
s-23.333 8.5 -36 8.5zM213.001 330c-22.667 -9.33301 -40.8369 -24.166 -54.5039 -44.499s-20.5 -43.5 -20.5 -69.5c0 -16.667 3.16699 -32.667 9.5 -48s14.833 -29 25.5 -41s23.334 -21.5 38.001 -28.5s30.667 -10.5 48 -10.5c16.667 0 32.334 3.5 47.001 10.5
s27.334 16.5 38.001 28.5s19.167 25.667 25.5 41s9.5 31.333 9.5 48c0 26 -6.83301 49.167 -20.5 69.5s-31.5 35.166 -53.5 44.499c-15.333 6 -30.666 9 -45.999 9c-16.667 0 -32 -3 -46 -9z" />
    <glyph glyph-name="nine" unicode="9" horiz-adv-x="556" 
d="M135 273c-32 23.333 -57.167 52.8301 -75.5 88.4971s-27.5 73.834 -27.5 114.501c0 34 6.5 65.667 19.5 95s30.5 54.833 52.5 76.5s47.833 38.834 77.5 51.501s61.5 19 95.5 19c33.333 0 64.833 -6.33301 94.5 -19s55.5 -29.834 77.5 -51.501s39.5 -47.167 52.5 -76.5
s19.5 -61 19.5 -95c0 -23.333 -3.66699 -45.666 -11 -66.999s-16.333 -42.666 -27 -63.999l-14 -27l-24 -44.5l-30.5 -56l-33.5 -60.5l-87 -157h-109l135 243c-34.667 -8.66699 -68.167 -10.167 -100.5 -4.5s-60.5 17.167 -84.5 34.5zM277 621.997
c-20 0 -38.998 -3.83398 -56.998 -11.501s-33.667 -18 -47 -31s-23.833 -28.5 -31.5 -46.5s-11.5 -37 -11.5 -57c0 -25.333 5.5 -48.833 16.5 -70.5s26.167 -39.167 45.5 -52.5c12 -8.66699 26.167 -15.5 42.5 -20.5s33.166 -7.16699 50.499 -6.5
s34.666 4.33398 51.999 11.001s33 17.667 47 33l4 6c8.66699 17.333 16.667 35.333 24 54s11 34 11 46c0 20 -3.83301 39 -11.5 57s-18.167 33.5 -31.5 46.5s-28.833 23.333 -46.5 31s-36.5 11.5 -56.5 11.5z" />
    <glyph glyph-name="colon" unicode=":" horiz-adv-x="304" 
d="M141 300c-17.333 0 -32 6 -44 18s-18 26.667 -18 44s6 32.166 18 44.499s26.667 18.5 44 18.5s32.166 -6.16699 44.499 -18.5s18.5 -27.166 18.5 -44.499s-6.16699 -32 -18.5 -44s-27.166 -18 -44.499 -18zM79 52c0 17.333 6 32.166 18 44.499s26.667 18.5 44 18.5
s32 -6.16699 44 -18.5s18 -27.166 18 -44.499s-6 -32 -18 -44s-26.667 -18 -44 -18s-32 6 -44 18s-18 26.667 -18 44z" />
    <glyph glyph-name="semicolon" unicode=";" horiz-adv-x="274" 
d="M135 300c-17.333 0 -32 6 -44 18s-18 26.667 -18 44s6 32.166 18 44.499s26.667 18.5 44 18.5s32.166 -6.16699 44.499 -18.5s18.5 -27.166 18.5 -44.499s-6.16699 -32 -18.5 -44s-27.166 -18 -44.499 -18zM124 -128h-81l33 246h113z" />
    <glyph glyph-name="less" unicode="&#x3c;" horiz-adv-x="482" 
d="M6 277l432 209v-73l-357 -172l357 -173v-73l-432 209v73z" />
    <glyph glyph-name="equal" unicode="=" horiz-adv-x="518" 
d="M46 434h426v-66h-426v66zM472 161h-426v65h426v-65z" />
    <glyph glyph-name="greater" unicode="&#x3e;" horiz-adv-x="484" 
d="M46 486l432 -209v-73l-432 -209v73l356 173l-356 172v73z" />
    <glyph glyph-name="question" unicode="?" horiz-adv-x="463" 
d="M149 115c17.333 0 32 -6.16699 44 -18.5s18 -27.166 18 -44.499s-6 -32 -18 -44s-26.667 -18 -44 -18s-32 6 -44 18s-18 26.667 -18 44s6 32.166 18 44.499s26.667 18.5 44 18.5zM175 624c-23.333 0 -44.332 -2.17188 -62.999 -6.50488s-36.667 -13.833 -54 -28.5l-15 93
c39.333 24 83.333 36 132 36c34 0 65.833 -6 95.5 -18s55.5 -28.167 77.5 -48.5s39.333 -44.166 52 -71.499s19 -56.333 19 -87c0 -75.333 -37.667 -135.666 -113 -180.999c-12 -7.33301 -24.5 -13.666 -37.5 -18.999s-25 -12 -36 -20s-20 -18 -27 -30s-10.5 -28 -10.5 -48
v-31h-96v36c0 30.667 6.16699 56.667 18.5 78s27.166 39 44.499 53s35 25.333 53 34l45 21c20.667 9.33301 36 24.333 46 45s15 42 15 64c0 18 -3.83301 34.833 -11.5 50.5s-18 29.334 -31 41.001s-28.5 20.834 -46.5 27.501s-37 10 -57 10z" />
    <glyph glyph-name="at" unicode="@" horiz-adv-x="814" 
d="M404 710c56.667 0 108.667 -9.66211 156 -28.9951s87.666 -46.333 120.999 -81c30 -34 53.167 -73 69.5 -117s24.5 -92 24.5 -144v-18c-1.33301 -29.333 -5 -54 -11 -74s-13.167 -36.833 -21.5 -50.5s-17.166 -24.334 -26.499 -32.001s-17.666 -13.5 -24.999 -17.5
c-16.667 -8.66699 -33.667 -13 -51 -13c-23.333 0 -47.333 7.66699 -72 23c-9.33301 6 -17.666 12.667 -24.999 20s-13.666 15.333 -18.999 24c-16.667 -19.333 -36 -34.166 -58 -44.499s-47 -15.5 -75 -15.5c-26 0 -50.667 5 -74 15s-43.5 23.5 -60.5 40.5
s-30.5 37 -40.5 60s-15 47.5 -15 73.5c0 26.667 5 51.5 15 74.5s23.5 43.167 40.5 60.5s37.167 31 60.5 41s48 15 74 15c23.333 0 45.166 -4.33301 65.499 -13s38.5 -20.334 54.5 -35.001l24 36l53 -4l-17 -200v-8c0 -19.333 4.16699 -35.5 12.5 -48.5
s17.166 -22.833 26.499 -29.5c11.333 -6.66699 21.333 -10 30 -10c5.33301 0 11.333 1.33301 18 4c12 6.66699 21.667 19.5 29 38.5s11.666 42.833 12.999 71.5v8c0 1.33301 0.166992 2.66602 0.5 3.99902s0.5 2.66602 0.5 3.99902c0 54.667 -8.66699 100.834 -26 138.501
s-40.166 68.167 -68.499 91.5s-60.166 40.166 -95.499 50.499s-71 15.5 -107 15.5c-40 0 -78 -8.16699 -114 -24.5s-67.5 -38.333 -94.5 -66s-48.333 -59.834 -64 -96.501s-23.5 -75.667 -23.5 -117c0 -40.667 7 -78.334 21 -113.001s33.5 -65 58.5 -91s54.667 -47 89 -63
s72.166 -25.667 113.499 -29c4.66699 -0.666992 9.16699 -1 13.5 -1h12.5c20 0 40.167 2 60.5 6s40.166 10.333 59.499 19l30 -69c-24 -10.667 -48.667 -18.5 -74 -23.5s-50.666 -7.5 -75.999 -7.5c-3.33301 0 -7 0.166992 -11 0.5s-8.66699 0.833008 -14 1.5h-6
c-52 4 -99.5 16 -142.5 36s-80 46.333 -111 79s-55.167 70.667 -72.5 114s-26 90.333 -26 141c0 50 9.16699 97.833 27.5 143.5s45.166 86.5 80.499 122.5c36 36.667 76.5 64.667 121.5 84s92.167 29 141.5 29zM391 216.005c30 0 54.667 10.667 74 32s29 48.666 29 81.999
c0 34 -9.66699 61.833 -29 83.5s-44 32.5 -74 32.5c-16 0 -30.833 -3.16699 -44.5 -9.5s-25.834 -14.666 -36.501 -24.999s-19 -22.5 -25 -36.5s-9 -29 -9 -45s3 -30.833 9 -44.5s14.333 -25.667 25 -36s22.834 -18.5 36.501 -24.5s28.5 -9 44.5 -9z" />
    <glyph glyph-name="A" unicode="A" 
d="M125 0h-114l295 709h115l295 -709h-113l-93 222h-293zM257 318h213l-106 256z" />
    <glyph glyph-name="B" unicode="B" horiz-adv-x="600" 
d="M558 198c0 -27.333 -5.16797 -52.998 -15.501 -76.998s-24.5 -45 -42.5 -63s-39.167 -32.167 -63.5 -42.5s-50.166 -15.5 -77.499 -15.5h-303v709h277c24 0 46.667 -4.66699 68 -14s40 -22 56 -38s28.667 -34.833 38 -56.5s14 -44.834 14 -69.501
c0 -30.667 -5 -58.5 -15 -83.5s-26.333 -46.167 -49 -63.5c38 -14 66.333 -37.833 85 -71.5s28 -71.834 28 -114.501zM159.999 422.002c26.667 -0.666992 51.333 -1 74 -1h100c25.333 0 46.666 9.5 63.999 28.5s26 41.833 26 68.5c0 27.333 -8.66699 50.333 -26 69
s-38.666 28 -63.999 28h-174v-193zM159.998 97.002c4.66699 -0.666992 15 -1 31 -1h168c14 0 27.167 3 39.5 9s23.166 14.167 32.499 24.5s16.666 22.5 21.999 36.5s8 29 8 45s-2.66699 30.833 -8 44.5s-12.666 25.667 -21.999 36s-20.166 18.5 -32.499 24.5
s-25.5 9 -39.5 9h-199v-228z" />
    <glyph glyph-name="C" unicode="C" horiz-adv-x="686" 
d="M390 87c38.667 0 74.499 9.33301 107.499 28s60.833 43.334 83.5 74.001l73 -70c-32 -38 -70.833 -69 -116.5 -93s-94.834 -36 -147.501 -36c-48 0 -93.333 9.66699 -136 29s-79.667 45.5 -111 78.5s-56.166 71.667 -74.499 116s-27.5 91.166 -27.5 140.499
c0 50 9.16699 97 27.5 141s43.166 82.5 74.499 115.5s68.333 59.167 111 78.5s88 29 136 29c44.667 0 86.834 -8.83301 126.501 -26.5s75.167 -40.834 106.5 -69.501l-62 -79c-22 23.333 -47.667 42.5 -77 57.5s-60.666 22.5 -93.999 22.5
c-34 0 -65.833 -7.16699 -95.5 -21.5s-55.5 -33.833 -77.5 -58.5s-39.5 -53.167 -52.5 -85.5s-19.5 -66.833 -19.5 -103.5s6.5 -71.167 19.5 -103.5s30.5 -60.666 52.5 -84.999s47.833 -43.5 77.5 -57.5s61.5 -21 95.5 -21z" />
    <glyph glyph-name="D" unicode="D" horiz-adv-x="678" 
d="M60 0l0.000976562 709h252c51.333 0 96.666 -9.33301 135.999 -28s72.166 -44 98.499 -76s46.333 -69.667 60 -113s20.5 -89.333 20.5 -138c0 -49.333 -7.16699 -95.5 -21.5 -138.5s-34.166 -80.5 -59.499 -112.5s-55.333 -57.167 -90 -75.5s-72 -27.5 -112 -27.5h-284z
M308.001 97c38 0 70.333 7.00098 97 21.001s48.667 32.667 66 56s30 50.666 38 81.999s12 64 12 98s-4 66.833 -12 98.5s-20.5 59.5 -37.5 83.5s-39 43.167 -66 57.5s-59.5 21.5 -97.5 21.5h-143v-518h143z" />
    <glyph glyph-name="E" unicode="E" horiz-adv-x="549" 
d="M489 709v-94h-329v-193h293v-97v0h-293v-228h329v-97v0h-329h-52h-52v709h433z" />
    <glyph glyph-name="F" unicode="F" horiz-adv-x="540" 
d="M534 709v-94h-374v-193h339v-97h-339v-325h-104v709h478z" />
    <glyph glyph-name="G" unicode="G" horiz-adv-x="710" 
d="M452 379l193.002 0.000976562v-260c-32 -38 -70.667 -69 -116 -93s-94.666 -36 -147.999 -36c-48 0 -93.333 9.66699 -136 29s-79.667 45.5 -111 78.5s-56.166 71.5 -74.499 115.5s-27.5 91 -27.5 141c0 49.333 9.16699 96.166 27.5 140.499s43.166 83 74.499 116
s68.333 59.167 111 78.5s88 29 136 29c44 0 85.667 -8.66699 125 -26s74.666 -40 105.999 -68l-62 -79c-22 23.333 -47.5 42.166 -76.5 56.499s-59.833 21.5 -92.5 21.5c-34 0 -65.833 -7.16699 -95.5 -21.5s-55.5 -33.833 -77.5 -58.5s-39.333 -53.167 -52 -85.5
s-19 -66.833 -19 -103.5s6.33301 -71.167 19 -103.5s30 -60.666 52 -84.999s47.833 -43.5 77.5 -57.5s61.5 -21 95.5 -21c31.333 0 60.666 6.16699 87.999 18.5s51.666 28.833 72.999 49.5v127h-90v97z" />
    <glyph glyph-name="H" unicode="H" horiz-adv-x="723" 
d="M558 709h104v-709h-104v325h-397v-325h-105v709h105v-287h397v287z" />
    <glyph glyph-name="I" unicode="I" horiz-adv-x="393" 
d="M248 623v-537h52v-86h-209v86h53v537h-53v86h209v-86h-52z" />
    <glyph glyph-name="J" unicode="J" horiz-adv-x="482" 
d="M423 709v-448v-46.5c0 -15 -1 -29.833 -3 -44.5s-5.5 -29.167 -10.5 -43.5s-12.167 -28.166 -21.5 -41.499c-21.333 -30 -47.166 -53.333 -77.499 -70s-63.5 -25 -99.5 -25c-26 0 -50.5 4.83301 -73.5 14.5s-43.667 22.667 -62 39s-33.833 35.5 -46.5 57.5
s-21.334 45 -26.001 69l95 29c2 -14.667 6.5 -28.5 13.5 -41.5s15.5 -24.5 25.5 -34.5s21.5 -17.833 34.5 -23.5s26.5 -8.5 40.5 -8.5c16 0 30.167 3.16699 42.5 9.5s22.833 14.666 31.5 24.999s15.667 22.333 21 36s9 27.5 11 41.5c0.666992 3.33301 1.16699 10.333 1.5 21
s0.5 24.167 0.5 40.5v55.5v65c0 36 -0.166992 73 -0.5 111s-0.5 73 -0.5 105v108h104z" />
    <glyph glyph-name="K" unicode="K" horiz-adv-x="700" 
d="M341 380l341 -381h-141l-269 312l-112 -112v-199h-104v709h104v-381l78 83l295 298h137z" />
    <glyph glyph-name="L" unicode="L" horiz-adv-x="513" 
d="M59 0v709h105v-612h328v-97h-433z" />
    <glyph glyph-name="M" unicode="M" horiz-adv-x="825" 
d="M660 709h105v-709h-104v544l-207 -285h-81l-208 285v-544h-105v709h105l248 -341z" />
    <glyph glyph-name="N" unicode="N" horiz-adv-x="725" 
d="M667 709v-709h-106l-396 544v-544h-109v709h110l396 -547v547h105z" />
    <glyph glyph-name="O" unicode="O" horiz-adv-x="767" 
d="M385 719c48 0 93.332 -9.66699 135.999 -29s79.834 -45.5 111.501 -78.5s56.834 -71.667 75.501 -116s28 -91.166 28 -140.499c0 -50 -9.33301 -97 -28 -141s-44 -82.5 -76 -115.5s-69.333 -59.167 -112 -78.5s-88 -29 -136 -29s-93.333 9.66699 -136 29
s-79.834 45.5 -111.501 78.5s-56.667 71.5 -75 115.5s-27.5 91 -27.5 141c0 49.333 9.16699 96.166 27.5 140.499s43.5 83 75.5 116s69.333 59.167 112 78.5s88 29 136 29zM384.999 90c34 0 65.833 6.83301 95.5 20.5s55.5 32.5 77.5 56.5s39.333 52.167 52 84.5
s19 66.833 19 103.5s-6.33301 71 -19 103s-30 60 -52 84s-47.833 42.833 -77.5 56.5s-61.5 20.5 -95.5 20.5s-65.833 -6.83301 -95.5 -20.5s-55.5 -32.5 -77.5 -56.5s-39.5 -52 -52.5 -84s-19.5 -66.333 -19.5 -103s6.5 -71.167 19.5 -103.5s30.5 -60.5 52.5 -84.5
s47.833 -42.833 77.5 -56.5s61.5 -20.5 95.5 -20.5z" />
    <glyph glyph-name="P" unicode="P" horiz-adv-x="582" 
d="M342 709c28 0 54.333 -5.33301 79 -16s46.167 -25 64.5 -43s32.833 -39.167 43.5 -63.5s16 -50.5 16 -78.5s-5.33301 -54.333 -16 -79s-25.167 -46 -43.5 -64s-39.833 -32.167 -64.5 -42.5s-51 -15.5 -79 -15.5l-184 -1v-306h-104v709h288zM342 404
c14 0 27.167 2.83008 39.5 8.49707s23.166 13.167 32.499 22.5s16.666 20.5 21.999 33.5s8 26.833 8 41.5s-2.66699 28.334 -8 41.001s-12.666 23.834 -21.999 33.501s-20.166 17.334 -32.499 23.001s-25.5 8.5 -39.5 8.5h-184v-212h184z" />
    <glyph glyph-name="Q" unicode="Q" horiz-adv-x="794" 
d="M759 -9l-114.001 27l-50 49c-29.333 -22.667 -61.666 -41 -96.999 -55s-73 -21 -113 -21c-48 0 -93.333 9.66699 -136 29s-79.834 45.5 -111.501 78.5s-56.834 71.5 -75.501 115.5s-28 91 -28 141c0 49.333 9.33301 96.166 28 140.499s43.834 83 75.501 116
s68.834 59.167 111.501 78.5s88 29 136 29s93.333 -9.66699 136 -29s80 -45.5 112 -78.5s57.167 -71.667 75.5 -116s27.5 -91.166 27.5 -140.499c0 -42 -6.66699 -81.5 -20 -118.5s-31.333 -70.5 -54 -100.5l39 -40l82 -23zM588.999 209
c13.333 21.333 23.5 44.1689 30.5 68.502s10.5 50.166 10.5 77.499c0 36.667 -6.5 71 -19.5 103s-30.5 60 -52.5 84s-47.833 42.833 -77.5 56.5s-61.5 20.5 -95.5 20.5s-65.833 -6.83301 -95.5 -20.5s-55.5 -32.5 -77.5 -56.5s-39.333 -52 -52 -84s-19 -66.333 -19 -103
s6.33301 -71.334 19 -104.001s30 -61.167 52 -85.5s47.833 -43.5 77.5 -57.5s61.5 -21 95.5 -21c26 0 50.833 4.5 74.5 13.5s45.5 21.167 65.5 36.5l-92 92l69 69z" />
    <glyph glyph-name="R" unicode="R" horiz-adv-x="656" 
d="M641 0l-131 0.000976562l-223 306h-124v-306h-105v709h288c28 0 54.5 -5.33301 79.5 -16s46.667 -25 65 -43s32.833 -39.167 43.5 -63.5s16 -50.5 16 -78.5c0 -23.333 -3.66699 -45.333 -11 -66s-17.5 -39.334 -30.5 -56.001s-28.5 -31.167 -46.5 -43.5
s-37.667 -21.5 -59 -27.5zM346 404.001c14 0 27.333 2.83008 40 8.49707s23.5 13.167 32.5 22.5s16.167 20.5 21.5 33.5s8 26.833 8 41.5s-2.66699 28.334 -8 41.001s-12.5 23.834 -21.5 33.501s-19.833 17.334 -32.5 23.001s-26 8.5 -40 8.5h-183v-213z" />
    <glyph glyph-name="S" unicode="S" horiz-adv-x="580" 
d="M529 199c0 -30 -6.00293 -57.8311 -18.0029 -83.498s-29.667 -48.167 -53 -67.5c-46 -38.667 -105 -58 -177 -58c-56 0 -106.667 11.5 -152 34.5s-78.666 53.833 -99.999 92.5l89 46c13.333 -24 34.5 -42.5 63.5 -55.5s62.167 -19.5 99.5 -19.5c96.667 0 145 37 145 111
c0 14 -2.5 26 -7.5 36s-12.5 19.333 -22.5 28c-24 20 -67 38 -129 54c-37.333 9.33301 -69 19.666 -95 30.999s-47.667 24.666 -65 39.999c-42 34 -63 79 -63 135c0 28 5.5 54.167 16.5 78.5s26.5 45.5 46.5 63.5c20.667 18 44.834 31.5 72.501 40.5s58.167 13.5 91.5 13.5
c48.667 0 93.5 -9.33301 134.5 -28s72.167 -45 93.5 -79l-81 -50c-19.333 23.333 -41.666 39.833 -66.999 49.5s-52 14.5 -80 14.5c-20 0 -38.333 -3.33301 -55 -10s-30.667 -14.667 -42 -24c-9.33301 -8 -16.166 -17.833 -20.499 -29.5s-6.5 -24.167 -6.5 -37.5
c0 -8.66699 1.33301 -17.5 4 -26.5s9 -18.333 19 -28s24.667 -19 44 -28s45.666 -17.833 78.999 -26.5c40 -10 73.667 -20.833 101 -32.5s50.333 -25.5 69 -41.5c44 -36 66 -83.667 66 -143z" />
    <glyph glyph-name="T" unicode="T" horiz-adv-x="522" 
d="M197 615h-192v94h489v-94h-193v-615h-104v615z" />
    <glyph glyph-name="U" unicode="U" horiz-adv-x="634" 
d="M577 251c0 -36 -6.83496 -69.833 -20.502 -101.5s-32.167 -59.334 -55.5 -83.001s-50.666 -42.334 -81.999 -56.001s-65 -20.5 -101 -20.5s-69.667 6.83301 -101 20.5s-58.666 32.334 -81.999 56.001s-41.833 51.334 -55.5 83.001s-20.5 65.5 -20.5 101.5v458h104v-458
c0 -21.333 4 -41.666 12 -60.999s19 -36.5 33 -51.5s30.5 -26.833 49.5 -35.5s39.167 -13 60.5 -13s41.333 4.33301 60 13s35 20.5 49 35.5s25 32.167 33 51.5s12 39.666 12 60.999v458h105v-458z" />
    <glyph glyph-name="V" unicode="V" 
d="M308 0l-294 709h113l239 -575l239 575h113l-294 -709h-116z" />
    <glyph glyph-name="W" unicode="W" horiz-adv-x="957" 
d="M824 709h117l-213 -709h-102l-132 441l-17 80l-18 -84l-131 -437h-103l-213 709h115l146 -540l165 540h79l163 -535z" />
    <glyph glyph-name="X" unicode="X" horiz-adv-x="684" 
d="M403 381l253 -381h-125l-190 286l-191 -286h-125l253 381l-218 328h125l156 -234l155 234h125z" />
    <glyph glyph-name="Y" unicode="Y" horiz-adv-x="627" 
d="M259 332l-250 377h125l177 -266l177 266h126l-250 -377v-332h-105v332z" />
    <glyph glyph-name="Z" unicode="Z" horiz-adv-x="605" 
d="M34 0v85l373 530h-340v94h466v-85l-367 -527h387v-97h-519z" />
    <glyph glyph-name="bracketleft" unicode="[" horiz-adv-x="269" 
d="M46 809h206v-66h-140v-821h140v-66h-206v953z" />
    <glyph glyph-name="backslash" unicode="\" horiz-adv-x="500" 
d="M63 738l431 -728l-57 -33l-431 727z" />
    <glyph glyph-name="bracketright" unicode="]" horiz-adv-x="261" 
d="M10 809h206v-953h-206v66h140v821h-140v66z" />
    <glyph glyph-name="asciicircum" unicode="^" horiz-adv-x="418" 
d="M22 397l150 312h74l150 -312h-73l-114 236l-114 -236h-73z" />
    <glyph glyph-name="underscore" unicode="_" horiz-adv-x="592" 
d="M46 0h500v-66h-500v66z" />
    <glyph glyph-name="grave" unicode="`" horiz-adv-x="198" 
d="M140 709l24 -178h-79l-56 178h111z" />
    <glyph glyph-name="a" unicode="a" horiz-adv-x="553" 
d="M510 479l-0.000976562 -479.004h-82l-15 55c-16.667 -22 -38 -38.667 -64 -50s-52.333 -17 -79 -17c-33.333 0 -64.5 6.5 -93.5 19.5s-54.333 30.833 -76 53.5s-38.834 49.334 -51.501 80.001s-19 63.334 -19 98.001s6.33301 67.334 19 98.001
s29.834 57.334 51.501 80.001s47 40.5 76 53.5s60.167 19.5 93.5 19.5c26.667 0 52.334 -5.16699 77.001 -15.5s46.667 -26.5 66 -48.5l15 53h82zM269.999 73.9961c19.333 0 37.666 4.33301 54.999 13s32.333 20.5 45 35.5s22.667 32.5 30 52.5s11 41.333 11 64
s-3.66699 44 -11 64s-17.333 37.5 -30 52.5s-27.667 26.833 -45 35.5s-35.666 13 -54.999 13s-37.666 -4.33301 -54.999 -13s-32.333 -20.5 -45 -35.5s-22.667 -32.5 -30 -52.5s-11 -41.333 -11 -64s3.66699 -44 11 -64s17.333 -37.5 30 -52.5s27.667 -26.833 45 -35.5
s35.666 -13 54.999 -13z" />
    <glyph glyph-name="b" unicode="b" horiz-adv-x="583" 
d="M136 0l-77.002 0.00390625v730h97v-303c18.667 20 40.334 35.5 65.001 46.5s53.334 16.5 86.001 16.5c33.333 0 64.166 -6.5 92.499 -19.5s52.833 -30.833 73.5 -53.5s36.834 -49.334 48.501 -80.001s17.5 -63.334 17.5 -98.001s-5.83301 -67.334 -17.5 -98.001
s-27.834 -57.334 -48.501 -80.001s-45.167 -40.5 -73.5 -53.5s-59.166 -19.5 -92.499 -19.5c-31.333 0 -59.5 5.5 -84.5 16.5s-47.167 26.167 -66.5 45.5zM298.998 402.004c-19.333 0 -37.666 -2.83105 -54.999 -8.49805s-32.5 -15 -45.5 -28s-23.167 -29.833 -30.5 -50.5
s-11 -46 -11 -76c0 -28 3.66699 -52.333 11 -73s17.5 -37.834 30.5 -51.501s28.167 -23.834 45.5 -30.501s35.666 -10 54.999 -10s37.666 4.33301 54.999 13s32.333 20.5 45 35.5s22.667 32.5 30 52.5s11 41.333 11 64s-3.66699 44 -11 64s-17.333 37.333 -30 52
s-27.667 26.167 -45 34.5s-35.666 12.5 -54.999 12.5z" />
    <glyph glyph-name="c" unicode="c" horiz-adv-x="508" 
d="M276 -12c-33.333 0 -64.502 6.49609 -93.502 19.4961s-54.333 30.833 -76 53.5s-38.834 49.334 -51.501 80.001s-19 63.334 -19 98.001s6.33301 67.334 19 98.001s29.834 57.334 51.501 80.001s47 40.5 76 53.5s60.167 19.5 93.5 19.5
c38.667 0 74.334 -8.66699 107.001 -26s60 -41 82 -71l-68 -53c-13.333 19.333 -30.166 34.5 -50.499 45.5s-42.166 16.5 -65.499 16.5c-20 0 -39 -4.16699 -57 -12.5s-33.667 -19.833 -47 -34.5s-23.833 -32 -31.5 -52s-11.5 -41.333 -11.5 -64s3.83301 -44 11.5 -64
s18.167 -37.5 31.5 -52.5s29 -26.833 47 -35.5s37 -13 57 -13c26 0 49.667 7 71 21s38.666 32.667 51.999 56l66 -58c-21.333 -32 -49 -57.5 -83 -76.5s-71 -28.5 -111 -28.5z" />
    <glyph glyph-name="d" unicode="d" horiz-adv-x="579" 
d="M514 730v-730.004h-77l-20 50c-19.333 -19.333 -41.333 -34.5 -66 -45.5s-53 -16.5 -85 -16.5c-33.333 0 -64 6.5 -92 19.5s-52.333 30.833 -73 53.5s-36.834 49.334 -48.501 80.001s-17.5 63.334 -17.5 98.001s5.83301 67.334 17.5 98.001s27.834 57.334 48.501 80.001
s45 40.5 73 53.5s58.667 19.5 92 19.5s62.333 -5.5 87 -16.5s46 -26.5 64 -46.5v303h97zM274 73.9961c20 0 38.5 3.33105 55.5 9.99805s32 16.834 45 30.501s23.167 30.834 30.5 51.501s11 45 11 73c0 30 -3.66699 55.333 -11 76s-17.5 37.5 -30.5 50.5s-28 22.333 -45 28
s-35.5 8.5 -55.5 8.5c-19.333 0 -37.666 -4.16699 -54.999 -12.5s-32.333 -19.833 -45 -34.5s-22.667 -32 -30 -52s-11 -41.333 -11 -64s3.66699 -44 11 -64s17.333 -37.5 30 -52.5s27.667 -26.833 45 -35.5s35.666 -13 54.999 -13z" />
    <glyph glyph-name="e" unicode="e" horiz-adv-x="530" 
d="M283 -12c-34.667 0 -67.167 6.49707 -97.5 19.4971s-56.833 30.833 -79.5 53.5s-40.5 49.334 -53.5 80.001s-19.5 63.334 -19.5 98.001s6.16699 67.334 18.5 98.001s29 57.334 50 80.001s45.5 40.5 73.5 53.5s58 19.5 90 19.5c32.667 0 62.834 -5.66699 90.501 -17
s51.667 -29 72 -53s36.166 -54.5 47.499 -91.5s17 -81.167 17 -132.5h-356c4.66699 -17.333 12 -33.5 22 -48.5s21.833 -28 35.5 -39s29 -19.5 46 -25.5s34.833 -9 53.5 -9c25.333 0 48.833 4.66699 70.5 14s40.167 21.666 55.5 36.999l60 -60
c-23.333 -23.333 -51.833 -42 -85.5 -56s-70.5 -21 -110.5 -21zM265 401.997c-15.333 0 -29.832 -2.99902 -43.499 -8.99902s-26.334 -14.333 -38.001 -25s-21.667 -23.334 -30 -38.001s-14.5 -30.667 -18.5 -48h253c-1.33301 16 -5 31.333 -11 46s-14.333 27.5 -25 38.5
s-23.167 19.667 -37.5 26s-30.833 9.5 -49.5 9.5z" />
    <glyph glyph-name="f" unicode="f" horiz-adv-x="380" 
d="M125 0v392.001h-82v67l82 20v58c0 34 4.33301 63.5 13 88.5s20.5 45.5 35.5 61.5s32.167 27.833 51.5 35.5s40 11.5 62 11.5c27.333 0 55 -5.66699 83 -17v-71c-24 7.33301 -44.667 11 -62 11c-27.333 0 -48.5 -8.33301 -63.5 -25s-22.5 -43.334 -22.5 -80.001v-73h148
v-87h-148v-392h-97z" />
    <glyph glyph-name="g" unicode="g" horiz-adv-x="591" 
d="M274 24c-33.333 0 -63.999 6.16504 -91.999 18.498s-52.333 29.333 -73 51s-36.834 46.667 -48.501 75s-17.5 58.5 -17.5 90.5s5.83301 62 17.5 90s27.834 52.5 48.501 73.5s45 37.5 73 49.5s58.667 18 92 18s62.333 -5 87 -15s46.334 -24.333 65.001 -43l20 47h76v-7.5
v-17.5v-37v-66c0 -28 0.166992 -63 0.5 -105s0.5 -93 0.5 -153c0 -20 -0.666992 -39.5 -2 -58.5s-4.16602 -37.333 -8.49902 -55s-10.666 -34.667 -18.999 -51s-19.5 -32.166 -33.5 -47.499c-26.667 -28 -56.834 -46.833 -90.501 -56.5s-69.167 -14.5 -106.5 -14.5
c-32 0 -62.167 4 -90.5 12s-53.833 18.667 -76.5 32v108c13.333 -19.333 34.166 -35 62.499 -47s60.5 -18 96.5 -18c24 0 46.333 3.16699 67 9.5s38.667 16 54 29s27.5 29.833 36.5 50.5s13.5 45.334 13.5 74.001v19c-8 -7.33301 -17.833 -14.333 -29.5 -21
s-24.334 -12.5 -38.001 -17.5s-27.834 -9 -42.501 -12s-28.667 -4.5 -42 -4.5zM283.001 401.998c-19.333 0 -37.666 -3.66602 -54.999 -10.999s-32.5 -17.5 -45.5 -30.5s-23.167 -28.167 -30.5 -45.5s-11 -36 -11 -56s3.66699 -38.833 11 -56.5s17.5 -33 30.5 -46
s28.167 -23.333 45.5 -31s35.666 -11.5 54.999 -11.5s37.666 3 54.999 9s32.333 15 45 27s22.667 27 30 45s11 39.333 11 64c0 26 -3.66699 48.167 -11 66.5s-17.333 33.166 -30 44.499s-27.667 19.5 -45 24.5s-35.666 7.5 -54.999 7.5z" />
    <glyph glyph-name="h" unicode="h" horiz-adv-x="542" 
d="M153 0l-96.999 0.00390625v730h97v-295c18 20 36.833 34.167 56.5 42.5s42.5 12.5 68.5 12.5c33.333 0 63.166 -6.5 89.499 -19.5s48.833 -30.833 67.5 -53.5s32.834 -49.334 42.501 -80.001s14.5 -63.334 14.5 -98.001v-239h-98v239c0 22.667 -3.16699 44 -9.5 64
s-15 37.333 -26 52s-23.667 26.167 -38 34.5s-29.833 12.5 -46.5 12.5c-14 0 -28 -2.83301 -42 -8.5s-26.833 -14.834 -38.5 -27.501s-21.334 -29.334 -29.001 -50.001s-11.5 -45.667 -11.5 -75v-241z" />
    <glyph glyph-name="i" unicode="i" horiz-adv-x="210" 
d="M157 0h-97v479h96zM108 583c-17.333 0 -32 6.16699 -44 18.5s-18 27.166 -18 44.499s6 32 18 44s26.667 18 44 18s32 -6 44 -18s18 -26.667 18 -44s-6 -32.166 -18 -44.499s-26.667 -18.5 -44 -18.5z" />
    <glyph glyph-name="j" unicode="j" horiz-adv-x="238" 
d="M79 479h96.9971v-512c0 -44 -6.5 -78.167 -19.5 -102.5s-30.167 -41.5 -51.5 -51.5s-45.333 -14 -72 -12s-53.667 7.66699 -81 17l18 72c20.667 -2.66699 37.834 -4 51.501 -4s24.834 2.33301 33.501 7s14.834 11.667 18.501 21s5.5 22 5.5 38v527zM125.997 708
c17.333 0 32.166 -6 44.499 -18s18.5 -26.667 18.5 -44s-6.16699 -32.166 -18.5 -44.499s-27.166 -18.5 -44.499 -18.5s-32 6.16699 -44 18.5s-18 27.166 -18 44.499s6 32 18 44s26.667 18 44 18z" />
    <glyph glyph-name="k" unicode="k" horiz-adv-x="500" 
d="M158 0h-97v730h97v-448l188 197h120l-184 -193l198 -286h-110l-151 220l-61 -64v-156z" />
    <glyph glyph-name="l" unicode="l" horiz-adv-x="212" 
d="M158 730v-730h-97v730h97z" />
    <glyph glyph-name="m" unicode="m" horiz-adv-x="738" 
d="M153 0l-96.999 0.00292969v479h77l20 -41c12 14 26.333 26.167 43 36.5s37 15.5 61 15.5c9.33301 0 19.833 -1.16699 31.5 -3.5s23.667 -6.33301 36 -12s24.166 -13.334 35.499 -23.001s21 -22.167 29 -37.5c11.333 20.667 28.5 38.5 51.5 53.5s47.5 22.5 73.5 22.5
c17.333 0 35.666 -2.66699 54.999 -8s37.333 -15.333 54 -30s30.334 -35 41.001 -61s16 -59.667 16 -101v-290h-91v291c0 41.333 -8.5 70.166 -25.5 86.499s-39.5 24.5 -67.5 24.5c-21.333 0 -40 -9 -56 -27s-24 -46.333 -24 -85v-290h-91v291
c0 41.333 -8.5 70.166 -25.5 86.499s-39.5 24.5 -67.5 24.5c-20 0 -37.5 -7.66699 -52.5 -23s-23.833 -39.333 -26.5 -72v-307z" />
    <glyph glyph-name="n" unicode="n" horiz-adv-x="534" 
d="M151 0l-97.001 -0.000976562v479h77l20 -42c16 15.333 35.333 28 58 38s47.334 15 74.001 15c17.333 0 37 -2.66699 59 -8s42.5 -15.333 61.5 -30s35 -35 48 -61s19.5 -59.667 19.5 -101v-290h-92v291c0 20.667 -3.16699 38.167 -9.5 52.5s-14.666 25.833 -24.999 34.5
s-22 14.834 -35 18.501s-26.5 5.5 -40.5 5.5c-10.667 0 -22.834 -2 -36.501 -6s-26.5 -10.5 -38.5 -19.5s-22.167 -20.333 -30.5 -34s-12.5 -30.5 -12.5 -50.5v-292z" />
    <glyph glyph-name="o" unicode="o" horiz-adv-x="528" 
d="M266 -12c-33.333 0 -64.5 6.5 -93.5 19.5s-54.333 30.833 -76 53.5s-38.834 49.334 -51.501 80.001s-19 63.334 -19 98.001s6.33301 67.334 19 98.001s29.834 57.334 51.501 80.001s47 40.5 76 53.5s60.167 19.5 93.5 19.5c32.667 0 63.667 -6.5 93 -19.5
s54.833 -30.833 76.5 -53.5s38.834 -49.334 51.501 -80.001s19 -63.334 19 -98.001s-6.33301 -67.334 -19 -98.001s-29.834 -57.334 -51.501 -80.001s-47.167 -40.5 -76.5 -53.5s-60.333 -19.5 -93 -19.5zM266 403c-19.333 0 -37.666 -4.33301 -54.999 -13
s-32.5 -20.334 -45.5 -35.001s-23.167 -32 -30.5 -52s-11 -41.333 -11 -64s3.66699 -44 11 -64s17.5 -37.5 30.5 -52.5s28.167 -26.833 45.5 -35.5s35.666 -13 54.999 -13s37.666 4.33301 54.999 13s32.333 20.5 45 35.5s22.667 32.5 30 52.5s11 41.333 11 64
s-3.66699 44 -11 64s-17.333 37.333 -30 52s-27.667 26.334 -45 35.001s-35.666 13 -54.999 13z" />
    <glyph glyph-name="p" unicode="p" horiz-adv-x="564" 
d="M56 -198l0.00195312 677.004h77l20 -50c19.333 19.333 41.5 34.333 66.5 45s53.167 16 84.5 16c33.333 0 64.166 -6.5 92.499 -19.5s52.833 -30.833 73.5 -53.5s36.834 -49.334 48.501 -80.001s17.5 -63.334 17.5 -98.001s-5.83301 -67.334 -17.5 -98.001
s-27.834 -57.334 -48.501 -80.001s-45.167 -40.5 -73.5 -53.5s-59.166 -19.5 -92.499 -19.5c-32.667 0 -61.334 5.5 -86.001 16.5s-46.334 26.833 -65.001 47.5v-250h-97zM296.002 402.004c-19.333 0 -37.666 -3.16699 -54.999 -9.5s-32.5 -16.333 -45.5 -30
s-23.167 -30.667 -30.5 -51s-11 -44.5 -11 -72.5c0 -30 3.66699 -55.5 11 -76.5s17.5 -38 30.5 -51s28.167 -22.5 45.5 -28.5s35.666 -9 54.999 -9s37.666 4.33301 54.999 13s32.333 20.5 45 35.5s22.667 32.5 30 52.5s11 41.333 11 64s-3.66699 44 -11 64
s-17.333 37.333 -30 52s-27.667 26.167 -45 34.5s-35.666 12.5 -54.999 12.5z" />
    <glyph glyph-name="q" unicode="q" horiz-adv-x="568" 
d="M510 -198l-97 -0.00390625v250c-18 -20.667 -39.333 -36.5 -64 -47.5s-53.667 -16.5 -87 -16.5s-64 6.5 -92 19.5s-52.333 30.833 -73 53.5s-36.834 49.334 -48.501 80.001s-17.5 63.334 -17.5 98.001s5.83301 67.334 17.5 98.001s27.834 57.334 48.501 80.001
s45 40.5 73 53.5s58.667 19.5 92 19.5c32 0 60.333 -5.33301 85 -16s46.667 -25.667 66 -45l20 50h77v-677zM271 73.9961c19.333 0 37.666 3 54.999 9s32.333 15.5 45 28.5s22.667 30 30 51s11 46.5 11 76.5c0 28 -3.66699 52.167 -11 72.5s-17.333 37.333 -30 51
s-27.667 23.667 -45 30s-35.666 9.5 -54.999 9.5c-20 0 -38.5 -4.16699 -55.5 -12.5s-32 -19.833 -45 -34.5s-23.167 -32 -30.5 -52s-11 -41.333 -11 -64s3.66699 -44 11 -64s17.5 -37.5 30.5 -52.5s28 -26.833 45 -35.5s35.5 -13 55.5 -13z" />
    <glyph glyph-name="r" unicode="r" horiz-adv-x="378" 
d="M345 390l-14 6.00098c-4 1.33301 -8.66699 2.66602 -14 3.99902s-11 2 -17 2c-19.333 0 -37.333 -3.16699 -54 -9.5s-31 -14.833 -43 -25.5s-21.5 -23.167 -28.5 -37.5s-10.5 -29.5 -10.5 -45.5l-1 -284h-97v479h77l20 -53c13.333 19.333 30.833 34.833 52.5 46.5
s48.834 17.5 81.501 17.5c21.333 0 45.666 -3 72.999 -9l-25 -91v0z" />
    <glyph glyph-name="s" unicode="s" horiz-adv-x="430" 
d="M279 100c6 5.33301 11.3281 11.335 15.9951 18.002s7 14.334 7 23.001c0 10.667 -3.83301 19.667 -11.5 27s-17 13.5 -28 18.5s-22.5 8.83301 -34.5 11.5s-22 5 -30 7c-22 5.33301 -42.667 11.833 -62 19.5s-36.166 17 -50.499 28s-25.666 24 -33.999 39
s-12.5 32.833 -12.5 53.5c0 19.333 4.66699 37.5 14 54.5s21.833 32 37.5 45s34 23.333 55 31s43.167 11.5 66.5 11.5c20.667 0 40.334 -3 59.001 -9s35.5 -14.167 50.5 -24.5s27.667 -22.833 38 -37.5s17.166 -31 20.499 -49l-87 -21c-4 16 -12.667 29.333 -26 40
s-31.666 16 -54.999 16c-8 0 -16.333 -1.16699 -25 -3.5s-16.667 -5.83301 -24 -10.5s-13.5 -10.334 -18.5 -17.001s-7.5 -14.334 -7.5 -23.001c0 -9.33301 2.83301 -17.333 8.5 -24s12.5 -12.167 20.5 -16.5s16.667 -7.83301 26 -10.5s18 -5 26 -7
c35.333 -8.66699 64.666 -18 87.999 -28s42 -21 56 -33s23.833 -25.167 29.5 -39.5s8.5 -30.5 8.5 -48.5c0 -21.333 -4.83301 -41.333 -14.5 -60s-23 -34.834 -40 -48.501s-37.333 -24.334 -61 -32.001s-49.167 -11.5 -76.5 -11.5c-41.333 0 -78.166 10.167 -110.499 30.5
s-54.166 47.5 -65.499 81.5l82 37c10.667 -23.333 24.334 -39.166 41.001 -47.499s35.667 -12.5 57 -12.5c26.667 0 49 7.33301 67 22z" />
    <glyph glyph-name="t" unicode="t" horiz-adv-x="342" 
d="M316 1c-27.333 -9.33301 -54.335 -15 -81.002 -17s-50.667 1.83301 -72 11.5s-38.666 26.667 -51.999 51s-20 58.5 -20 102.5v243h-70v67l70 20v128h97v-128h130v-87h-130v-258c0 -16 1.83301 -28.667 5.5 -38s9.83398 -16.333 18.501 -21s20 -7 34 -7s31 1.33301 51 4
l19 -71v0z" />
    <glyph glyph-name="u" unicode="u" horiz-adv-x="535" 
d="M380 43c-16.667 -15.333 -36.167 -28.001 -58.5 -38.001s-47.166 -15 -74.499 -15c-17.333 0 -37 2.5 -59 7.5s-42.5 14.833 -61.5 29.5s-35 34.834 -48 60.501s-19.5 59.167 -19.5 100.5v291h92v-291c0 -20.667 3.16699 -38.167 9.5 -52.5s14.666 -25.833 24.999 -34.5
s22.166 -15 35.499 -19s27 -6 41 -6c10.667 0 22.834 2 36.501 6s26.5 10.5 38.5 19.5s22.167 20.5 30.5 34.5s12.5 31 12.5 51v292h97v-479h-77z" />
    <glyph glyph-name="v" unicode="v" horiz-adv-x="552" 
d="M339 0h-129l-198 479h105l158 -381l158 381h105z" />
    <glyph glyph-name="w" unicode="w" horiz-adv-x="776" 
d="M175 0l-161 479h103l112 -362l118 362h86l118 -359l111 359h103l-161 -479h-106l-100 293l-8 46l-8 -46l-99 -293h-108z" />
    <glyph glyph-name="x" unicode="x" horiz-adv-x="518" 
d="M502 0h-118l-123 168l-124 -168h-118l183 248l-170 231h118l111 -150l110 150h118l-169 -231z" />
    <glyph glyph-name="y" unicode="y" horiz-adv-x="535" 
d="M213 54l-203 425h108l148 -311l145 311h107l-309 -670h-107z" />
    <glyph glyph-name="z" unicode="z" horiz-adv-x="451" 
d="M157 86h263v-86h-399v69l261 323h-240v87h374v-73z" />
    <glyph glyph-name="braceleft" unicode="{" horiz-adv-x="309" 
d="M213 498c0 -15.333 -0.49707 -30.499 -1.49707 -45.499s-5.16699 -29.5 -12.5 -43.5c-9.33301 -18 -21.833 -33.333 -37.5 -46s-32.834 -21.667 -51.501 -27c4 0 8.66699 -1.83301 14 -5.5s9.66602 -6.16699 12.999 -7.5c4 -2.66699 8 -5.16699 12 -7.5
s7.66699 -5.16602 11 -8.49902c12 -11.333 22.333 -24.333 31 -39s14.5 -29.667 17.5 -45s4.5 -31.333 4.5 -48v-195c0 -18 4.66699 -34.667 14 -50s26.333 -23 51 -23v-58c-18 0 -35 3.5 -51 10.5s-29.833 16.333 -41.5 28s-21 25.5 -28 41.5s-10.5 33 -10.5 51v214
c0 3.33301 -1.33301 10.666 -4 21.999s-8.83398 23.166 -18.501 35.499s-24 23.833 -43 34.5s-44.833 17 -77.5 19v66c33.333 2 59.5 7.5 78.5 16.5s33.333 18.667 43 29s15.667 20 18 29s3.5 14.167 3.5 15.5v220c0 18 3.5 35 10.5 51s16.333 29.833 28 41.5
s25.5 21 41.5 28s33 10.5 51 10.5v-58c-22.667 0 -39.167 -7.66699 -49.5 -23s-15.5 -32 -15.5 -50v-183z" />
    <glyph glyph-name="bar" unicode="|" horiz-adv-x="156" 
d="M46 795h66v-946h-66v946z" />
    <glyph glyph-name="braceright" unicode="}" horiz-adv-x="308" 
d="M95 164c0 15.333 0.496094 30.3359 1.49609 45.0029s5.16699 29 12.5 43c4 7.33301 9.33301 15.166 16 23.499s14 16.166 22 23.499s16.5 13.5 25.5 18.5s17.5 7.5 25.5 7.5c-3.33301 0 -8 1.83301 -14 5.5s-10.333 6.16699 -13 7.5l-12 8
c-4 2.66699 -7.66699 5.66699 -11 9c-13.333 12 -23.666 25 -30.999 39c-9.33301 15.333 -15.5 31.666 -18.5 48.999s-4.5 35 -4.5 53c0 15.333 0.166992 30.833 0.5 46.5s0.5 31.167 0.5 46.5v92c0 18 -4.66699 34.667 -14 50s-26.333 23 -51 23v58c18 0 35 -3.5 51 -10.5
s29.833 -16.333 41.5 -28s21 -25.5 28 -41.5s10.5 -33 10.5 -51v-214c0 -3.33301 1.33301 -10.5 4 -21.5s8.66699 -22.833 18 -35.5s23.5 -24.167 42.5 -34.5s45.167 -16.5 78.5 -18.5v-67c-33.333 -1.33301 -59.666 -6.5 -78.999 -15.5s-33.666 -18.833 -42.999 -29.5
s-15.166 -20.5 -17.499 -29.5s-3.5 -14.167 -3.5 -15.5v-220c0 -18 -3.5 -35 -10.5 -51s-16.333 -29.833 -28 -41.5s-25.5 -21 -41.5 -28s-33 -10.5 -51 -10.5v58c22.667 0 39.167 7.66699 49.5 23s15.5 32 15.5 50v184z" />
    <glyph glyph-name="asciitilde" unicode="~" horiz-adv-x="577" 
d="M384 290c14.667 0 29.3291 2.8291 43.9961 8.49609s27.834 11.834 39.501 18.501s21.334 13 29.001 19l11.5 9l21 -19l12 -11.5c4.66699 -4.33301 6.66699 -6.83301 6 -7.5c-3.33301 -3.33301 -10 -9.66602 -20 -18.999s-22.167 -18.666 -36.5 -27.999
s-30.666 -17.666 -48.999 -24.999s-37.5 -11 -57.5 -11c-23.333 0 -42.666 4.33301 -57.999 13s-29.666 17.667 -42.999 27c-12.667 9.33301 -25.334 17.333 -38.001 24s-28.667 10 -48 10c-21.333 0 -42 -5.5 -62 -16.5s-35.667 -26.167 -47 -45.5l-57 33
c0.666992 0.666992 4.5 6.16699 11.5 16.5s17.333 21.166 31 32.499s30.667 21.833 51 31.5s44.5 14.5 72.5 14.5c30 0 54.667 -5.16699 74 -15.5s36.333 -20.833 51 -31.5l4 -3c10 -7.33301 19.333 -13.166 28 -17.499s18.667 -6.5 30 -6.5z" />
    <glyph glyph-name="exclamdown" unicode="&#xa1;" horiz-adv-x="281" 
d="M184 316l13 -545h-113l12 545h88zM140 490c17.333 0 32.166 -6 44.499 -18s18.5 -26.667 18.5 -44s-6.16699 -32.166 -18.5 -44.499s-27.166 -18.5 -44.499 -18.5s-32 6.16699 -44 18.5s-18 27.166 -18 44.499s6 32 18 44s26.667 18 44 18z" />
    <glyph glyph-name="cent" unicode="&#xa2;" horiz-adv-x="452" 
d="M322 180c20.667 14.667 37.333 32.6699 50 54.0029l63 -55c-20.667 -30.667 -47 -55 -79 -73c-22 -12.667 -46.333 -21 -73 -25v-75h-74v76c-16.667 2.66699 -33 7.66699 -49 15c-27.333 12 -51.333 29 -72 51c-21.333 23.333 -37.666 48.666 -48.999 75.999
c-12 30 -18 61.333 -18 94s6 63.667 18 93c6 15.333 13.167 29.166 21.5 41.499s17.5 24.166 27.5 35.499c10.667 10.667 22 20.334 34 29.001s24.667 16 38 22c16 7.33301 32.333 12.333 49 15v99h74v-98c24.667 -4 47.667 -11.333 69 -22c32 -17.333 58 -40 78 -68
l-65 -51c-13.333 18.667 -29.333 33.667 -48 45c-10 5.33301 -21.333 9.66602 -34 12.999v-308c7.33301 1.33301 14.166 3.5 20.499 6.5s12.5 6.16699 18.5 9.5zM199.999 173.003c2 -1.33301 5 -2.66895 9 -4.00195v298c-4 -1.33301 -7 -2.66602 -9 -3.99902
c-16 -7.33301 -31 -18.666 -45 -33.999c-12.667 -14 -22.667 -30.667 -30 -50c-7.33301 -20 -11 -40.333 -11 -61s3.66699 -41 11 -61c7.33301 -19.333 17.333 -36 30 -50c12.667 -14.667 27.667 -26 45 -34z" />
    <glyph glyph-name="sterling" unicode="&#xa3;" horiz-adv-x="536" 
d="M343 93c12 0 24.6709 2.16699 38.0039 6.5s25.833 9.33301 37.5 15s22.167 11.5 31.5 17.5s16.666 11 21.999 15l57 -72c-1.33301 -0.666992 -7.5 -5 -18.5 -13s-25.167 -16.5 -42.5 -25.5s-36.833 -17.333 -58.5 -25s-43.834 -11.5 -66.501 -11.5h-276l3 48
c0 1.33301 0.166992 2.66602 0.5 3.99902s0.5 3.33301 0.5 6s0.166992 5.5 0.5 8.5s0.5 6.16699 0.5 9.5l5 62l10 138h-67v92h72c0.666992 11.333 1.16699 23 1.5 35l1 34.5c0.333008 11 0.666016 20.833 0.999023 29.5s0.5 15.667 0.5 21c0 46 7 83.5 21 112.5
s31.167 51.5 51.5 67.5s41.666 27 63.999 33s41.833 9 58.5 9c34 0 63.167 -6.66699 87.5 -20s44.666 -29.5 60.999 -48.5s29 -39 38 -60s15.167 -39.5 18.5 -55.5l-91 -17c-0.666992 2.66699 -2.66699 9.83398 -6 21.501s-9.33301 24 -18 37s-20.167 24.667 -34.5 35
s-32.833 15.5 -55.5 15.5c-13.333 0 -26.166 -2.5 -38.499 -7.5s-23.333 -12.833 -33 -23.5s-17.5 -24.167 -23.5 -40.5s-9 -35.833 -9 -58.5c0 -10.667 -0.5 -27.5 -1.5 -50.5s-2.16699 -46.167 -3.5 -69.5h195v-92h-201l-4 -74l-3 -52
c-0.666992 -10.667 -1 -21.167 -1 -31.5s-0.333008 -18.833 -1 -25.5h176v0z" />
    <glyph glyph-name="yen" unicode="&#xa5;" horiz-adv-x="637" 
d="M533 201h-162v-201h-105v201h-159v45h159v85h-159v46h129l-220 332h125l177 -266l177 266h126l-220 -332h132v-46h-162v-85h162v-45z" />
    <glyph glyph-name="section" unicode="&#xa7;" horiz-adv-x="519" 
d="M489 -14c0 -56.667 -21.667 -103 -65 -139c-41.333 -35.333 -95.333 -53 -162 -53c-51.333 0 -97.833 10.5 -139.5 31.5s-72.167 49.167 -91.5 84.5l81 42c12 -21.333 31.5 -38 58.5 -50s57.5 -18 91.5 -18c88.667 0 133 34 133 102c0 24 -9.33301 43.333 -28 58
c-20.667 17.333 -60 34 -118 50c-34 8.66699 -63 18.167 -87 28.5s-43.667 22.166 -59 35.499c-39.333 32 -59 73.667 -59 125c0 25.333 5.16699 49 15.5 71s24.833 41.333 43.5 58c6.66699 6 14.667 12 24 18c-4.66699 2.66699 -9 5.5 -13 8.5s-7.66699 6.16699 -11 9.5
c-39.333 31.333 -59 72.666 -59 123.999c0 25.333 5.16699 49.166 15.5 71.499s24.833 41.5 43.5 57.5c18.667 17.333 40.667 30 66 38s53 12 83 12c44.667 0 85.834 -8.5 123.501 -25.5s66.167 -41.167 85.5 -72.5l-74 -46c-17.333 21.333 -37.833 36.5 -61.5 45.5
s-48.167 13.5 -73.5 13.5c-18 0 -34.667 -3 -50 -9s-28 -13.333 -38 -22c-8.66699 -7.33301 -15 -16.5 -19 -27.5s-6 -22.5 -6 -34.5c0 -8 1.33301 -16.167 4 -24.5s8.5 -16.666 17.5 -24.999s22.333 -16.833 40 -25.5s41.5 -17 71.5 -25
c36.667 -9.33301 67.667 -19.166 93 -29.499s46.666 -22.833 63.999 -37.5c40 -33.333 60 -77 60 -131c0 -56.667 -21.667 -102.667 -65 -138l-11 -9l16 -12c40 -33.333 60 -76.666 60 -129.999zM367 333c-18.667 15.333 -47.665 28.999 -86.998 40.999
c-4.66699 0.666992 -9.33398 1.16699 -14.001 1.5s-9.33398 0.5 -14.001 0.5c-18 0 -34.667 -2.83301 -50 -8.5s-28 -13.167 -38 -22.5c-8.66699 -7.33301 -15 -16.5 -19 -27.5s-6 -22.5 -6 -34.5c0 -7.33301 1.33301 -15.166 4 -23.499s8.5 -16.833 17.5 -25.5
s22.333 -17.167 40 -25.5s41.5 -16.5 71.5 -24.5l31 -8c61.333 10 92 43 92 99c0 13.333 -2.33301 24.5 -7 33.5s-11.667 17.167 -21 24.5z" />
    <glyph glyph-name="dieresis" unicode="&#xa8;" horiz-adv-x="437" 
d="M103 742c-17.333 0 -32 6.16699 -44 18.5s-18 27.166 -18 44.499s6 32 18 44s26.667 18 44 18s32 -6 44 -18s18 -26.667 18 -44s-6 -32.166 -18 -44.499s-26.667 -18.5 -44 -18.5zM334 742c-17.333 0 -32 6.16699 -44 18.5s-18 27.166 -18 44.499s6 32 18 44
s26.667 18 44 18s32 -6 44 -18s18 -26.667 18 -44s-6 -32.166 -18 -44.499s-26.667 -18.5 -44 -18.5z" />
    <glyph glyph-name="copyright" unicode="&#xa9;" horiz-adv-x="817" 
d="M478 208c9.33301 5.33301 17.833 11.168 25.5 17.501s14.167 13.833 19.5 22.5l41 -38c-9.33301 -10 -19.166 -19.333 -29.499 -28s-21.833 -16.334 -34.5 -23.001c-25.333 -13.333 -52 -20 -80 -20c-25.333 0 -50.333 5.33301 -75 16
c-22.667 10.667 -42.667 25.334 -60 44.001c-18.667 18.667 -32.667 39.667 -42 63c-10 24 -15 49.333 -15 76c0 27.333 5 53 15 77s24 45 42 63c18 19.333 38 33.666 60 42.999c22 10.667 47 16 75 16c23.333 0 46 -4.66699 68 -14c22 -10 41.667 -22.667 59 -38l-35 -43
c-10.667 12 -24.334 22.333 -41.001 31c-16 8 -33 12 -51 12c-18.667 0 -36 -4 -52 -12c-15.333 -6.66699 -29.666 -17 -42.999 -31c-11.333 -13.333 -21 -29 -29 -47c-6.66699 -17.333 -10 -36.333 -10 -57s3.33301 -39.667 10 -57c8.66699 -18 18.334 -33.333 29.001 -46
c13.333 -14 27.666 -24.333 42.999 -31c16 -8 33.333 -12 52 -12c19.333 0 38.666 5.33301 57.999 16zM409 677.002c46.667 0 90.5 -8.83301 131.5 -26.5s76.833 -41.834 107.5 -72.501s54.834 -66.667 72.501 -108s26.5 -85.333 26.5 -132s-8.83301 -90.5 -26.5 -131.5
s-41.834 -76.833 -72.501 -107.5s-66.5 -54.834 -107.5 -72.501s-84.833 -26.5 -131.5 -26.5s-90.667 8.83301 -132 26.5s-77.333 41.834 -108 72.501s-54.834 66.5 -72.501 107.5s-26.5 84.833 -26.5 131.5s8.83301 90.667 26.5 132s41.834 77.333 72.501 108
s66.667 54.834 108 72.501s85.333 26.5 132 26.5zM409 59.002c38.667 0 74.834 7.33301 108.501 22s63.167 34.667 88.5 60s45.333 54.833 60 88.5s22 69.834 22 108.501s-7.33301 75 -22 109s-34.667 63.667 -60 89s-54.833 45.333 -88.5 60s-69.834 22 -108.501 22
s-75 -7.33301 -109 -22s-63.667 -34.667 -89 -60s-45.333 -55 -60 -89s-22 -70.333 -22 -109s7.33301 -74.834 22 -108.501s34.667 -63.167 60 -88.5s55 -45.333 89 -60s70.333 -22 109 -22z" />
    <glyph glyph-name="guillemotleft" unicode="&#xab;" horiz-adv-x="460" 
d="M82 300l161 -143v-110l-227 209v89l227 219v-109zM305 300l126 -102v-112l-195 168v91l191 173v-109z" />
    <glyph glyph-name="logicalnot" unicode="&#xac;" horiz-adv-x="515" 
d="M6 414h463v-263h-66v197h-397v66z" />
    <glyph glyph-name="registered" unicode="&#xae;" horiz-adv-x="816" 
d="M506 332c-9.33301 -6.66699 -19.667 -12.001 -31 -16.001l115 -153l-58 -18l-121 167h-68v-167h-57v387h157c15.333 0 29.666 -3 42.999 -9c14 -6 26 -14 36 -24s18 -21.333 24 -34c2.66699 -7.33301 4.83398 -14.5 6.50098 -21.5s2.5 -14.167 2.5 -21.5
c0 -14 -2.33301 -26 -7 -36c-1.33301 -5.33301 -3.5 -10.666 -6.5 -15.999s-6.16699 -10.333 -9.5 -15c-7.33301 -9.33301 -16 -17 -26 -23zM442.999 364.999c6.66699 0 14 1.66797 22 5.00098c6.66699 2.66699 12.667 6.66699 18 12c2 3.33301 4 6.33301 6 9
s3.66699 5.66699 5 9c3.33301 8 5 15.667 5 23c0 8 -1.66699 15.333 -5 22c-1.33301 3.33301 -3 6.66602 -5 9.99902s-4 6.33301 -6 9c-4 4 -10 8.33301 -18 13c-3.33301 1.33301 -6.83301 2.33301 -10.5 3s-7.5 1 -11.5 1h-100v-116h100zM407.999 677
c46.667 0 90.5 -8.83301 131.5 -26.5s76.833 -41.834 107.5 -72.501s54.834 -66.667 72.501 -108s26.5 -85.333 26.5 -132s-8.83301 -90.5 -26.5 -131.5s-41.834 -76.833 -72.501 -107.5s-66.5 -54.834 -107.5 -72.501s-84.833 -26.5 -131.5 -26.5
s-90.5 8.83301 -131.5 26.5s-76.833 41.834 -107.5 72.501s-54.834 66.5 -72.501 107.5s-26.5 84.833 -26.5 131.5s8.83301 90.667 26.5 132s41.834 77.333 72.501 108s66.5 54.834 107.5 72.501s84.833 26.5 131.5 26.5zM407.999 59c38.667 0 74.834 7.33301 108.501 22
s63.167 34.667 88.5 60s45.333 54.833 60 88.5s22 69.834 22 108.501s-7.33301 75 -22 109s-34.667 63.667 -60 89s-54.833 45.333 -88.5 60s-69.834 22 -108.501 22s-75 -7.33301 -109 -22s-63.667 -34.667 -89 -60s-45.333 -55 -60 -89s-22 -70.333 -22 -109
s7.33301 -74.834 22 -108.501s34.667 -63.167 60 -88.5s55 -45.333 89 -60s70.333 -22 109 -22z" />
    <glyph glyph-name="degree" unicode="&#xb0;" horiz-adv-x="368" 
d="M184 660c20.667 0 40.334 -4 59.001 -12s34.834 -18.833 48.501 -32.5s24.5 -29.834 32.5 -48.501s12 -38.334 12 -59.001c0 -21.333 -4 -41.166 -12 -59.499s-18.833 -34.5 -32.5 -48.5s-29.834 -25 -48.501 -33s-38.334 -12 -59.001 -12
c-21.333 0 -41.166 4 -59.499 12s-34.333 19 -48 33s-24.5 30.167 -32.5 48.5s-12 38.166 -12 59.499c0 20.667 4 40.334 12 59.001s18.833 34.834 32.5 48.501s29.667 24.5 48 32.5s38.166 12 59.499 12zM184 421c24 0 44.502 8.5 61.502 25.5s25.5 37.5 25.5 61.5
c0 12 -2.33301 23.167 -7 33.5s-10.834 19.333 -18.501 27s-16.834 13.834 -27.501 18.501s-22 7 -34 7s-23.167 -2.33301 -33.5 -7s-19.5 -10.834 -27.5 -18.501s-14.167 -16.667 -18.5 -27s-6.5 -21.5 -6.5 -33.5c0 -24 8.33301 -44.5 25 -61.5s37 -25.5 61 -25.5z" />
    <glyph glyph-name="plusminus" unicode="&#xb1;" horiz-adv-x="511" 
d="M297 347h200v-66h-200v-169h-78v169h-205v66h205v169h78v-169zM497 66v-66h-483v66h483z" />
    <glyph glyph-name="acute" unicode="&#xb4;" horiz-adv-x="196" 
d="M176 709l-56 -178h-79l24 178h111z" />
    <glyph glyph-name="paragraph" unicode="&#xb6;" horiz-adv-x="587" 
d="M557 709v-73.998h-89v-790h-74v790h-105v-790h-74v478c-26.667 0 -51.667 5 -75 15s-43.833 23.833 -61.5 41.5s-31.5 38.167 -41.5 61.5s-15 48.333 -15 75s5 51.667 15 75s23.833 43.666 41.5 60.999s38.167 31.166 61.5 41.499s48.333 15.5 75 15.5h342z" />
    <glyph glyph-name="periodcentered" unicode="&#xb7;" horiz-adv-x="186" 
d="M168 478l-56 -178h-79l24 178h111z" />
    <glyph glyph-name="cedilla" unicode="&#xb8;" horiz-adv-x="319" 
d="M114 -79c-12 0 -23.332 -2.99902 -33.999 -8.99902l-29 28l87 125h49l-72 -112c31.333 6 54.666 3 69.999 -9s23 -28 23 -48c0 -25.333 -9.33301 -43.833 -28 -55.5s-40.667 -17.5 -66 -17.5c-7.33301 0 -15.666 0.333008 -24.999 1s-17.333 1.66699 -24 3
c1.33301 5.33301 2.66602 11 3.99902 17s2.66602 11.667 3.99902 17c3.33301 -0.666992 7 -1.16699 11 -1.5s8.66699 -0.5 14 -0.5c14 0 26.167 2.5 36.5 7.5s15.5 13.167 15.5 24.5c0 9.33301 -3.16699 16.666 -9.5 21.999s-15.166 8 -26.499 8z" />
    <glyph glyph-name="guillemotright" unicode="&#xbb;" horiz-adv-x="461" 
d="M218 455v109l227 -219v-89l-227 -209v110l161 143zM34 409v109l191 -173v-91l-195 -168v112l126 102z" />
    <glyph glyph-name="questiondown" unicode="&#xbf;" horiz-adv-x="463" 
d="M313 365c-17.333 0 -32 6.16699 -44 18.5s-18 27.166 -18 44.499s6 32 18 44s26.667 18 44 18s32 -6 44 -18s18 -26.667 18 -44s-6 -32.166 -18 -44.499s-26.667 -18.5 -44 -18.5zM287 -144c23.333 0 44.332 2.17188 62.999 6.50488s36.667 13.833 54 28.5l15 -93
c-39.333 -24 -83.333 -36 -132 -36c-34 0 -65.833 6 -95.5 18s-55.5 28.167 -77.5 48.5s-39.333 44.166 -52 71.499s-19 56.333 -19 87c0 75.333 37.667 135.666 113 180.999c12 7.33301 24.5 13.666 37.5 18.999s25 12 36 20s20 18 27 30s10.5 28 10.5 48v31h96v-36
c0 -31.333 -6.16699 -57.5 -18.5 -78.5s-27.166 -38.5 -44.499 -52.5s-35 -25.333 -53 -34l-45 -21c-20.667 -9.33301 -36 -24.333 -46 -45s-15 -42 -15 -64c0 -18 3.83301 -34.833 11.5 -50.5s18 -29.334 31 -41.001s28.5 -20.834 46.5 -27.501s37 -10 57 -10z" />
    <glyph glyph-name="Agrave" unicode="&#xc0;" 
d="M125 0h-114l295 709h115l295 -709h-113l-93 222h-293zM257 318h213l-106 256zM379 934l24 -178h-79l-56 178h111z" />
    <glyph glyph-name="Aacute" unicode="&#xc1;" 
d="M125 0h-114l295 709h115l295 -709h-113l-93 222h-293zM257 318h213l-106 256zM463 934l-56 -178h-79l24 178h111z" />
    <glyph glyph-name="Acircumflex" unicode="&#xc2;" 
d="M125 0h-114l295 709h115l295 -709h-113l-93 222h-293zM257 318h213l-106 256zM362 844l-60 -88h-102l116 125h91l121 -125h-101z" />
    <glyph glyph-name="Atilde" unicode="&#xc3;" 
d="M125 0h-114l295 709h115l295 -709h-113l-93 222h-293zM257 318h213l-106 256zM438 829c13.333 2 26.166 7.99609 38.499 17.9961s22.833 20 31.5 30l20.5 -20c7 -6.66699 13.167 -13.667 18.5 -21c-4.66699 -7.33301 -10.334 -15.166 -17.001 -23.499
s-14.334 -16.333 -23.001 -24s-18 -14.167 -28 -19.5s-20.667 -9 -32 -11c-3.33301 -0.666992 -6.16602 -1.16699 -8.49902 -1.5s-4.83301 -0.5 -7.5 -0.5c-14.667 0 -28.167 3.33301 -40.5 10s-24.166 14.334 -35.499 23.001c-9.33301 6.66699 -18.833 12.334 -28.5 17.001
s-20.5 7 -32.5 7c-6.66699 0 -11.667 -0.333008 -15 -1c-13.333 -2 -25.333 -7.16699 -36 -15.5s-19.667 -19.166 -27 -32.499l-51 34c8 16.667 20.333 33.667 37 51s39.334 28.666 68.001 33.999c3.33301 0.666992 6.5 1.16699 9.5 1.5s6.16699 0.5 9.5 0.5
c17.333 0 32.833 -3.33301 46.5 -10s26.167 -13.667 37.5 -21l3 -2l6 -4l3 -2c8 -5.33301 15.5 -9.66602 22.5 -12.999s14.167 -5 21.5 -5c4 0 7 0.333008 9 1z" />
    <glyph glyph-name="Adieresis" unicode="&#xc4;" 
d="M125 0h-114l295 709h115l295 -709h-113l-93 222h-293zM257 318h213l-106 256zM250 757c-17.333 0 -32 6.16699 -44 18.5s-18 27.166 -18 44.499s6 32 18 44s26.667 18 44 18s32 -6 44 -18s18 -26.667 18 -44s-6 -32.166 -18 -44.499s-26.667 -18.5 -44 -18.5zM481 757
c-17.333 0 -32 6.16699 -44 18.5s-18 27.166 -18 44.499s6 32 18 44s26.667 18 44 18s32 -6 44 -18s18 -26.667 18 -44s-6 -32.166 -18 -44.499s-26.667 -18.5 -44 -18.5z" />
    <glyph glyph-name="Aring" unicode="&#xc5;" 
d="M364 860c14.667 0 28.498 -2.83301 41.498 -8.5s24.333 -13.334 34 -23.001s17.334 -21 23.001 -34s8.5 -26.833 8.5 -41.5c0 -16 -3.16699 -30.833 -9.5 -44.5s-15.166 -25.5 -26.499 -35.5l281 -673h-113l-93 222h-293l-92 -222h-114l280 674
c-10.667 9.33301 -19 21 -25 35s-9 28.667 -9 44c0 14.667 2.83301 28.5 8.5 41.5s13.167 24.333 22.5 34s20.5 17.334 33.5 23.001s27.167 8.5 42.5 8.5zM256.998 318h213l-106 256zM363.998 709c12.667 0 23 4.33301 31 13s12 19 12 31c0 12.667 -4 23 -12 31
s-18.333 12 -31 12s-23.167 -4 -31.5 -12s-12.5 -18.333 -12.5 -31c0 -12 4.16699 -22.333 12.5 -31s18.833 -13 31.5 -13z" />
    <glyph glyph-name="AE" unicode="&#xc6;" horiz-adv-x="900" 
d="M114 0h-114l297 709h543v-94h-329v-193h293v-97h-293v-228h329v-97h-433v222h-201zM407 318v297h-38l-123 -297h161z" />
    <glyph glyph-name="Ccedilla" unicode="&#xc7;" horiz-adv-x="663" 
d="M359 -79c-12 0 -23.335 -3.00391 -34.002 -9.00391l-29 28l36 52c-44 4.66699 -85.167 17.334 -123.5 38.001s-71.666 47.334 -99.999 80.001s-50.5 69.834 -66.5 111.501s-24 85.834 -24 132.501c0 50 9.16699 97 27.5 141s43.166 82.5 74.499 115.5
s68.333 59.167 111 78.5s88 29 136 29c44.667 0 86.834 -8.83301 126.501 -26.5s75.167 -40.834 106.5 -69.501l-62 -79c-22 23.333 -47.667 42.5 -77 57.5s-60.666 22.5 -93.999 22.5c-34 0 -65.833 -7.16699 -95.5 -21.5s-55.5 -33.833 -77.5 -58.5
s-39.5 -53.167 -52.5 -85.5s-19.5 -66.833 -19.5 -103.5s6.5 -71.167 19.5 -103.5s30.5 -60.666 52.5 -84.999s47.833 -43.5 77.5 -57.5s61.5 -21 95.5 -21c38.667 0 74.5 9.33301 107.5 28s60.833 43.334 83.5 74.001l73 -70c-30.667 -36 -67.167 -65.667 -109.5 -89
s-88.166 -36.333 -137.499 -39l-24 -38c31.333 6 54.666 3 69.999 -9s23 -28 23 -48c0 -25.333 -9.33301 -43.833 -28 -55.5s-40.667 -17.5 -66 -17.5c-7.33301 0 -15.666 0.333008 -24.999 1s-17.333 1.66699 -24 3c1.33301 5.33301 2.66602 11 3.99902 17
s2.66602 11.667 3.99902 17c3.33301 -0.666992 7 -1.16699 11 -1.5s8.66699 -0.5 14 -0.5c14 0 26.167 2.5 36.5 7.5s15.5 13.167 15.5 24.5c0 9.33301 -3.16699 16.666 -9.5 21.999s-15.166 8 -26.499 8z" />
    <glyph glyph-name="Egrave" unicode="&#xc8;" horiz-adv-x="549" 
d="M489 709v-94h-329v-193h293v-97v0h-293v-228h329v-97v0h-329h-52h-52v709h433zM318 934l24 -178h-79l-56 178h111z" />
    <glyph glyph-name="Eacute" unicode="&#xc9;" horiz-adv-x="549" 
d="M489 709v-94h-329v-193h293v-97v0h-293v-228h329v-97v0h-329h-52h-52v709h433zM342 934l-56 -178h-79l24 178h111z" />
    <glyph glyph-name="Ecircumflex" unicode="&#xca;" horiz-adv-x="549" 
d="M489 709v-94h-329v-193h293v-97v0h-293v-228h329v-97v0h-329h-52h-52v709h433zM272 844l-60 -88h-102l116 125h91l121 -125h-101z" />
    <glyph glyph-name="Edieresis" unicode="&#xcb;" horiz-adv-x="549" 
d="M489 709v-94h-329v-193h293v-97v0h-293v-228h329v-97v0h-329h-52h-52v709h433zM159 756c-17.333 0 -32 6.16699 -44 18.5s-18 27.166 -18 44.499s6 32 18 44s26.667 18 44 18s32 -6 44 -18s18 -26.667 18 -44s-6 -32.166 -18 -44.499s-26.667 -18.5 -44 -18.5zM390 756
c-17.333 0 -32 6.16699 -44 18.5s-18 27.166 -18 44.499s6 32 18 44s26.667 18 44 18s32 -6 44 -18s18 -26.667 18 -44s-6 -32.166 -18 -44.499s-26.667 -18.5 -44 -18.5z" />
    <glyph glyph-name="Igrave" unicode="&#xcc;" horiz-adv-x="393" 
d="M248 623v-537h52v-86h-209v86h53v537h-53v86h209v-86h-52zM211 934l24 -178h-79l-56 178h111z" />
    <glyph glyph-name="Iacute" unicode="&#xcd;" horiz-adv-x="393" 
d="M248 623v-537h52v-86h-209v86h53v537h-53v86h209v-86h-52zM299 934l-56 -178h-79l24 178h111z" />
    <glyph glyph-name="Icircumflex" unicode="&#xce;" horiz-adv-x="393" 
d="M248 623v-537h52v-86h-209v86h53v537h-53v86h209v-86h-52zM194 844l-60 -88h-102l116 125h91l121 -125h-101z" />
    <glyph glyph-name="Idieresis" unicode="&#xcf;" horiz-adv-x="393" 
d="M248 623v-537h52v-86h-209v86h53v537h-53v86h209v-86h-52zM84 756c-17.333 0 -32 6.16699 -44 18.5s-18 27.166 -18 44.499s6 32 18 44s26.667 18 44 18s32 -6 44 -18s18 -26.667 18 -44s-6 -32.166 -18 -44.499s-26.667 -18.5 -44 -18.5zM315 756
c-17.333 0 -32 6.16699 -44 18.5s-18 27.166 -18 44.499s6 32 18 44s26.667 18 44 18s32 -6 44 -18s18 -26.667 18 -44s-6 -32.166 -18 -44.499s-26.667 -18.5 -44 -18.5z" />
    <glyph glyph-name="Ntilde" unicode="&#xd1;" horiz-adv-x="725" 
d="M667 709v-709h-106l-396 544v-544h-109v709h110l396 -547v547h105zM444 829c13.333 2 26.166 7.99609 38.499 17.9961s22.833 20 31.5 30l20.5 -20c7 -6.66699 13.167 -13.667 18.5 -21c-4.66699 -7.33301 -10.334 -15.166 -17.001 -23.499s-14.334 -16.333 -23.001 -24
s-18 -14.167 -28 -19.5s-20.667 -9 -32 -11c-3.33301 -0.666992 -6.16602 -1.16699 -8.49902 -1.5s-4.83301 -0.5 -7.5 -0.5c-14.667 0 -28.167 3.33301 -40.5 10s-24.166 14.334 -35.499 23.001c-9.33301 6.66699 -18.833 12.334 -28.5 17.001s-20.5 7 -32.5 7
c-6.66699 0 -11.667 -0.333008 -15 -1c-13.333 -2 -25.333 -7.16699 -36 -15.5s-19.667 -19.166 -27 -32.499l-51 34c8 16.667 20.333 33.667 37 51s39.334 28.666 68.001 33.999c3.33301 0.666992 6.5 1.16699 9.5 1.5s6.16699 0.5 9.5 0.5
c17.333 0 32.833 -3.33301 46.5 -10s26.167 -13.667 37.5 -21l3 -2l6 -4l3 -2c8 -5.33301 15.5 -9.66602 22.5 -12.999s14.167 -5 21.5 -5c4 0 7 0.333008 9 1z" />
    <glyph glyph-name="Ograve" unicode="&#xd2;" horiz-adv-x="767" 
d="M385 719c48 0 93.332 -9.66699 135.999 -29s79.834 -45.5 111.501 -78.5s56.834 -71.667 75.501 -116s28 -91.166 28 -140.499c0 -50 -9.33301 -97 -28 -141s-44 -82.5 -76 -115.5s-69.333 -59.167 -112 -78.5s-88 -29 -136 -29s-93.333 9.66699 -136 29
s-79.834 45.5 -111.501 78.5s-56.667 71.5 -75 115.5s-27.5 91 -27.5 141c0 49.333 9.16699 96.166 27.5 140.499s43.5 83 75.5 116s69.333 59.167 112 78.5s88 29 136 29zM384.999 90c34 0 65.833 6.83301 95.5 20.5s55.5 32.5 77.5 56.5s39.333 52.167 52 84.5
s19 66.833 19 103.5s-6.33301 71 -19 103s-30 60 -52 84s-47.833 42.833 -77.5 56.5s-61.5 20.5 -95.5 20.5s-65.833 -6.83301 -95.5 -20.5s-55.5 -32.5 -77.5 -56.5s-39.5 -52 -52.5 -84s-19.5 -66.333 -19.5 -103s6.5 -71.167 19.5 -103.5s30.5 -60.5 52.5 -84.5
s47.833 -42.833 77.5 -56.5s61.5 -20.5 95.5 -20.5zM426.999 934l24 -178h-79l-56 178h111z" />
    <glyph glyph-name="Oacute" unicode="&#xd3;" horiz-adv-x="767" 
d="M385 719c48 0 93.332 -9.66699 135.999 -29s79.834 -45.5 111.501 -78.5s56.834 -71.667 75.501 -116s28 -91.166 28 -140.499c0 -50 -9.33301 -97 -28 -141s-44 -82.5 -76 -115.5s-69.333 -59.167 -112 -78.5s-88 -29 -136 -29s-93.333 9.66699 -136 29
s-79.834 45.5 -111.501 78.5s-56.667 71.5 -75 115.5s-27.5 91 -27.5 141c0 49.333 9.16699 96.166 27.5 140.499s43.5 83 75.5 116s69.333 59.167 112 78.5s88 29 136 29zM384.999 90c34 0 65.833 6.83301 95.5 20.5s55.5 32.5 77.5 56.5s39.333 52.167 52 84.5
s19 66.833 19 103.5s-6.33301 71 -19 103s-30 60 -52 84s-47.833 42.833 -77.5 56.5s-61.5 20.5 -95.5 20.5s-65.833 -6.83301 -95.5 -20.5s-55.5 -32.5 -77.5 -56.5s-39.5 -52 -52.5 -84s-19.5 -66.333 -19.5 -103s6.5 -71.167 19.5 -103.5s30.5 -60.5 52.5 -84.5
s47.833 -42.833 77.5 -56.5s61.5 -20.5 95.5 -20.5zM450.999 934l-56 -178h-79l24 178h111z" />
    <glyph glyph-name="Ocircumflex" unicode="&#xd4;" horiz-adv-x="767" 
d="M385 719c48 0 93.332 -9.66699 135.999 -29s79.834 -45.5 111.501 -78.5s56.834 -71.667 75.501 -116s28 -91.166 28 -140.499c0 -50 -9.33301 -97 -28 -141s-44 -82.5 -76 -115.5s-69.333 -59.167 -112 -78.5s-88 -29 -136 -29s-93.333 9.66699 -136 29
s-79.834 45.5 -111.501 78.5s-56.667 71.5 -75 115.5s-27.5 91 -27.5 141c0 49.333 9.16699 96.166 27.5 140.499s43.5 83 75.5 116s69.333 59.167 112 78.5s88 29 136 29zM384.999 90c34 0 65.833 6.83301 95.5 20.5s55.5 32.5 77.5 56.5s39.333 52.167 52 84.5
s19 66.833 19 103.5s-6.33301 71 -19 103s-30 60 -52 84s-47.833 42.833 -77.5 56.5s-61.5 20.5 -95.5 20.5s-65.833 -6.83301 -95.5 -20.5s-55.5 -32.5 -77.5 -56.5s-39.5 -52 -52.5 -84s-19.5 -66.333 -19.5 -103s6.5 -71.167 19.5 -103.5s30.5 -60.5 52.5 -84.5
s47.833 -42.833 77.5 -56.5s61.5 -20.5 95.5 -20.5zM380.999 844l-60 -88h-102l116 125h91l121 -125h-101z" />
    <glyph glyph-name="Otilde" unicode="&#xd5;" horiz-adv-x="767" 
d="M385 719c48 0 93.332 -9.66699 135.999 -29s79.834 -45.5 111.501 -78.5s56.834 -71.667 75.501 -116s28 -91.166 28 -140.499c0 -50 -9.33301 -97 -28 -141s-44 -82.5 -76 -115.5s-69.333 -59.167 -112 -78.5s-88 -29 -136 -29s-93.333 9.66699 -136 29
s-79.834 45.5 -111.501 78.5s-56.667 71.5 -75 115.5s-27.5 91 -27.5 141c0 49.333 9.16699 96.166 27.5 140.499s43.5 83 75.5 116s69.333 59.167 112 78.5s88 29 136 29zM384.999 90c34 0 65.833 6.83301 95.5 20.5s55.5 32.5 77.5 56.5s39.333 52.167 52 84.5
s19 66.833 19 103.5s-6.33301 71 -19 103s-30 60 -52 84s-47.833 42.833 -77.5 56.5s-61.5 20.5 -95.5 20.5s-65.833 -6.83301 -95.5 -20.5s-55.5 -32.5 -77.5 -56.5s-39.5 -52 -52.5 -84s-19.5 -66.333 -19.5 -103s6.5 -71.167 19.5 -103.5s30.5 -60.5 52.5 -84.5
s47.833 -42.833 77.5 -56.5s61.5 -20.5 95.5 -20.5zM454.999 829c13.333 2 26.166 7.99609 38.499 17.9961s22.833 20 31.5 30l20.5 -20c7 -6.66699 13.167 -13.667 18.5 -21c-4.66699 -7.33301 -10.334 -15.166 -17.001 -23.499s-14.334 -16.333 -23.001 -24
s-18 -14.167 -28 -19.5s-20.667 -9 -32 -11c-3.33301 -0.666992 -6.16602 -1.16699 -8.49902 -1.5s-4.83301 -0.5 -7.5 -0.5c-14.667 0 -28.167 3.33301 -40.5 10s-24.166 14.334 -35.499 23.001c-9.33301 6.66699 -18.833 12.334 -28.5 17.001s-20.5 7 -32.5 7
c-6.66699 0 -11.667 -0.333008 -15 -1c-13.333 -2 -25.333 -7.16699 -36 -15.5s-19.667 -19.166 -27 -32.499l-51 34c8 16.667 20.333 33.667 37 51s39.334 28.666 68.001 33.999c3.33301 0.666992 6.5 1.16699 9.5 1.5s6.16699 0.5 9.5 0.5
c17.333 0 32.833 -3.33301 46.5 -10s26.167 -13.667 37.5 -21l3 -2l6 -4l3 -2c8 -5.33301 15.5 -9.66602 22.5 -12.999s14.167 -5 21.5 -5c4 0 7 0.333008 9 1z" />
    <glyph glyph-name="Odieresis" unicode="&#xd6;" horiz-adv-x="767" 
d="M383 719c48 0 93.332 -9.66699 135.999 -29s79.834 -45.5 111.501 -78.5s56.834 -71.667 75.501 -116s28 -91.166 28 -140.499c0 -50 -9.33301 -97 -28 -141s-44 -82.5 -76 -115.5s-69.333 -59.167 -112 -78.5s-88 -29 -136 -29s-93.333 9.66699 -136 29
s-79.834 45.5 -111.501 78.5s-56.667 71.5 -75 115.5s-27.5 91 -27.5 141c0 49.333 9.16699 96.166 27.5 140.499s43.5 83 75.5 116s69.333 59.167 112 78.5s88 29 136 29zM382.999 90c34 0 65.833 6.83301 95.5 20.5s55.5 32.5 77.5 56.5s39.333 52.167 52 84.5
s19 66.833 19 103.5s-6.33301 71 -19 103s-30 60 -52 84s-47.833 42.833 -77.5 56.5s-61.5 20.5 -95.5 20.5s-65.833 -6.83301 -95.5 -20.5s-55.5 -32.5 -77.5 -56.5s-39.5 -52 -52.5 -84s-19.5 -66.333 -19.5 -103s6.5 -71.167 19.5 -103.5s30.5 -60.5 52.5 -84.5
s47.833 -42.833 77.5 -56.5s61.5 -20.5 95.5 -20.5zM267.999 756c-17.333 0 -32 6.16699 -44 18.5s-18 27.166 -18 44.499s6 32 18 44s26.667 18 44 18s32 -6 44 -18s18 -26.667 18 -44s-6 -32.166 -18 -44.499s-26.667 -18.5 -44 -18.5zM498.999 756
c-17.333 0 -32 6.16699 -44 18.5s-18 27.166 -18 44.499s6 32 18 44s26.667 18 44 18s32 -6 44 -18s18 -26.667 18 -44s-6 -32.166 -18 -44.499s-26.667 -18.5 -44 -18.5z" />
    <glyph glyph-name="Oslash" unicode="&#xd8;" horiz-adv-x="760" 
d="M167 66c-42 34 -75.501 76.002 -100.501 126.002s-37.5 104.333 -37.5 163c0 49.333 9.16699 96.166 27.5 140.499s43.5 83 75.5 116s69.333 59.167 112 78.5s88 29 136 29c27.333 0 53.833 -3.33301 79.5 -10s50.167 -15.667 73.5 -27l32 54l57 -34l-33 -56
c43.333 -34 77.833 -76.333 103.5 -127s38.5 -105.334 38.5 -164.001c0 -50 -9.33301 -97 -28 -141s-44 -82.5 -76 -115.5s-69.333 -59.167 -112 -78.5s-88 -29 -136 -29c-28 0 -55.167 3.33301 -81.5 10s-51.166 16 -74.499 28l-32 -54l-57 34zM379.999 90.002
c34 0 65.834 6.83301 95.501 20.5s55.5 32.5 77.5 56.5s39.333 52.167 52 84.5s19 66.833 19 103.5c0 40.667 -7.83301 78.5 -23.5 113.5s-37.167 64.5 -64.5 88.5l-262 -442c33.333 -16.667 68.666 -25 105.999 -25zM135 355.002c0 -40.667 7.66699 -78.332 23 -112.999
s36 -64 62 -88l261 441c-15.333 7.33301 -31.5 13.166 -48.5 17.499s-34.5 6.5 -52.5 6.5c-34 0 -65.833 -6.83301 -95.5 -20.5s-55.5 -32.5 -77.5 -56.5s-39.5 -52 -52.5 -84s-19.5 -66.333 -19.5 -103z" />
    <glyph glyph-name="Ugrave" unicode="&#xd9;" horiz-adv-x="634" 
d="M577 251c0 -36 -6.83496 -69.833 -20.502 -101.5s-32.167 -59.334 -55.5 -83.001s-50.666 -42.334 -81.999 -56.001s-65 -20.5 -101 -20.5s-69.667 6.83301 -101 20.5s-58.666 32.334 -81.999 56.001s-41.833 51.334 -55.5 83.001s-20.5 65.5 -20.5 101.5v458h104v-458
c0 -21.333 4 -41.666 12 -60.999s19 -36.5 33 -51.5s30.5 -26.833 49.5 -35.5s39.167 -13 60.5 -13s41.333 4.33301 60 13s35 20.5 49 35.5s25 32.167 33 51.5s12 39.666 12 60.999v458h105v-458zM359.998 934l24 -178h-79l-56 178h111z" />
    <glyph glyph-name="Uacute" unicode="&#xda;" horiz-adv-x="634" 
d="M577 251c0 -36 -6.83496 -69.833 -20.502 -101.5s-32.167 -59.334 -55.5 -83.001s-50.666 -42.334 -81.999 -56.001s-65 -20.5 -101 -20.5s-69.667 6.83301 -101 20.5s-58.666 32.334 -81.999 56.001s-41.833 51.334 -55.5 83.001s-20.5 65.5 -20.5 101.5v458h104v-458
c0 -21.333 4 -41.666 12 -60.999s19 -36.5 33 -51.5s30.5 -26.833 49.5 -35.5s39.167 -13 60.5 -13s41.333 4.33301 60 13s35 20.5 49 35.5s25 32.167 33 51.5s12 39.666 12 60.999v458h105v-458zM383.998 934l-56 -178h-79l24 178h111z" />
    <glyph glyph-name="Ucircumflex" unicode="&#xdb;" horiz-adv-x="634" 
d="M576 251c0 -36 -6.83496 -69.833 -20.502 -101.5s-32.167 -59.334 -55.5 -83.001s-50.666 -42.334 -81.999 -56.001s-65 -20.5 -101 -20.5s-69.667 6.83301 -101 20.5s-58.666 32.334 -81.999 56.001s-41.833 51.334 -55.5 83.001s-20.5 65.5 -20.5 101.5v458h104v-458
c0 -21.333 4 -41.666 12 -60.999s19 -36.5 33 -51.5s30.5 -26.833 49.5 -35.5s39.167 -13 60.5 -13s41.333 4.33301 60 13s35 20.5 49 35.5s25 32.167 33 51.5s12 39.666 12 60.999v458h105v-458zM314.998 844l-60 -88h-102l116 125h91l121 -125h-101z" />
    <glyph glyph-name="Udieresis" unicode="&#xdc;" horiz-adv-x="638" 
d="M578 251c0 -36 -6.83496 -69.833 -20.502 -101.5s-32.167 -59.334 -55.5 -83.001s-50.666 -42.334 -81.999 -56.001s-65 -20.5 -101 -20.5s-69.667 6.83301 -101 20.5s-58.666 32.334 -81.999 56.001s-41.833 51.334 -55.5 83.001s-20.5 65.5 -20.5 101.5v458h104v-458
c0 -21.333 4 -41.666 12 -60.999s19 -36.5 33 -51.5s30.5 -26.833 49.5 -35.5s39.167 -13 60.5 -13s41.333 4.33301 60 13s35 20.5 49 35.5s25 32.167 33 51.5s12 39.666 12 60.999v458h105v-458zM203.998 756c-17.333 0 -32 6.16699 -44 18.5s-18 27.166 -18 44.499
s6 32 18 44s26.667 18 44 18s32 -6 44 -18s18 -26.667 18 -44s-6 -32.166 -18 -44.499s-26.667 -18.5 -44 -18.5zM434.998 756c-17.333 0 -32 6.16699 -44 18.5s-18 27.166 -18 44.499s6 32 18 44s26.667 18 44 18s32 -6 44 -18s18 -26.667 18 -44s-6 -32.166 -18 -44.499
s-26.667 -18.5 -44 -18.5z" />
    <glyph glyph-name="germandbls" unicode="&#xdf;" horiz-adv-x="527" 
d="M208 86h67.998c14 0 26.667 3.83301 38 11.5s21 17.5 29 29.5s14.167 25.667 18.5 41s6.5 31 6.5 47s-1.83301 31 -5.5 45s-10 26.167 -19 36.5s-21 18.5 -36 24.5s-33.5 9 -55.5 9v97c24.667 0 43.834 10 57.501 30s20.5 43.667 20.5 71
c0 26.667 -7.16699 49.5 -21.5 68.5s-35.833 28.5 -64.5 28.5c-24.667 0 -45.667 -9.5 -63 -28.5s-26 -41.833 -26 -68.5v-37c0 -21.333 -0.166992 -48 -0.5 -80s-0.5 -68 -0.5 -108v-121v-325h-105v684c0 24 4.66699 46.833 14 68.5s22 40.5 38 56.5s34.667 28.667 56 38
s44.333 14 69 14h24c24 0 46.833 -4.66699 68.5 -14s40.5 -22 56.5 -38s28.667 -34.833 38 -56.5s14 -44.5 14 -68.5c0 -28 -3 -50.5 -9 -67.5s-12.5 -30.833 -19.5 -41.5s-13.333 -19.167 -19 -25.5s-8.5 -12.166 -8.5 -17.499s5.5 -11.166 16.5 -17.499
s23 -15.833 36 -28.5s25 -30 36 -52s16.5 -51.667 16.5 -89c0 -27.333 -5.33301 -53.833 -16 -79.5s-25 -48.334 -43 -68.001s-39.167 -35.334 -63.5 -47.001s-50.166 -17.5 -77.499 -17.5h-68v96z" />
    <glyph glyph-name="agrave" unicode="&#xe0;" horiz-adv-x="553" 
d="M510 479l-0.000976562 -479.004h-82l-15 55c-16.667 -22 -38 -38.667 -64 -50s-52.333 -17 -79 -17c-33.333 0 -64.5 6.5 -93.5 19.5s-54.333 30.833 -76 53.5s-38.834 49.334 -51.501 80.001s-19 63.334 -19 98.001s6.33301 67.334 19 98.001
s29.834 57.334 51.501 80.001s47 40.5 76 53.5s60.167 19.5 93.5 19.5c26.667 0 52.334 -5.16699 77.001 -15.5s46.667 -26.5 66 -48.5l15 53h82zM269.999 73.9961c19.333 0 37.666 4.33301 54.999 13s32.333 20.5 45 35.5s22.667 32.5 30 52.5s11 41.333 11 64
s-3.66699 44 -11 64s-17.333 37.5 -30 52.5s-27.667 26.833 -45 35.5s-35.666 13 -54.999 13s-37.666 -4.33301 -54.999 -13s-32.333 -20.5 -45 -35.5s-22.667 -32.5 -30 -52.5s-11 -41.333 -11 -64s3.66699 -44 11 -64s17.333 -37.5 30 -52.5s27.667 -26.833 45 -35.5
s35.666 -13 54.999 -13zM300.999 708.996l24 -178h-79l-56 178h111z" />
    <glyph glyph-name="aacute" unicode="&#xe1;" horiz-adv-x="553" 
d="M510 479l-0.000976562 -479.004h-82l-15 55c-16.667 -22 -38 -38.667 -64 -50s-52.333 -17 -79 -17c-33.333 0 -64.5 6.5 -93.5 19.5s-54.333 30.833 -76 53.5s-38.834 49.334 -51.501 80.001s-19 63.334 -19 98.001s6.33301 67.334 19 98.001
s29.834 57.334 51.501 80.001s47 40.5 76 53.5s60.167 19.5 93.5 19.5c26.667 0 52.334 -5.16699 77.001 -15.5s46.667 -26.5 66 -48.5l15 53h82zM269.999 73.9961c19.333 0 37.666 4.33301 54.999 13s32.333 20.5 45 35.5s22.667 32.5 30 52.5s11 41.333 11 64
s-3.66699 44 -11 64s-17.333 37.5 -30 52.5s-27.667 26.833 -45 35.5s-35.666 13 -54.999 13s-37.666 -4.33301 -54.999 -13s-32.333 -20.5 -45 -35.5s-22.667 -32.5 -30 -52.5s-11 -41.333 -11 -64s3.66699 -44 11 -64s17.333 -37.5 30 -52.5s27.667 -26.833 45 -35.5
s35.666 -13 54.999 -13zM364.999 708.996l-56 -178h-79l24 178h111z" />
    <glyph glyph-name="acircumflex" unicode="&#xe2;" horiz-adv-x="553" 
d="M510 479l-0.000976562 -479.004h-82l-15 55c-16.667 -22 -38 -38.667 -64 -50s-52.333 -17 -79 -17c-33.333 0 -64.5 6.5 -93.5 19.5s-54.333 30.833 -76 53.5s-38.834 49.334 -51.501 80.001s-19 63.334 -19 98.001s6.33301 67.334 19 98.001
s29.834 57.334 51.501 80.001s47 40.5 76 53.5s60.167 19.5 93.5 19.5c26.667 0 52.334 -5.16699 77.001 -15.5s46.667 -26.5 66 -48.5l15 53h82zM269.999 73.9961c19.333 0 37.666 4.33301 54.999 13s32.333 20.5 45 35.5s22.667 32.5 30 52.5s11 41.333 11 64
s-3.66699 44 -11 64s-17.333 37.5 -30 52.5s-27.667 26.833 -45 35.5s-35.666 13 -54.999 13s-37.666 -4.33301 -54.999 -13s-32.333 -20.5 -45 -35.5s-22.667 -32.5 -30 -52.5s-11 -41.333 -11 -64s3.66699 -44 11 -64s17.333 -37.5 30 -52.5s27.667 -26.833 45 -35.5
s35.666 -13 54.999 -13zM287.999 671.996l-60 -88h-102l116 125h91l121 -125h-101z" />
    <glyph glyph-name="atilde" unicode="&#xe3;" horiz-adv-x="553" 
d="M510 479l-0.000976562 -479.004h-82l-15 55c-16.667 -22 -38 -38.667 -64 -50s-52.333 -17 -79 -17c-33.333 0 -64.5 6.5 -93.5 19.5s-54.333 30.833 -76 53.5s-38.834 49.334 -51.501 80.001s-19 63.334 -19 98.001s6.33301 67.334 19 98.001
s29.834 57.334 51.501 80.001s47 40.5 76 53.5s60.167 19.5 93.5 19.5c26.667 0 52.334 -5.16699 77.001 -15.5s46.667 -26.5 66 -48.5l15 53h82zM269.999 73.9961c19.333 0 37.666 4.33301 54.999 13s32.333 20.5 45 35.5s22.667 32.5 30 52.5s11 41.333 11 64
s-3.66699 44 -11 64s-17.333 37.5 -30 52.5s-27.667 26.833 -45 35.5s-35.666 13 -54.999 13s-37.666 -4.33301 -54.999 -13s-32.333 -20.5 -45 -35.5s-22.667 -32.5 -30 -52.5s-11 -41.333 -11 -64s3.66699 -44 11 -64s17.333 -37.5 30 -52.5s27.667 -26.833 45 -35.5
s35.666 -13 54.999 -13zM369.999 652.996c13.333 2 26.166 7.99609 38.499 17.9961s22.833 20 31.5 30l20.5 -20c7 -6.66699 13.167 -13.667 18.5 -21c-4.66699 -7.33301 -10.334 -15.166 -17.001 -23.499s-14.334 -16.333 -23.001 -24s-18 -14.167 -28 -19.5
s-20.667 -9 -32 -11c-3.33301 -0.666992 -6.16602 -1.16699 -8.49902 -1.5s-4.83301 -0.5 -7.5 -0.5c-14.667 0 -28.167 3.33301 -40.5 10s-24.166 14.334 -35.499 23.001c-9.33301 6.66699 -18.833 12.334 -28.5 17.001s-20.5 7 -32.5 7
c-6.66699 0 -11.667 -0.333008 -15 -1c-13.333 -2 -25.333 -7.16699 -36 -15.5s-19.667 -19.166 -27 -32.499l-51 34c8 16.667 20.333 33.667 37 51s39.334 28.666 68.001 33.999c3.33301 0.666992 6.5 1.16699 9.5 1.5s6.16699 0.5 9.5 0.5
c17.333 0 32.833 -3.33301 46.5 -10s26.167 -13.667 37.5 -21l3 -2l6 -4l3 -2c8 -5.33301 15.5 -9.66602 22.5 -12.999s14.167 -5 21.5 -5c4 0 7 0.333008 9 1z" />
    <glyph glyph-name="adieresis" unicode="&#xe4;" horiz-adv-x="553" 
d="M510 479l-0.000976562 -479.004h-82l-15 55c-16.667 -22 -38 -38.667 -64 -50s-52.333 -17 -79 -17c-33.333 0 -64.5 6.5 -93.5 19.5s-54.333 30.833 -76 53.5s-38.834 49.334 -51.501 80.001s-19 63.334 -19 98.001s6.33301 67.334 19 98.001
s29.834 57.334 51.501 80.001s47 40.5 76 53.5s60.167 19.5 93.5 19.5c26.667 0 52.334 -5.16699 77.001 -15.5s46.667 -26.5 66 -48.5l15 53h82zM269.999 73.9961c19.333 0 37.666 4.33301 54.999 13s32.333 20.5 45 35.5s22.667 32.5 30 52.5s11 41.333 11 64
s-3.66699 44 -11 64s-17.333 37.5 -30 52.5s-27.667 26.833 -45 35.5s-35.666 13 -54.999 13s-37.666 -4.33301 -54.999 -13s-32.333 -20.5 -45 -35.5s-22.667 -32.5 -30 -52.5s-11 -41.333 -11 -64s3.66699 -44 11 -64s17.333 -37.5 30 -52.5s27.667 -26.833 45 -35.5
s35.666 -13 54.999 -13zM165.999 583.996c-17.333 0 -32 6.16699 -44 18.5s-18 27.166 -18 44.499s6 32 18 44s26.667 18 44 18s32 -6 44 -18s18 -26.667 18 -44s-6 -32.166 -18 -44.499s-26.667 -18.5 -44 -18.5zM396.999 583.996c-17.333 0 -32 6.16699 -44 18.5
s-18 27.166 -18 44.499s6 32 18 44s26.667 18 44 18s32 -6 44 -18s18 -26.667 18 -44s-6 -32.166 -18 -44.499s-26.667 -18.5 -44 -18.5z" />
    <glyph glyph-name="aring" unicode="&#xe5;" horiz-adv-x="553" 
d="M510 479l-0.000976562 -479.004h-82l-15 55c-16.667 -22 -38 -38.667 -64 -50s-52.333 -17 -79 -17c-33.333 0 -64.5 6.5 -93.5 19.5s-54.333 30.833 -76 53.5s-38.834 49.334 -51.501 80.001s-19 63.334 -19 98.001s6.33301 67.334 19 98.001
s29.834 57.334 51.501 80.001s47 40.5 76 53.5s60.167 19.5 93.5 19.5c26.667 0 52.334 -5.16699 77.001 -15.5s46.667 -26.5 66 -48.5l15 53h82zM269.999 73.9961c19.333 0 37.666 4.33301 54.999 13s32.333 20.5 45 35.5s22.667 32.5 30 52.5s11 41.333 11 64
s-3.66699 44 -11 64s-17.333 37.5 -30 52.5s-27.667 26.833 -45 35.5s-35.666 13 -54.999 13s-37.666 -4.33301 -54.999 -13s-32.333 -20.5 -45 -35.5s-22.667 -32.5 -30 -52.5s-11 -41.333 -11 -64s3.66699 -44 11 -64s17.333 -37.5 30 -52.5s27.667 -26.833 45 -35.5
s35.666 -13 54.999 -13zM279.999 729.996c14.667 0 28.5 -2.83301 41.5 -8.5s24.333 -13.334 34 -23.001s17.334 -21 23.001 -34s8.5 -26.833 8.5 -41.5s-2.83301 -28.5 -8.5 -41.5s-13.334 -24.333 -23.001 -34s-21 -17.334 -34 -23.001s-26.833 -8.5 -41.5 -8.5
c-15.333 0 -29.5 2.83301 -42.5 8.5s-24.167 13.334 -33.5 23.001s-16.833 21 -22.5 34s-8.5 26.833 -8.5 41.5s2.83301 28.5 8.5 41.5s13.167 24.333 22.5 34s20.5 17.334 33.5 23.001s27.167 8.5 42.5 8.5zM279.999 578.996c12.667 0 23 4.33301 31 13s12 19 12 31
c0 12.667 -4 23 -12 31s-18.333 12 -31 12s-23.167 -4 -31.5 -12s-12.5 -18.333 -12.5 -31c0 -12 4.16699 -22.333 12.5 -31s18.833 -13 31.5 -13z" />
    <glyph glyph-name="ae" unicode="&#xe6;" horiz-adv-x="846" 
d="M602 -12c-38.667 0 -74.5 8.00195 -107.5 24.002s-61.167 38 -84.5 66c-6 -6.66699 -14.667 -15.167 -26 -25.5s-25.5 -20.166 -42.5 -29.499s-37.167 -17.5 -60.5 -24.5s-50 -10.5 -80 -10.5c-23.333 0 -45 2.5 -65 7.5s-37.5 13 -52.5 24s-26.667 25.167 -35 42.5
s-12.5 38.666 -12.5 63.999c0 20.667 4.16699 39.667 12.5 57s19.5 32.5 33.5 45.5s30.667 23.5 50 31.5s40 13 62 15l68 7c22 2 39 4.16699 51 6.5s21 5 27 8s9.66699 6.66699 11 11s2 9.83301 2 16.5c0 10 -3 19.667 -9 29s-14 17.666 -24 24.999
s-21.833 13.166 -35.5 17.499s-27.834 6.5 -42.501 6.5c-11.333 0 -22 -1 -32 -3s-19.667 -5.66699 -29 -11s-19 -12.333 -29 -21s-20.667 -19.334 -32 -32.001l-73 47c26.667 35.333 57.5 62.166 92.5 80.499s71.833 27.5 110.5 27.5c12.667 0 26.334 -1.16699 41.001 -3.5
s29.5 -6.66602 44.5 -12.999s29.333 -14.666 43 -24.999s25.5 -23.5 35.5 -39.5c21.333 24.667 46.5 44.334 75.5 59.001s60.5 22 94.5 22c32.667 0 62.834 -5.66699 90.501 -17s51.667 -29 72 -53s36.166 -54.5 47.499 -91.5s17 -81.167 17 -132.5h-350l5 -30
c13.333 -28 33 -50.333 59 -67s55 -25 87 -25c25.333 0 48.833 4.66699 70.5 14s40.167 21.666 55.5 36.999l60 -60c-23.333 -23.333 -51.833 -42 -85.5 -56s-70.5 -21 -110.5 -21zM584 402.002c-15.333 0 -29.832 -2.99902 -43.499 -8.99902s-26.334 -14.333 -38.001 -25
s-21.667 -23.334 -30 -38.001s-14.5 -30.667 -18.5 -48h253c-1.33301 16 -5 31.333 -11 46s-14.333 27.5 -25 38.5s-23.167 19.667 -37.5 26s-30.833 9.5 -49.5 9.5zM353.001 213.003c-16 -1.33301 -32.334 -3.00098 -49.001 -5.00098
c-14 -1.33301 -29.333 -3.16602 -46 -5.49902s-31.667 -4.16602 -45 -5.49902c-14 -2 -25.833 -5.33301 -35.5 -10s-17.667 -10.167 -24 -16.5s-10.833 -13 -13.5 -20s-4 -13.5 -4 -19.5c0 -17.333 7.33301 -31.5 22 -42.5s34.334 -16.5 59.001 -16.5
c9.33301 0 21.666 1.66699 36.999 5s30.333 9.16602 45 17.499s27.334 19.5 38.001 33.5s16 31.667 16 53v32z" />
    <glyph glyph-name="ccedilla" unicode="&#xe7;" horiz-adv-x="500" 
d="M273 -79c-12 0 -23.334 -3 -34.001 -9l-29 28l35 51c-28.667 4.66699 -55.334 14.167 -80.001 28.5s-46 32.5 -64 54.5s-32.167 47.167 -42.5 75.5s-15.5 58.166 -15.5 89.499c0 34.667 6.33301 67.334 19 98.001s29.834 57.334 51.501 80.001s47 40.5 76 53.5
s60.167 19.5 93.5 19.5c38.667 0 74.334 -8.66699 107.001 -26s60 -41 82 -71l-68 -53c-13.333 19.333 -30.166 34.833 -50.499 46.5s-42.166 17.5 -65.499 17.5c-20 0 -39 -4.33301 -57 -13s-33.667 -20.5 -47 -35.5s-23.833 -32.5 -31.5 -52.5s-11.5 -41.333 -11.5 -64
s3.83301 -44 11.5 -64s18.167 -37.5 31.5 -52.5s29 -26.833 47 -35.5s37 -13 57 -13c26 0 49.667 7 71 21s38.666 32.667 51.999 56l66 -58c-20.667 -30.667 -46.5 -55.167 -77.5 -73.5s-65.5 -28.5 -103.5 -30.5l-22 -36c31.333 6 54.666 3 69.999 -9s23 -28 23 -48
c0 -25.333 -9.33301 -43.833 -28 -55.5s-40.667 -17.5 -66 -17.5c-7.33301 0 -15.666 0.333008 -24.999 1s-17.333 1.66699 -24 3c1.33301 5.33301 2.66602 11 3.99902 17s2.66602 11.667 3.99902 17c3.33301 -0.666992 7 -1.16699 11 -1.5s8.66699 -0.5 14 -0.5
c14 0 26.167 2.5 36.5 7.5s15.5 13.167 15.5 24.5c0 9.33301 -3.16699 16.666 -9.5 21.999s-15.166 8 -26.499 8z" />
    <glyph glyph-name="egrave" unicode="&#xe8;" horiz-adv-x="556" 
d="M293 -12c-34.667 0 -67.167 6.49707 -97.5 19.4971s-56.833 30.833 -79.5 53.5s-40.5 49.334 -53.5 80.001s-19.5 63.334 -19.5 98.001s6.16699 67.334 18.5 98.001s29 57.334 50 80.001s45.5 40.5 73.5 53.5s58 19.5 90 19.5c32.667 0 62.834 -5.66699 90.501 -17
s51.667 -29 72 -53s36.166 -54.5 47.499 -91.5s17 -81.167 17 -132.5h-356c4.66699 -17.333 12 -33.5 22 -48.5s21.833 -28 35.5 -39s29 -19.5 46 -25.5s34.833 -9 53.5 -9c25.333 0 48.833 4.66699 70.5 14s40.167 21.666 55.5 36.999l60 -60
c-23.333 -23.333 -51.833 -42 -85.5 -56s-70.5 -21 -110.5 -21zM275 401.997c-15.333 0 -29.832 -2.99902 -43.499 -8.99902s-26.334 -14.333 -38.001 -25s-21.667 -23.334 -30 -38.001s-14.5 -30.667 -18.5 -48h253c-1.33301 16 -5 31.333 -11 46s-14.333 27.5 -25 38.5
s-23.167 19.667 -37.5 26s-30.833 9.5 -49.5 9.5zM311.001 708.998l24 -178h-79l-56 178h111z" />
    <glyph glyph-name="eacute" unicode="&#xe9;" horiz-adv-x="556" 
d="M293 -12c-34.667 0 -67.167 6.49707 -97.5 19.4971s-56.833 30.833 -79.5 53.5s-40.5 49.334 -53.5 80.001s-19.5 63.334 -19.5 98.001s6.16699 67.334 18.5 98.001s29 57.334 50 80.001s45.5 40.5 73.5 53.5s58 19.5 90 19.5c32.667 0 62.834 -5.66699 90.501 -17
s51.667 -29 72 -53s36.166 -54.5 47.499 -91.5s17 -81.167 17 -132.5h-356c4.66699 -17.333 12 -33.5 22 -48.5s21.833 -28 35.5 -39s29 -19.5 46 -25.5s34.833 -9 53.5 -9c25.333 0 48.833 4.66699 70.5 14s40.167 21.666 55.5 36.999l60 -60
c-23.333 -23.333 -51.833 -42 -85.5 -56s-70.5 -21 -110.5 -21zM275 401.997c-15.333 0 -29.832 -2.99902 -43.499 -8.99902s-26.334 -14.333 -38.001 -25s-21.667 -23.334 -30 -38.001s-14.5 -30.667 -18.5 -48h253c-1.33301 16 -5 31.333 -11 46s-14.333 27.5 -25 38.5
s-23.167 19.667 -37.5 26s-30.833 9.5 -49.5 9.5zM345.001 708.998l-56 -178h-79l24 178h111z" />
    <glyph glyph-name="ecircumflex" unicode="&#xea;" horiz-adv-x="556" 
d="M293 -12c-34.667 0 -67.167 6.49707 -97.5 19.4971s-56.833 30.833 -79.5 53.5s-40.5 49.334 -53.5 80.001s-19.5 63.334 -19.5 98.001s6.16699 67.334 18.5 98.001s29 57.334 50 80.001s45.5 40.5 73.5 53.5s58 19.5 90 19.5c32.667 0 62.834 -5.66699 90.501 -17
s51.667 -29 72 -53s36.166 -54.5 47.499 -91.5s17 -81.167 17 -132.5h-356c4.66699 -17.333 12 -33.5 22 -48.5s21.833 -28 35.5 -39s29 -19.5 46 -25.5s34.833 -9 53.5 -9c25.333 0 48.833 4.66699 70.5 14s40.167 21.666 55.5 36.999l60 -60
c-23.333 -23.333 -51.833 -42 -85.5 -56s-70.5 -21 -110.5 -21zM275 401.997c-15.333 0 -29.832 -2.99902 -43.499 -8.99902s-26.334 -14.333 -38.001 -25s-21.667 -23.334 -30 -38.001s-14.5 -30.667 -18.5 -48h253c-1.33301 16 -5 31.333 -11 46s-14.333 27.5 -25 38.5
s-23.167 19.667 -37.5 26s-30.833 9.5 -49.5 9.5zM286.001 671.998l-60 -88h-102l116 125h91l121 -125h-101z" />
    <glyph glyph-name="edieresis" unicode="&#xeb;" horiz-adv-x="556" 
d="M293 -12c-34.667 0 -67.167 6.49707 -97.5 19.4971s-56.833 30.833 -79.5 53.5s-40.5 49.334 -53.5 80.001s-19.5 63.334 -19.5 98.001s6.16699 67.334 18.5 98.001s29 57.334 50 80.001s45.5 40.5 73.5 53.5s58 19.5 90 19.5c32.667 0 62.834 -5.66699 90.501 -17
s51.667 -29 72 -53s36.166 -54.5 47.499 -91.5s17 -81.167 17 -132.5h-356c4.66699 -17.333 12 -33.5 22 -48.5s21.833 -28 35.5 -39s29 -19.5 46 -25.5s34.833 -9 53.5 -9c25.333 0 48.833 4.66699 70.5 14s40.167 21.666 55.5 36.999l60 -60
c-23.333 -23.333 -51.833 -42 -85.5 -56s-70.5 -21 -110.5 -21zM275 401.997c-15.333 0 -29.832 -2.99902 -43.499 -8.99902s-26.334 -14.333 -38.001 -25s-21.667 -23.334 -30 -38.001s-14.5 -30.667 -18.5 -48h253c-1.33301 16 -5 31.333 -11 46s-14.333 27.5 -25 38.5
s-23.167 19.667 -37.5 26s-30.833 9.5 -49.5 9.5zM162.001 583.998c-17.333 0 -32 6.16699 -44 18.5s-18 27.166 -18 44.499s6 32 18 44s26.667 18 44 18s32 -6 44 -18s18 -26.667 18 -44s-6 -32.166 -18 -44.499s-26.667 -18.5 -44 -18.5zM393.001 583.998
c-17.333 0 -32 6.16699 -44 18.5s-18 27.166 -18 44.499s6 32 18 44s26.667 18 44 18s32 -6 44 -18s18 -26.667 18 -44s-6 -32.166 -18 -44.499s-26.667 -18.5 -44 -18.5z" />
    <glyph glyph-name="igrave" unicode="&#xec;" horiz-adv-x="252" 
d="M186 0h-97v479h96zM148 709l24 -178h-79l-56 178h111z" />
    <glyph glyph-name="iacute" unicode="&#xed;" horiz-adv-x="252" 
d="M186 0h-97v479h96zM231 709l-56 -178h-79l24 178h111z" />
    <glyph glyph-name="icircumflex" unicode="&#xee;" horiz-adv-x="252" 
d="M176 0h-97v479h96zM124 672l-60 -88h-102l116 125h91l121 -125h-101z" />
    <glyph glyph-name="idieresis" unicode="&#xef;" horiz-adv-x="252" 
d="M181 0h-97v479h96zM11 584c-17.333 0 -32 6.16699 -44 18.5s-18 27.166 -18 44.499s6 32 18 44s26.667 18 44 18s32 -6 44 -18s18 -26.667 18 -44s-6 -32.166 -18 -44.499s-26.667 -18.5 -44 -18.5zM242 584c-17.333 0 -32 6.16699 -44 18.5s-18 27.166 -18 44.499
s6 32 18 44s26.667 18 44 18s32 -6 44 -18s18 -26.667 18 -44s-6 -32.166 -18 -44.499s-26.667 -18.5 -44 -18.5z" />
    <glyph glyph-name="ntilde" unicode="&#xf1;" horiz-adv-x="534" 
d="M151 0l-97.001 -0.000976562v479h77l20 -42c16 15.333 35.333 28 58 38s47.334 15 74.001 15c17.333 0 37 -2.66699 59 -8s42.5 -15.333 61.5 -30s35 -35 48 -61s19.5 -59.667 19.5 -101v-290h-92v291c0 20.667 -3.16699 38.167 -9.5 52.5s-14.666 25.833 -24.999 34.5
s-22 14.834 -35 18.501s-26.5 5.5 -40.5 5.5c-10.667 0 -22.834 -2 -36.501 -6s-26.5 -10.5 -38.5 -19.5s-22.167 -20.333 -30.5 -34s-12.5 -30.5 -12.5 -50.5v-292zM348.999 652.999c13.333 2 26.166 7.99609 38.499 17.9961s22.833 20 31.5 30l20.5 -20
c7 -6.66699 13.167 -13.667 18.5 -21c-4.66699 -7.33301 -10.334 -15.166 -17.001 -23.499s-14.334 -16.333 -23.001 -24s-18 -14.167 -28 -19.5s-20.667 -9 -32 -11c-3.33301 -0.666992 -6.16602 -1.16699 -8.49902 -1.5s-4.83301 -0.5 -7.5 -0.5
c-14.667 0 -28.167 3.33301 -40.5 10s-24.166 14.334 -35.499 23.001c-9.33301 6.66699 -18.833 12.334 -28.5 17.001s-20.5 7 -32.5 7c-6.66699 0 -11.667 -0.333008 -15 -1c-13.333 -2 -25.333 -7.16699 -36 -15.5s-19.667 -19.166 -27 -32.499l-51 34
c8 16.667 20.333 33.667 37 51s39.334 28.666 68.001 33.999c3.33301 0.666992 6.5 1.16699 9.5 1.5s6.16699 0.5 9.5 0.5c17.333 0 32.833 -3.33301 46.5 -10s26.167 -13.667 37.5 -21l3 -2l6 -4l3 -2c8 -5.33301 15.5 -9.66602 22.5 -12.999s14.167 -5 21.5 -5
c4 0 7 0.333008 9 1z" />
    <glyph glyph-name="ograve" unicode="&#xf2;" horiz-adv-x="558" 
d="M276 -12c-33.333 0 -64.5 6.5 -93.5 19.5s-54.333 30.833 -76 53.5s-38.834 49.334 -51.501 80.001s-19 63.334 -19 98.001s6.33301 67.334 19 98.001s29.834 57.334 51.501 80.001s47 40.5 76 53.5s60.167 19.5 93.5 19.5c32.667 0 63.667 -6.5 93 -19.5
s54.833 -30.833 76.5 -53.5s38.834 -49.334 51.501 -80.001s19 -63.334 19 -98.001s-6.33301 -67.334 -19 -98.001s-29.834 -57.334 -51.501 -80.001s-47.167 -40.5 -76.5 -53.5s-60.333 -19.5 -93 -19.5zM276 403c-19.333 0 -37.666 -4.33301 -54.999 -13
s-32.5 -20.334 -45.5 -35.001s-23.167 -32 -30.5 -52s-11 -41.333 -11 -64s3.66699 -44 11 -64s17.5 -37.5 30.5 -52.5s28.167 -26.833 45.5 -35.5s35.666 -13 54.999 -13s37.666 4.33301 54.999 13s32.333 20.5 45 35.5s22.667 32.5 30 52.5s11 41.333 11 64
s-3.66699 44 -11 64s-17.333 37.333 -30 52s-27.667 26.334 -45 35.001s-35.666 13 -54.999 13zM322 709l24 -178h-79l-56 178h111z" />
    <glyph glyph-name="oacute" unicode="&#xf3;" horiz-adv-x="558" 
d="M276 -12c-33.333 0 -64.5 6.5 -93.5 19.5s-54.333 30.833 -76 53.5s-38.834 49.334 -51.501 80.001s-19 63.334 -19 98.001s6.33301 67.334 19 98.001s29.834 57.334 51.501 80.001s47 40.5 76 53.5s60.167 19.5 93.5 19.5c32.667 0 63.667 -6.5 93 -19.5
s54.833 -30.833 76.5 -53.5s38.834 -49.334 51.501 -80.001s19 -63.334 19 -98.001s-6.33301 -67.334 -19 -98.001s-29.834 -57.334 -51.501 -80.001s-47.167 -40.5 -76.5 -53.5s-60.333 -19.5 -93 -19.5zM276 403c-19.333 0 -37.666 -4.33301 -54.999 -13
s-32.5 -20.334 -45.5 -35.001s-23.167 -32 -30.5 -52s-11 -41.333 -11 -64s3.66699 -44 11 -64s17.5 -37.5 30.5 -52.5s28.167 -26.833 45.5 -35.5s35.666 -13 54.999 -13s37.666 4.33301 54.999 13s32.333 20.5 45 35.5s22.667 32.5 30 52.5s11 41.333 11 64
s-3.66699 44 -11 64s-17.333 37.333 -30 52s-27.667 26.334 -45 35.001s-35.666 13 -54.999 13zM346 709l-56 -178h-79l24 178h111z" />
    <glyph glyph-name="ocircumflex" unicode="&#xf4;" horiz-adv-x="558" 
d="M276 -12c-33.333 0 -64.5 6.5 -93.5 19.5s-54.333 30.833 -76 53.5s-38.834 49.334 -51.501 80.001s-19 63.334 -19 98.001s6.33301 67.334 19 98.001s29.834 57.334 51.501 80.001s47 40.5 76 53.5s60.167 19.5 93.5 19.5c32.667 0 63.667 -6.5 93 -19.5
s54.833 -30.833 76.5 -53.5s38.834 -49.334 51.501 -80.001s19 -63.334 19 -98.001s-6.33301 -67.334 -19 -98.001s-29.834 -57.334 -51.501 -80.001s-47.167 -40.5 -76.5 -53.5s-60.333 -19.5 -93 -19.5zM276 403c-19.333 0 -37.666 -4.33301 -54.999 -13
s-32.5 -20.334 -45.5 -35.001s-23.167 -32 -30.5 -52s-11 -41.333 -11 -64s3.66699 -44 11 -64s17.5 -37.5 30.5 -52.5s28.167 -26.833 45.5 -35.5s35.666 -13 54.999 -13s37.666 4.33301 54.999 13s32.333 20.5 45 35.5s22.667 32.5 30 52.5s11 41.333 11 64
s-3.66699 44 -11 64s-17.333 37.333 -30 52s-27.667 26.334 -45 35.001s-35.666 13 -54.999 13zM277 672l-60 -88h-102l116 125h91l121 -125h-101z" />
    <glyph glyph-name="otilde" unicode="&#xf5;" horiz-adv-x="558" 
d="M276 -12c-33.333 0 -64.5 6.5 -93.5 19.5s-54.333 30.833 -76 53.5s-38.834 49.334 -51.501 80.001s-19 63.334 -19 98.001s6.33301 67.334 19 98.001s29.834 57.334 51.501 80.001s47 40.5 76 53.5s60.167 19.5 93.5 19.5c32.667 0 63.667 -6.5 93 -19.5
s54.833 -30.833 76.5 -53.5s38.834 -49.334 51.501 -80.001s19 -63.334 19 -98.001s-6.33301 -67.334 -19 -98.001s-29.834 -57.334 -51.501 -80.001s-47.167 -40.5 -76.5 -53.5s-60.333 -19.5 -93 -19.5zM276 403c-19.333 0 -37.666 -4.33301 -54.999 -13
s-32.5 -20.334 -45.5 -35.001s-23.167 -32 -30.5 -52s-11 -41.333 -11 -64s3.66699 -44 11 -64s17.5 -37.5 30.5 -52.5s28.167 -26.833 45.5 -35.5s35.666 -13 54.999 -13s37.666 4.33301 54.999 13s32.333 20.5 45 35.5s22.667 32.5 30 52.5s11 41.333 11 64
s-3.66699 44 -11 64s-17.333 37.333 -30 52s-27.667 26.334 -45 35.001s-35.666 13 -54.999 13zM361 653c13.333 2 26.166 7.99609 38.499 17.9961s22.833 20 31.5 30l20.5 -20c7 -6.66699 13.167 -13.667 18.5 -21c-4.66699 -7.33301 -10.334 -15.166 -17.001 -23.499
s-14.334 -16.333 -23.001 -24s-18 -14.167 -28 -19.5s-20.667 -9 -32 -11c-3.33301 -0.666992 -6.16602 -1.16699 -8.49902 -1.5s-4.83301 -0.5 -7.5 -0.5c-14.667 0 -28.167 3.33301 -40.5 10s-24.166 14.334 -35.499 23.001c-9.33301 6.66699 -18.833 12.334 -28.5 17.001
s-20.5 7 -32.5 7c-6.66699 0 -11.667 -0.333008 -15 -1c-13.333 -2 -25.333 -7.16699 -36 -15.5s-19.667 -19.166 -27 -32.499l-51 34c8 16.667 20.333 33.667 37 51s39.334 28.666 68.001 33.999c3.33301 0.666992 6.5 1.16699 9.5 1.5s6.16699 0.5 9.5 0.5
c17.333 0 32.833 -3.33301 46.5 -10s26.167 -13.667 37.5 -21l3 -2l6 -4l3 -2c8 -5.33301 15.5 -9.66602 22.5 -12.999s14.167 -5 21.5 -5c4 0 7 0.333008 9 1z" />
    <glyph glyph-name="odieresis" unicode="&#xf6;" horiz-adv-x="540" 
d="M271 -12c-33.333 0 -64.5 6.5 -93.5 19.5s-54.333 30.833 -76 53.5s-38.834 49.334 -51.501 80.001s-19 63.334 -19 98.001s6.33301 67.334 19 98.001s29.834 57.334 51.501 80.001s47 40.5 76 53.5s60.167 19.5 93.5 19.5c32.667 0 63.667 -6.5 93 -19.5
s54.833 -30.833 76.5 -53.5s38.834 -49.334 51.501 -80.001s19 -63.334 19 -98.001s-6.33301 -67.334 -19 -98.001s-29.834 -57.334 -51.501 -80.001s-47.167 -40.5 -76.5 -53.5s-60.333 -19.5 -93 -19.5zM271 403c-19.333 0 -37.666 -4.33301 -54.999 -13
s-32.5 -20.334 -45.5 -35.001s-23.167 -32 -30.5 -52s-11 -41.333 -11 -64s3.66699 -44 11 -64s17.5 -37.5 30.5 -52.5s28.167 -26.833 45.5 -35.5s35.666 -13 54.999 -13s37.666 4.33301 54.999 13s32.333 20.5 45 35.5s22.667 32.5 30 52.5s11 41.333 11 64
s-3.66699 44 -11 64s-17.333 37.333 -30 52s-27.667 26.334 -45 35.001s-35.666 13 -54.999 13zM158 584c-17.333 0 -32 6.16699 -44 18.5s-18 27.166 -18 44.499s6 32 18 44s26.667 18 44 18s32 -6 44 -18s18 -26.667 18 -44s-6 -32.166 -18 -44.499
s-26.667 -18.5 -44 -18.5zM389 584c-17.333 0 -32 6.16699 -44 18.5s-18 27.166 -18 44.499s6 32 18 44s26.667 18 44 18s32 -6 44 -18s18 -26.667 18 -44s-6 -32.166 -18 -44.499s-26.667 -18.5 -44 -18.5z" />
    <glyph glyph-name="divide" unicode="&#xf7;" horiz-adv-x="517" 
d="M510 243v-66h-503v66h503zM255 300c-17.333 0 -32 6 -44 18s-18 26.667 -18 44s6 32.166 18 44.499s26.667 18.5 44 18.5s32.166 -6.16699 44.499 -18.5s18.5 -27.166 18.5 -44.499s-6.16699 -32 -18.5 -44s-27.166 -18 -44.499 -18zM193 52c0 17.333 6 32.166 18 44.499
s26.667 18.5 44 18.5s32 -6.16699 44 -18.5s18 -27.166 18 -44.499s-6 -32 -18 -44s-26.667 -18 -44 -18s-32 6 -44 18s-18 26.667 -18 44z" />
    <glyph glyph-name="oslash" unicode="&#xf8;" horiz-adv-x="536" 
d="M113 47c-26 23.333 -46.667 51.5 -62 84.5s-23 68.833 -23 107.5c0 34.667 6.33301 67.334 19 98.001s29.834 57.334 51.501 80.001s47 40.5 76 53.5s60.167 19.5 93.5 19.5s65.666 -7.33301 96.999 -22l33 56l57 -34l-34 -58c26.667 -23.333 47.834 -51.5 63.501 -84.5
s23.5 -69.167 23.5 -108.5c0 -34.667 -6.33301 -67.334 -19 -98.001s-29.834 -57.334 -51.501 -80.001s-47.167 -40.5 -76.5 -53.5s-60.333 -19.5 -93 -19.5c-34.667 0 -67.667 7.33301 -99 22l-27 -45l-57 34zM409 239c0 21.333 -3.49902 41.5 -10.499 60.5
s-16.167 35.833 -27.5 50.5l-157 -264c16.667 -8 34.667 -12 54 -12s37.666 4.33301 54.999 13s32.333 20.5 45 35.5s22.667 32.5 30 52.5s11 41.333 11 64zM268.001 403c-19.333 0 -37.666 -4.33105 -54.999 -12.998s-32.5 -20.334 -45.5 -35.001s-23.167 -32 -30.5 -52
s-11 -41.333 -11 -64c0 -21.333 3.16699 -41.333 9.5 -60s15.166 -35.334 26.499 -50.001l157 263c-16.667 7.33301 -33.667 11 -51 11z" />
    <glyph glyph-name="ugrave" unicode="&#xf9;" horiz-adv-x="535" 
d="M380 43c-16.667 -15.333 -36.167 -28.001 -58.5 -38.001s-47.166 -15 -74.499 -15c-17.333 0 -37 2.5 -59 7.5s-42.5 14.833 -61.5 29.5s-35 34.834 -48 60.501s-19.5 59.167 -19.5 100.5v291h92v-291c0 -20.667 3.16699 -38.167 9.5 -52.5s14.666 -25.833 24.999 -34.5
s22.166 -15 35.499 -19s27 -6 41 -6c10.667 0 22.834 2 36.501 6s26.5 10.5 38.5 19.5s22.167 20.5 30.5 34.5s12.5 31 12.5 51v292h97v-479h-77zM311 708.999l24 -178h-79l-56 178h111z" />
    <glyph glyph-name="uacute" unicode="&#xfa;" horiz-adv-x="535" 
d="M380 43c-16.667 -15.333 -36.167 -28.001 -58.5 -38.001s-47.166 -15 -74.499 -15c-17.333 0 -37 2.5 -59 7.5s-42.5 14.833 -61.5 29.5s-35 34.834 -48 60.501s-19.5 59.167 -19.5 100.5v291h92v-291c0 -20.667 3.16699 -38.167 9.5 -52.5s14.666 -25.833 24.999 -34.5
s22.166 -15 35.499 -19s27 -6 41 -6c10.667 0 22.834 2 36.501 6s26.5 10.5 38.5 19.5s22.167 20.5 30.5 34.5s12.5 31 12.5 51v292h97v-479h-77zM335 708.999l-56 -178h-79l24 178h111z" />
    <glyph glyph-name="ucircumflex" unicode="&#xfb;" horiz-adv-x="535" 
d="M380 43c-16.667 -15.333 -36.167 -28.001 -58.5 -38.001s-47.166 -15 -74.499 -15c-17.333 0 -37 2.5 -59 7.5s-42.5 14.833 -61.5 29.5s-35 34.834 -48 60.501s-19.5 59.167 -19.5 100.5v291h92v-291c0 -20.667 3.16699 -38.167 9.5 -52.5s14.666 -25.833 24.999 -34.5
s22.166 -15 35.499 -19s27 -6 41 -6c10.667 0 22.834 2 36.501 6s26.5 10.5 38.5 19.5s22.167 20.5 30.5 34.5s12.5 31 12.5 51v292h97v-479h-77zM265 671.999l-60 -88h-102l116 125h91l121 -125h-101z" />
    <glyph glyph-name="udieresis" unicode="&#xfc;" horiz-adv-x="542" 
d="M380 43c-16.667 -15.333 -36.167 -28.001 -58.5 -38.001s-47.166 -15 -74.499 -15c-17.333 0 -37 2.5 -59 7.5s-42.5 14.833 -61.5 29.5s-35 34.834 -48 60.501s-19.5 59.167 -19.5 100.5v291h92v-291c0 -20.667 3.16699 -38.167 9.5 -52.5s14.666 -25.833 24.999 -34.5
s22.166 -15 35.499 -19s27 -6 41 -6c10.667 0 22.834 2 36.501 6s26.5 10.5 38.5 19.5s22.167 20.5 30.5 34.5s12.5 31 12.5 51v292h97v-479h-77zM154 583.999c-17.333 0 -32 6.16699 -44 18.5s-18 27.166 -18 44.499s6 32 18 44s26.667 18 44 18s32 -6 44 -18
s18 -26.667 18 -44s-6 -32.166 -18 -44.499s-26.667 -18.5 -44 -18.5zM385 583.999c-17.333 0 -32 6.16699 -44 18.5s-18 27.166 -18 44.499s6 32 18 44s26.667 18 44 18s32 -6 44 -18s18 -26.667 18 -44s-6 -32.166 -18 -44.499s-26.667 -18.5 -44 -18.5z" />
    <glyph glyph-name="ydieresis" unicode="&#xff;" horiz-adv-x="535" 
d="M213 54l-203 425h108l148 -311l145 311h107l-309 -670h-107zM152 583c-17.333 0 -32 6.16699 -44 18.5s-18 27.166 -18 44.499s6 32 18 44s26.667 18 44 18s32 -6 44 -18s18 -26.667 18 -44s-6 -32.166 -18 -44.499s-26.667 -18.5 -44 -18.5zM383 583
c-17.333 0 -32 6.16699 -44 18.5s-18 27.166 -18 44.499s6 32 18 44s26.667 18 44 18s32 -6 44 -18s18 -26.667 18 -44s-6 -32.166 -18 -44.499s-26.667 -18.5 -44 -18.5z" />
    <glyph glyph-name="Gbreve" unicode="&#x11e;" horiz-adv-x="703" 
d="M452 379l193.002 0.000976562v-260c-32 -38 -70.667 -69 -116 -93s-94.666 -36 -147.999 -36c-48 0 -93.333 9.66699 -136 29s-79.667 45.5 -111 78.5s-56.166 71.5 -74.499 115.5s-27.5 91 -27.5 141c0 49.333 9.16699 96.166 27.5 140.499s43.166 83 74.499 116
s68.333 59.167 111 78.5s88 29 136 29c44 0 85.667 -8.66699 125 -26s74.666 -40 105.999 -68l-62 -79c-22 23.333 -47.5 42.166 -76.5 56.499s-59.833 21.5 -92.5 21.5c-34 0 -65.833 -7.16699 -95.5 -21.5s-55.5 -33.833 -77.5 -58.5s-39.333 -53.167 -52 -85.5
s-19 -66.833 -19 -103.5s6.33301 -71.167 19 -103.5s30 -60.666 52 -84.999s47.833 -43.5 77.5 -57.5s61.5 -21 95.5 -21c31.333 0 60.666 6.16699 87.999 18.5s51.666 28.833 72.999 49.5v127h-90v97zM381.002 751.001c-18 0 -34.998 3.5 -50.998 10.5s-30 16.5 -42 28.5
s-21.5 26.167 -28.5 42.5s-10.5 33.5 -10.5 51.5h75c0 -15.333 5.66699 -28.666 17 -39.999s24.666 -17 39.999 -17s28.666 5.66699 39.999 17s17 24.666 17 39.999h76c0 -18 -3.5 -35.167 -10.5 -51.5s-16.5 -30.5 -28.5 -42.5s-26.167 -21.5 -42.5 -28.5
s-33.5 -10.5 -51.5 -10.5z" />
    <glyph glyph-name="gbreve" unicode="&#x11f;" horiz-adv-x="591" 
d="M274 24c-33.333 0 -63.999 6.16504 -91.999 18.498s-52.333 29.333 -73 51s-36.834 46.667 -48.501 75s-17.5 58.5 -17.5 90.5s5.83301 62 17.5 90s27.834 52.5 48.501 73.5s45 37.5 73 49.5s58.667 18 92 18s62.333 -5 87 -15s46.334 -24.333 65.001 -43l20 47h76v-7.5
v-17.5v-37v-66c0 -28 0.166992 -63 0.5 -105s0.5 -93 0.5 -153c0 -20 -0.666992 -39.5 -2 -58.5s-4.16602 -37.333 -8.49902 -55s-10.666 -34.667 -18.999 -51s-19.5 -32.166 -33.5 -47.499c-26.667 -28 -56.834 -46.833 -90.501 -56.5s-69.167 -14.5 -106.5 -14.5
c-32 0 -62.167 4 -90.5 12s-53.833 18.667 -76.5 32v108c13.333 -19.333 34.166 -35 62.499 -47s60.5 -18 96.5 -18c24 0 46.333 3.16699 67 9.5s38.667 16 54 29s27.5 29.833 36.5 50.5s13.5 45.334 13.5 74.001v19c-8 -7.33301 -17.833 -14.333 -29.5 -21
s-24.334 -12.5 -38.001 -17.5s-27.834 -9 -42.501 -12s-28.667 -4.5 -42 -4.5zM283.001 401.998c-19.333 0 -37.666 -3.66602 -54.999 -10.999s-32.5 -17.5 -45.5 -30.5s-23.167 -28.167 -30.5 -45.5s-11 -36 -11 -56s3.66699 -38.833 11 -56.5s17.5 -33 30.5 -46
s28.167 -23.333 45.5 -31s35.666 -11.5 54.999 -11.5s37.666 3 54.999 9s32.333 15 45 27s22.667 27 30 45s11 39.333 11 64c0 26 -3.66699 48.167 -11 66.5s-17.333 33.166 -30 44.499s-27.667 19.5 -45 24.5s-35.666 7.5 -54.999 7.5zM301.001 575.999
c-18 0 -34.998 3.5 -50.998 10.5s-30 16.5 -42 28.5s-21.5 26.167 -28.5 42.5s-10.5 33.5 -10.5 51.5h75c0 -15.333 5.66699 -28.666 17 -39.999s24.666 -17 39.999 -17s28.666 5.66699 39.999 17s17 24.666 17 39.999h76c0 -18 -3.5 -35.167 -10.5 -51.5
s-16.5 -30.5 -28.5 -42.5s-26.167 -21.5 -42.5 -28.5s-33.5 -10.5 -51.5 -10.5z" />
    <glyph glyph-name="Idotaccent" unicode="&#x130;" horiz-adv-x="335" 
d="M165 756c-17.333 0 -32 6.16699 -44 18.5s-18 27.166 -18 44.499s6 32 18 44s26.667 18 44 18s32 -6 44 -18s18 -26.667 18 -44s-6 -32.166 -18 -44.499s-26.667 -18.5 -44 -18.5zM219 623v-537h52v-86h-209v86h53v537h-53v86h209v-86h-52z" />
    <glyph glyph-name="dotlessi" unicode="&#x131;" horiz-adv-x="232" 
d="M165 0h-97v479h96z" />
    <glyph glyph-name="OE" unicode="&#x152;" horiz-adv-x="1025" 
d="M989 709l0.000976562 -94.001h-329v-193h293v-97h-293v-228h329v-97h-433v39c-26 -15.333 -53.5 -27.166 -82.5 -35.499s-59.167 -12.5 -90.5 -12.5c-48 0 -93.333 9.66699 -136 29s-79.834 45.5 -111.501 78.5s-56.667 71.5 -75 115.5s-27.5 91 -27.5 141
c0 49.333 9.16699 96.166 27.5 140.499s43.5 83 75.5 116s69.333 59.167 112 78.5s88 29 136 29c31.333 0 61.5 -4.16699 90.5 -12.5s56.167 -20.166 81.5 -35.499v38h433zM384.001 89.999c34 0 65.667 6.83301 95 20.5s55 32.5 77 56.5v375c-22 24 -47.667 42.833 -77 56.5
s-61 20.5 -95 20.5s-65.833 -6.83301 -95.5 -20.5s-55.5 -32.5 -77.5 -56.5s-39.5 -52 -52.5 -84s-19.5 -66.333 -19.5 -103s6.5 -71.167 19.5 -103.5s30.5 -60.5 52.5 -84.5s47.833 -42.833 77.5 -56.5s61.5 -20.5 95.5 -20.5z" />
    <glyph glyph-name="oe" unicode="&#x153;" horiz-adv-x="912" 
d="M667 -12c-41.333 0 -79.1689 8.99707 -113.502 26.9971s-63.166 42 -86.499 72c-22 -30 -49.5 -54 -82.5 -72s-69.167 -27 -108.5 -27c-33.333 0 -64.5 6.5 -93.5 19.5s-54.333 30.833 -76 53.5s-38.834 49.334 -51.501 80.001s-19 63.334 -19 98.001
s6.33301 67.334 19 98.001s29.834 57.334 51.501 80.001s47 40.5 76 53.5s60.167 19.5 93.5 19.5c38.667 0 74.334 -8.83301 107.001 -26.5s60 -41.5 82 -71.5c21.333 30 48 53.833 80 71.5s66.667 26.5 104 26.5c32.667 0 62.834 -5.66699 90.501 -17s51.667 -29 72 -53
s36.166 -54.5 47.499 -91.5s17 -81.167 17 -132.5h-356c4.66699 -17.333 12 -33.5 22 -48.5s21.833 -28 35.5 -39s29 -19.5 46 -25.5s34.833 -9 53.5 -9c25.333 0 48.833 4.66699 70.5 14s40.167 21.666 55.5 36.999l60 -60c-23.333 -23.333 -51.833 -42 -85.5 -56
s-70.5 -21 -110.5 -21zM275.997 402.997c-19.333 0 -37.666 -4.33203 -54.999 -12.999s-32.5 -20.334 -45.5 -35.001s-23.167 -32 -30.5 -52s-11 -41.333 -11 -64s3.66699 -44 11 -64s17.5 -37.5 30.5 -52.5s28.167 -26.833 45.5 -35.5s35.666 -13 54.999 -13
c18.667 0 36.5 4.16699 53.5 12.5s31.833 19.5 44.5 33.5s22.834 30.667 30.501 50s11.834 40 12.501 62v14c-0.666992 22 -4.83398 42.5 -12.501 61.5s-17.834 35.667 -30.501 50s-27.5 25.5 -44.5 33.5s-34.833 12 -53.5 12zM648.997 401.998
c-15.333 0 -29.832 -2.99902 -43.499 -8.99902s-26.334 -14.333 -38.001 -25s-21.667 -23.334 -30 -38.001s-14.5 -30.667 -18.5 -48h253c-1.33301 16 -5 31.333 -11 46s-14.333 27.5 -25 38.5s-23.167 19.667 -37.5 26s-30.833 9.5 -49.5 9.5z" />
    <glyph glyph-name="Scedilla" unicode="&#x15e;" horiz-adv-x="551" 
d="M268 -79c-12 0 -23.332 -2.99707 -33.999 -8.99707l-29 28l36 52c-48.667 4.66699 -92.334 18 -131.001 40s-67.334 50.333 -86.001 85l89 46c13.333 -24 34.5 -42.5 63.5 -55.5s62.167 -19.5 99.5 -19.5c96.667 0 145 37 145 111c0 14 -2.5 26 -7.5 36
s-12.5 19.333 -22.5 28c-24 20 -67 38 -129 54c-37.333 9.33301 -69 19.666 -95 30.999s-47.667 24.666 -65 39.999c-42 34 -63 79 -63 135c0 28 5.5 54.167 16.5 78.5s26.5 45.5 46.5 63.5c20.667 18 44.834 31.5 72.501 40.5s58.167 13.5 91.5 13.5
c48.667 0 93.5 -9.33301 134.5 -28s72.167 -45 93.5 -79l-81 -50c-19.333 23.333 -41.666 39.833 -66.999 49.5s-52 14.5 -80 14.5c-20 0 -38.333 -3.33301 -55 -10s-30.667 -14.667 -42 -24c-9.33301 -8 -16.166 -17.833 -20.499 -29.5s-6.5 -24.167 -6.5 -37.5
c0 -8.66699 1.33301 -17.5 4 -26.5s9 -18.333 19 -28s24.667 -19 44 -28s45.666 -17.833 78.999 -26.5c40 -10 73.667 -20.833 101 -32.5s50.333 -25.5 69 -41.5c44 -36 66 -83.667 66 -143c0 -30 -6 -57.833 -18 -83.5s-29.667 -48.167 -53 -67.5
c-42 -34.667 -95.333 -53.667 -160 -57l-24 -38c31.333 6 54.666 3 69.999 -9s23 -28 23 -48c0 -25.333 -9.33301 -43.833 -28 -55.5s-40.667 -17.5 -66 -17.5c-7.33301 0 -15.666 0.333008 -24.999 1s-17.333 1.66699 -24 3c1.33301 5.33301 2.66602 11 3.99902 17
s2.66602 11.667 3.99902 17c3.33301 -0.666992 7 -1.16699 11 -1.5s8.66699 -0.5 14 -0.5c14 0 26.167 2.5 36.5 7.5s15.5 13.167 15.5 24.5c0 9.33301 -3.16699 16.666 -9.5 21.999s-15.166 8 -26.499 8z" />
    <glyph glyph-name="scedilla" unicode="&#x15f;" horiz-adv-x="444" 
d="M215 -79c-12 0 -23.3291 -3.00391 -33.9961 -9.00391l-29 28l35 51c-18.667 2 -36.167 6.33301 -52.5 13s-31.166 15 -44.499 25c-12.667 9.33301 -23.167 20.333 -31.5 33s-14.833 25.667 -19.5 39l82 37c5.33301 -11.333 10.333 -19.666 15 -24.999
s9.33398 -9.66602 14.001 -12.999c8.66699 -7.33301 19 -12.833 31 -16.5s24.667 -5.5 38 -5.5c26.667 0 49 7.33301 67 22c7.33301 6 13.666 13.5 18.999 22.5s6.33301 18.5 3 28.5c-2.66699 8.66699 -8 16.167 -16 22.5s-17.333 11.5 -28 15.5
s-21.334 7.16699 -32.001 9.5s-19.667 4.5 -27 6.5c-22 5.33301 -42.667 11.833 -62 19.5s-36.166 17 -50.499 28s-25.666 24 -33.999 39s-12.5 32.833 -12.5 53.5c0 19.333 5.16699 38.333 15.5 57s24.166 34.667 41.499 48c15.333 12 33.166 21.167 53.499 27.5
s41.166 9.5 62.499 9.5s42.166 -3.16699 62.499 -9.5s38.166 -15.5 53.499 -27.5c14 -10.667 25.333 -23.334 34 -38.001s14.667 -29.667 18 -45l-87 -21c-4 16 -12.667 29.5 -26 40.5s-31.666 16.5 -54.999 16.5c-12 0 -24 -2.66699 -36 -8s-22 -12.666 -30 -21.999
c-7.33301 -8 -10.333 -17.667 -9 -29s6.66602 -20.666 15.999 -27.999c10 -7.33301 20.5 -12.666 31.5 -15.999l33.5 -10c30.667 -7.33301 55.334 -14.666 74.001 -21.999s34.667 -15.333 48 -24c21.333 -12.667 36.666 -27.5 45.999 -44.5s14 -36.5 14 -58.5
c0 -21.333 -5.5 -42.833 -16.5 -64.5s-27.167 -39.167 -48.5 -52.5c-29.333 -18.667 -63.333 -30 -102 -34l-24 -37c31.333 6 54.666 3 69.999 -9s23 -28 23 -48c0 -25.333 -9.33301 -43.833 -28 -55.5s-40.667 -17.5 -66 -17.5c-7.33301 0 -15.666 0.333008 -24.999 1
s-17.333 1.66699 -24 3c1.33301 5.33301 2.66602 11 3.99902 17s2.66602 11.667 3.99902 17c3.33301 -0.666992 7 -1.16699 11 -1.5s8.66699 -0.5 14 -0.5c14 0 26.167 2.5 36.5 7.5s15.5 13.167 15.5 24.5c0 9.33301 -3.16699 16.666 -9.5 21.999s-15.166 8 -26.499 8z" />
    <glyph glyph-name="Ydieresis" unicode="&#x178;" horiz-adv-x="627" 
d="M259 332l-250 377h125l177 -266l177 266h126l-250 -377v-332h-105v332zM198 756c-17.333 0 -32 6.16699 -44 18.5s-18 27.166 -18 44.499s6 32 18 44s26.667 18 44 18s32 -6 44 -18s18 -26.667 18 -44s-6 -32.166 -18 -44.499s-26.667 -18.5 -44 -18.5zM429 756
c-17.333 0 -32 6.16699 -44 18.5s-18 27.166 -18 44.499s6 32 18 44s26.667 18 44 18s32 -6 44 -18s18 -26.667 18 -44s-6 -32.166 -18 -44.499s-26.667 -18.5 -44 -18.5z" />
    <glyph glyph-name="florin" unicode="&#x192;" horiz-adv-x="494" 
d="M12 -124c0 17.333 6.00098 32.166 18.001 44.499s26.667 18.5 44 18.5c16 0 30 -5.5 42 -16.5s18.667 -24.5 20 -40.5c19.333 4 34.5 14.333 45.5 31s16.5 40.334 16.5 71.001v408h-82v67l82 20v88c0 34.667 4.33301 64.334 13 89.001s20.5 45 35.5 61
s32.333 27.833 52 35.5s40.5 11.5 62.5 11.5c12 0 25 -1.16699 39 -3.5s27 -6.16602 39 -11.499s22 -13 30 -23s12 -22.333 12 -37c0 -17.333 -6 -32 -18 -44s-26.667 -18 -44 -18c-16.667 0 -30.834 5.5 -42.501 16.5s-18.167 24.5 -19.5 40.5
c-19.333 -4 -34.5 -14.333 -45.5 -31s-16.5 -40.334 -16.5 -71.001v-103h148v-87h-148v-393c0 -34.667 -4.5 -64.334 -13.5 -89.001s-21 -45 -36 -61s-32.333 -27.833 -52 -35.5s-40.5 -11.5 -62.5 -11.5c-12 0 -24.833 1.16699 -38.5 3.5s-26.5 6.16602 -38.5 11.499
s-22 12.833 -30 22.5s-12 21.834 -12 36.501z" />
    <glyph glyph-name="circumflex" unicode="&#x2c6;" horiz-adv-x="359" 
d="M175 844l-60 -88h-102l116 125h91l121 -125h-101z" />
    <glyph glyph-name="caron" unicode="&#x2c7;" horiz-adv-x="353" 
d="M240 861h101l-121 -125h-91l-116 125h102l60 -88z" />
    <glyph glyph-name="breve" unicode="&#x2d8;" horiz-adv-x="375" 
d="M175 751c-18 0 -34.998 3.5 -50.998 10.5s-30 16.5 -42 28.5s-21.5 26.167 -28.5 42.5s-10.5 33.5 -10.5 51.5h75c0 -15.333 5.66699 -28.666 17 -39.999s24.666 -17 39.999 -17s28.666 5.66699 39.999 17s17 24.666 17 39.999h76c0 -18 -3.5 -35.167 -10.5 -51.5
s-16.5 -30.5 -28.5 -42.5s-26.167 -21.5 -42.5 -28.5s-33.5 -10.5 -51.5 -10.5z" />
    <glyph glyph-name="dotaccent" unicode="&#x2d9;" horiz-adv-x="184" 
d="M92 756c-17.333 0 -32 6.16699 -44 18.5s-18 27.166 -18 44.499s6 32 18 44s26.667 18 44 18s32 -6 44 -18s18 -26.667 18 -44s-6 -32.166 -18 -44.499s-26.667 -18.5 -44 -18.5z" />
    <glyph glyph-name="ring" unicode="&#x2da;" horiz-adv-x="299" 
d="M153 789c14.667 0 28.5 -2.83301 41.5 -8.5s24.333 -13.334 34 -23.001s17.334 -21 23.001 -34s8.5 -26.833 8.5 -41.5s-2.83301 -28.5 -8.5 -41.5s-13.334 -24.333 -23.001 -34s-21 -17.334 -34 -23.001s-26.833 -8.5 -41.5 -8.5c-15.333 0 -29.5 2.83301 -42.5 8.5
s-24.167 13.334 -33.5 23.001s-16.833 21 -22.5 34s-8.5 26.833 -8.5 41.5s2.83301 28.5 8.5 41.5s13.167 24.333 22.5 34s20.5 17.334 33.5 23.001s27.167 8.5 42.5 8.5zM153 638c12.667 0 23 4.33301 31 13s12 19 12 31c0 12.667 -4 23 -12 31s-18.333 12 -31 12
s-23.167 -4 -31.5 -12s-12.5 -18.333 -12.5 -31c0 -12 4.16699 -22.333 12.5 -31s18.833 -13 31.5 -13z" />
    <glyph glyph-name="ogonek" unicode="&#x2db;" horiz-adv-x="213" 
d="M129 -38c-9.33301 -9.33301 -18.667 -21.001 -28 -35.001s-14 -28 -14 -42c1.33301 -17.333 9.66602 -29.666 24.999 -36.999s31.666 -11 48.999 -11c10 0 19.667 1 29 3l7 -29c-4.66699 -2 -10 -3.66699 -16 -5c-5.33301 -1.33301 -11.666 -2.33301 -18.999 -3
s-15.666 -1 -24.999 -1c-14 0 -27.5 1.83301 -40.5 5.5s-24.5 9 -34.5 16s-17.833 15.5 -23.5 25.5s-8.5 21.333 -8.5 34c0 15.333 3.66699 29.333 11 42s16.333 25 27 37h61z" />
    <glyph glyph-name="tilde" unicode="&#x2dc;" horiz-adv-x="443" 
d="M303 818c13.333 2 26.166 7.99609 38.499 17.9961s22.833 20 31.5 30l20.5 -20c7 -6.66699 13.167 -13.667 18.5 -21c-4.66699 -7.33301 -10.334 -15.166 -17.001 -23.499s-14.334 -16.333 -23.001 -24s-18 -14.167 -28 -19.5s-20.667 -9 -32 -11
c-3.33301 -0.666992 -6.16602 -1.16699 -8.49902 -1.5s-4.83301 -0.5 -7.5 -0.5c-14.667 0 -28.167 3.33301 -40.5 10s-24.166 14.334 -35.499 23.001c-9.33301 6.66699 -18.833 12.334 -28.5 17.001s-20.5 7 -32.5 7c-6.66699 0 -11.667 -0.333008 -15 -1
c-13.333 -2 -25.333 -7.16699 -36 -15.5s-19.667 -19.166 -27 -32.499l-51 34c8 16.667 20.333 33.667 37 51s39.334 28.666 68.001 33.999c3.33301 0.666992 6.5 1.16699 9.5 1.5s6.16699 0.5 9.5 0.5c17.333 0 32.833 -3.33301 46.5 -10s26.167 -13.667 37.5 -21l3 -2
l6 -4l3 -2c8 -5.33301 15.5 -9.66602 22.5 -12.999s14.167 -5 21.5 -5c4 0 7 0.333008 9 1z" />
    <glyph glyph-name="hungarumlaut" unicode="&#x2dd;" horiz-adv-x="381" 
d="M174 709l-56 -178h-79l24 178h111zM350 709l-56 -178h-79l24 178h111z" />
    <glyph glyph-name="endash" unicode="&#x2013;" horiz-adv-x="699" 
d="M655 300v-66h-611v66h611z" />
    <glyph glyph-name="emdash" unicode="&#x2014;" horiz-adv-x="793" 
d="M749 300v-66h-705v66h705z" />
    <glyph glyph-name="quoteright001" unicode="&#x2018;" horiz-adv-x="196" 
d="M53 463l-33 245h80l65 -245h-112z" />
    <glyph glyph-name="quoteright" unicode="&#x2019;" horiz-adv-x="205" 
d="M177 709l-65 -245h-80l33 245h112z" />
    <glyph glyph-name="quotesinglbase" unicode="&#x201a;" horiz-adv-x="192" 
d="M110 -128h-81l33 246h113z" />
    <glyph glyph-name="quotedblleft" unicode="&#x201c;" horiz-adv-x="374" 
d="M223 463l-33 245h80l65 -245h-112zM65 463l-33 245h80l65 -245h-112z" />
    <glyph glyph-name="quotedblright" unicode="&#x201d;" horiz-adv-x="373" 
d="M184 709l-65 -245h-80l33 245h112zM341 709l-65 -245h-80l33 245h112z" />
    <glyph glyph-name="quotedblbase" unicode="&#x201e;" horiz-adv-x="391" 
d="M118 -128h-81l33 246h113zM296 -128h-81l33 246h113z" />
    <glyph glyph-name="dagger" unicode="&#x2020;" horiz-adv-x="305" 
d="M6 510h113v246h66v-246h115v-66h-115v-595h-66v595h-113v66z" />
    <glyph glyph-name="daggerdbl" unicode="&#x2021;" horiz-adv-x="436" 
d="M431 115h-181v-306h-66v306h-179v65h179v232h-179v66h179v278h66v-278h181v-66h-181v-232h181v-65z" />
    <glyph glyph-name="bullet" unicode="&#x2022;" horiz-adv-x="296" 
d="M66 196c-22 22 -33.001 48.667 -33.001 80c0 32.667 11 59.667 33 81c22.667 22 50 33 82 33c31.333 0 58.666 -11 81.999 -33c22 -21.333 33 -48.333 33 -81c0 -32 -11 -58.333 -33 -79c-23.333 -22 -50.666 -33 -81.999 -33s-58.666 10.667 -81.999 32z" />
    <glyph glyph-name="ellipsis" unicode="&#x2026;" horiz-adv-x="644" 
d="M41 52c0 17.333 6 32.166 18 44.499s26.667 18.5 44 18.5s32 -6.16699 44 -18.5s18 -27.166 18 -44.499s-6 -32 -18 -44s-26.667 -18 -44 -18s-32 6 -44 18s-18 26.667 -18 44zM260 52c0 17.333 6 32.166 18 44.499s26.667 18.5 44 18.5s32 -6.16699 44 -18.5
s18 -27.166 18 -44.499s-6 -32 -18 -44s-26.667 -18 -44 -18s-32 6 -44 18s-18 26.667 -18 44zM479 52c0 17.333 6 32.166 18 44.499s26.667 18.5 44 18.5s32 -6.16699 44 -18.5s18 -27.166 18 -44.499s-6 -32 -18 -44s-26.667 -18 -44 -18s-32 6 -44 18s-18 26.667 -18 44z
" />
    <glyph glyph-name="trademark" unicode="&#x2122;" horiz-adv-x="658" 
d="M108 654h-79v55h218v-55h-80v-253h-59v253zM541 709h56v-308h-61v207l-72 -100h-41l-74 100v-207h-59v308h55l98 -134z" />
    <glyph glyph-name="radical" unicode="&#x221a;" horiz-adv-x="688" 
d="M253 0l-129 268l-63 -133l-60 30l86 181h74l129 -274l312 658h73l-347 -730h-75z" />
    <glyph glyph-name="approxequal" unicode="&#x2248;" horiz-adv-x="577" 
d="M384 171c14.667 0 29.3291 2.8291 43.9961 8.49609s27.834 11.834 39.501 18.501s21.334 13 29.001 19l11.5 9l21 -19l12 -11.5c4.66699 -4.33301 6.66699 -6.83301 6 -7.5c-3.33301 -3.33301 -10 -9.66602 -20 -18.999s-22.167 -18.666 -36.5 -27.999
s-30.666 -17.666 -48.999 -24.999s-37.5 -11 -57.5 -11c-23.333 0 -42.666 4.33301 -57.999 13s-29.666 17.667 -42.999 27c-12.667 9.33301 -25.334 17.333 -38.001 24s-28.667 10 -48 10c-21.333 0 -42 -5.5 -62 -16.5s-35.667 -26.167 -47 -45.5l-57 33
c0.666992 0.666992 4.5 6.16699 11.5 16.5s17.333 21.166 31 32.499s30.667 21.833 51 31.5s44.5 14.5 72.5 14.5c30 0 54.667 -5.16699 74 -15.5s36.333 -20.833 51 -31.5l4 -3c10 -7.33301 19.333 -13.166 28 -17.499s18.667 -6.5 30 -6.5zM382.995 374.996
c14.667 0 29.3291 2.8291 43.9961 8.49609s27.834 11.834 39.501 18.501s21.334 13 29.001 19l11.5 9l21 -19l12 -11.5c4.66699 -4.33301 6.66699 -6.83301 6 -7.5c-3.33301 -3.33301 -10 -9.66602 -20 -18.999s-22.167 -18.666 -36.5 -27.999
s-30.666 -17.666 -48.999 -24.999s-37.5 -11 -57.5 -11c-23.333 0 -42.666 4.33301 -57.999 13s-29.666 17.667 -42.999 27c-12.667 9.33301 -25.334 17.333 -38.001 24s-28.667 10 -48 10c-21.333 0 -42 -5.5 -62 -16.5s-35.667 -26.167 -47 -45.5l-57 33
c0.666992 0.666992 4.5 6.16699 11.5 16.5s17.333 21.166 31 32.499s30.667 21.833 51 31.5s44.5 14.5 72.5 14.5c30 0 54.667 -5.16699 74 -15.5s36.333 -20.833 51 -31.5l4 -3c10 -7.33301 19.333 -13.166 28 -17.499s18.667 -6.5 30 -6.5z" />
    <glyph glyph-name="notequal" unicode="&#x2260;" horiz-adv-x="519" 
d="M46 434h426v-66h-426v66zM472 161h-426v65h426v-65z" />
    <glyph glyph-name="lessequal" unicode="&#x2264;" horiz-adv-x="494" 
d="M40 313l389 188v-66l-321 -154l321 -156v-66l-389 188v66zM429 59v-59h-397v59h397z" />
    <glyph glyph-name="greaterequal" unicode="&#x2265;" horiz-adv-x="494" 
d="M454 247l-389 -188v66l321 156l-321 154v66l389 -188v-66zM462 59v-59h-397v59h397z" />
    <glyph glyph-name="a.salt" horiz-adv-x="482" 
d="M261 282c22 2 39.0049 4.17285 51.0049 6.50586s21 5 27 8s9.66699 6.66699 11 11s2 9.83301 2 16.5c0 10 -3 19.667 -9 29s-14 17.666 -24 24.999s-21.833 13.166 -35.5 17.499s-27.834 6.5 -42.501 6.5c-11.333 0 -22 -1 -32 -3s-19.667 -5.66699 -29 -11
s-19 -12.333 -29 -21s-20.667 -19.334 -32 -32.001l-73 47c26.667 35.333 57.5 62.166 92.5 80.499s71.833 27.5 110.5 27.5c18 0 38.333 -2.66699 61 -8s44 -15.5 64 -30.5s36.667 -35.667 50 -62s20 -60.166 20 -101.499v-288h-72l-20 50
c-14 -18.667 -32.333 -32.834 -55 -42.501s-48.667 -15.834 -78 -18.501c-49.333 -3.33301 -90.833 4.16699 -124.5 22.5s-53.167 50.833 -58.5 97.5c-2.66699 23.333 -0.333984 44.666 6.99902 63.999s18.166 36.166 32.499 50.499s31.666 25.833 51.999 34.5
s42.166 14.334 65.499 17.001zM352.005 213.006c-16 -1.33301 -32.332 -3.00195 -48.999 -5.00195c-14 -1.33301 -29.333 -3.16602 -46 -5.49902s-31.667 -4.16602 -45 -5.49902c-15.333 -2 -28 -5.66699 -38 -11s-18 -11.5 -24 -18.5s-10.167 -14.167 -12.5 -21.5
s-3.16602 -14 -2.49902 -20c2.66699 -17.333 11.5 -31 26.5 -41s36.167 -14.333 63.5 -13c10.667 0.666992 23.167 3 37.5 7s28.166 10.333 41.499 19s24.666 19.667 33.999 33s14 30 14 50v32z" />
    <glyph glyph-name="quotesingle.001" horiz-adv-x="833" 
 />
    <glyph glyph-name="_127" horiz-adv-x="500" 
 />
    <glyph glyph-name="zero.taboldstyle" horiz-adv-x="561" 
d="M280 -10c-32.667 0 -63.998 6.00195 -93.998 18.002s-56.5 28.833 -79.5 50.5s-41.333 47.334 -55 77.001s-20.5 62.167 -20.5 97.5v10c0 35.333 6.5 68.166 19.5 98.499s30.667 56.5 53 78.5s48.666 39.333 78.999 52s62.833 19 97.5 19c35.333 0 68.333 -6.5 99 -19.5
s57.167 -30.667 79.5 -53s40 -48.5 53 -78.5s19.5 -62.333 19.5 -97v-10c0 -34 -6.66699 -65.833 -20 -95.5s-31.333 -55.334 -54 -77.001s-49.334 -38.834 -80.001 -51.501s-63 -19 -97 -19zM133.002 239.002c0 -15.333 3.49902 -31.832 10.499 -49.499
s16.833 -34 29.5 -49s28 -27.333 46 -37s38.333 -14.5 61 -14.5c16.667 0 33.667 3 51 9s33.333 15.167 48 27.5s26.667 27.833 36 46.5s14 40.667 14 66c0 26 -4.66699 48.667 -14 68s-21.166 35.333 -35.499 48s-30.333 22.167 -48 28.5s-34.834 9.5 -51.501 9.5
s-33.667 -3.33301 -51 -10s-33.166 -16.334 -47.499 -29.001s-26 -28.667 -35 -48s-13.5 -41.333 -13.5 -66z" />
    <glyph glyph-name="one.taboldstyle" horiz-adv-x="258" 
d="M110 384h-95v94h200v-478h-105v384z" />
    <glyph glyph-name="two.taboldstyle" horiz-adv-x="513" 
d="M49 0v59.999c55.333 26.667 105 53.667 149 81c18.667 12 37 24.5 55 37.5s34 26.333 48 40s25.333 27.334 34 41.001s13 27.167 13 40.5c0 32 -9.33301 57 -28 75s-43.667 27 -75 27c-32 0 -57.167 -9.5 -75.5 -28.5s-27.5 -41.167 -27.5 -66.5h-102
c0 24.667 5.16699 48.167 15.5 70.5s24.666 41.833 42.999 58.5s40 29.834 65 39.501s52.167 14.5 81.5 14.5c30 0 57.5 -4.83301 82.5 -14.5s46.5 -22.834 64.5 -39.501s32 -36.167 42 -58.5s15 -45.833 15 -70.5c0 -30 -6 -56.333 -18 -79s-26.667 -42.5 -44 -59.5
s-36.166 -31.5 -56.499 -43.5s-38.833 -22.333 -55.5 -31h196v-94h-422z" />
    <glyph glyph-name="six.taboldstyle" horiz-adv-x="531" 
d="M266 -10c-34 0 -65.834 6.50195 -95.501 19.502s-55.5 30.667 -77.5 53s-39.333 48.333 -52 78s-19 61.5 -19 95.5c0 23.333 3.5 45.666 10.5 66.999s15.833 42.666 26.5 63.999c2.66699 4.66699 7.33398 13.334 14.001 26.001l23.5 44.5l29.5 55.5l33 60l85 156h110
l-131 -239c34.667 8.66699 68.167 10 100.5 4s60.5 -17.667 84.5 -35c32 -22.667 57.167 -51.834 75.5 -87.501s27.5 -74.167 27.5 -115.5c0 -34 -6.5 -65.833 -19.5 -95.5s-30.5 -55.667 -52.5 -78s-47.833 -40 -77.5 -53s-61.5 -19.5 -95.5 -19.5zM154.999 336.002
c-8.66699 -17.333 -16.667 -35.332 -24 -53.999s-11 -34 -11 -46c0 -20 3.83301 -39 11.5 -57s18.167 -33.667 31.5 -47s28.833 -24 46.5 -32s36.5 -12 56.5 -12s39 4 57 12s33.5 18.667 46.5 32s23.333 29 31 47s11.5 37 11.5 57c0 25.333 -5.33301 48.833 -16 70.5
s-25.667 39.167 -45 52.5c-12 8.66699 -26.167 15.5 -42.5 20.5s-33.333 7.16699 -51 6.5s-35.167 -4.33398 -52.5 -11.001s-33 -17.667 -47 -33z" />
    <glyph glyph-name="eight.taboldstyle" horiz-adv-x="511" 
d="M30 216c0 34.667 7.83203 67.167 23.499 97.5s38.5 54.5 68.5 72.5c-22 17.333 -38 37.5 -48 60.5s-15 47.167 -15 72.5c0 26.667 5.16699 52 15.5 76s24.5 45.167 42.5 63.5s39 32.833 63 43.5s49.333 16 76 16s51.834 -5.33301 75.501 -16s44.5 -25.167 62.5 -43.5
s32.167 -39.5 42.5 -63.5s15.5 -49.333 15.5 -76c0 -25.333 -5.5 -49.5 -16.5 -72.5s-26.167 -43.167 -45.5 -60.5c12.667 -8 24.667 -18.167 36 -30.5s21 -26 29 -41s14.333 -30.833 19 -47.5s7 -33.667 7 -51c0 -30.667 -6 -59.667 -18 -87s-28.333 -51.333 -49 -72
s-44.5 -37 -71.5 -49s-55.833 -18 -86.5 -18s-59.667 6 -87 18s-51.333 28.333 -72 49s-37 44.667 -49 72s-18 56.333 -18 87zM255.999 621c-13.333 0 -25.6641 -2.83301 -36.9971 -8.5s-21.333 -13.167 -30 -22.5s-15.334 -20.166 -20.001 -32.499s-7 -25.166 -7 -38.499
c0 -18.667 4.66699 -35.5 14 -50.5s21.666 -26.5 36.999 -34.5c12.667 -6.66699 27 -10 43 -10s30.333 3.33301 43 10c15.333 8 27.5 19.5 36.5 34.5s13.5 31.833 13.5 50.5c0 13.333 -2.33301 26.166 -7 38.499s-11.334 23.166 -20.001 32.499s-18.667 16.833 -30 22.5
s-23.333 8.5 -36 8.5zM210.001 330c-22.667 -9.33301 -40.8369 -24.166 -54.5039 -44.499s-20.5 -43.5 -20.5 -69.5c0 -16.667 3.16699 -32.667 9.5 -48s14.833 -29 25.5 -41s23.334 -21.5 38.001 -28.5s30.667 -10.5 48 -10.5c16.667 0 32.334 3.5 47.001 10.5
s27.334 16.5 38.001 28.5s19.167 25.667 25.5 41s9.5 31.333 9.5 48c0 26 -6.83301 49.167 -20.5 69.5s-31.5 35.166 -53.5 44.499c-15.333 6 -30.666 9 -45.999 9c-16.667 0 -32 -3 -46 -9z" />
    <glyph glyph-name="three.taboldstyle" horiz-adv-x="526" 
d="M318 234c31.333 -2.66699 58.1641 -10.6689 80.4971 -24.002s40.833 -30.166 55.5 -50.499s25.334 -43.333 32.001 -69s10 -51.834 10 -78.501c0 -33.333 -6.5 -65.166 -19.5 -95.499s-30.5 -57 -52.5 -80s-47.667 -41.5 -77 -55.5s-60.666 -21 -93.999 -21
c-27.333 0 -53.333 4.5 -78 13.5s-47 21.333 -67 37s-37.667 34.167 -53 55.5s-27 44 -35 68l92 35c4.66699 -15.333 11.667 -29.833 21 -43.5s20.5 -25.5 33.5 -35.5s27.333 -17.667 43 -23s32.167 -7.66602 49.5 -6.99902c18.667 0.666992 36.334 5.16699 53.001 13.5
s31.167 19.333 43.5 33s22.333 29 30 46s11.834 35.167 12.501 54.5c0.666992 20 -2.5 39 -9.5 57s-17 33.833 -30 47.5s-28.167 24.667 -45.5 33s-36 12.833 -56 13.5c-6.66699 0 -13.334 -0.666992 -20.001 -2s-13.334 -3 -20.001 -5l-39 50l124 184h-214v94h349v-67
l-60 -89l-22 -32.5c-7.33301 -10.333 -13.666 -19.833 -18.999 -28.5l-13 -20.5z" />
    <glyph glyph-name="four.taboldstyle" horiz-adv-x="594" 
d="M38 -100l-33 51l371 528h83v-485h114v-94h-114v-130h-105v130h-316zM155 -6h197v285z" />
    <glyph glyph-name="five.taboldstyle" horiz-adv-x="518" 
d="M247 -140c20 0 38.833 3.83789 56.5 11.5049s33.167 18.167 46.5 31.5s23.833 28.833 31.5 46.5s11.5 36.5 11.5 56.5c0 25.333 -5.5 48.833 -16.5 70.5s-26.167 39.167 -45.5 52.5c-8 6 -17.833 11.167 -29.5 15.5s-24.334 7.16602 -38.001 8.49902
s-27.667 1.33301 -42 0s-28.166 -5 -41.499 -11c-14.667 -6.66699 -27.334 -15.334 -38.001 -26.001l-60 40l37 323h310v-94h-223l-16 -152c35.333 11.333 71 14.666 107 9.99902s66.333 -16 91 -34c32.667 -22.667 58 -51.834 76 -87.501s27 -74.167 27 -115.5
c0 -34 -6.33301 -65.833 -19 -95.5s-30 -55.667 -52 -78s-47.833 -40 -77.5 -53s-61.5 -19.5 -95.5 -19.5c-38.667 0 -74.5 8.66699 -107.5 26s-60.833 40 -83.5 68c-13.333 15.333 -24.333 33.666 -33 54.999l86 49c4.66699 -15.333 12.334 -29.333 23.001 -42
c13.333 -17.333 30 -31 50 -41s41.667 -15 65 -15z" />
    <glyph glyph-name="seven.taboldstyle" horiz-adv-x="446" 
d="M304 385h-274v94h407v-1v-47l-275 -661h-113z" />
    <glyph glyph-name="nine.taboldstyle" horiz-adv-x="532" 
d="M124 43c-32 23.333 -57.167 52.8301 -75.5 88.4971s-27.5 73.834 -27.5 114.501c0 34 6.5 65.667 19.5 95s30.5 54.833 52.5 76.5s47.833 38.834 77.5 51.501s61.5 19 95.5 19c33.333 0 64.833 -6.33301 94.5 -19s55.5 -29.834 77.5 -51.501s39.5 -47.167 52.5 -76.5
s19.5 -61 19.5 -95c0 -23.333 -3.66699 -45.666 -11 -66.999s-16.333 -42.666 -27 -63.999l-14 -27l-24 -44.5l-30.5 -56l-33.5 -60.5l-87 -157h-109l135 243c-34.667 -8.66699 -68.167 -10.167 -100.5 -4.5s-60.5 17.167 -84.5 34.5zM266 391.997
c-20 0 -38.998 -3.83398 -56.998 -11.501s-33.667 -18 -47 -31s-23.833 -28.5 -31.5 -46.5s-11.5 -37 -11.5 -57c0 -25.333 5.5 -48.833 16.5 -70.5s26.167 -39.167 45.5 -52.5c12 -8.66699 26.167 -15.5 42.5 -20.5s33.166 -7.16699 50.499 -6.5
s34.666 4.33398 51.999 11.001s33 17.667 47 33l4 6c8.66699 17.333 16.667 35.333 24 54s11 34 11 46c0 20 -3.83301 39 -11.5 57s-18.167 33.5 -31.5 46.5s-28.833 23.333 -46.5 31s-36.5 11.5 -56.5 11.5z" />
    <glyph glyph-name="zero.titling" horiz-adv-x="580" 
d="M285 -10c-34.667 0 -67.167 8.33496 -97.5 25.002s-56.666 39.167 -78.999 67.5s-40 61.833 -53 100.5s-19.5 80 -19.5 124v87c0 48 6 92 18 132s29 74.167 51 102.5s48.167 50.333 78.5 66s64.166 23.5 101.499 23.5c36.667 0 70.334 -7.83301 101.001 -23.5
s57 -37.834 79 -66.501s39.167 -62.834 51.5 -102.501s18.5 -83.5 18.5 -131.5v-87c0 -46 -6.5 -88.333 -19.5 -127s-30.667 -72.167 -53 -100.5s-48.833 -50.333 -79.5 -66s-63.334 -23.5 -98.001 -23.5zM138 307.002c0 -30.667 3.66699 -59.335 11 -86.002
s17.666 -49.667 30.999 -69s28.833 -34.666 46.5 -45.999s37.167 -17 58.5 -17c22 0 42 5.33301 60 16s33.5 25.5 46.5 44.5s23.167 41.833 30.5 68.5s11 56.334 11 89.001v87c0 68.667 -12.833 123.334 -38.5 164.001s-62.167 61 -109.5 61s-83.666 -19.833 -108.999 -59.5
s-38 -94.834 -38 -165.501v-87z" />
    <glyph glyph-name="one.titling" horiz-adv-x="299" 
d="M124 615h-95v94h200v-709h-105v615z" />
    <glyph glyph-name="two.titling" horiz-adv-x="551" 
d="M45 0l0.00195312 70l204 232l73 86c18 20.667 31.667 37.334 41 50.001s15.333 23.667 18 33s4 21.333 4 36c0 37.333 -11 65.5 -33 84.5s-48.667 28.5 -80 28.5c-16 0 -30.833 -3.16699 -44.5 -9.5s-25.667 -14.833 -36 -25.5s-18.5 -22.667 -24.5 -36
s-9 -27.333 -9 -42h-102c0 28.667 5.66699 55.834 17 81.501s26.833 48.167 46.5 67.5s42.5 34.666 68.5 45.999s54 17 84 17s58 -5.66699 84 -17s48.667 -26.666 68 -45.999s34.666 -41.833 45.999 -67.5s17 -52.834 17 -81.501c0 -21.333 -2.83301 -42.333 -8.5 -63
s-14.834 -38.334 -27.501 -53.001l-251 -294h302v-97h-457z" />
    <glyph glyph-name="three.titling" horiz-adv-x="540" 
d="M330 464c30.667 -2.66699 57.3359 -10.667 80.0029 -24s41.167 -30 55.5 -50s25 -42.5 32 -67.5s10.5 -50.833 10.5 -77.5c0 -34 -6.33301 -66.333 -19 -97s-30 -57.667 -52 -81s-47.667 -42 -77 -56s-61 -21 -95 -21c-27.333 0 -53.333 4.5 -78 13.5s-47 21.333 -67 37
s-37.667 34 -53 55s-27 43.833 -35 68.5l92 35c9.33301 -30 26.666 -55.667 51.999 -77s55 -32 89 -32c19.333 0 37.666 4 54.999 12s32.5 18.667 45.5 32s23.5 29 31.5 47s12.333 36.667 13 56c0 20 -3.5 39 -10.5 57s-16.833 33.833 -29.5 47.5s-27.5 24.667 -44.5 33
s-35.833 12.833 -56.5 13.5c-6.66699 0 -13.334 -0.666992 -20.001 -2s-13.334 -3 -20.001 -5l-39 50l124 184h-214v94h349v-67l-60 -89l-22 -32.5c-7.33301 -10.333 -13.666 -19.833 -18.999 -28.5l-13 -20.5z" />
    <glyph glyph-name="four.titling" horiz-adv-x="642" 
d="M76 130l-33 51l371 528h83v-485h114v-94h-114v-130h-105v130h-316zM193 224h197v285z" />
    <glyph glyph-name="five.titling" horiz-adv-x="538" 
d="M243 90c20 0 38.832 3.83203 56.499 11.499s33.167 18.167 46.5 31.5s23.833 28.833 31.5 46.5s11.5 36.5 11.5 56.5s-3.33301 38.833 -10 56.5s-16.5 33.334 -29.5 47.001s-28.667 24.5 -47 32.5s-39.5 12 -63.5 12c-18 0 -35.833 -2.83301 -53.5 -8.5
s-33.5 -15.5 -47.5 -29.5l-60 40l37 323h310v-94h-223l-16 -152c24.667 8 50 12 76 12c34.667 0 65.834 -6.66699 93.501 -20s51.334 -31.166 71.001 -53.499s34.667 -47.833 45 -76.5s15.5 -58.334 15.5 -89.001c0 -34 -6.33301 -65.833 -19 -95.5s-30 -55.667 -52 -78
s-47.833 -40 -77.5 -53s-61.5 -19.5 -95.5 -19.5c-24.667 0 -48.667 3.83301 -72 11.5s-44.833 18.167 -64.5 31.5s-37 29 -52 47s-26.833 37.667 -35.5 59l86 49c9.33301 -28.667 26.666 -52.167 51.999 -70.5s54 -27.5 86 -27.5z" />
    <glyph glyph-name="six.titling" horiz-adv-x="569" 
d="M287 -10c-34 0 -65.835 6.5 -95.502 19.5s-55.5 30.667 -77.5 53s-39.333 48.333 -52 78s-19 61.5 -19 95.5c0 23.333 3.5 45.666 10.5 66.999s15.833 42.666 26.5 63.999c2.66699 4.66699 7.33398 13.334 14.001 26.001l23.5 44.5l29.5 55.5l33 60l85 156h110l-131 -239
c18.667 4.66699 38.334 7 59.001 7c34 0 65.167 -6.66699 93.5 -20s52.5 -31.166 72.5 -53.499s35.5 -48 46.5 -77s16.5 -59.167 16.5 -90.5c0 -34 -6.5 -65.833 -19.5 -95.5s-30.5 -55.667 -52.5 -78s-47.833 -40 -77.5 -53s-61.5 -19.5 -95.5 -19.5zM175.998 336
c-8.66699 -17.333 -16.666 -35.333 -23.999 -54s-11 -34 -11 -46c0 -20 3.83301 -39 11.5 -57s18.167 -33.667 31.5 -47s28.833 -24 46.5 -32s36.5 -12 56.5 -12s39 4 57 12s33.5 18.667 46.5 32s23.333 29 31 47s11.5 37 11.5 57c0 20.667 -3.66699 40 -11 58
s-17.5 33.833 -30.5 47.5s-28.833 24.5 -47.5 32.5s-39.334 12 -62.001 12c-18 0 -36 -3.33301 -54 -10s-34.333 -18 -49 -34z" />
    <glyph glyph-name="seven.titling" horiz-adv-x="484" 
d="M304 615h-274v94h407v-48l-275 -661h-113z" />
    <glyph glyph-name="eight.titling" horiz-adv-x="515" 
d="M33 216c0 34.667 7.83203 67.167 23.499 97.5s38.5 54.5 68.5 72.5c-22 17.333 -38 37.5 -48 60.5s-15 47.167 -15 72.5c0 26.667 5.16699 52 15.5 76s24.5 45.167 42.5 63.5s39 32.833 63 43.5s49.333 16 76 16s51.834 -5.33301 75.501 -16s44.5 -25.167 62.5 -43.5
s32.167 -39.5 42.5 -63.5s15.5 -49.333 15.5 -76c0 -25.333 -5.5 -49.5 -16.5 -72.5s-26.167 -43.167 -45.5 -60.5c12.667 -8 24.667 -18.167 36 -30.5s21 -26 29 -41s14.333 -30.833 19 -47.5s7 -33.667 7 -51c0 -30.667 -6 -59.667 -18 -87s-28.333 -51.333 -49 -72
s-44.5 -37 -71.5 -49s-55.833 -18 -86.5 -18s-59.667 6 -87 18s-51.333 28.333 -72 49s-37 44.667 -49 72s-18 56.333 -18 87zM258.999 621c-13.333 0 -25.6641 -2.83398 -36.9971 -8.50098s-21.333 -13.167 -30 -22.5s-15.334 -20.166 -20.001 -32.499
s-7 -25.166 -7 -38.499s2.33301 -25.666 7 -36.999s11.167 -21.333 19.5 -30s18.333 -15.5 30 -20.5s24.167 -7.5 37.5 -7.5c27.333 0 49.666 9.33301 66.999 28s26 41 26 67c0 13.333 -2.33301 26.166 -7 38.499s-11.334 23.166 -20.001 32.499s-18.667 16.833 -30 22.5
s-23.333 8.5 -36 8.5zM213.001 329.999c-22.667 -9.33301 -40.834 -24.167 -54.501 -44.5s-20.5 -43.5 -20.5 -69.5c0 -16.667 3.16699 -32.667 9.5 -48s14.833 -29 25.5 -41s23.334 -21.5 38.001 -28.5s30.667 -10.5 48 -10.5c16.667 0 32.334 3.5 47.001 10.5
s27.334 16.5 38.001 28.5s19.167 25.667 25.5 41s9.5 31.333 9.5 48c0 17.333 -3.16699 33.5 -9.5 48.5s-14.833 28 -25.5 39s-23.334 19.667 -38.001 26s-30.334 9.5 -47.001 9.5s-32 -3 -46 -9z" />
    <glyph glyph-name="nine.titling" horiz-adv-x="556" 
d="M135 273c-32 23.333 -57.167 52.8301 -75.5 88.4971s-27.5 73.834 -27.5 114.501c0 34 6.5 65.667 19.5 95s30.5 54.833 52.5 76.5s47.833 38.834 77.5 51.501s61.5 19 95.5 19c33.333 0 64.833 -6.33301 94.5 -19s55.5 -29.834 77.5 -51.501s39.5 -47.167 52.5 -76.5
s19.5 -61 19.5 -95c0 -23.333 -3.66699 -45.666 -11 -66.999s-16.333 -42.666 -27 -63.999l-14 -27l-24 -44.5l-30.5 -56l-33.5 -60.5l-87 -157h-109l135 243c-10.667 -2.66699 -21 -4.66699 -31 -6s-20 -2 -30 -2c-23.333 0 -45.5 3.33301 -66.5 10s-40.167 16 -57.5 28z
M277 621.997c-20 0 -39.001 -3.83301 -57.001 -11.5s-33.667 -18 -47 -31s-23.833 -28.5 -31.5 -46.5s-11.5 -37 -11.5 -57s3.66699 -39.167 11 -57.5s17.5 -34.333 30.5 -48s28.833 -24.5 47.5 -32.5s39.334 -12 62.001 -12c18 0 36 3.33301 54 10s34.333 18 49 34l4 6
c8.66699 17.333 16.667 35.333 24 54s11 34 11 46c0 20 -3.83301 39 -11.5 57s-18.167 33.5 -31.5 46.5s-28.833 23.333 -46.5 31s-36.5 11.5 -56.5 11.5z" />
    <glyph glyph-name="Adieresis.salt" 
d="M197 644c-17.333 0 -32 6.16699 -44 18.5s-18 27.166 -18 44.499s6 32 18 44s26.667 18 44 18s32 -6 44 -18s18 -26.667 18 -44s-6 -32.166 -18 -44.499s-26.667 -18.5 -44 -18.5zM528 644c-17.333 0 -32 6.16699 -44 18.5s-18 27.166 -18 44.499s6 32 18 44
s26.667 18 44 18s32 -6 44 -18s18 -26.667 18 -44s-6 -32.166 -18 -44.499s-26.667 -18.5 -44 -18.5zM125 0h-114l295 709h115l295 -709h-113l-93 222h-293zM257 318h213l-106 256z" />
    <glyph glyph-name="Odieresis.salt" horiz-adv-x="767" 
d="M96 644c-17.333 0 -32 6.16699 -44 18.5s-18 27.166 -18 44.499s6 32 18 44s26.667 18 44 18s32 -6 44 -18s18 -26.667 18 -44s-6 -32.166 -18 -44.499s-26.667 -18.5 -44 -18.5zM675 644c-17.333 0 -32 6.16699 -44 18.5s-18 27.166 -18 44.499s6 32 18 44
s26.667 18 44 18s32 -6 44 -18s18 -26.667 18 -44s-6 -32.166 -18 -44.499s-26.667 -18.5 -44 -18.5zM385 719c48 0 93.332 -9.66699 135.999 -29s79.834 -45.5 111.501 -78.5s56.834 -71.667 75.501 -116s28 -91.166 28 -140.499c0 -50 -9.33301 -97 -28 -141
s-44 -82.5 -76 -115.5s-69.333 -59.167 -112 -78.5s-88 -29 -136 -29s-93.333 9.66699 -136 29s-79.834 45.5 -111.501 78.5s-56.667 71.5 -75 115.5s-27.5 91 -27.5 141c0 49.333 9.16699 96.166 27.5 140.499s43.5 83 75.5 116s69.333 59.167 112 78.5s88 29 136 29z
M384.999 90c34 0 65.833 6.83301 95.5 20.5s55.5 32.5 77.5 56.5s39.333 52.167 52 84.5s19 66.833 19 103.5s-6.33301 71 -19 103s-30 60 -52 84s-47.833 42.833 -77.5 56.5s-61.5 20.5 -95.5 20.5s-65.833 -6.83301 -95.5 -20.5s-55.5 -32.5 -77.5 -56.5
s-39.5 -52 -52.5 -84s-19.5 -66.333 -19.5 -103s6.5 -71.167 19.5 -103.5s30.5 -60.5 52.5 -84.5s47.833 -42.833 77.5 -56.5s61.5 -20.5 95.5 -20.5z" />
    <glyph glyph-name="Udieresis.salt" horiz-adv-x="638" 
d="M577 251c0 -36 -6.83496 -69.833 -20.502 -101.5s-32.167 -59.334 -55.5 -83.001s-50.666 -42.334 -81.999 -56.001s-65 -20.5 -101 -20.5s-69.667 6.83301 -101 20.5s-58.666 32.334 -81.999 56.001s-41.833 51.334 -55.5 83.001s-20.5 65.5 -20.5 101.5v458h104v-458
c0 -21.333 4 -41.666 12 -60.999s19 -36.5 33 -51.5s30.5 -26.833 49.5 -35.5s39.167 -13 60.5 -13s41.333 4.33301 60 13s35 20.5 49 35.5s25 32.167 33 51.5s12 39.666 12 60.999v458h105v-458zM244.998 644c-17.333 0 -32 6.16699 -44 18.5s-18 27.166 -18 44.499
s6 32 18 44s26.667 18 44 18s32 -6 44 -18s18 -26.667 18 -44s-6 -32.166 -18 -44.499s-26.667 -18.5 -44 -18.5zM389.998 644c-17.333 0 -32 6.16699 -44 18.5s-18 27.166 -18 44.499s6 32 18 44s26.667 18 44 18s32 -6 44 -18s18 -26.667 18 -44s-6 -32.166 -18 -44.499
s-26.667 -18.5 -44 -18.5z" />
  </font>
</defs>
</svg>
