<?xml version="1.0" standalone="no"?>
<!DOCTYPE svg PUBLIC "-//W3C//DTD SVG 1.1//EN" "http://www.w3.org/Graphics/SVG/1.1/DTD/svg11.dtd" >
<svg>
<metadata>
Created by FontForge 20090914 at Fri Mar  4 17:06:48 2016
 By www-data
Copyright (c) 2014 by . All rights reserved.
</metadata>
<defs>
<font id="Ruina" horiz-adv-x="588" >
  <font-face 
    font-family="Ruina"
    font-weight="400"
    font-stretch="normal"
    units-per-em="1000"
    panose-1="2 0 8 6 0 0 0 2 0 4"
    ascent="750"
    descent="-250"
    x-height="745"
    cap-height="750"
    bbox="-10 -250 1084 979"
    underline-thickness="50"
    underline-position="-50"
    unicode-range="U+0020-U+FB02"
  />
<missing-glyph horiz-adv-x="500" 
 />
    <glyph glyph-name="fi" unicode="FI" horiz-adv-x="810" 
d="M297 0h-53h-53h-55h-66v66l13 54v67v67v54l14 67v66v55v66l13 68l-5 54l-5 66h64h67h53h68h53h66h55h66h53h68v-67v-53h-68h-66l-53 -7l-68 7l-65 -6l-55 6l-67 -15v-66v-67h54h67h53v-67v-54l13 -66h-66h-54h-54l13 -54l-4 -68l4 -53v-54v-66zM740 0h-14h-26h-13h-27
h-28h-13h-27h-13h-27h-13v27v13v26v27v13v28v13v27v27v13v27v13l13 26v28v14v26v13v27v27v13v27v14l14 27v26v14v26h13h27h13h26h15h27h13l13 -26v-14v-26v-14v-27v-27v-13v-27l13 -13v-27v-26v-14v-28v-26v-13v-27l3 -15l5 -26l3 -26l2 -17l1 -24v-13v-27v-26v-13v-27v0z
" />
    <glyph glyph-name="fl" unicode="FL" horiz-adv-x="902" 
d="M456 743h19h52l17 -3l36 3l9 -17v-31v-18l4 -17v-35v-17v-14l8 -70l-3 -18l3 -17v-14l5 -17l4 -18v-17v-17v-36v-13l9 -102l5 -17v-17l3 -18l5 -13l62 -4h70l14 4h34h18l13 -9v-31l4 -17v-35v-18l5 -53v-17l-17 -9h-18h-17h-36h-52l-14 5l-35 -5h-17h-19h-87h-13h-35h-17
h-19l-17 -4l-18 13v17l5 14l9 154v34l-5 31l5 18l4 17h-21h-19h-17h-18h-17l-71 9v-21l5 -18v-48l9 -71v-17v-18v-36l5 -17l-5 -17l5 -14l3 -21l-22 -5l-30 -7l-36 7h-17h-17l-18 5h-36l-17 -5h-18h-17l5 17l-5 28l5 12l4 35l5 36v17v18v17l-5 36l8 66v17v52v18v13l14 137
v35l4 34l-4 137l9 17h12l36 -3h35l35 3h18h18l17 -3l17 3h54h17h18h34h35zM267 484h23h13l18 5l34 -5h18h17h36l21 -4l-3 22l3 18l-3 17l3 18l-3 34l-9 31h-36l-35 -3l-17 3h-18h-17h-31h-17v-71z" />
    <glyph glyph-name="LA" unicode="LA" horiz-adv-x="769" 
d="M666 746v-17l11 -85v-35l3 -35v-32v-17l7 -70l4 -18v-31v-18v-17l3 -18v-17v-18l7 -32v-17l3 -36l-3 -13l-17 -3l-21 3h-18l-18 -3h-21h-17v17l-4 17l-3 70l-21 5h-39l-18 -5v-17l-3 -35l-4 -18v-17l-3 -17h-14h-17h-18h-17h-18h-18h-17h-18h-17l3 17v17v18l4 67l3 17
l7 120l4 69v18v14v18v17l3 18v17v18v17l4 14v17v19l3 17l85 2h34h18h123l17 3zM494 447h21h36h21l-4 19v17v18v17v35v17l-3 36l-4 14l-17 7l-18 -4h-22l-3 -17l3 -18l-3 -53l-4 -17v-17l-3 -18v-17v-19zM105 746l21 -3h56l18 3h17h18v-17l3 -19v-17l5 -91l9 -81v-17v-17
l3 -32l4 -53v-35l11 -105l7 -81l4 -17h17h18l31 3h53l52 -3h14l18 3l53 -3l83 -4h36h17h14h18l7 -14v-17l-4 -18v-17l4 -17v-22l3 -18v-17l4 -18l-53 -3h-35h-18h-35h-105l-17 3h-18l-17 4l-134 -7l-196 3l-18 4l-3 14v17l7 18v18v17l3 18l4 17l-4 35l4 17v119l10 137v18
l1 102l6 70l4 18v17v17v35l3 19z" />
    <glyph glyph-name="LA1" unicode="L&#xc0;" horiz-adv-x="769" 
d="M377 830l-4 18v17l4 22v18v17l3 17h15h16h19h16h19l17 3l17 -3l15 3l17 -3l17 3l18 -3h17h17h19h17h18h17v-17v-17v-21v-19l4 -17v-22l-17 4l-18 -4h-18l-17 4h-18h-17l-18 -4l-18 4h-18h-17l-17 -4h-17l-19 4l-16 -4h-19h-16zM666 729l11 -85v-35l3 -35v-32v-17l7 -70
l4 -18v-31v-18v-17l3 -18v-17v-18l7 -32v-17l3 -36l-3 -13l-17 -3l-21 3h-18l-18 -3h-21h-17v17l-4 17l-3 70l-21 5h-39l-18 -5v-17l-3 -35l-4 -18v-17l-3 -17h-14h-17h-18h-17h-18h-18h-17h-18h-17l3 17v17v18l4 67l3 17l7 120l4 69v18v14v18v17l3 18v17v18v17l4 14v17v19
l3 17l85 2h34h18h123l17 3l18 -5v-17zM515 447h36h21l-4 19v17v18v17v35v17l-3 36l-4 14l-17 7l-18 -4h-22l-3 -17l3 -18l-3 -53l-4 -17v-17l-3 -18v-17v-19h21zM126 743h56l18 3h17h18v-17l3 -19v-17l5 -91l9 -81v-17v-17l3 -32l4 -53v-35l11 -105l7 -81l4 -17h17h18l31 3
h53l52 -3h14l18 3l53 -3l83 -4h36h17h14h18l7 -14v-17l-4 -18v-17l4 -17v-22l3 -18v-17l4 -18l-53 -3h-35h-18h-35h-105l-17 3h-18l-17 4l-134 -7l-196 3l-18 4l-3 14v17l7 18v18v17l3 18l4 17l-4 35l4 17v119l10 137v18l1 102l6 70l4 18v17v17v35l3 19l-3 17z" />
    <glyph glyph-name="LA2" unicode="L&#xc4;" horiz-adv-x="769" 
d="M680 935l11 -7l3 -14v-17l-3 -21v-18v-21l-7 -11l-11 -6l-18 4l-16 2h-19l-17 4h-17l-11 11l-3 14v17l3 18v20l5 15l13 6h18h16h19h17zM345 935l16 -4l18 4l18 -4h16h19l10 -6l7 -15v-20v-18v-17l-2 -14l-12 -8l-18 -3l-17 -4h-18l-17 -2l-18 -4l-10 6l-3 15l-4 17v21v18
l-3 17l3 14l15 7v0zM666 729l11 -85v-35l3 -35v-32v-17l7 -70l4 -18v-31v-18v-17l3 -18v-17v-18l7 -32v-17l3 -36l-3 -13l-17 -3l-21 3h-18l-18 -3h-21h-17v17l-4 17l-3 70l-21 5h-39l-18 -5v-17l-3 -35l-4 -18v-17l-3 -17h-14h-17h-18h-17h-18h-18h-17h-18h-17l3 17v17v18
l4 67l3 17l7 120l4 69v18v14v18v17l3 18v17v18v17l4 14v17v19l3 17l85 2h34h18h123l17 3l18 -5v-17zM515 447h36h21l-4 19v17v18v17v35v17l-3 36l-4 14l-17 7l-18 -4h-22l-3 -17l3 -18l-3 -53l-4 -17v-17l-3 -18v-17v-19h21zM126 743h56l18 3h17h18v-17l3 -19v-17l5 -91
l9 -81v-17v-17l3 -32l4 -53v-35l11 -105l7 -81l4 -17h17h18l31 3h53l52 -3h14l18 3l53 -3l83 -4h36h17h14h18l7 -14v-17l-4 -18v-17l4 -17v-22l3 -18v-17l4 -18l-53 -3h-35h-18h-35h-105l-17 3h-18l-17 4l-134 -7l-196 3l-18 4l-3 14v17l7 18v18v17l3 18l4 17l-4 35l4 17
v119l10 137v18l1 102l6 70l4 18v17v17v35l3 19l-3 17z" />
    <glyph glyph-name="LA3" unicode="L&#xc2;" horiz-adv-x="769" 
d="M365 822l10 16l15 18l15 16l10 19l16 15l14 17l10 20l23 -2h23l22 2l22 -2l20 2l24 1l15 -18l12 -17l11 -20l15 -16l13 -17l15 -17l12 -19l-24 -3l-23 -1l-22 -2h-24l-22 -3l-13 21l-17 19l-14 16l-15 -17l-15 -21l-15 -21l-23 3l-22 5h-24l-23 4l-21 2v0zM666 746l-18 5
l-17 -3h-123h-18h-34l-85 -2l-3 -17v-19v-17l-4 -14v-17v-18v-17l-3 -18v-17v-18v-14v-18l-4 -69l-7 -120l-3 -17l-4 -67v-18v-17l-3 -17h17h18h17h18h18h17h18h17h14l3 17v17l4 18l3 35v17l18 5h39l21 -5l3 -70l4 -17v-17h17h21l18 3h18l21 -3l17 3l3 13l-3 36v17l-7 32v18
v17l-3 18v17v18v31l-4 18l-7 70v17v32l-3 35v35l-11 85v17zM494 447v19v17l3 18v17l4 17l3 53l-3 18l3 17h22l18 4l17 -7l4 -14l3 -36v-17v-35v-17v-18v-17l4 -19h-21h-36h-21zM105 746l3 -17l-3 -19v-35v-17v-17l-4 -18l-6 -70l-1 -102v-18l-10 -137v-119l-4 -17l4 -35
l-4 -17l-3 -18v-17v-18l-7 -18v-17l3 -14l18 -4l196 -3l134 7l17 -4h18l17 -3h105h35h18h35l53 3l-4 18v17l-3 18v22l-4 17v17l4 18v17l-7 14h-18h-14h-17h-36l-83 4l-53 3l-18 -3h-14l-52 3h-53l-31 -3h-18h-17l-4 17l-7 81l-11 105v35l-4 53l-3 32v17v17l-9 81l-5 91v17
l-3 19v17h-18h-17l-18 -3h-56z" />
    <glyph glyph-name="LA4" unicode="L&#xc3;" horiz-adv-x="769" 
d="M684 847l-42 -19l-44 -13l-46 3l-49 7l-47 3l-45 -3l-42 -18l-4 39l-1 36v37l41 16l43 13l48 -2l46 -14l48 2l46 6l45 19l1 -38l4 -37l-2 -37v0zM666 746l-18 5l-17 -3h-123h-18h-34l-85 -2l-3 -17v-19v-17l-4 -14v-17v-18v-17l-3 -18v-17v-18v-14v-18l-4 -69l-7 -120
l-3 -17l-4 -67v-18v-17l-3 -17h17h18h17h18h18h17h18h17h14l3 17v17l4 18l3 35v17l18 5h39l21 -5l3 -70l4 -17v-17h17h21l18 3h18l21 -3l17 3l3 13l-3 36v17l-7 32v18v17l-3 18v17v18v31l-4 18l-7 70v17v32l-3 35v35l-11 85v17zM494 447v19v17l3 18v17l4 17l3 53l-3 18l3 17
h22l18 4l17 -7l4 -14l3 -36v-17v-35v-17v-18v-17l4 -19h-21h-36h-21zM105 746l3 -17l-3 -19v-35v-17v-17l-4 -18l-6 -70l-1 -102v-18l-10 -137v-119l-4 -17l4 -35l-4 -17l-3 -18v-17v-18l-7 -18v-17l3 -14l18 -4l196 -3l134 7l17 -4h18l17 -3h105h35h18h35l53 3l-4 18v17
l-3 18v22l-4 17v17l4 18v17l-7 14h-18h-14h-17h-36l-83 4l-53 3l-18 -3h-14l-52 3h-53l-31 -3h-18h-17l-4 17l-7 81l-11 105v35l-4 53l-3 32v17v17l-9 81l-5 91v17l-3 19v17h-18h-17l-18 -3h-56z" />
    <glyph glyph-name="LE" unicode="LE" horiz-adv-x="754" 
d="M702 218h-52h-50l-51 -3h-51l-51 2l-51 1l-48 3v45l6 49l-1 47l7 49l1 48l7 49v47l6 49l3 48v48l6 47l46 4l48 -7l47 7l46 -3h47l47 -1l4 -43v-45l6 -42h-56l-53 -2h-52l-2 -39l3 -42l50 3l47 -3h47l2 -55l8 -57l-50 3l-46 -3l-51 3l5 -50l11 -46l53 2l51 -3h53l1 -53z
M126 743h56l18 3h17h18v-17l3 -19v-17l5 -91l9 -81v-17v-17l3 -32l4 -53v-35l11 -105l7 -81l4 -17h17h18l31 3h53l52 -3h14l18 3l53 -3l83 -4h36h17h14h18l7 -14v-17l-4 -18v-17l4 -17v-22l3 -18v-17l4 -18l-53 -3h-35h-18h-35h-105l-17 3h-18l-17 4l-134 -7l-196 3l-18 4
l-3 14v17l7 18v18v17l3 18l4 17l-4 35l4 17v119l10 137v18l1 102l6 70l4 18v17v17v35l3 19l-3 17z" />
    <glyph glyph-name="LE1" unicode="L&#xc9;" horiz-adv-x="754" 
d="M374 825l-2 19l-1 18l3 19l-2 19v19l4 16h15l19 3l16 -3h18l17 3h17l18 -3l18 3l16 -3l18 4l16 -5h18l19 1l16 3l17 -3h17l19 3v-22l2 -17l-2 -19l2 -19l1 -19l2 -18l-18 1l-19 -1h-17l-19 1h-16l-19 2l-18 -5l-16 3h-19h-18l-18 -1h-17l-17 3l-19 -5l-16 2h-19zM650 218
h-50l-51 -3h-51l-51 2l-51 1l-48 3v45l6 49l-1 47l7 49l1 48l7 49v47l6 49l3 48v48l6 47l46 4l48 -7l47 7l46 -3h47l47 -1l4 -43v-45l6 -42h-56l-53 -2h-52l-2 -39l3 -42l50 3l47 -3h47l2 -55l8 -57l-50 3l-46 -3l-51 3l5 -50l11 -46l53 2l51 -3h53l1 -53l7 -57h-52z
M126 743h56l18 3h17h18v-17l3 -19v-17l5 -91l9 -81v-17v-17l3 -32l4 -53v-35l11 -105l7 -81l4 -17h17h18l31 3h53l52 -3h14l18 3l53 -3l83 -4h36h17h14h18l7 -14v-17l-4 -18v-17l4 -17v-22l3 -18v-17l4 -18l-53 -3h-35h-18h-35h-105l-17 3h-18l-17 4l-134 -7l-196 3l-18 4
l-3 14v17l7 18v18v17l3 18l4 17l-4 35l4 17v119l10 137v18l1 102l6 70l4 18v17v17v35l3 19l-3 17z" />
    <glyph glyph-name="LE2" unicode="L&#xcb;" horiz-adv-x="754" 
d="M690 939l10 -7l4 -13v-19l-2 -19l-2 -20v-19l-5 -13l-12 -7l-18 4l-18 2l-16 3l-17 2l-18 2l-12 8l-2 15v17l2 20v19l5 14l12 7h18l18 2h17h18zM351 939l17 -2l18 2l18 -2l17 -2h18l12 -7l6 -14v-19l1 -18v-19l-3 -15l-11 -7l-17 -1l-18 -4l-18 -2l-17 -1l-18 -4l-12 5
l-4 14l-2 18v20l-1 19l-2 19l3 14l13 6v0zM650 218h-50l-51 -3h-51l-51 2l-51 1l-48 3v45l6 49l-1 47l7 49l1 48l7 49v47l6 49l3 48v48l6 47l46 4l48 -7l47 7l46 -3h47l47 -1l4 -43v-45l6 -42h-56l-53 -2h-52l-2 -39l3 -42l50 3l47 -3h47l2 -55l8 -57l-50 3l-46 -3l-51 3
l5 -50l11 -46l53 2l51 -3h53l1 -53l7 -57h-52zM126 743h56l18 3h17h18v-17l3 -19v-17l5 -91l9 -81v-17v-17l3 -32l4 -53v-35l11 -105l7 -81l4 -17h17h18l31 3h53l52 -3h14l18 3l53 -3l83 -4h36h17h14h18l7 -14v-17l-4 -18v-17l4 -17v-22l3 -18v-17l4 -18l-53 -3h-35h-18h-35
h-105l-17 3h-18l-17 4l-134 -7l-196 3l-18 4l-3 14v17l7 18v18v17l3 18l4 17l-4 35l4 17v119l10 137v18l1 102l6 70l4 18v17v17v35l3 19l-3 17z" />
    <glyph glyph-name="LO" unicode="LO" horiz-adv-x="769" 
d="M692 286l-12 -14l-11 -13l-9 -15l-12 -14l-10 -13l-19 -2l-71 4l-53 2l-18 -2l-90 -6l-16 4l-12 15l-14 14l-23 28l-9 16v17l3 16l-2 18l4 106l4 17l4 18l-2 18l10 140l-2 17l2 20l1 16l14 10l38 35l14 10l19 2l18 2l91 -2l17 -4l18 2h19l12 -12l41 -33l14 -10l2 -16
l10 -90l2 -18l3 -34l4 -20v-35l3 -16l2 -19l8 -106zM526 312l11 10l11 11v17l2 18v18l2 16l-4 18l2 19l-2 18l-2 16l2 17l-2 54l2 17l4 18l-15 64l-15 6l-14 6l-17 -2l-14 -10l-9 -13l-2 -17l-4 -17l2 -17v-18v-17l-2 -19l-2 -88l2 -17l-4 -52v-18l-1 -19l12 -11l14 -8
l21 -3zM126 743h56l18 3h17h18v-17l3 -19v-17l5 -91l9 -81v-17v-17l3 -32l4 -53v-35l11 -105l7 -81l4 -17h17h18l31 3h53l52 -3h14l18 3l53 -3l83 -4h36h17h14h18l7 -14v-17l-4 -18v-17l4 -17v-22l3 -18v-17l4 -18l-53 -3h-35h-18h-35h-105l-17 3h-18l-17 4l-134 -7l-196 3
l-18 4l-3 14v17l7 18v18v17l3 18l4 17l-4 35l4 17v119l10 137v18l1 102l6 70l4 18v17v17v35l3 19l-3 17z" />
    <glyph glyph-name="LO1" unicode="L&#xd2;" horiz-adv-x="769" 
d="M323 830l-3 17v19l3 18l-3 19v19l6 18h18h19h19h20h20l19 2l21 -4l18 2l19 -2l21 4l20 -4h18l21 2h19h19h22h18l2 -18v-19l-2 -19l2 -18l3 -19l2 -19l-21 2l-21 -2h-22l-19 2h-20h-19l-22 -2l-19 2h-21h-18l-21 -2h-19l-22 2l-18 -2h-21h-19zM680 272l-11 -13l-9 -15
l-12 -14l-10 -13l-19 -2l-71 4l-53 2l-18 -2l-90 -6l-16 4l-12 15l-14 14l-23 28l-9 16v17l3 16l-2 18l4 106l4 17l4 18l-2 18l10 140l-2 17l2 20l1 16l14 10l38 35l14 10l19 2l18 2l91 -2l17 -4l18 2h19l12 -12l41 -33l14 -10l2 -16l10 -90l2 -18l3 -34l4 -20v-35l3 -16
l2 -19l8 -106l8 -53zM537 322l11 11v17l2 18v18l2 16l-4 18l2 19l-2 18l-2 16l2 17l-2 54l2 17l4 18l-15 64l-15 6l-14 6l-17 -2l-14 -10l-9 -13l-2 -17l-4 -17l2 -17v-18v-17l-2 -19l-2 -88l2 -17l-4 -52v-18l-1 -19l12 -11l14 -8l21 -3l22 3zM126 743h56l18 3h17h18v-17
l3 -19v-17l5 -91l9 -81v-17v-17l3 -32l4 -53v-35l11 -105l7 -81l4 -17h17h18l31 3h53l52 -3h14l18 3l53 -3l83 -4h36h17h14h18l7 -14v-17l-4 -18v-17l4 -17v-22l3 -18v-17l4 -18l-53 -3h-35h-18h-35h-105l-17 3h-18l-17 4l-134 -7l-196 3l-18 4l-3 14v17l7 18v18v17l3 18
l4 17l-4 35l4 17v119l10 137v18l1 102l6 70l4 18v17v17v35l3 19l-3 17z" />
    <glyph glyph-name="LO2" unicode="L&#xd6;" horiz-adv-x="769" 
d="M668 919l11 -6l5 -14l-3 -21v-18l-2 -21v-17l-5 -14l-12 -7l-19 4l-18 3l-16 2l-18 4h-17l-11 8l-4 14v20l1 19v21l6 11l13 8h18l18 3h16h18zM324 919l20 -1l17 1l18 -1l16 -3h19l14 -6l4 -13v-21l2 -19v-20l-2 -14l-12 -7l-17 -1l-19 -3l-17 -3l-18 -3l-19 -2l-11 5
l-4 14l-3 20v18l-1 20v19l1 14l12 6v0zM680 272l-11 -13l-9 -15l-12 -14l-10 -13l-19 -2l-71 4l-53 2l-18 -2l-90 -6l-16 4l-12 15l-14 14l-23 28l-9 16v17l3 16l-2 18l4 106l4 17l4 18l-2 18l10 140l-2 17l2 20l1 16l14 10l38 35l14 10l19 2l18 2l91 -2l17 -4l18 2h19
l12 -12l41 -33l14 -10l2 -16l10 -90l2 -18l3 -34l4 -20v-35l3 -16l2 -19l8 -106l8 -53zM537 322l11 11v17l2 18v18l2 16l-4 18l2 19l-2 18l-2 16l2 17l-2 54l2 17l4 18l-15 64l-15 6l-14 6l-17 -2l-14 -10l-9 -13l-2 -17l-4 -17l2 -17v-18v-17l-2 -19l-2 -88l2 -17l-4 -52
v-18l-1 -19l12 -11l14 -8l21 -3l22 3zM126 743h56l18 3h17h18v-17l3 -19v-17l5 -91l9 -81v-17v-17l3 -32l4 -53v-35l11 -105l7 -81l4 -17h17h18l31 3h53l52 -3h14l18 3l53 -3l83 -4h36h17h14h18l7 -14v-17l-4 -18v-17l4 -17v-22l3 -18v-17l4 -18l-53 -3h-35h-18h-35h-105
l-17 3h-18l-17 4l-134 -7l-196 3l-18 4l-3 14v17l7 18v18v17l3 18l4 17l-4 35l4 17v119l10 137v18l1 102l6 70l4 18v17v17v35l3 19l-3 17z" />
    <glyph glyph-name="LO3" unicode="L&#xd5;" horiz-adv-x="769" 
d="M659 846l-41 -21l-44 -13l-47 4l-48 9l-50 4l-45 -7l-42 -14l-4 36v37l-2 38l42 14l44 13l47 -2l47 -7l48 -8l48 8l43 22l-1 -38l5 -38v-37v0zM692 286l-8 53l-8 106l-2 19l-3 16v35l-4 20l-3 34l-2 18l-10 90l-2 16l-14 10l-41 33l-12 12h-19l-18 -2l-17 4l-91 2l-18 -2
l-19 -2l-14 -10l-38 -35l-14 -10l-1 -16l-2 -20l2 -17l-10 -140l2 -18l-4 -18l-4 -17l-4 -106l2 -18l-3 -16v-17l9 -16l23 -28l14 -14l12 -15l16 -4l90 6l18 2l53 -2l71 -4l19 2l10 13l12 14l9 15l11 13zM526 312l-22 -3l-21 3l-14 8l-12 11l1 19v18l4 52l-2 17l2 88l2 19
v17v18l-2 17l4 17l2 17l9 13l14 10l17 2l14 -6l15 -6l15 -64l-4 -18l-2 -17l2 -54l-2 -17l2 -16l2 -18l-2 -19l4 -18l-2 -16v-18l-2 -18v-17l-11 -11zM105 746l3 -17l-3 -19v-35v-17v-17l-4 -18l-6 -70l-1 -102v-18l-10 -137v-119l-4 -17l4 -35l-4 -17l-3 -18v-17v-18
l-7 -18v-17l3 -14l18 -4l196 -3l134 7l17 -4h18l17 -3h105h35h18h35l53 3l-4 18v17l-3 18v22l-4 17v17l4 18v17l-7 14h-18h-14h-17h-36l-83 4l-53 3l-18 -3h-14l-52 3h-53l-31 -3h-18h-17l-4 17l-7 81l-11 105v35l-4 53l-3 32v17v17l-9 81l-5 91v17l-3 19v17h-18h-17l-18 -3
h-56z" />
    <glyph glyph-name="LO4" unicode="L&#xd4;" horiz-adv-x="769" 
d="M340 819l15 19l14 17l14 16l13 17l12 20l15 15l12 20l23 -2l22 2l23 -4l21 6l22 -4l23 2l12 -20l13 -17l14 -16l14 -17l13 -18l14 -17l13 -18l-23 -3l-23 2l-24 -6l-23 2l-21 -4l-18 17l-15 20l-12 21l-17 -17l-16 -22l-10 -23l-25 6h-23l-24 4h-23l-25 2v0zM692 286
l-8 53l-8 106l-2 19l-3 16v35l-4 20l-3 34l-2 18l-10 90l-2 16l-14 10l-41 33l-12 12h-19l-18 -2l-17 4l-91 2l-18 -2l-19 -2l-14 -10l-38 -35l-14 -10l-1 -16l-2 -20l2 -17l-10 -140l2 -18l-4 -18l-4 -17l-4 -106l2 -18l-3 -16v-17l9 -16l23 -28l14 -14l12 -15l16 -4l90 6
l18 2l53 -2l71 -4l19 2l10 13l12 14l9 15l11 13zM526 312l-22 -3l-21 3l-14 8l-12 11l1 19v18l4 52l-2 17l2 88l2 19v17v18l-2 17l4 17l2 17l9 13l14 10l17 2l14 -6l15 -6l15 -64l-4 -18l-2 -17l2 -54l-2 -17l2 -16l2 -18l-2 -19l4 -18l-2 -16v-18l-2 -18v-17l-11 -11z
M105 746l3 -17l-3 -19v-35v-17v-17l-4 -18l-6 -70l-1 -102v-18l-10 -137v-119l-4 -17l4 -35l-4 -17l-3 -18v-17v-18l-7 -18v-17l3 -14l18 -4l196 -3l134 7l17 -4h18l17 -3h105h35h18h35l53 3l-4 18v17l-3 18v22l-4 17v17l4 18v17l-7 14h-18h-14h-17h-36l-83 4l-53 3l-18 -3
h-14l-52 3h-53l-31 -3h-18h-17l-4 17l-7 81l-11 105v35l-4 53l-3 32v17v17l-9 81l-5 91v17l-3 19v17h-18h-17l-18 -3h-56z" />
    <glyph glyph-name="LU" unicode="LU" horiz-adv-x="769" 
d="M600 751l19 1l18 -3l19 6l18 -6l1 -22v-52v-18l9 -122v-17v-18l3 -17l1 -17v-35v-18l6 -106l4 -17l-42 -35l-27 -26l-13 -10l-16 1l-136 1l-17 -2h-17l-13 13l-17 8l-15 12l-13 12l-14 14l-12 13l-2 18l4 52l2 17l10 105v17l1 18l-3 17l4 18l3 17l-1 18l5 122l1 17l3 24
l18 1h17l17 3l17 -2h17l17 -2l2 -22l1 -18l2 -17l-2 -18l-1 -16l4 -17v-18l-1 -17l5 -16v-18l-1 -16l4 -119v-18l2 -16l10 -17l14 -3l18 -3l17 3h16h16l-1 19l1 17v18v17l4 16l2 35v34v17v18v16l5 86l3 16l1 17l2 18zM126 749h56l18 3h17h18v-23l3 -19v-17l5 -91l9 -81v-17
v-17l3 -32l4 -53v-35l11 -105l7 -81l4 -17h17h18l31 3h53l52 -3h14l18 3l53 -3l83 -4h36h17h14h18l7 -14v-17l-4 -18v-17l4 -17v-22l3 -18v-17l4 -18l-53 -3h-35h-18h-35h-105l-17 3h-18l-17 4l-134 -7l-196 3l-18 4l-3 14v17l7 18v18v17l3 18l4 17l-4 35l4 17v119l10 137
v18l1 102l6 70l4 18v17v17v35l3 19l-3 23z" />
    <glyph glyph-name="LU1" unicode="L&#xd9;" horiz-adv-x="769" 
d="M371 833l-2 16v20l2 18l-2 18v18l4 18h16l16 2l19 -2h18l15 2h18l17 -2l18 2l17 -2l18 2l16 -4l17 2h19l16 2l18 -2h17l18 2l2 -20v-18l-2 -20l2 -18l2 -18l2 -21l-20 2h-19l-16 -2l-18 5l-18 -3l-18 3l-16 -5l-19 5h-18l-18 -3h-17l-18 -2l-17 5l-18 -5l-17 2l-18 -2z
M619 752l18 -3l19 6l18 -6l1 -22v-52v-18l9 -122v-17v-18l3 -17l1 -17v-35v-18l6 -106l4 -17l-42 -35l-27 -26l-13 -10l-16 1l-136 1l-17 -2h-17l-13 13l-17 8l-15 12l-13 12l-14 14l-12 13l-2 18l4 52l2 17l10 105v17l1 18l-3 17l4 18l3 17l-1 18l5 122l1 17l3 24l18 1h17
l17 3l17 -2h17l17 -2l2 -22l1 -18l2 -17l-2 -18l-1 -16l4 -17v-18l-1 -17l5 -16v-18l-1 -16l4 -119v-18l2 -16l10 -17l14 -3l18 -3l17 3h16h16l-1 19l1 17v18v17l4 16l2 35v34v17v18v16l5 86l3 16l1 17l2 18l1 22zM126 749h56l18 3h17h18v-23l3 -19v-17l5 -91l9 -81v-17v-17
l3 -32l4 -53v-35l11 -105l7 -81l4 -17h17h18l31 3h53l52 -3h14l18 3l53 -3l83 -4h36h17h14h18l7 -14v-17l-4 -18v-17l4 -17v-22l3 -18v-17l4 -18l-53 -3h-35h-18h-35h-105l-17 3h-18l-17 4l-134 -7l-196 3l-18 4l-3 14v17l7 18v18v17l3 18l4 17l-4 35l4 17v119l10 137v18
l1 102l6 70l4 18v17v17v35l3 19l-3 23z" />
    <glyph glyph-name="LU2" unicode="L&#xdc;" horiz-adv-x="769" 
d="M693 941l11 -7l4 -14l-2 -19v-18l-3 -19v-20l-6 -13l-11 -7l-17 4l-17 2l-20 3l-17 2l-17 2l-11 8l-4 14l1 19l3 18l-3 21l7 12l13 8h17l18 2h17h17zM353 941l18 -2l17 2l17 -2l19 -2h17l12 -6l5 -14v-19l2 -20l1 -19l-3 -14l-12 -7l-19 -1l-17 -4l-17 -2l-16 -1l-17 -3
l-14 4l-4 14l-2 19v19l-1 20l-2 19l3 13l13 6v0zM619 752l18 -3l19 6l18 -6l1 -22v-52v-18l9 -122v-17v-18l3 -17l1 -17v-35v-18l6 -106l4 -17l-42 -35l-27 -26l-13 -10l-16 1l-136 1l-17 -2h-17l-13 13l-17 8l-15 12l-13 12l-14 14l-12 13l-2 18l4 52l2 17l10 105v17l1 18
l-3 17l4 18l3 17l-1 18l5 122l1 17l3 24l18 1h17l17 3l17 -2h17l17 -2l2 -22l1 -18l2 -17l-2 -18l-1 -16l4 -17v-18l-1 -17l5 -16v-18l-1 -16l4 -119v-18l2 -16l10 -17l14 -3l18 -3l17 3h16h16l-1 19l1 17v18v17l4 16l2 35v34v17v18v16l5 86l3 16l1 17l2 18l1 22zM126 749
h56l18 3h17h18v-23l3 -19v-17l5 -91l9 -81v-17v-17l3 -32l4 -53v-35l11 -105l7 -81l4 -17h17h18l31 3h53l52 -3h14l18 3l53 -3l83 -4h36h17h14h18l7 -14v-17l-4 -18v-17l4 -17v-22l3 -18v-17l4 -18l-53 -3h-35h-18h-35h-105l-17 3h-18l-17 4l-134 -7l-196 3l-18 4l-3 14v17
l7 18v18v17l3 18l4 17l-4 35l4 17v119l10 137v18l1 102l6 70l4 18v17v17v35l3 19l-3 23z" />
    <glyph glyph-name="LU3" unicode="L&#xdb;" horiz-adv-x="769" 
d="M362 817l15 17l10 20l17 17l14 17l13 18l12 19l17 15h23l24 3l23 -3h24h23l24 3l14 -18l11 -19l17 -16l14 -19l16 -17l12 -18l14 -19l-24 2l-25 -5l-24 -7h-25h-24l-18 19l-12 21l-17 17l-16 -17l-16 -18l-15 -22l-23 3l-26 -3l-23 3l-26 4l-23 3v0zM600 751l-1 -22
l-2 -18l-1 -17l-3 -16l-5 -86v-16v-18v-17v-34l-2 -35l-4 -16v-17v-18l-1 -17l1 -19h-16h-16l-17 -3l-18 3l-14 3l-10 17l-2 16v18l-4 119l1 16v18l-5 16l1 17v18l-4 17l1 16l2 18l-2 17l-1 18l-2 22l-17 2h-17l-17 2l-17 -3h-17l-18 -1l-3 -24l-1 -17l-5 -122l1 -18l-3 -17
l-4 -18l3 -17l-1 -18v-17l-10 -105l-2 -17l-4 -52l2 -18l12 -13l14 -14l13 -12l15 -12l17 -8l13 -13h17l17 2l136 -1l16 -1l13 10l27 26l42 35l-4 17l-6 106v18v35l-1 17l-3 17v18v17l-9 122v18v52l-1 22l-18 6l-19 -6l-18 3zM105 752l3 -23l-3 -19v-35v-17v-17l-4 -18
l-6 -70l-1 -102v-18l-10 -137v-119l-4 -17l4 -35l-4 -17l-3 -18v-17v-18l-7 -18v-17l3 -14l18 -4l196 -3l134 7l17 -4h18l17 -3h105h35h18h35l53 3l-4 18v17l-3 18v22l-4 17v17l4 18v17l-7 14h-18h-14h-17h-36l-83 4l-53 3l-18 -3h-14l-52 3h-53l-31 -3h-18h-17l-4 17l-7 81
l-11 105v35l-4 53l-3 32v17v17l-9 81l-5 91v17l-3 19v23h-18h-17l-18 -3h-56z" />
    <glyph glyph-name="RA" unicode="RA" horiz-adv-x="1014" 
d="M894 749v-17v-18l2 -17l15 -136l2 -50v-17l6 -103l2 -16v-17v-16v-19l6 -84v-14l-16 -2l-56 -2l-19 2l-20 -2l-2 53l-2 18l2 19l-4 14l-19 5l-57 -3l-8 -88l-3 -16l-16 -2l-17 2l-86 -2h-16l-19 2l5 16v68l2 18l2 17l2 16v17l2 18l4 85v16v19l4 67v17v16l7 84v19v16l3 15
h17l16 3l70 -3h19h16h121l19 2h16zM723 453h19l21 2l18 -4l19 2l-4 18v17l-5 103l2 16l-4 17l-16 5l-18 -2h-21l-2 -20l-2 -68l-2 -16l-2 -19l-3 -16v-17v-18zM740 167l48 -4l48 6l48 -4l49 2l4 -54l-2 -53l9 -51l-45 2l-46 -6l-45 4h-45l-43 -2l-48 6l-49 6l-47 4l-45 17
l-42 25l-41 24l-39 31l-29 37l-24 43l-16 45l-9 47h-64l3 -47l2 -47v-47l4 -46v-47l6 -47h-53l-52 -2l-53 6l-51 -4l-3 49l8 50l-2 49l5 49l4 50l1 47l-3 49v49l6 50l-3 49l5 49l8 50l-2 49v47l6 48l43 2l48 2l47 -4l4 4h49l48 1l49 -3l47 -2l31 -23l29 -25v-51l10 -49
l-4 -51l10 -52l2 -51v-52l8 -51l-38 -35l18 -41l25 -39l32 -31l43 -15l46 -6l45 -2zM262 422l15 -12l40 -5l37 7l21 8l-9 48l-2 46l2 47l-10 46l-13 12l-38 2h-40l-14 -12l4 -43l4 -43l3 -42v-59z" />
    <glyph glyph-name="RA1" unicode="R&#xc0;" horiz-adv-x="1014" 
d="M600 829v17l-2 18l4 19l-2 19v18l4 17h15l17 2l18 -2l17 2h18h15l17 -2l18 2l17 -2l17 4l18 -4h17h18l17 2l17 -2l16 2h19v-19l2 -20l-2 -19l2 -17l2 -20v-19l-18 2l-19 -2h-17l-18 4l-17 -2l-17 2l-18 -4l-17 2h-17h-18l-19 -2h-17l-18 4l-17 -4h-17h-18zM894 732v-18
l2 -17l15 -136l2 -50v-17l6 -103l2 -16v-17v-16v-19l6 -84v-14l-16 -2l-56 -2l-19 2l-20 -2l-2 53l-2 18l2 19l-4 14l-19 5l-57 -3l-8 -88l-3 -16l-16 -2l-17 2l-86 -2h-16l-19 2l5 16v68l2 18l2 17l2 16v17l2 18l4 85v16v19l4 67v17v16l7 84v19v16l3 15h17l16 3l70 -3h19
h16h121l19 2h16v-17zM742 453l21 2l18 -4l19 2l-4 18v17l-5 103l2 16l-4 17l-16 5l-18 -2h-21l-2 -20l-2 -68l-2 -16l-2 -19l-3 -16v-17v-18h19zM788 163l48 6l48 -4l49 2l4 -54l-2 -53l9 -51l-45 2l-46 -6l-45 4h-45l-43 -2l-48 6l-49 6l-47 4l-45 17l-42 25l-41 24l-39 31
l-29 37l-24 43l-16 45l-9 47h-64l3 -47l2 -47v-47l4 -46v-47l6 -47h-53l-52 -2l-53 6l-51 -4l-3 49l8 50l-2 49l5 49l4 50l1 47l-3 49v49l6 50l-3 49l5 49l8 50l-2 49v47l6 48l43 2l48 2l47 -4l4 4h49l48 1l49 -3l47 -2l31 -23l29 -25v-51l10 -49l-4 -51l10 -52l2 -51v-52
l8 -51l-38 -35l18 -41l25 -39l32 -31l43 -15l46 -6l45 -2l45 -4zM277 410l40 -5l37 7l21 8l-9 48l-2 46l2 47l-10 46l-13 12l-38 2h-40l-14 -12l4 -43l4 -43l3 -42v-59z" />
    <glyph glyph-name="RA2" unicode="R&#xc4;" horiz-adv-x="1014" 
d="M916 940l12 -7l3 -12v-20l-2 -19l-1 -19v-19l-6 -14l-12 -7l-17 3l-19 4l-17 2l-17 3l-18 2l-12 8l-3 12l2 21l1 17v21l6 14l12 7h17h19l17 2h17zM578 940l17 -1l17 1l19 -3h16h19l13 -5l4 -16v-21l1 -17v-21l-1 -12l-12 -8l-19 -2l-16 -2l-19 -3l-15 -2l-19 -2l-14 4
l-2 15l-1 18v20l-2 19l-2 19l4 12l12 7v0zM894 732v-18l2 -17l15 -136l2 -50v-17l6 -103l2 -16v-17v-16v-19l6 -84v-14l-16 -2l-56 -2l-19 2l-20 -2l-2 53l-2 18l2 19l-4 14l-19 5l-57 -3l-8 -88l-3 -16l-16 -2l-17 2l-86 -2h-16l-19 2l5 16v68l2 18l2 17l2 16v17l2 18l4 85
v16v19l4 67v17v16l7 84v19v16l3 15h17l16 3l70 -3h19h16h121l19 2h16v-17zM742 453l21 2l18 -4l19 2l-4 18v17l-5 103l2 16l-4 17l-16 5l-18 -2h-21l-2 -20l-2 -68l-2 -16l-2 -19l-3 -16v-17v-18h19zM788 163l48 6l48 -4l49 2l4 -54l-2 -53l9 -51l-45 2l-46 -6l-45 4h-45
l-43 -2l-48 6l-49 6l-47 4l-45 17l-42 25l-41 24l-39 31l-29 37l-24 43l-16 45l-9 47h-64l3 -47l2 -47v-47l4 -46v-47l6 -47h-53l-52 -2l-53 6l-51 -4l-3 49l8 50l-2 49l5 49l4 50l1 47l-3 49v49l6 50l-3 49l5 49l8 50l-2 49v47l6 48l43 2l48 2l47 -4l4 4h49l48 1l49 -3
l47 -2l31 -23l29 -25v-51l10 -49l-4 -51l10 -52l2 -51v-52l8 -51l-38 -35l18 -41l25 -39l32 -31l43 -15l46 -6l45 -2l45 -4zM277 410l40 -5l37 7l21 8l-9 48l-2 46l2 47l-10 46l-13 12l-38 2h-40l-14 -12l4 -43l4 -43l3 -42v-59z" />
    <glyph glyph-name="RA3" unicode="R&#xc2;" horiz-adv-x="1014" 
d="M585 819l14 18l12 19l17 15l10 20l16 15l10 20l14 17l23 -3l23 2l22 1l22 -3l21 2l22 -2l14 -16l13 -17l11 -18l15 -18l14 -15l14 -19l14 -18h-26l-22 -3l-22 -4h-24l-24 -6l-13 23l-15 20l-14 17l-15 -16l-12 -22l-20 -16l-21 -2l-23 2l-23 4l-23 1l-24 2v0zM894 749
h-16l-19 -2h-121h-16h-19l-70 3l-16 -3h-17l-3 -15v-16v-19l-7 -84v-16v-17l-4 -67v-19v-16l-4 -85l-2 -18v-17l-2 -16l-2 -17l-2 -18v-68l-5 -16l19 -2h16l86 2l17 -2l16 2l3 16l8 88l57 3l19 -5l4 -14l-2 -19l2 -18l2 -53l20 2l19 -2l56 2l16 2v14l-6 84v19v16v17l-2 16
l-6 103v17l-2 50l-15 136l-2 17v18v17zM723 453v18v17l3 16l2 19l2 16l2 68l2 20h21l18 2l16 -5l4 -17l-2 -16l5 -103v-17l4 -18l-19 -2l-18 4l-21 -2h-19zM740 167l-45 4l-45 2l-46 6l-43 15l-32 31l-25 39l-18 41l38 35l-8 51v52l-2 51l-10 52l4 51l-10 49v51l-29 25
l-31 23l-47 2l-49 3l-48 -1h-49l-4 -4l-47 4l-48 -2l-43 -2l-6 -48v-47l2 -49l-8 -50l-5 -49l3 -49l-6 -50v-49l3 -49l-1 -47l-4 -50l-5 -49l2 -49l-8 -50l3 -49l51 4l53 -6l52 2h53l-6 47v47l-4 46v47l-2 47l-3 47h64l9 -47l16 -45l24 -43l29 -37l39 -31l41 -24l42 -25
l45 -17l47 -4l49 -6l48 -6l43 2h45l45 -4l46 6l45 -2l-9 51l2 53l-4 54l-49 -2l-48 4l-48 -6zM262 422v59l-3 42l-4 43l-4 43l14 12h40l38 -2l13 -12l10 -46l-2 -47l2 -46l9 -48l-21 -8l-37 -7l-40 5z" />
    <glyph glyph-name="RA4" unicode="R&#xc3;" horiz-adv-x="1014" 
d="M897 858l-40 -18l-43 -15h-48l-48 9l-48 6l-46 -3l-43 -21v39l-2 37l-1 36l41 13l42 15l48 -3l48 -7l48 -9l46 13l45 18l-2 -37l2 -37l1 -36v0zM894 749h-16l-19 -2h-121h-16h-19l-70 3l-16 -3h-17l-3 -15v-16v-19l-7 -84v-16v-17l-4 -67v-19v-16l-4 -85l-2 -18v-17
l-2 -16l-2 -17l-2 -18v-68l-5 -16l19 -2h16l86 2l17 -2l16 2l3 16l8 88l57 3l19 -5l4 -14l-2 -19l2 -18l2 -53l20 2l19 -2l56 2l16 2v14l-6 84v19v16v17l-2 16l-6 103v17l-2 50l-15 136l-2 17v18v17zM723 453v18v17l3 16l2 19l2 16l2 68l2 20h21l18 2l16 -5l4 -17l-2 -16
l5 -103v-17l4 -18l-19 -2l-18 4l-21 -2h-19zM740 167l-45 4l-45 2l-46 6l-43 15l-32 31l-25 39l-18 41l38 35l-8 51v52l-2 51l-10 52l4 51l-10 49v51l-29 25l-31 23l-47 2l-49 3l-48 -1h-49l-4 -4l-47 4l-48 -2l-43 -2l-6 -48v-47l2 -49l-8 -50l-5 -49l3 -49l-6 -50v-49
l3 -49l-1 -47l-4 -50l-5 -49l2 -49l-8 -50l3 -49l51 4l53 -6l52 2h53l-6 47v47l-4 46v47l-2 47l-3 47h64l9 -47l16 -45l24 -43l29 -37l39 -31l41 -24l42 -25l45 -17l47 -4l49 -6l48 -6l43 2h45l45 -4l46 6l45 -2l-9 51l2 53l-4 54l-49 -2l-48 4l-48 -6zM262 422v59l-3 42
l-4 43l-4 43l14 12h40l38 -2l13 -12l10 -46l-2 -47l2 -46l9 -48l-21 -8l-37 -7l-40 5z" />
    <glyph glyph-name="RE" unicode="RE" horiz-adv-x="979" 
d="M931 219l-51 1l-51 -1l-50 -3h-51h-51l-51 4l-49 2v45l5 49v47l6 50l1 47l8 49v47l5 50l4 47v48l6 48l47 4l47 -6l47 6l47 -4l48 1l47 -1l2 -44l2 -44l5 -43h-55h-54h-53l-2 -40l4 -42l49 2l47 -4l47 2l2 -56l10 -57l-51 3l-48 -3l-48 3l3 -50l11 -45l53 2l52 -4h53
l2 -54zM788 163l48 6l48 -4l49 2l4 -54l-2 -53l9 -51l-45 2l-46 -6l-45 4h-45l-43 -2l-48 6l-49 6l-47 4l-45 17l-42 25l-41 24l-39 31l-29 37l-24 43l-16 45l-9 47h-64l3 -47l2 -47v-47l4 -46v-47l6 -47h-53l-52 -2l-53 6l-51 -4l-3 49l8 50l-2 49l5 49l4 50l1 47l-3 49v49
l6 50l-3 49l5 49l8 50l-2 49v47l6 48l43 2l48 2l47 -4l4 4h49l48 1l49 -3l47 -2l31 -23l29 -25v-51l10 -49l-4 -51l10 -52l2 -51v-52l8 -51l-38 -35l18 -41l25 -39l32 -31l43 -15l46 -6l45 -2l45 -4zM277 410l40 -5l37 7l21 8l-9 48l-2 46l2 47l-10 46l-13 12l-38 2h-40
l-14 -12l4 -43l4 -43l3 -42v-59z" />
    <glyph glyph-name="RE1" unicode="R&#xc8;" horiz-adv-x="979" 
d="M604 830l-3 19v19l4 17l-1 19l-3 18l4 17l17 2h17h17h17h17l17 3l17 -5l19 2l17 -2l17 5l17 -5h17h17l17 2h17h16h19v-19l2 -18l-2 -19l2 -19l2 -19l1 -19l-20 2l-17 -2h-17l-18 4l-17 -2l-17 2l-17 -4l-19 2h-17h-17l-19 -2h-17l-17 4l-19 -4h-17h-17zM880 220l-51 -1
l-50 -3h-51h-51l-51 4l-49 2v45l5 49v47l6 50l1 47l8 49v47l5 50l4 47v48l6 48l47 4l47 -6l47 6l47 -4l48 1l47 -1l2 -44l2 -44l5 -43h-55h-54h-53l-2 -40l4 -42l49 2l47 -4l47 2l2 -56l10 -57l-51 3l-48 -3l-48 3l3 -50l11 -45l53 2l52 -4h53l2 -54l5 -56zM788 163l48 6
l48 -4l49 2l4 -54l-2 -53l9 -51l-45 2l-46 -6l-45 4h-45l-43 -2l-48 6l-49 6l-47 4l-45 17l-42 25l-41 24l-39 31l-29 37l-24 43l-16 45l-9 47h-64l3 -47l2 -47v-47l4 -46v-47l6 -47h-53l-52 -2l-53 6l-51 -4l-3 49l8 50l-2 49l5 49l4 50l1 47l-3 49v49l6 50l-3 49l5 49
l8 50l-2 49v47l6 48l43 2l48 2l47 -4l4 4h49l48 1l49 -3l47 -2l31 -23l29 -25v-51l10 -49l-4 -51l10 -52l2 -51v-52l8 -51l-38 -35l18 -41l25 -39l32 -31l43 -15l46 -6l45 -2l45 -4zM277 410l40 -5l37 7l21 8l-9 48l-2 46l2 47l-10 46l-13 12l-38 2h-40l-14 -12l4 -43l4 -43
l3 -42v-59z" />
    <glyph glyph-name="RE2" unicode="R&#xcb;" horiz-adv-x="979" 
d="M913 940l13 -5l3 -14l-1 -20v-18l-2 -21l-2 -18l-3 -13l-30 -4l-19 3l-16 1l-18 4l-17 2l-12 7l-3 15v19l3 19v19l4 13l14 9l16 -2l19 2h16l19 2h16zM577 940h16h19l16 -2h19h18l13 -7l4 -15v-19l1 -19v-19l-1 -15l-13 -7l-17 -2l-18 -2l-17 -2l-18 -1l-17 -4l-12 5
l-4 13l-2 21v18l-2 20v18l2 14l13 5v0zM880 220l-51 -1l-50 -3h-51h-51l-51 4l-49 2v45l5 49v47l6 50l1 47l8 49v47l5 50l4 47v48l6 48l47 4l47 -6l47 6l47 -4l48 1l47 -1l2 -44l2 -44l5 -43h-55h-54h-53l-2 -40l4 -42l49 2l47 -4l47 2l2 -56l10 -57l-51 3l-48 -3l-48 3
l3 -50l11 -45l53 2l52 -4h53l2 -54l5 -56zM788 163l48 6l48 -4l49 2l4 -54l-2 -53l9 -51l-45 2l-46 -6l-45 4h-45l-43 -2l-48 6l-49 6l-47 4l-45 17l-42 25l-41 24l-39 31l-29 37l-24 43l-16 45l-9 47h-64l3 -47l2 -47v-47l4 -46v-47l6 -47h-53l-52 -2l-53 6l-51 -4l-3 49
l8 50l-2 49l5 49l4 50l1 47l-3 49v49l6 50l-3 49l5 49l8 50l-2 49v47l6 48l43 2l48 2l47 -4l4 4h49l48 1l49 -3l47 -2l31 -23l29 -25v-51l10 -49l-4 -51l10 -52l2 -51v-52l8 -51l-38 -35l18 -41l25 -39l32 -31l43 -15l46 -6l45 -2l45 -4zM277 410l40 -5l37 7l21 8l-9 48
l-2 46l2 47l-10 46l-13 12l-38 2h-40l-14 -12l4 -43l4 -43l3 -42v-59z" />
    <glyph glyph-name="RE3" unicode="R&#xca;" horiz-adv-x="979" 
d="M591 819l14 19l13 18l17 13l12 19l13 18l12 19l12 19l23 -7l23 7l21 -4h23h21l25 4l10 -21l17 -15l10 -20l15 -15l14 -17l13 -18l12 -19h-23l-22 -6h-23h-23l-25 -5l-17 19l-10 23l-17 19l-15 -19l-14 -21l-15 -18l-23 -3l-22 3l-23 6h-23l-25 2v0zM931 219l-5 56l-2 54
h-53l-52 4l-53 -2l-11 45l-3 50l48 -3l48 3l51 -3l-10 57l-2 56l-47 -2l-47 4l-49 -2l-4 42l2 40h53h54h55l-5 43l-2 44l-2 44l-47 1l-48 -1l-47 4l-47 -6l-47 6l-47 -4l-6 -48v-48l-4 -47l-5 -50v-47l-8 -49l-1 -47l-6 -50v-47l-5 -49v-45l49 -2l51 -4h51h51l50 3l51 1z
M740 167l-45 4l-45 2l-46 6l-43 15l-32 31l-25 39l-18 41l38 35l-8 51v52l-2 51l-10 52l4 51l-10 49v51l-29 25l-31 23l-47 2l-49 3l-48 -1h-49l-4 -4l-47 4l-48 -2l-43 -2l-6 -48v-47l2 -49l-8 -50l-5 -49l3 -49l-6 -50v-49l3 -49l-1 -47l-4 -50l-5 -49l2 -49l-8 -50l3 -49
l51 4l53 -6l52 2h53l-6 47v47l-4 46v47l-2 47l-3 47h64l9 -47l16 -45l24 -43l29 -37l39 -31l41 -24l42 -25l45 -17l47 -4l49 -6l48 -6l43 2h45l45 -4l46 6l45 -2l-9 51l2 53l-4 54l-49 -2l-48 4l-48 -6zM262 422v59l-3 42l-4 43l-4 43l14 12h40l38 -2l13 -12l10 -46l-2 -47
l2 -46l9 -48l-21 -8l-37 -7l-40 5z" />
    <glyph glyph-name="RO" unicode="RO" horiz-adv-x="997" 
d="M739 165l51 2l50 -4l51 -4l48 2l8 -51l-2 -52l2 -51l-42 -4l-47 -2l-46 4l-49 2l-46 -6l-49 2l-46 10l-47 8l-46 16l-43 23l-42 24l-34 32l-27 41l-24 40l-24 43l-8 44l-63 4l6 -46l2 -49l-4 -46l8 -47l-4 -46l8 -51l-54 4l-53 4l-52 -4l-51 2v47l4 48l-4 51l6 48l2 51
v48l6 49l-2 50l6 49l-2 48l4 51l2 48l-4 51l4 48l2 53h49l46 -6l47 6l6 -4l48 2l49 2l48 -4l49 4l26 -30l37 -23l-2 -52l4 -51v-50l4 -53l4 -50l8 -51l4 -52l-43 -35l25 -42l20 -41l38 -26l41 -22l44 -8l47 4zM260 419l14 -10l39 -6l40 2l18 12l-2 49l-4 46l-8 47l-2 46
l-12 17l-41 -4l-40 4l-12 -17l-2 -42l2 -42l8 -43zM920 272l-11 -13l-9 -15l-12 -14l-10 -13l-19 -2l-71 4l-53 2l-18 -2l-90 -6l-16 4l-12 15l-14 14l-23 28l-9 16v17l3 16l-2 18l4 106l4 17l4 18l-2 18l10 140l-2 17l2 20l1 16l14 10l38 35l14 10l19 2l18 2l91 -2l17 -4
l18 2h19l12 -12l41 -33l14 -10l2 -16l10 -90l2 -18l3 -34l4 -20v-35l3 -16l2 -19l8 -106l8 -53zM777 322l11 11v17l2 18v18l2 16l-4 18l2 19l-2 18l-2 16l2 17l-2 54l2 17l4 18l-15 64l-15 6l-14 6l-17 -2l-14 -10l-9 -13l-2 -17l-4 -17l2 -17v-18v-17l-2 -19l-2 -88l2 -17
l-4 -52v-18l-1 -19l12 -11l14 -8l21 -3l22 3z" />
    <glyph glyph-name="RO1" unicode="R&#xd2;" horiz-adv-x="997" 
d="M581 826v18l-2 19l4 18l-2 19v18l2 19h16h19h16h18h17l18 2l16 -5l19 3l16 -3l16 5l18 -5h17l18 3h16h19h16h18l3 -19v-18l-3 -19l3 -18v-21l2 -18l-19 2l-18 -2h-16l-19 2h-18h-16l-19 -2l-18 2h-16h-19l-16 -2h-18l-19 4l-16 -4h-19h-18zM790 167l50 -4l51 -4l48 2
l8 -51l-2 -52l2 -51l-42 -4l-47 -2l-46 4l-49 2l-46 -6l-49 2l-46 10l-47 8l-46 16l-43 23l-42 24l-34 32l-27 41l-24 40l-24 43l-8 44l-63 4l6 -46l2 -49l-4 -46l8 -47l-4 -46l8 -51l-54 4l-53 4l-52 -4l-51 2v47l4 48l-4 51l6 48l2 51v48l6 49l-2 50l6 49l-2 48l4 51l2 48
l-4 51l4 48l2 53h49l46 -6l47 6l6 -4l48 2l49 2l48 -4l49 4l26 -30l37 -23l-2 -52l4 -51v-50l4 -53l4 -50l8 -51l4 -52l-43 -35l25 -42l20 -41l38 -26l41 -22l44 -8l47 4l46 -2zM274 409l39 -6l40 2l18 12l-2 49l-4 46l-8 47l-2 46l-12 17l-41 -4l-40 4l-12 -17l-2 -42
l2 -42l8 -43l2 -59zM920 272l-11 -13l-9 -15l-12 -14l-10 -13l-19 -2l-71 4l-53 2l-18 -2l-90 -6l-16 4l-12 15l-14 14l-23 28l-9 16v17l3 16l-2 18l4 106l4 17l4 18l-2 18l10 140l-2 17l2 20l1 16l14 10l38 35l14 10l19 2l18 2l91 -2l17 -4l18 2h19l12 -12l41 -33l14 -10
l2 -16l10 -90l2 -18l3 -34l4 -20v-35l3 -16l2 -19l8 -106l8 -53zM777 322l11 11v17l2 18v18l2 16l-4 18l2 19l-2 18l-2 16l2 17l-2 54l2 17l4 18l-15 64l-15 6l-14 6l-17 -2l-14 -10l-9 -13l-2 -17l-4 -17l2 -17v-18v-17l-2 -19l-2 -88l2 -17l-4 -52v-18l-1 -19l12 -11
l14 -8l21 -3l22 3z" />
    <glyph glyph-name="RO2" unicode="R&#xd6;" horiz-adv-x="997" 
d="M895 939l12 -7l2 -12v-19v-21l-2 -19v-19l-5 -12l-14 -8l-17 3l-17 2l-19 3l-16 4h-17l-12 11l-4 14l2 19v18v19l7 12l12 9h16h19h18l16 3h19zM557 939h19h16l16 -3h19h17l14 -7l4 -14v-19v-18l3 -19l-5 -14l-12 -8l-16 -3l-17 -2l-18 -2l-17 -3l-19 -2l-11 5l-3 15
l-2 18v19l-2 19v19l2 14l12 5v0zM790 167l50 -4l51 -4l48 2l8 -51l-2 -52l2 -51l-42 -4l-47 -2l-46 4l-49 2l-46 -6l-49 2l-46 10l-47 8l-46 16l-43 23l-42 24l-34 32l-27 41l-24 40l-24 43l-8 44l-63 4l6 -46l2 -49l-4 -46l8 -47l-4 -46l8 -51l-54 4l-53 4l-52 -4l-51 2v47
l4 48l-4 51l6 48l2 51v48l6 49l-2 50l6 49l-2 48l4 51l2 48l-4 51l4 48l2 53h49l46 -6l47 6l6 -4l48 2l49 2l48 -4l49 4l26 -30l37 -23l-2 -52l4 -51v-50l4 -53l4 -50l8 -51l4 -52l-43 -35l25 -42l20 -41l38 -26l41 -22l44 -8l47 4l46 -2zM274 409l39 -6l40 2l18 12l-2 49
l-4 46l-8 47l-2 46l-12 17l-41 -4l-40 4l-12 -17l-2 -42l2 -42l8 -43l2 -59zM920 272l-11 -13l-9 -15l-12 -14l-10 -13l-19 -2l-71 4l-53 2l-18 -2l-90 -6l-16 4l-12 15l-14 14l-23 28l-9 16v17l3 16l-2 18l4 106l4 17l4 18l-2 18l10 140l-2 17l2 20l1 16l14 10l38 35l14 10
l19 2l18 2l91 -2l17 -4l18 2h19l12 -12l41 -33l14 -10l2 -16l10 -90l2 -18l3 -34l4 -20v-35l3 -16l2 -19l8 -106l8 -53zM777 322l11 11v17l2 18v18l2 16l-4 18l2 19l-2 18l-2 16l2 17l-2 54l2 17l4 18l-15 64l-15 6l-14 6l-17 -2l-14 -10l-9 -13l-2 -17l-4 -17l2 -17v-18
v-17l-2 -19l-2 -88l2 -17l-4 -52v-18l-1 -19l12 -11l14 -8l21 -3l22 3z" />
    <glyph glyph-name="RO3" unicode="R&#xd4;" horiz-adv-x="997" 
d="M576 821l14 16l12 20l12 16l16 14l15 20l9 18l14 17h22h24h21h22h21h24l9 -19l16 -16l15 -17l10 -19l13 -16l16 -18l13 -16l-23 -2l-22 -5l-24 2l-23 -8l-22 3l-16 19l-15 22l-14 21l-14 -24l-17 -19l-14 -19l-22 3h-23l-24 5h-24l-21 2v0zM739 165l-46 2l-47 -4l-44 8
l-41 22l-38 26l-20 41l-25 42l43 35l-4 52l-8 51l-4 50l-4 53v50l-4 51l2 52l-37 23l-26 30l-49 -4l-48 4l-49 -2l-48 -2l-6 4l-47 -6l-46 6h-49l-2 -53l-4 -48l4 -51l-2 -48l-4 -51l2 -48l-6 -49l2 -50l-6 -49v-48l-2 -51l-6 -48l4 -51l-4 -48v-47l51 -2l52 4l53 -4l54 -4
l-8 51l4 46l-8 47l4 46l-2 49l-6 46l63 -4l8 -44l24 -43l24 -40l27 -41l34 -32l42 -24l43 -23l46 -16l47 -8l46 -10l49 -2l46 6l49 -2l46 -4l47 2l42 4l-2 51l2 52l-8 51l-48 -2l-51 4l-50 4zM260 419l-2 59l-8 43l-2 42l2 42l12 17l40 -4l41 4l12 -17l2 -46l8 -47l4 -46
l2 -49l-18 -12l-40 -2l-39 6zM932 286l-8 53l-8 106l-2 19l-3 16v35l-4 20l-3 34l-2 18l-10 90l-2 16l-14 10l-41 33l-12 12h-19l-18 -2l-17 4l-91 2l-18 -2l-19 -2l-14 -10l-38 -35l-14 -10l-1 -16l-2 -20l2 -17l-10 -140l2 -18l-4 -18l-4 -17l-4 -106l2 -18l-3 -16v-17
l9 -16l23 -28l14 -14l12 -15l16 -4l90 6l18 2l53 -2l71 -4l19 2l10 13l12 14l9 15l11 13zM766 312l-22 -3l-21 3l-14 8l-12 11l1 19v18l4 52l-2 17l2 88l2 19v17v18l-2 17l4 17l2 17l9 13l14 10l17 2l14 -6l15 -6l15 -64l-4 -18l-2 -17l2 -54l-2 -17l2 -16l2 -18l-2 -19
l4 -18l-2 -16v-18l-2 -18v-17l-11 -11z" />
    <glyph glyph-name="RO4" unicode="R&#xd5;" horiz-adv-x="997" 
d="M894 845l-41 -17l-46 -13l-47 -2l-45 13l-50 4l-45 -7l-40 -15l-5 35l2 36l-7 39l46 14l41 14l49 -2l45 -10l48 -5l47 7l46 21v-39l2 -37v-36v0zM739 165l-46 2l-47 -4l-44 8l-41 22l-38 26l-20 41l-25 42l43 35l-4 52l-8 51l-4 50l-4 53v50l-4 51l2 52l-37 23l-26 30
l-49 -4l-48 4l-49 -2l-48 -2l-6 4l-47 -6l-46 6h-49l-2 -53l-4 -48l4 -51l-2 -48l-4 -51l2 -48l-6 -49l2 -50l-6 -49v-48l-2 -51l-6 -48l4 -51l-4 -48v-47l51 -2l52 4l53 -4l54 -4l-8 51l4 46l-8 47l4 46l-2 49l-6 46l63 -4l8 -44l24 -43l24 -40l27 -41l34 -32l42 -24
l43 -23l46 -16l47 -8l46 -10l49 -2l46 6l49 -2l46 -4l47 2l42 4l-2 51l2 52l-8 51l-48 -2l-51 4l-50 4zM260 419l-2 59l-8 43l-2 42l2 42l12 17l40 -4l41 4l12 -17l2 -46l8 -47l4 -46l2 -49l-18 -12l-40 -2l-39 6zM932 286l-8 53l-8 106l-2 19l-3 16v35l-4 20l-3 34l-2 18
l-10 90l-2 16l-14 10l-41 33l-12 12h-19l-18 -2l-17 4l-91 2l-18 -2l-19 -2l-14 -10l-38 -35l-14 -10l-1 -16l-2 -20l2 -17l-10 -140l2 -18l-4 -18l-4 -17l-4 -106l2 -18l-3 -16v-17l9 -16l23 -28l14 -14l12 -15l16 -4l90 6l18 2l53 -2l71 -4l19 2l10 13l12 14l9 15l11 13z
M766 312l-22 -3l-21 3l-14 8l-12 11l1 19v18l4 52l-2 17l2 88l2 19v17v18l-2 17l4 17l2 17l9 13l14 10l17 2l14 -6l15 -6l15 -64l-4 -18l-2 -17l2 -54l-2 -17l2 -16l2 -18l-2 -19l4 -18l-2 -16v-18l-2 -18v-17l-11 -11z" />
    <glyph glyph-name="RU" unicode="RU" horiz-adv-x="990" 
d="M829 747l19 2l19 -2l19 5l19 -5v-17v-16l5 -19l2 -24v-19l4 -115v-19v-16l2 -19v-16l3 -19l-3 -16v-19l6 -16v-19v-16l2 -19l2 -33l-15 -30l-52 -48l-13 -11h-19l-16 -3l-16 -2l-17 2h-19h-84h-17l-13 14l-19 8l-51 51l-3 19l3 16l2 106l6 16v19l8 158l5 70v19v16l3 17
l51 5l19 -3h16l18 -2l2 -17l3 -16v-16v-19l6 -110v-19l-2 -16l7 -43v-86l10 -19h49h17h16v19v19v16l5 103v16v20v16l4 32l-2 17l6 70l3 16v17zM742 163l46 3l49 -5l49 -3l46 3l8 -52l-3 -54l3 -49l-41 -5h-46l-43 3l-46 2l-43 -5h-50l-48 11l-46 8l-46 16l-44 22l-40 24
l-35 33l-27 40l-25 42l-24 43l-8 46l-63 3l5 -49l3 -46l-3 -47l8 -49l-5 -46l8 -48l-54 2l-54 3l-52 -3h-51v49l5 49l-5 48l8 53v48v49l6 49v51l5 49l-3 49l6 48l2 50l-5 51l5 49v51h49l49 -5l46 5l5 -2h49l49 2l49 -2l49 2l24 -30l38 -21l-3 -52l6 -51v-52l2 -52l6 -51
l8 -51l3 -52l-41 -35l24 -40l19 -44l38 -27l41 -20l46 -8l46 3zM262 418l14 -8l38 -5h41l19 13l-3 46l-3 49l-8 46l-2 47l-14 19l-41 -8l-41 5l-11 -16l-3 -42l3 -43l8 -43z" />
    <glyph glyph-name="RU1" unicode="R&#xd9;" horiz-adv-x="990" 
d="M598 832v19l-2 17l5 18l-3 20v18l3 18l17 2h16h19h17h16h19l17 -2l17 2l16 -2l20 4l16 -4h16h17l19 2h16h18h18v-20l3 -18l-3 -20l3 -18v-19l2 -20l-19 3l-18 -3h-18l-16 3h-20h-16l-18 -3l-18 3h-18h-17l-17 -3h-19l-16 5l-19 -5h-17h-18zM848 749l19 -2l19 5l19 -5v-17
v-16l5 -19l2 -24v-19l4 -115v-19v-16l2 -19v-16l3 -19l-3 -16v-19l6 -16v-19v-16l2 -19l2 -33l-15 -30l-52 -48l-13 -11h-19l-16 -3l-16 -2l-17 2h-19h-84h-17l-13 14l-19 8l-51 51l-3 19l3 16l2 106l6 16v19l8 158l5 70v19v16l3 17l51 5l19 -3h16l18 -2l2 -17l3 -16v-16
v-19l6 -110v-19l-2 -16l7 -43v-86l10 -19h49h17h16v19v19v16l5 103v16v20v16l4 32l-2 17l6 70l3 16v17zM788 166l49 -5l49 -3l46 3l8 -52l-3 -54l3 -49l-41 -5h-46l-43 3l-46 2l-43 -5h-50l-48 11l-46 8l-46 16l-44 22l-40 24l-35 33l-27 40l-25 42l-24 43l-8 46l-63 3
l5 -49l3 -46l-3 -47l8 -49l-5 -46l8 -48l-54 2l-54 3l-52 -3h-51v49l5 49l-5 48l8 53v48v49l6 49v51l5 49l-3 49l6 48l2 50l-5 51l5 49v51h49l49 -5l46 5l5 -2h49l49 2l49 -2l49 2l24 -30l38 -21l-3 -52l6 -51v-52l2 -52l6 -51l8 -51l3 -52l-41 -35l24 -40l19 -44l38 -27
l41 -20l46 -8l46 3l46 -3zM276 410l38 -5h41l19 13l-3 46l-3 49l-8 46l-2 47l-14 19l-41 -8l-41 5l-11 -16l-3 -42l3 -43l8 -43l3 -60z" />
    <glyph glyph-name="RU2" unicode="R&#xdc;" horiz-adv-x="990" 
d="M923 941l12 -7l4 -13l-1 -19l-2 -20l-1 -18l-1 -19l-4 -13l-14 -7l-17 3l-17 2l-16 3l-18 3l-17 2l-12 7l-3 15v18l2 19v19l6 13l11 9l19 -1l17 1l17 2h18zM587 941l18 -1h18l18 -2h17l17 -1l12 -7l6 -14v-19l1 -19l1 -18l-4 -14l-12 -8l-17 -1l-17 -3l-18 -2l-17 -2
l-16 -2l-13 4l-4 13l-2 20v19l-2 18v20l2 14l12 5v0zM848 749l19 -2l19 5l19 -5v-17v-16l5 -19l2 -24v-19l4 -115v-19v-16l2 -19v-16l3 -19l-3 -16v-19l6 -16v-19v-16l2 -19l2 -33l-15 -30l-52 -48l-13 -11h-19l-16 -3l-16 -2l-17 2h-19h-84h-17l-13 14l-19 8l-51 51l-3 19
l3 16l2 106l6 16v19l8 158l5 70v19v16l3 17l51 5l19 -3h16l18 -2l2 -17l3 -16v-16v-19l6 -110v-19l-2 -16l7 -43v-86l10 -19h49h17h16v19v19v16l5 103v16v20v16l4 32l-2 17l6 70l3 16v17zM788 166l49 -5l49 -3l46 3l8 -52l-3 -54l3 -49l-41 -5h-46l-43 3l-46 2l-43 -5h-50
l-48 11l-46 8l-46 16l-44 22l-40 24l-35 33l-27 40l-25 42l-24 43l-8 46l-63 3l5 -49l3 -46l-3 -47l8 -49l-5 -46l8 -48l-54 2l-54 3l-52 -3h-51v49l5 49l-5 48l8 53v48v49l6 49v51l5 49l-3 49l6 48l2 50l-5 51l5 49v51h49l49 -5l46 5l5 -2h49l49 2l49 -2l49 2l24 -30
l38 -21l-3 -52l6 -51v-52l2 -52l6 -51l8 -51l3 -52l-41 -35l24 -40l19 -44l38 -27l41 -20l46 -8l46 3l46 -3zM276 410l38 -5h41l19 13l-3 46l-3 49l-8 46l-2 47l-14 19l-41 -8l-41 5l-11 -16l-3 -42l3 -43l8 -43l3 -60z" />
    <glyph glyph-name="RU3" unicode="R&#xdb;" horiz-adv-x="990" 
d="M610 825l13 18l12 18l12 15l16 15l9 18l15 13l14 18l18 2h20l20 -2h23h20l21 2l11 -17l14 -16l12 -15l11 -18l15 -15l12 -18l13 -15h-22l-23 -3l-21 -4l-22 -2l-21 -3l-17 18l-12 20l-14 20l-12 -20l-16 -18l-12 -21l-21 4l-22 5h-23l-21 1h-22v0zM829 747v-17l-3 -16
l-6 -70l2 -17l-4 -32v-16v-20v-16l-5 -103v-16v-19v-19h-16h-17h-49l-10 19v86l-7 43l2 16v19l-6 110v19v16l-3 16l-2 17l-18 2h-16l-19 3l-51 -5l-3 -17v-16v-19l-5 -70l-8 -158v-19l-6 -16l-2 -106l-3 -16l3 -19l51 -51l19 -8l13 -14h17h84h19l17 -2l16 2l16 3h19l13 11
l52 48l15 30l-2 33l-2 19v16v19l-6 16v19l3 16l-3 19v16l-2 19v16v19l-4 115v19l-2 24l-5 19v16v17l-19 5l-19 -5l-19 2zM742 163l-46 3l-46 -3l-46 8l-41 20l-38 27l-19 44l-24 40l41 35l-3 52l-8 51l-6 51l-2 52v52l-6 51l3 52l-38 21l-24 30l-49 -2l-49 2l-49 -2h-49
l-5 2l-46 -5l-49 5h-49v-51l-5 -49l5 -51l-2 -50l-6 -48l3 -49l-5 -49v-51l-6 -49v-49v-48l-8 -53l5 -48l-5 -49v-49h51l52 3l54 -3l54 -2l-8 48l5 46l-8 49l3 47l-3 46l-5 49l63 -3l8 -46l24 -43l25 -42l27 -40l35 -33l40 -24l44 -22l46 -16l46 -8l48 -11h50l43 5l46 -2
l43 -3h46l41 5l-3 49l3 54l-8 52l-46 -3l-49 3l-49 5zM262 418l-3 60l-8 43l-3 43l3 42l11 16l41 -5l41 8l14 -19l2 -47l8 -46l3 -49l3 -46l-19 -13h-41l-38 5z" />
    <glyph glyph-name="KA" unicode="KA" horiz-adv-x="1036" 
d="M955 162l2 -54l9 -55v-51l-42 -2h-45l-45 5l-45 -6l-44 7l-48 -1l-47 9l-48 8l-45 14l-47 14l-37 31l-39 30l-31 39l-24 40l-12 47l-13 44l-29 -29l-26 -32l-25 -34l-4 -46l5 -46l6 -46v-46l-53 -2l-54 6l-51 -4l-50 4l-3 47v50l8 48l3 50l-3 51l1 50l6 47l-1 53v48
l11 48l-6 50l4 50l3 49l2 50l3 49h47l49 3l47 -5v-45l9 -50l-2 -48l2 -50l4 -47v-49l6 -50l30 39l34 31l29 39l34 32l-1 50l5 50v51l4 49l50 4l47 -7l48 1l-5 -47l-3 -51v-53l-11 -48v-53l-33 -34l-26 -38l-8 -6l22 -45l19 -46l20 -44l25 -42l36 -33l42 -22l48 -14l48 -6
l49 3l46 -8l47 2l48 2zM913 729l11 -85v-35l3 -35v-32v-17l7 -70l4 -18v-31v-18v-17l3 -18v-17v-18l7 -32v-17l3 -36l-3 -13l-17 -3l-21 3h-18l-18 -3h-21h-17v17l-4 17l-3 70l-21 5h-39l-18 -5v-17l-3 -35l-4 -18v-17l-3 -17h-14h-17h-18h-17h-18h-18h-17h-18h-17l3 17v17
v18l4 67l3 17l7 120l4 69v18v14v18v17l3 18v17v18v17l4 14v17v19l3 17l85 2h34h18h123l17 3l18 -5v-17zM762 447h36h21l-4 19v17v18v17v35v17l-3 36l-4 14l-17 7l-18 -4h-22l-3 -17l3 -18l-3 -53l-4 -17v-17l-3 -18v-17v-19h21z" />
    <glyph glyph-name="KA1" unicode="K&#xc0;" horiz-adv-x="1036" 
d="M620 830l-1 18v19l3 19l-2 19l-1 19l3 16h17h18h16h17h18l16 2l19 -3l18 3l16 -3l18 3l17 -3h16l18 1l17 2l17 -2h19h17l2 -18v-19l-2 -19l3 -19v-19l2 -18l-19 2l-17 -2h-19l-17 2h-19l-16 1l-18 -3l-19 2h-16h-18l-19 -2h-16l-18 3l-19 -5l-16 2h-17zM957 108l9 -55
v-51l-42 -2h-45l-45 5l-45 -6l-44 7l-48 -1l-47 9l-48 8l-45 14l-47 14l-37 31l-39 30l-31 39l-24 40l-12 47l-13 44l-29 -29l-26 -32l-25 -34l-4 -46l5 -46l6 -46v-46l-53 -2l-54 6l-51 -4l-50 4l-3 47v50l8 48l3 50l-3 51l1 50l6 47l-1 53v48l11 48l-6 50l4 50l3 49l2 50
l3 49h47l49 3l47 -5v-45l9 -50l-2 -48l2 -50l4 -47v-49l6 -50l30 39l34 31l29 39l34 32l-1 50l5 50v51l4 49l50 4l47 -7l48 1l-5 -47l-3 -51v-53l-11 -48v-53l-33 -34l-26 -38l-8 -6l22 -45l19 -46l20 -44l25 -42l36 -33l42 -22l48 -14l48 -6l49 3l46 -8l47 2l48 2l48 1z
M913 729l11 -85v-35l3 -35v-32v-17l7 -70l4 -18v-31v-18v-17l3 -18v-17v-18l7 -32v-17l3 -36l-3 -13l-17 -3l-21 3h-18l-18 -3h-21h-17v17l-4 17l-3 70l-21 5h-39l-18 -5v-17l-3 -35l-4 -18v-17l-3 -17h-14h-17h-18h-17h-18h-18h-17h-18h-17l3 17v17v18l4 67l3 17l7 120
l4 69v18v14v18v17l3 18v17v18v17l4 14v17v19l3 17l85 2h34h18h123l17 3l18 -5v-17zM762 447h36h21l-4 19v17v18v17v35v17l-3 36l-4 14l-17 7l-18 -4h-22l-3 -17l3 -18l-3 -53l-4 -17v-17l-3 -18v-17v-19h21z" />
    <glyph glyph-name="KA2" unicode="K&#xc4;" horiz-adv-x="1036" 
d="M933 940l12 -6l4 -14v-19l-2 -19l-2 -20v-19l-5 -12l-12 -6l-18 2l-17 2l-17 2l-18 4l-18 1l-11 9l-3 13v19l3 20v19l6 12l11 10l18 -2l17 2h18l18 2h16zM596 940h18h16l18 -2h18h17l13 -8l5 -14l2 -19v-20l2 -19l-4 -13l-12 -9l-18 -1l-17 -2l-17 -2l-18 -2l-17 -2
l-14 4l-2 14l-4 19l2 20l-2 19l-2 19l4 12l12 6v0zM957 108l9 -55v-51l-42 -2h-45l-45 5l-45 -6l-44 7l-48 -1l-47 9l-48 8l-45 14l-47 14l-37 31l-39 30l-31 39l-24 40l-12 47l-13 44l-29 -29l-26 -32l-25 -34l-4 -46l5 -46l6 -46v-46l-53 -2l-54 6l-51 -4l-50 4l-3 47v50
l8 48l3 50l-3 51l1 50l6 47l-1 53v48l11 48l-6 50l4 50l3 49l2 50l3 49h47l49 3l47 -5v-45l9 -50l-2 -48l2 -50l4 -47v-49l6 -50l30 39l34 31l29 39l34 32l-1 50l5 50v51l4 49l50 4l47 -7l48 1l-5 -47l-3 -51v-53l-11 -48v-53l-33 -34l-26 -38l-8 -6l22 -45l19 -46l20 -44
l25 -42l36 -33l42 -22l48 -14l48 -6l49 3l46 -8l47 2l48 2l48 1zM913 729l11 -85v-35l3 -35v-32v-17l7 -70l4 -18v-31v-18v-17l3 -18v-17v-18l7 -32v-17l3 -36l-3 -13l-17 -3l-21 3h-18l-18 -3h-21h-17v17l-4 17l-3 70l-21 5h-39l-18 -5v-17l-3 -35l-4 -18v-17l-3 -17h-14
h-17h-18h-17h-18h-18h-17h-18h-17l3 17v17v18l4 67l3 17l7 120l4 69v18v14v18v17l3 18v17v18v17l4 14v17v19l3 17l85 2h34h18h123l17 3l18 -5v-17zM762 447h36h21l-4 19v17v18v17v35v17l-3 36l-4 14l-17 7l-18 -4h-22l-3 -17l3 -18l-3 -53l-4 -17v-17l-3 -18v-17v-19h21z
" />
    <glyph glyph-name="KA3" unicode="K&#xc2;" horiz-adv-x="1036" 
d="M605 823l12 19l15 16l14 17l13 17l13 19l12 17l15 18l23 -1h21l23 1l21 -1h23l21 -3l14 -14l15 -17l12 -19l13 -17l14 -17l15 -16l11 -17l-23 -4l-24 -2l-22 -2l-23 -3l-23 -1l-15 18l-14 21l-15 21l-15 -21l-14 -21l-17 -17h-21l-26 3l-22 2l-23 2l-23 2v0zM955 162
l-48 -1l-48 -2l-47 -2l-46 8l-49 -3l-48 6l-48 14l-42 22l-36 33l-25 42l-20 44l-19 46l-22 45l8 6l26 38l33 34v53l11 48v53l3 51l5 47l-48 -1l-47 7l-50 -4l-4 -49v-51l-5 -50l1 -50l-34 -32l-29 -39l-34 -31l-30 -39l-6 50v49l-4 47l-2 50l2 48l-9 50v45l-47 5l-49 -3
h-47l-3 -49l-2 -50l-3 -49l-4 -50l6 -50l-11 -48v-48l1 -53l-6 -47l-1 -50l3 -51l-3 -50l-8 -48v-50l3 -47l50 -4l51 4l54 -6l53 2v46l-6 46l-5 46l4 46l25 34l26 32l29 29l13 -44l12 -47l24 -40l31 -39l39 -30l37 -31l47 -14l45 -14l48 -8l47 -9l48 1l44 -7l45 6l45 -5h45
l42 2v51l-9 55zM913 746l-18 5l-17 -3h-123h-18h-34l-85 -2l-3 -17v-19v-17l-4 -14v-17v-18v-17l-3 -18v-17v-18v-14v-18l-4 -69l-7 -120l-3 -17l-4 -67v-18v-17l-3 -17h17h18h17h18h18h17h18h17h14l3 17v17l4 18l3 35v17l18 5h39l21 -5l3 -70l4 -17v-17h17h21l18 3h18
l21 -3l17 3l3 13l-3 36v17l-7 32v18v17l-3 18v17v18v31l-4 18l-7 70v17v32l-3 35v35l-11 85v17zM741 447v19v17l3 18v17l4 17l3 53l-3 18l3 17h22l18 4l17 -7l4 -14l3 -36v-17v-35v-17v-18v-17l4 -19h-21h-36h-21z" />
    <glyph glyph-name="KA4" unicode="K&#xc3;" horiz-adv-x="1036" 
d="M927 853l-39 -18l-42 -16l-46 4l-48 5l-49 7l-44 -7l-44 -14l-2 36v38l-3 37l44 12l42 13h46l47 -13l47 -3l47 5l42 22v-36l6 -37l-4 -35v0zM955 162l-48 -1l-48 -2l-47 -2l-46 8l-49 -3l-48 6l-48 14l-42 22l-36 33l-25 42l-20 44l-19 46l-22 45l8 6l26 38l33 34v53
l11 48v53l3 51l5 47l-48 -1l-47 7l-50 -4l-4 -49v-51l-5 -50l1 -50l-34 -32l-29 -39l-34 -31l-30 -39l-6 50v49l-4 47l-2 50l2 48l-9 50v45l-47 5l-49 -3h-47l-3 -49l-2 -50l-3 -49l-4 -50l6 -50l-11 -48v-48l1 -53l-6 -47l-1 -50l3 -51l-3 -50l-8 -48v-50l3 -47l50 -4l51 4
l54 -6l53 2v46l-6 46l-5 46l4 46l25 34l26 32l29 29l13 -44l12 -47l24 -40l31 -39l39 -30l37 -31l47 -14l45 -14l48 -8l47 -9l48 1l44 -7l45 6l45 -5h45l42 2v51l-9 55zM913 746l-18 5l-17 -3h-123h-18h-34l-85 -2l-3 -17v-19v-17l-4 -14v-17v-18v-17l-3 -18v-17v-18v-14
v-18l-4 -69l-7 -120l-3 -17l-4 -67v-18v-17l-3 -17h17h18h17h18h18h17h18h17h14l3 17v17l4 18l3 35v17l18 5h39l21 -5l3 -70l4 -17v-17h17h21l18 3h18l21 -3l17 3l3 13l-3 36v17l-7 32v18v17l-3 18v17v18v31l-4 18l-7 70v17v32l-3 35v35l-11 85v17zM741 447v19v17l3 18v17
l4 17l3 53l-3 18l3 17h22l18 4l17 -7l4 -14l3 -36v-17v-35v-17v-18v-17l4 -19h-21h-36h-21z" />
    <glyph glyph-name="KE" unicode="KE" horiz-adv-x="998" 
d="M942 218l-51 1h-50l-50 -3h-51l-50 2l-51 1l-48 3v46l5 47v48l6 48l2 48l5 48v47l8 49l3 47v48l5 46l47 6l46 -6l48 6l47 -4h46h47l3 -42v-44l6 -45h-53h-56h-51l-2 -40l4 -40l47 1l48 -4l48 3l2 -56l7 -57l-47 2l-49 -2l-49 2l4 -48l11 -46l51 2l54 -4h51l2 -53z
M953 164v-55l6 -53l4 -50l-41 -7l-46 3l-44 4l-44 -4h-44l-48 6l-48 4l-46 11l-48 11l-42 23l-37 28l-41 28l-27 38l-28 41l-13 46l-12 46l-26 -33l-24 -35l-28 -30v-44l3 -46l-3 -46l3 -42l-51 -2l-51 -4h-54l-53 3l6 49l-4 49l1 50l10 50l-6 50l7 49l-3 49l11 49l-5 50
l7 49l1 50v48l-1 50l1 50l3 51l51 -4l50 4l47 -2l-1 -49l7 -49l5 -47l-1 -50l1 -48l4 -47v-52l29 41l39 29l28 36l35 33l-2 53v49v52l6 49l49 2l50 -6l51 6l-8 -54l1 -49l-11 -49l-1 -53l-4 -49l-26 -41l-35 -31l-4 -7l20 -46l13 -48l26 -41l22 -44l39 -29l40 -26l49 -9
l47 -13h50h46l48 4l46 1h49z" />
    <glyph glyph-name="KE1" unicode="K&#xc8;" horiz-adv-x="1004" 
d="M632 828l-2 18v20l2 18l-2 18v20l4 16l16 1h18h16h18h18l16 2l17 -3l18 1l17 -1l17 3l17 -3h18h17l16 1h19h17h18v-20l2 -17l-2 -18l2 -20v-18l2 -20l-18 2l-18 -2h-18l-17 4l-18 -2l-19 2l-15 -4l-18 2h-19h-18l-17 -2h-18l-18 4l-16 -4h-18h-18zM949 221h-52h-50
l-52 -2h-49h-52l-50 2l-50 2v45l6 50v49l6 47l3 48l5 48v50l8 48l2 47v48l6 49l46 3l48 -6l47 6l47 -3h47h48l2 -45v-44l6 -43h-54h-54h-53l-2 -40l3 -42l49 2l50 -4l45 2l4 -56l6 -55h-48h-49l-48 2l3 -51l10 -45l52 2l54 -2h52l4 -56zM959 166l2 -55l4 -54l4 -52l-42 -5
l-44 4l-46 4l-44 -4h-45l-48 6l-48 4l-46 10l-47 10l-42 23l-38 30l-41 29l-27 37l-28 40l-14 48l-11 46l-29 -34l-23 -34l-29 -30l2 -46l5 -46l-7 -45l4 -44l-52 -3l-52 -3l-52 2h-55l8 51l-3 51v50l9 49l-6 50l8 50l-4 50l10 49l-4 50l8 48v50l2 49l-2 50v50l4 52l52 -4
l48 4l49 -1l-2 -51l7 -48l5 -47l-2 -50l2 -48l7 -49l-2 -52l29 42l38 27l30 38l34 34l-2 52v50l2 51l4 51l49 1l51 -6l51 6l-10 -52l2 -51l-10 -50l-2 -52l-3 -50l-27 -39l-35 -32l-2 -8l20 -47l12 -47l25 -42l22 -44l40 -30l42 -26l48 -10l48 -12h50h45l48 5h46h50z" />
    <glyph glyph-name="KE2" unicode="K&#xcb;" horiz-adv-x="1002" 
d="M935 894l14 -7l1 -13v-21v-17l-1 -21v-17l-7 -14l-12 -5l-18 1l-17 4h-18l-15 6l-17 1l-14 7l-3 13v21l3 17v21l7 12l11 9l17 -2l18 2h18h17zM601 894l18 -3l17 3l18 -3h15h17l14 -9l4 -12v-18l3 -20v-18l-3 -16l-12 -7l-17 -1l-17 -3l-18 -3l-17 -1l-17 -3l-12 4l-5 14
l-2 20v18l-2 20v20l4 13l12 5v0zM946 219h-51h-50l-52 -2h-51h-49l-50 2l-49 3v46l4 46v49l7 49l1 47l6 49v49l8 46l3 48v48l4 46l47 4l46 -4l49 4l46 -1h47h46l3 -45l1 -42l6 -45h-54h-56h-50l-3 -39l4 -43l48 2l49 -2h46l2 -55l8 -55h-48h-49l-49 1l6 -48l10 -47l51 3
l54 -3h50l3 -55zM954 164l3 -56l4 -52l6 -49l-42 -7l-45 4l-45 3l-44 -4h-46l-47 6l-48 5l-45 10l-49 10l-42 24l-38 29l-40 25l-26 41l-28 39l-13 48l-12 44l-27 -33l-24 -34l-27 -31v-44l4 -44l-6 -47l4 -42l-51 -2l-50 -4h-54l-56 1l7 52l-2 48v52l11 49l-7 48l9 49
l-4 50l9 49l-5 49l9 48v52l3 49l-3 48v52l3 50l53 -4l48 4l49 -1l-3 -49l7 -49l4 -49v-48v-49l6 -48v-52l31 42l38 28l28 38l33 34l-2 50l2 49v51l5 52h50l49 -6l51 7l-10 -53l1 -51l-8 -50l-3 -49l-4 -52l-27 -39l-35 -31l-3 -10l20 -44l14 -49l27 -39l19 -45l41 -28
l42 -28l46 -8l48 -13h49h48l46 4h46h48z" />
    <glyph glyph-name="KE3" unicode="K&#xca;" horiz-adv-x="1005" 
d="M607 789l16 19l14 15l12 21l15 15l12 17l12 19l16 16l20 3h23h21h23h23h20l12 -19l16 -17l12 -19l13 -18l14 -18l14 -15l16 -19h-26l-21 -3l-24 -4l-23 -2h-23l-19 18l-13 21l-14 21l-13 -19l-19 -18l-12 -23h-23l-23 5l-22 1l-23 3h-26v0zM947 220l-4 55l-3 55h-53
l-53 2l-52 -2l-9 45l-5 51l49 -2h48h50l-10 57l-2 55l-46 -2l-47 4l-51 -2l-3 42l3 39h52l54 3l55 -3l-5 46l-3 43l-1 42l-46 2h-48l-49 3l-46 -7l-49 7l-45 -5l-5 -45v-50l-5 -48l-7 -48v-48l-4 -48l-2 -48l-6 -48l2 -49l-7 -48v-46l48 -2l50 -3h51h52l51 3h50h51v0z
M956 165l-48 -5h-46h-48l-46 2l-50 3h-49l-48 16l-39 27l-41 28l-25 43l-21 44l-18 46l-19 46l12 5l22 41l31 34l9 51v50l4 51l8 51l1 50l-48 5l-48 -7l-51 2v-50l-4 -50l2 -52l-2 -50l-37 -30l-30 -37l-32 -34l-32 -39l-2 50v48l-4 51l-8 47l-2 49l4 49l-2 50l-50 3l-48 -7
l-53 7l2 -53l-2 -52l2 -47l-4 -51l-7 -48l4 -50l-7 -51l-4 -48l-2 -50l-3 -51v-48v-51v-50l-7 -49l3 -48l50 -4l53 2l53 5l55 -7l-7 47l1 46v46l-6 47l30 32l25 32l28 29l16 -43l16 -43l16 -47l39 -32l30 -33l41 -31l43 -19l47 -12l48 -12l49 -3l45 -2l46 -5l46 5l44 -5
l46 3l43 2l-10 50l-2 56l-2 55v0z" />
    <glyph glyph-name="KU" unicode="KU" horiz-adv-x="1017" 
d="M958 163v-52l3 -54l6 -52h-44h-44l-45 -4l-46 2l-44 2h-48l-46 9l-49 8l-44 18l-46 13l-36 33l-37 31l-29 38l-29 39l-15 44l-12 48l-27 -33l-27 -31l-25 -34l2 -45l-2 -45l6 -47l4 -48h-56l-52 4l-52 -4l-54 2l2 50l6 50v50l4 50v48l1 50l7 50l-7 48l10 51l-5 50l7 47
l2 50l2 51l-2 48l4 52l48 -2h50l46 -2l6 -46l-2 -49l8 -50l4 -47l2 -49l-4 -48l4 -52l34 37l31 35l33 32l32 37l-3 52l3 50l6 50l2 48l47 -2h47l47 2l2 -48l-4 -52l-4 -50l-6 -50l-11 -49l-27 -36l-23 -41l-12 -5l20 -47l20 -42l22 -44l23 -42l37 -35l42 -21l46 -14l50 -3
h48l48 -4l48 -2l48 6zM872 752l18 -3l19 6l18 -6l1 -22v-52v-18l9 -122v-17v-18l3 -17l1 -17v-35v-18l6 -106l4 -17l-42 -35l-27 -26l-13 -10l-16 1l-136 1l-17 -2h-17l-13 13l-17 8l-15 12l-13 12l-14 14l-12 13l-2 18l4 52l2 17l10 105v17l1 18l-3 17l4 18l3 17l-1 18
l5 122l1 17l3 24l18 1h17l17 3l17 -2h17l17 -2l2 -22l1 -18l2 -17l-2 -18l-1 -16l4 -17v-18l-1 -17l5 -16v-18l-1 -16l4 -119v-18l2 -16l10 -17l14 -3l18 -3l17 3h16h16l-1 19l1 17v18v17l4 16l2 35v34v17v18v16l5 86l3 16l1 17l2 18l1 22z" />
    <glyph glyph-name="KU1" unicode="K&#xd9;" horiz-adv-x="1017" 
d="M624 846v18l2 19l-2 19v17l4 18l16 2h17h17h18h17l17 2l18 -4l17 2l17 -2l18 4l15 -4h17h18l17 2h17h18h17l2 -20v-19v-17l2 -19v-19l2 -20l-19 2h-17l-18 -2l-17 4l-18 -2l-19 2l-17 -4l-18 4l-17 -2h-17l-18 -2h-17l-17 4l-18 -4l-19 2l-17 -2l-16 4zM958 111l3 -54
l6 -52h-44h-44l-45 -4l-46 2l-44 2h-48l-46 9l-49 8l-44 18l-46 13l-36 33l-37 31l-29 38l-29 39l-15 44l-12 48l-27 -33l-27 -31l-25 -34l2 -45l-2 -45l6 -47l4 -48h-56l-52 4l-52 -4l-54 2l2 50l6 50v50l4 50v48l1 50l7 50l-7 48l10 51l-5 50l7 47l2 50l2 51l-2 48l4 52
l48 -2h50l46 -2l6 -46l-2 -49l8 -50l4 -47l2 -49l-4 -48l4 -52l34 37l31 35l33 32l32 37l-3 52l3 50l6 50l2 48l47 -2h47l47 2l2 -48l-4 -52l-4 -50l-6 -50l-11 -49l-27 -36l-23 -41l-12 -5l20 -47l20 -42l22 -44l23 -42l37 -35l42 -21l46 -14l50 -3h48l48 -4l48 -2l48 6
l49 -4v-52zM872 752l18 -3l19 6l18 -6l1 -22v-52v-18l9 -122v-17v-18l3 -17l1 -17v-35v-18l6 -106l4 -17l-42 -35l-27 -26l-13 -10l-16 1l-136 1l-17 -2h-17l-13 13l-17 8l-15 12l-13 12l-14 14l-12 13l-2 18l4 52l2 17l10 105v17l1 18l-3 17l4 18l3 17l-1 18l5 122l1 17
l3 24l18 1h17l17 3l17 -2h17l17 -2l2 -22l1 -18l2 -17l-2 -18l-1 -16l4 -17v-18l-1 -17l5 -16v-18l-1 -16l4 -119v-18l2 -16l10 -17l14 -3l18 -3l17 3h16h16l-1 19l1 17v18v17l4 16l2 35v34v17v18v16l5 86l3 16l1 17l2 18l1 22z" />
    <glyph glyph-name="KU2" unicode="K&#xdc;" horiz-adv-x="1020" 
d="M955 942l12 -7l3 -14v-19l-2 -19l-1 -19v-19l-6 -12l-12 -8l-18 3l-17 3l-17 3l-17 3l-18 2l-12 7l-3 15l2 17l1 20v19l6 13l12 9l18 -1l16 1l17 2h18zM618 942l18 -1h18l17 -2h17l17 -1l14 -6l4 -15v-19l2 -18l1 -19l-3 -15l-13 -7l-16 -2l-18 -1l-18 -3l-16 -3l-18 -2
l-13 5l-3 13l-3 19v19l-2 20v19l3 13l12 6v0zM958 111l3 -54l6 -52h-44h-44l-45 -4l-46 2l-44 2h-48l-46 9l-49 8l-44 18l-46 13l-36 33l-37 31l-29 38l-29 39l-15 44l-12 48l-27 -33l-27 -31l-25 -34l2 -45l-2 -45l6 -47l4 -48h-56l-52 4l-52 -4l-54 2l2 50l6 50v50l4 50
v48l1 50l7 50l-7 48l10 51l-5 50l7 47l2 50l2 51l-2 48l4 52l48 -2h50l46 -2l6 -46l-2 -49l8 -50l4 -47l2 -49l-4 -48l4 -52l34 37l31 35l33 32l32 37l-3 52l3 50l6 50l2 48l47 -2h47l47 2l2 -48l-4 -52l-4 -50l-6 -50l-11 -49l-27 -36l-23 -41l-12 -5l20 -47l20 -42l22 -44
l23 -42l37 -35l42 -21l46 -14l50 -3h48l48 -4l48 -2l48 6l49 -4v-52zM872 752l18 -3l19 6l18 -6l1 -22v-52v-18l9 -122v-17v-18l3 -17l1 -17v-35v-18l6 -106l4 -17l-42 -35l-27 -26l-13 -10l-16 1l-136 1l-17 -2h-17l-13 13l-17 8l-15 12l-13 12l-14 14l-12 13l-2 18l4 52
l2 17l10 105v17l1 18l-3 17l4 18l3 17l-1 18l5 122l1 17l3 24l18 1h17l17 3l17 -2h17l17 -2l2 -22l1 -18l2 -17l-2 -18l-1 -16l4 -17v-18l-1 -17l5 -16v-18l-1 -16l4 -119v-18l2 -16l10 -17l14 -3l18 -3l17 3h16h16l-1 19l1 17v18v17l4 16l2 35v34v17v18v16l5 86l3 16l1 17
l2 18l1 22z" />
    <glyph glyph-name="KU3" unicode="K&#xdb;" horiz-adv-x="1017" 
d="M610 819l15 18l12 18l14 15l11 19l18 15l11 17l13 19l22 -1l22 4l22 -1l22 -2l23 2l22 -2l11 -17l16 -17l11 -18l16 -17l11 -18l14 -19l14 -15l-24 -6l-22 -1l-23 1l-24 -4l-20 2l-18 16l-15 21l-14 22l-15 -22l-16 -18l-13 -21l-22 2l-24 2h-23h-24l-23 6v0zM958 163
l-49 4l-48 -6l-48 2l-48 4h-48l-50 3l-46 14l-42 21l-37 35l-23 42l-22 44l-20 42l-20 47l12 5l23 41l27 36l11 49l6 50l4 50l4 52l-2 48l-47 -2h-47l-47 2l-2 -48l-6 -50l-3 -50l3 -52l-32 -37l-33 -32l-31 -35l-34 -37l-4 52l4 48l-2 49l-4 47l-8 50l2 49l-6 46l-46 2h-50
l-48 2l-4 -52l2 -48l-2 -51l-2 -50l-7 -47l5 -50l-10 -51l7 -48l-7 -50l-1 -50v-48l-4 -50v-50l-6 -50l-2 -50l54 -2l52 4l52 -4h56l-4 48l-6 47l2 45l-2 45l25 34l27 31l27 33l12 -48l15 -44l29 -39l29 -38l37 -31l36 -33l46 -13l44 -18l49 -8l46 -9h48l44 -2l46 -2l45 4
h44h44l-6 52l-3 54v52zM853 751l-1 -22l-2 -18l-1 -17l-3 -16l-5 -86v-16v-18v-17v-34l-2 -35l-4 -16v-17v-18l-1 -17l1 -19h-16h-16l-17 -3l-18 3l-14 3l-10 17l-2 16v18l-4 119l1 16v18l-5 16l1 17v18l-4 17l1 16l2 18l-2 17l-1 18l-2 22l-17 2h-17l-17 2l-17 -3h-17
l-18 -1l-3 -24l-1 -17l-5 -122l1 -18l-3 -17l-4 -18l3 -17l-1 -18v-17l-10 -105l-2 -17l-4 -52l2 -18l12 -13l14 -14l13 -12l15 -12l17 -8l13 -13h17l17 2l136 -1l16 -1l13 10l27 26l42 35l-4 17l-6 106v18v35l-1 17l-3 17v18v17l-9 122v18v52l-1 22l-18 6l-19 -6l-18 3z
" />
    <glyph glyph-name="LI" unicode="LI" horiz-adv-x="711" 
d="M619 220l-17 1l-16 -3l-53 -1l-18 3l-17 -2l-91 -1l6 20l-1 18l4 17l4 87v19l1 16l7 123l-2 19l5 88l1 17v18l2 17l3 18l-1 18l3 17l-2 19l19 -5l37 4h18h17l19 1l18 -1l18 -2v-16l1 -17l2 -16l3 -18l3 -16v-18l2 -17l1 -16l-1 -18l1 -16l10 -119l1 -18v-16l5 -120l8 -84
v0zM105 746l3 -17l-3 -19v-35v-17v-17l-4 -18l-6 -70l-1 -102v-18l-10 -137v-119l-4 -17l4 -35l-4 -17l-3 -18v-17v-18l-7 -18v-17l3 -14l18 -4l196 -3l134 7l17 -4h18l17 -3h105h10l53 3l-4 18v17l-3 18v22l-4 17v17l4 18v17l-7 14h-7l-83 4l-53 3l-18 -3h-14l-52 3h-53
l-31 -3h-18h-17l-4 17l-7 81l-11 105v35l-4 53l-3 32v17v17l-9 81l-5 91v17l-3 19v17h-18h-17l-18 -3h-56z" />
    <glyph glyph-name="LI1" unicode="L&#xcc;" horiz-adv-x="734" 
d="M365 827l-2 18v17l4 19l-2 18l-2 20l4 17h15h17h18h18h18l15 3l18 -5l18 5l17 -3l17 3l16 -5h18l18 2h17h16h18h17l2 -19v-18v-19l2 -18v-20l2 -19l-20 2h-17h-18l-17 2h-18h-18l-18 -4l-17 4h-17h-18l-18 -2h-17l-18 2l-18 -4l-17 2h-17zM619 220l-17 1l-16 -3l-53 -1
l-18 3l-17 -2l-91 -1l6 20l-1 18l4 17l4 87v19l1 16l7 123l-2 19l5 88l1 17v18l2 17l3 18l-1 18l3 17l-2 19l19 -5l37 4h18h17l19 1l18 -1l18 -2v-16l1 -17l2 -16l3 -18l3 -16v-18l2 -17l1 -16l-1 -18l1 -16l10 -119l1 -18v-16l5 -120zM126 743h56l18 3h17h18v-17l3 -19v-17
l5 -91l9 -81v-17v-17l3 -32l4 -53v-35l11 -105l7 -81l4 -17h17h18l31 3h53l52 -3h14l18 3l53 -3l83 -4h7l7 -14v-17l-4 -18v-17l4 -17v-22l3 -18v-17l4 -18l-53 -3h-10h-105l-17 3h-18l-17 4l-134 -7l-196 3l-18 4l-3 14v17l7 18v18v17l3 18l4 17l-4 35l4 17v119l10 137v18
l1 102l6 70l4 18v17v17v35l3 19l-3 17z" />
    <glyph glyph-name="LI2" unicode="L&#xcf;" horiz-adv-x="763" 
d="M678 942l13 -6l2 -15v-18l-2 -19v-21l-2 -19l-4 -12l-13 -6l-16 2l-19 4l-17 2l-17 2l-18 2l-13 8l-2 13v21l2 18v19l6 13l13 8h17l18 2h17h17zM341 942l17 -2h16l19 -2h17h19l12 -6l4 -15v-19l2 -18v-19l-2 -15l-12 -8l-17 -2l-19 -2l-16 -2l-17 -2l-19 -2l-12 4l-4 14
l-2 19v19l-3 19v20l5 13l12 6v0zM619 220l-17 1l-16 -3l-53 -1l-18 3l-17 -2l-91 -1l6 20l-1 18l4 17l4 87v19l1 16l7 123l-2 19l5 88l1 17v18l2 17l3 18l-1 18l3 17l-2 19l19 -5l37 4h18h17l19 1l18 -1l18 -2v-16l1 -17l2 -16l3 -18l3 -16v-18l2 -17l1 -16l-1 -18l1 -16
l10 -119l1 -18v-16l5 -120zM126 743h56l18 3h17h18v-17l3 -19v-17l5 -91l9 -81v-17v-17l3 -32l4 -53v-35l11 -105l7 -81l4 -17h17h18l31 3h53l52 -3h14l18 3l53 -3l83 -4h7l7 -14v-17l-4 -18v-17l4 -17v-22l3 -18v-17l4 -18l-53 -3h-10h-105l-17 3h-18l-17 4l-134 -7l-196 3
l-18 4l-3 14v17l7 18v18v17l3 18l4 17l-4 35l4 17v119l10 137v18l1 102l6 70l4 18v17v17v35l3 19l-3 17z" />
    <glyph glyph-name="LI3" unicode="L&#xce;" horiz-adv-x="746" 
d="M354 824l11 16l15 17l13 16l14 17l11 20l15 18l13 15l23 -2l22 2l22 3h22h22l22 -3l13 -17l16 -14l13 -19l11 -18l15 -18l16 -15l13 -20h-26l-22 -7l-25 2l-22 -4h-22l-15 20l-18 18l-13 22l-18 -18l-11 -22l-15 -22l-25 4h-22l-24 5l-22 2l-22 2v0zM619 220l-17 1
l-16 -3l-53 -1l-18 3l-17 -2l-91 -1l6 20l-1 18l4 17l4 87v19l1 16l7 123l-2 19l5 88l1 17v18l2 17l3 18l-1 18l3 17l-2 19l19 -5l37 4h18h17l19 1l18 -1l18 -2v-16l1 -17l2 -16l3 -18l3 -16v-18l2 -17l1 -16l-1 -18l1 -16l10 -119l1 -18v-16l5 -120zM105 746l3 -17l-3 -19
v-35v-17v-17l-4 -18l-6 -70l-1 -102v-18l-10 -137v-119l-4 -17l4 -35l-4 -17l-3 -18v-17v-18l-7 -18v-17l3 -14l18 -4l196 -3l134 7l17 -4h18l17 -3h105h10l53 3l-4 18v17l-3 18v22l-4 17v17l4 18v17l-7 14h-7l-83 4l-53 3l-18 -3h-14l-52 3h-53l-31 -3h-18h-17l-4 17l-7 81
l-11 105v35l-4 53l-3 32v17v17l-9 81l-5 91v17l-3 19v17h-18h-17l-18 -3h-56z" />
    <glyph glyph-name="LI4" unicode="L&#x128;" horiz-adv-x="740" 
d="M670 847l-42 -16l-44 -16l-48 2l-48 6l-45 8l-46 -6l-45 -16l-3 36v38l-2 38l44 10l41 18l48 -6l49 -6l45 -6l48 6l42 20l2 -36l2 -36l2 -38v0zM619 220l-17 1l-16 -3l-53 -1l-18 3l-17 -2l-91 -1l6 20l-1 18l4 17l4 87v19l1 16l7 123l-2 19l5 88l1 17v18l2 17l3 18
l-1 18l3 17l-2 19l19 -5l37 4h18h17l19 1l18 -1l18 -2v-16l1 -17l2 -16l3 -18l3 -16v-18l2 -17l1 -16l-1 -18l1 -16l10 -119l1 -18v-16l5 -120zM105 746l3 -17l-3 -19v-35v-17v-17l-4 -18l-6 -70l-1 -102v-18l-10 -137v-119l-4 -17l4 -35l-4 -17l-3 -18v-17v-18l-7 -18v-17
l3 -14l18 -4l196 -3l134 7l17 -4h18l17 -3h105h10l53 3l-4 18v17l-3 18v22l-4 17v17l4 18v17l-7 14h-7l-83 4l-53 3l-18 -3h-14l-52 3h-53l-31 -3h-18h-17l-4 17l-7 81l-11 105v35l-4 53l-3 32v17v17l-9 81l-5 91v17l-3 19v17h-18h-17l-18 -3h-56z" />
    <glyph glyph-name="RI" unicode="RI" horiz-adv-x="964" 
d="M746 158l44 4l44 -2l46 4l-2 -56l14 -53l2 -56h-58l-56 6h-57l-47 -2l-48 4l-48 12l-45 18l-46 16l-40 28l-38 31l-26 42l-22 42l-23 43l-10 49h-61v-49l7 -45l-3 -48l3 -48l2 -47l2 -46l-51 -4l-52 4l-53 2l-54 -4l6 50v51l2 50l2 48l4 49l-6 51l6 50l4 48l-2 50l2 51
l6 48v50l4 49l-4 51l6 48l46 -4l47 6l48 -2l6 4l47 -6l48 2l49 2l50 2l30 -28l30 -26l6 -51l-4 -51l4 -52l6 -50l8 -53l2 -52l4 -52l-42 -34l24 -43l26 -38l29 -35l46 -10l44 -14l45 4zM259 418l19 -12l38 2l41 -6l18 16l-6 48l-6 47l-2 46l-2 48l-13 15l-40 -6h-37l-20 -7
l10 -44l-4 -44l8 -42zM876 220l-17 1l-16 -3l-53 -1l-18 3l-17 -2l-91 -1l6 20l-1 18l4 17l4 87v19l1 16l7 123l-2 19l5 88l1 17v18l2 17l3 18l-1 18l3 17l-2 19l19 -5l37 4h18h17l19 1l18 -1l18 -2v-16l1 -17l2 -16l3 -18l3 -16v-18l2 -17l1 -16l-1 -18l1 -16l10 -119
l1 -18v-16l5 -120z" />
    <glyph glyph-name="RI1" unicode="R&#xcc;" horiz-adv-x="979" 
d="M610 831l-2 17l-2 20l4 17l-2 19v20l4 17h16h17h17h18h17l17 2l18 -4l17 4l18 -2l17 2l17 -4h18l15 2l17 2l18 -2h17h19v-19l2 -18l-2 -19l2 -19v-18l2 -22l-19 2h-17h-18l-17 3h-17h-18l-19 -5l-17 5h-18h-17l-18 -3h-17l-17 3l-20 -5l-17 2h-17zM790 162l44 -2l46 4
l-2 -56l14 -53l2 -56h-58l-56 6h-57l-47 -2l-48 4l-48 12l-45 18l-46 16l-40 28l-38 31l-26 42l-22 42l-23 43l-10 49h-61v-49l7 -45l-3 -48l3 -48l2 -47l2 -46l-51 -4l-52 4l-53 2l-54 -4l6 50v51l2 50l2 48l4 49l-6 51l6 50l4 48l-2 50l2 51l6 48v50l4 49l-4 51l6 48
l46 -4l47 6l48 -2l6 4l47 -6l48 2l49 2l50 2l30 -28l30 -26l6 -51l-4 -51l4 -52l6 -50l8 -53l2 -52l4 -52l-42 -34l24 -43l26 -38l29 -35l46 -10l44 -14l45 4l47 -8zM278 406l38 2l41 -6l18 16l-6 48l-6 47l-2 46l-2 48l-13 15l-40 -6h-37l-20 -7l10 -44l-4 -44l8 -42
l-4 -61zM876 220l-17 1l-16 -3l-53 -1l-18 3l-17 -2l-91 -1l6 20l-1 18l4 17l4 87v19l1 16l7 123l-2 19l5 88l1 17v18l2 17l3 18l-1 18l3 17l-2 19l19 -5l37 4h18h17l19 1l18 -1l18 -2v-16l1 -17l2 -16l3 -18l3 -16v-18l2 -17l1 -16l-1 -18l1 -16l10 -119l1 -18v-16l5 -120z
" />
    <glyph glyph-name="RI2" unicode="R&#xcf;" horiz-adv-x="1022" 
d="M937 940l11 -7l4 -14v-19l-2 -19l-2 -19v-20l-6 -12l-11 -7l-19 4l-17 1l-17 2l-17 4l-19 2l-11 8l-2 13v19l2 21v18l5 14l12 7h17l19 2h17h19zM596 940l17 -2l19 2l17 -2l17 -2h19l13 -7l4 -14v-18l2 -19v-19l-2 -15l-13 -8l-17 -2l-17 -2l-19 -4l-17 -1l-17 -2l-13 5
l-4 14l-2 18v19l-2 21v19l2 13l13 6v0zM790 162l44 -2l46 4l-2 -56l14 -53l2 -56h-58l-56 6h-57l-47 -2l-48 4l-48 12l-45 18l-46 16l-40 28l-38 31l-26 42l-22 42l-23 43l-10 49h-61v-49l7 -45l-3 -48l3 -48l2 -47l2 -46l-51 -4l-52 4l-53 2l-54 -4l6 50v51l2 50l2 48l4 49
l-6 51l6 50l4 48l-2 50l2 51l6 48v50l4 49l-4 51l6 48l46 -4l47 6l48 -2l6 4l47 -6l48 2l49 2l50 2l30 -28l30 -26l6 -51l-4 -51l4 -52l6 -50l8 -53l2 -52l4 -52l-42 -34l24 -43l26 -38l29 -35l46 -10l44 -14l45 4l47 -8zM278 406l38 2l41 -6l18 16l-6 48l-6 47l-2 46l-2 48
l-13 15l-40 -6h-37l-20 -7l10 -44l-4 -44l8 -42l-4 -61zM876 220l-17 1l-16 -3l-53 -1l-18 3l-17 -2l-91 -1l6 20l-1 18l4 17l4 87v19l1 16l7 123l-2 19l5 88l1 17v18l2 17l3 18l-1 18l3 17l-2 19l19 -5l37 4h18h17l19 1l18 -1l18 -2v-16l1 -17l2 -16l3 -18l3 -16v-18l2 -17
l1 -16l-1 -18l1 -16l10 -119l1 -18v-16l5 -120z" />
    <glyph glyph-name="RI3" unicode="R&#xce;" horiz-adv-x="1000" 
d="M605 820l13 20l12 17l18 15l12 19l11 18l14 16l15 20l23 2l21 -2l24 -2h21l23 2l22 -4l14 -14l12 -18l17 -18l10 -17l15 -18l12 -18l16 -18l-25 -5h-23h-23l-24 -6h-25l-14 22l-16 19l-12 20l-18 -18l-13 -21l-14 -24l-25 2l-21 6h-25l-24 1l-23 4v0zM746 158l-47 8
l-45 -4l-44 14l-46 10l-29 35l-26 38l-24 43l42 34l-4 52l-2 52l-8 53l-6 50l-4 52l4 51l-6 51l-30 26l-30 28l-50 -2l-49 -2l-48 -2l-47 6l-6 -4l-48 2l-47 -6l-46 4l-6 -48l4 -51l-4 -49v-50l-6 -48l-2 -51l2 -50l-4 -48l-6 -50l6 -51l-4 -49l-2 -48l-2 -50v-51l-6 -50
l54 4l53 -2l52 -4l51 4l-2 46l-2 47l-3 48l3 48l-7 45v49h61l10 -49l23 -43l22 -42l26 -42l38 -31l40 -28l46 -16l45 -18l48 -12l48 -4l47 2h57l56 -6h58l-2 56l-14 53l2 56l-46 -4l-44 2zM259 418l4 61l-8 42l4 44l-10 44l20 7h37l40 6l13 -15l2 -48l2 -46l6 -47l6 -48
l-18 -16l-41 6l-38 -2zM876 220l-17 1l-16 -3l-53 -1l-18 3l-17 -2l-91 -1l6 20l-1 18l4 17l4 87v19l1 16l7 123l-2 19l5 88l1 17v18l2 17l3 18l-1 18l3 17l-2 19l19 -5l37 4h18h17l19 1l18 -1l18 -2v-16l1 -17l2 -16l3 -18l3 -16v-18l2 -17l1 -16l-1 -18l1 -16l10 -119
l1 -18v-16l5 -120z" />
    <glyph glyph-name="RI4" unicode="R&#x128;" horiz-adv-x="993" 
d="M923 853l-42 -15l-42 -17l-48 3l-47 10l-49 2l-45 -5l-41 -17l-4 37l-1 37v37l41 15l42 13l49 -3l46 -10l47 -5l47 10l45 18l2 -37l-4 -37l4 -36v0zM746 158l-47 8l-45 -4l-44 14l-46 10l-29 35l-26 38l-24 43l42 34l-4 52l-2 52l-8 53l-6 50l-4 52l4 51l-6 51l-30 26
l-30 28l-50 -2l-49 -2l-48 -2l-47 6l-6 -4l-48 2l-47 -6l-46 4l-6 -48l4 -51l-4 -49v-50l-6 -48l-2 -51l2 -50l-4 -48l-6 -50l6 -51l-4 -49l-2 -48l-2 -50v-51l-6 -50l54 4l53 -2l52 -4l51 4l-2 46l-2 47l-3 48l3 48l-7 45v49h61l10 -49l23 -43l22 -42l26 -42l38 -31l40 -28
l46 -16l45 -18l48 -12l48 -4l47 2h57l56 -6h58l-2 56l-14 53l2 56l-46 -4l-44 2zM259 418l4 61l-8 42l4 44l-10 44l20 7h37l40 6l13 -15l2 -48l2 -46l6 -47l6 -48l-18 -16l-41 6l-38 -2zM876 220l-17 1l-16 -3l-53 -1l-18 3l-17 -2l-91 -1l6 20l-1 18l4 17l4 87v19l1 16
l7 123l-2 19l5 88l1 17v18l2 17l3 18l-1 18l3 17l-2 19l19 -5l37 4h18h17l19 1l18 -1l18 -2v-16l1 -17l2 -16l3 -18l3 -16v-18l2 -17l1 -16l-1 -18l1 -16l10 -119l1 -18v-16l5 -120z" />
    <glyph glyph-name="KI" unicode="KI" horiz-adv-x="958" 
d="M869 161l8 -53l1 -52l10 -56l-49 5l-46 -2l-46 -3h-47l-50 7l-45 9l-46 18l-43 23l-43 22l-32 37l-28 36l-28 41l-17 45l-11 42l-31 -26l-20 -38l-28 -31l2 -44l-5 -46l2 -46l5 -44l-51 -3l-54 1l-53 4l-54 -4l2 51v49l8 49l3 51l-3 50l5 49l1 51l4 49l-4 49l9 49v51
l3 49l2 49l-2 50l5 49l47 -2l50 5l47 -3l3 -48l2 -49l2 -49v-48l9 -49l-1 -49l1 -51l33 38l31 34l35 33l31 36l3 51l-3 51l7 51l3 47l46 5l49 -3l52 3l-9 -52l-2 -51l-3 -51l-2 -51l-7 -52l-29 -37l-28 -37l-10 -5l17 -48l19 -44l25 -43l26 -41l35 -34l41 -26l49 -8l47 -5
l50 -9l50 9zM862 220l-17 1l-16 -3l-53 -1l-18 3l-17 -2l-91 -1l6 20l-1 18l4 17l4 87v19l1 16l7 123l-2 19l5 88l1 17v18l2 17l3 18l-1 18l3 17l-2 19l19 -5l37 4h18h17l19 1l18 -1l18 -2v-16l1 -17l2 -16l3 -18l3 -16v-18l2 -17l1 -16l-1 -18l1 -16l10 -119l1 -18v-16
l5 -120z" />
    <glyph glyph-name="KI1" unicode="K&#xcc;" horiz-adv-x="967" 
d="M596 826l-2 19v18l4 19l-2 19l-2 19l4 17h17h16h18h17l16 1h20l17 -2l17 2l17 -1l17 1l17 -2h18l16 1l18 1l18 -1h17h17l2 -19l1 -18l-1 -19l1 -19v-18l3 -19l-20 1l-16 -1h-19l-18 2l-17 -1l-19 1l-16 -2l-17 1h-19h-17l-17 -1h-20l-16 2l-17 -2h-19h-17zM877 107l1 -52
l10 -56l-49 5l-46 -2l-46 -3h-47l-50 7l-45 9l-46 18l-43 23l-43 22l-32 37l-28 36l-28 41l-17 45l-11 42l-31 -26l-20 -38l-28 -31l2 -44l-5 -46l2 -46l5 -44l-51 -3l-54 1l-53 4l-54 -4l2 51v49l8 49l3 51l-3 50l5 49l1 51l4 49l-4 49l9 49v51l3 49l2 49l-2 50l5 49l47 -2
l50 5l47 -3l3 -48l2 -49l2 -49v-48l9 -49l-1 -49l1 -51l33 38l31 34l35 33l31 36l3 51l-3 51l7 51l3 47l46 5l49 -3l52 3l-9 -52l-2 -51l-3 -51l-2 -51l-7 -52l-29 -37l-28 -37l-10 -5l17 -48l19 -44l25 -43l26 -41l35 -34l41 -26l49 -8l47 -5l50 -9l50 9l50 -5zM862 219
l-17 1l-16 -3l-53 -1l-18 3l-17 -2l-91 -1l6 20l-1 18l4 17l4 87v19l1 16l7 123l-2 19l5 88l1 17v18l2 17l3 18l-1 18l3 17l-2 19l19 -5l37 4h18h17l19 1l18 -1l18 -2v-16l1 -17l2 -16l3 -18l3 -16v-18l2 -17l1 -16l-1 -18l1 -16l10 -119l1 -18v-16l5 -120z" />
    <glyph glyph-name="KI2" unicode="K&#xcf;" horiz-adv-x="1009" 
d="M923 937l12 -8l4 -11l-2 -20v-19l-2 -20v-19l-6 -12l-11 -8l-18 4l-18 2l-17 2l-18 4l-17 2l-12 8l-2 13v20l2 17v20l6 13l12 8h17l18 2h17h18zM586 937l18 -2l17 2l18 -2l18 -2h17l12 -8l6 -13v-18l2 -19v-20l-4 -13l-12 -8l-18 -2l-17 -2l-16 -2l-17 -2l-18 -4l-13 6
l-4 14l-2 19v18l-2 19v20l4 13l11 6v0zM877 107l1 -52l10 -56l-49 5l-46 -2l-46 -3h-47l-50 7l-45 9l-46 18l-43 23l-43 22l-32 37l-28 36l-28 41l-17 45l-11 42l-31 -26l-20 -38l-28 -31l2 -44l-5 -46l2 -46l5 -44l-51 -3l-54 1l-53 4l-54 -4l2 51v49l8 49l3 51l-3 50l5 49
l1 51l4 49l-4 49l9 49v51l3 49l2 49l-2 50l5 49l47 -2l50 5l47 -3l3 -48l2 -49l2 -49v-48l9 -49l-1 -49l1 -51l33 38l31 34l35 33l31 36l3 51l-3 51l7 51l3 47l46 5l49 -3l52 3l-9 -52l-2 -51l-3 -51l-2 -51l-7 -52l-29 -37l-28 -37l-10 -5l17 -48l19 -44l25 -43l26 -41
l35 -34l41 -26l49 -8l47 -5l50 -9l50 9l50 -5zM862 219l-17 1l-16 -3l-53 -1l-18 3l-17 -2l-91 -1l6 20l-1 18l4 17l4 87v19l1 16l7 123l-2 19l5 88l1 17v18l2 17l3 18l-1 18l3 17l-2 19l19 -5l37 4h18h17l19 1l18 -1l18 -2v-16l1 -17l2 -16l3 -18l3 -16v-18l2 -17l1 -16
l-1 -18l1 -16l10 -119l1 -18v-16l5 -120z" />
    <glyph glyph-name="KI3" unicode="K&#xce;" horiz-adv-x="989" 
d="M602 820l11 17l12 18l15 16l11 18l14 19l15 16l14 15l22 5h21h24l21 -7l23 7l22 -3l13 -17l12 -20l18 -13l10 -20l15 -16l11 -18l13 -17l-21 -5l-23 -2l-23 -3l-24 2l-23 -2l-13 20l-15 20l-16 21l-15 -21l-14 -23l-16 -20l-23 6l-23 2l-24 -2l-23 2l-21 5v0zM869 160
l-50 5l-50 -9l-50 9l-47 5l-49 8l-41 26l-35 34l-26 41l-25 43l-19 44l-17 48l10 5l28 37l29 37l7 52l2 51l3 51l2 51l9 52l-52 -3l-49 3l-46 -5l-3 -47l-7 -51l3 -51l-3 -51l-31 -36l-35 -33l-31 -34l-33 -38l-1 51l1 49l-9 49v48l-2 49l-2 49l-3 48l-47 3l-50 -5l-47 2
l-5 -49l2 -50l-2 -49l-3 -49v-51l-9 -49l4 -49l-4 -49l-1 -51l-5 -49l3 -50l-3 -51l-8 -49v-49l-2 -51l54 4l53 -4l54 -1l51 3l-5 44l-2 46l5 46l-2 44l28 31l20 38l31 26l11 -42l17 -45l28 -41l28 -36l32 -37l43 -22l43 -23l46 -18l45 -9l50 -7h47l46 3l46 2l49 -5l-10 56
l-1 52zM862 219l-17 1l-16 -3l-53 -1l-18 3l-17 -2l-91 -1l6 20l-1 18l4 17l4 87v19l1 16l7 123l-2 19l5 88l1 17v18l2 17l3 18l-1 18l3 17l-2 19l19 -5l37 4h18h17l19 1l18 -1l18 -2v-16l1 -17l2 -16l3 -18l3 -16v-18l2 -17l1 -16l-1 -18l1 -16l10 -119l1 -18v-16l5 -120z
" />
    <glyph glyph-name="KI4" unicode="K&#x128;" horiz-adv-x="964" 
d="M893 855l-41 -15l-44 -15l-46 3l-47 7l-48 5l-46 -6l-43 -18v37l-2 36l-1 36l41 16l42 15l48 -4l47 -8l46 -7l47 7l42 21l2 -36l4 -36l-1 -38v0zM869 160l-50 5l-50 -9l-50 9l-47 5l-49 8l-41 26l-35 34l-26 41l-25 43l-19 44l-17 48l10 5l28 37l29 37l7 52l2 51l3 51
l2 51l9 52l-52 -3l-49 3l-46 -5l-3 -47l-7 -51l3 -51l-3 -51l-31 -36l-35 -33l-31 -34l-33 -38l-1 51l1 49l-9 49v48l-2 49l-2 49l-3 48l-47 3l-50 -5l-47 2l-5 -49l2 -50l-2 -49l-3 -49v-51l-9 -49l4 -49l-4 -49l-1 -51l-5 -49l3 -50l-3 -51l-8 -49v-49l-2 -51l54 4l53 -4
l54 -1l51 3l-5 44l-2 46l5 46l-2 44l28 31l20 38l31 26l11 -42l17 -45l28 -41l28 -36l32 -37l43 -22l43 -23l46 -18l45 -9l50 -7h47l46 3l46 2l49 -5l-10 56l-1 52zM862 219l-17 1l-16 -3l-53 -1l-18 3l-17 -2l-91 -1l6 20l-1 18l4 17l4 87v19l1 16l7 123l-2 19l5 88l1 17
v18l2 17l3 18l-1 18l3 17l-2 19l19 -5l37 4h18h17l19 1l18 -1l18 -2v-16l1 -17l2 -16l3 -18l3 -16v-18l2 -17l1 -16l-1 -18l1 -16l10 -119l1 -18v-16l5 -120z" />
    <glyph glyph-name="LY" unicode="LY" horiz-adv-x="701" 
d="M512 748l83 2l19 -2l14 -3v-17l-3 -18v-17l-3 -105v-19l-3 -17v-17l2 -19l-7 -139l2 -19l-1 -17l-3 -17v-19l-4 -70l1 -17l-18 2l-17 -3h-96l-17 -2l-53 5l-17 -3l-19 1l-1 19l-9 26v29l-2 22l20 -3l87 3l17 -4l17 2l1 16l-4 33h-17h-19l-88 -1l-19 2l-1 17l-4 18l1 17
l-19 140l-1 18l-1 17l-13 104l-4 17l-3 36h17h17l81 3l14 -6l3 -14l2 -17l7 -16l7 -68l4 -17l5 -33l4 -17l3 -16l4 -34l4 -16l19 -1h18l-1 17l-1 17l1 17v17l1 16l-2 17l-3 84v17l-2 33v19zM126 743h56l18 3h17h18v-17l3 -19v-17l5 -91l9 -81v-17v-17l3 -32l4 -53v-35
l11 -105l7 -81l4 -17h17h18l31 3h53l52 -3h14l18 3l53 -3l79 -4l7 -14v-17l-4 -18v-17l4 -17v-22l3 -18v-17l4 -18l1 -3h-18h-35h-105l-17 3h-18l-17 4l-134 -7l-196 3l-18 4l-3 14v17l7 18v18v17l3 18l4 17l-4 35l4 17v119l10 137v18l1 102l6 70l4 18v17v17v35l3 19l-3 17z
" />
    <glyph glyph-name="LY1" unicode="L&#xdd;" horiz-adv-x="701" 
d="M325 827l-1 19l-1 18l3 19l-1 18l-1 19l3 18h16l18 1l17 -1h17l17 1l18 2l17 -4l18 2l17 -2l18 4l17 -4h17l17 1l17 1l18 -1h17l18 1l1 -19v-19l-1 -19l3 -19v-18l2 -20l-19 1h-18l-18 -1l-17 2h-18l-18 2l-17 -4l-19 2h-17h-17l-18 -2h-18l-17 4l-18 -4l-18 1l-18 -1z
M595 750l19 -2l14 -3v-17l-3 -18v-17l-3 -105v-19l-3 -17v-17l2 -19l-7 -139l2 -19l-1 -17l-3 -17v-19l-4 -70l1 -17l-18 2l-17 -3h-96l-17 -2l-53 5l-17 -3l-19 1l-1 19l-9 26v29l-2 22l20 -3l87 3l17 -4l17 2l1 16l-4 33h-17h-19l-88 -1l-19 2l-1 17l-4 18l1 17l-19 140
l-1 18l-1 17l-13 104l-4 17l-3 36h17h17l81 3l14 -6l3 -14l2 -17l7 -16l7 -68l4 -17l5 -33l4 -17l3 -16l4 -34l4 -16l19 -1h18l-1 17l-1 17l1 17v17l1 16l-2 17l-3 84v17l-2 33v19zM126 743h56l18 3h17h18v-17l3 -19v-17l5 -91l9 -81v-17v-17l3 -32l4 -53v-35l11 -105l7 -81
l4 -17h17h18l31 3h53l52 -3h14l18 3l53 -3l79 -4l7 -14v-17l-4 -18v-17l4 -17v-22l3 -18v-17l4 -18l1 -3h-18h-35h-105l-17 3h-18l-17 4l-134 -7l-196 3l-18 4l-3 14v17l7 18v18v17l3 18l4 17l-4 35l4 17v119l10 137v18l1 102l6 70l4 18v17v17v35l3 19l-3 17z" />
    <glyph glyph-name="LY2" unicode="L&#x178;" horiz-adv-x="719" 
d="M634 942l11 -6l4 -13v-20l-1 -18l-3 -20v-20l-5 -12l-12 -6l-18 2l-18 3l-17 2l-17 4l-17 1l-12 8l-3 14v19l1 19v19l7 13l12 9l17 -1l18 1l18 1h17zM295 942l17 -1l19 1l17 -2h17h19l12 -7l5 -15v-19l1 -19l1 -19l-3 -14l-13 -8l-17 -1l-17 -2l-17 -3l-17 -2l-18 -3
l-13 5l-4 14l-2 19v19l-2 19l-1 20l4 13l12 5v0zM595 750l19 -2l14 -3v-17l-3 -18v-17l-3 -105v-19l-3 -17v-17l2 -19l-7 -139l2 -19l-1 -17l-3 -17v-19l-4 -70l1 -17l-18 2l-17 -3h-96l-17 -2l-53 5l-17 -3l-19 1l-1 19l-9 26v29l-2 22l20 -3l87 3l17 -4l17 2l1 16l-4 33
h-17h-19l-88 -1l-19 2l-1 17l-4 18l1 17l-19 140l-1 18l-1 17l-13 104l-4 17l-3 36h17h17l81 3l14 -6l3 -14l2 -17l7 -16l7 -68l4 -17l5 -33l4 -17l3 -16l4 -34l4 -16l19 -1h18l-1 17l-1 17l1 17v17l1 16l-2 17l-3 84v17l-2 33v19zM126 743h56l18 3h17h18v-17l3 -19v-17
l5 -91l9 -81v-17v-17l3 -32l4 -53v-35l11 -105l7 -81l4 -17h17h18l31 3h53l52 -3h14l18 3l53 -3l79 -4l7 -14v-17l-4 -18v-17l4 -17v-22l3 -18v-17l4 -18l1 -3h-18h-35h-105l-17 3h-18l-17 4l-134 -7l-196 3l-18 4l-3 14v17l7 18v18v17l3 18l4 17l-4 35l4 17v119l10 137v18
l1 102l6 70l4 18v17v17v35l3 19l-3 17z" />
    <glyph glyph-name="LY3" unicode="L&#x176;" horiz-adv-x="701" 
d="M309 823l13 18l15 16l11 18l16 15l12 20l15 15l11 21l24 -2l21 3l22 -3l23 -4l21 1l22 3l14 -16l13 -18l12 -18l15 -17l15 -16l9 -20l15 -16h-22l-23 -5h-24l-22 -6l-23 2l-15 19l-15 20l-15 21l-16 -21l-15 -20l-14 -21l-22 3h-23l-24 5h-22l-24 3v0zM512 748v-19l2 -33
v-17l3 -84l2 -17l-1 -16v-17l-1 -17l1 -17l1 -17h-18l-19 1l-4 16l-4 34l-3 16l-4 17l-5 33l-4 17l-7 68l-7 16l-2 17l-3 14l-14 6l-81 -3h-17h-17l3 -36l4 -17l13 -104l1 -17l1 -18l19 -140l-1 -17l4 -18l1 -17l19 -2l88 1h19h17l4 -33l-1 -16l-17 -2l-17 4l-87 -3l-20 3
l2 -22v-29l9 -26l1 -19l19 -1l17 3l53 -5l17 2h96l17 3l18 -2l-1 17l4 70v19l3 17l1 17l-2 19l7 139l-2 19v17l3 17v19l3 105v17l3 18v17l-14 3l-19 2zM105 746l3 -17l-3 -19v-35v-17v-17l-4 -18l-6 -70l-1 -102v-18l-10 -137v-119l-4 -17l4 -35l-4 -17l-3 -18v-17v-18
l-7 -18v-17l3 -14l18 -4l196 -3l134 7l17 -4h18l17 -3h105h35h18l-1 3l-4 18v17l-3 18v22l-4 17v17l4 18v17l-7 14l-79 4l-53 3l-18 -3h-14l-52 3h-53l-31 -3h-18h-17l-4 17l-7 81l-11 105v35l-4 53l-3 32v17v17l-9 81l-5 91v17l-3 19v17h-18h-17l-18 -3h-56z" />
    <glyph glyph-name="RY" unicode="RY" horiz-adv-x="966" 
d="M745 164l44 1l45 -6l43 2l4 -53l5 -53l8 -54l-58 3l-56 1l-55 -5l-49 6l-49 4l-46 10l-46 16l-42 23l-45 20l-33 36l-29 40l-26 40l-18 45l-9 50l-66 -2l2 -48l7 -47l-1 -47l-1 -47l7 -48v-46l-52 -4l-53 5l-52 -2h-54v50l3 50l2 50v48l9 50l1 49l-1 50l-1 50l2 50l3 49
l6 50l-2 50v48l9 50l-4 51l50 -3l46 5l47 -8l6 8l48 -7l49 2l49 1l50 2l30 -24l31 -27v-52l6 -52l2 -51v-51l7 -51l7 -52v-51l-37 -37l20 -41l22 -42l38 -26l39 -23l46 -4l46 -5zM265 419l14 -10l38 -4l40 2l14 12l1 47l-5 46l-6 48l1 46l-17 15l-38 -2l-41 4l-10 -16
l-4 -43l5 -43v-43zM863 750l19 -2l14 -3v-17l-3 -18v-17l-3 -105v-19l-3 -17v-17l2 -19l-7 -139l2 -19l-1 -17l-3 -17v-19l-4 -70l1 -17l-18 2l-17 -3h-96l-17 -2l-53 5l-17 -3l-19 1l-1 19l-9 26v29l-2 22l20 -3l87 3l17 -4l17 2l1 16l-4 33h-17h-19l-88 -1l-19 2l-1 17
l-4 18l1 17l-19 140l-1 18l-1 17l-13 104l-4 17l-3 36h17h17l81 3l14 -6l3 -14l2 -17l7 -16l7 -68l4 -17l5 -33l4 -17l3 -16l4 -34l4 -16l19 -1h18l-1 17l-1 17l1 17v17l1 16l-2 17l-3 84v17l-2 33v19z" />
    <glyph glyph-name="RY1" unicode="R&#xdd;" horiz-adv-x="966" 
d="M590 832l-2 17v19l3 18l-1 19l-2 19l5 17l16 1h17h17h17h17l17 2l17 -3l19 3l17 -3l17 3l18 -3h17h17l17 1h17h17h19l2 -18v-19l-2 -19l2 -18l1 -19l2 -20l-19 1h-19l-17 -1l-17 3h-19h-17l-17 -3l-19 3h-17h-17l-19 -2l-17 -1l-17 4l-19 -4l-17 1l-17 -1zM789 165l45 -6
l43 2l4 -53l5 -53l8 -54l-58 3l-56 1l-55 -5l-49 6l-49 4l-46 10l-46 16l-42 23l-45 20l-33 36l-29 40l-26 40l-18 45l-9 50l-66 -2l2 -48l7 -47l-1 -47l-1 -47l7 -48v-46l-52 -4l-53 5l-52 -2h-54v50l3 50l2 50v48l9 50l1 49l-1 50l-1 50l2 50l3 49l6 50l-2 50v48l9 50
l-4 51l50 -3l46 5l47 -8l6 8l48 -7l49 2l49 1l50 2l30 -24l31 -27v-52l6 -52l2 -51v-51l7 -51l7 -52v-51l-37 -37l20 -41l22 -42l38 -26l39 -23l46 -4l46 -5l46 4zM279 409l38 -4l40 2l14 12l1 47l-5 46l-6 48l1 46l-17 15l-38 -2l-41 4l-10 -16l-4 -43l5 -43v-43l8 -59z
M863 750l19 -2l14 -3v-17l-3 -18v-17l-3 -105v-19l-3 -17v-17l2 -19l-7 -139l2 -19l-1 -17l-3 -17v-19l-4 -70l1 -17l-18 2l-17 -3h-96l-17 -2l-53 5l-17 -3l-19 1l-1 19l-9 26v29l-2 22l20 -3l87 3l17 -4l17 2l1 16l-4 33h-17h-19l-88 -1l-19 2l-1 17l-4 18l1 17l-19 140
l-1 18l-1 17l-13 104l-4 17l-3 36h17h17l81 3l14 -6l3 -14l2 -17l7 -16l7 -68l4 -17l5 -33l4 -17l3 -16l4 -34l4 -16l19 -1h18l-1 17l-1 17l1 17v17l1 16l-2 17l-3 84v17l-2 33v19z" />
    <glyph glyph-name="RY2" unicode="R&#x178;" horiz-adv-x="996" 
d="M911 945l11 -6l4 -13l-1 -20l-1 -19l-2 -20l-1 -19l-5 -13l-12 -7l-18 3l-17 3l-17 2l-18 4l-17 1l-11 8l-4 15l1 18l1 19v20l5 13l13 9l17 -2l18 2l17 1h19zM570 945l19 -1h16l19 -1h18l17 -2l13 -6l5 -14v-20l1 -18l2 -19l-4 -15l-12 -8l-18 -1l-17 -2l-17 -3l-18 -3
l-17 -1l-13 4l-4 14l-3 18v20l-1 19l-1 20l4 14l11 5v0zM789 165l45 -6l43 2l4 -53l5 -53l8 -54l-58 3l-56 1l-55 -5l-49 6l-49 4l-46 10l-46 16l-42 23l-45 20l-33 36l-29 40l-26 40l-18 45l-9 50l-66 -2l2 -48l7 -47l-1 -47l-1 -47l7 -48v-46l-52 -4l-53 5l-52 -2h-54v50
l3 50l2 50v48l9 50l1 49l-1 50l-1 50l2 50l3 49l6 50l-2 50v48l9 50l-4 51l50 -3l46 5l47 -8l6 8l48 -7l49 2l49 1l50 2l30 -24l31 -27v-52l6 -52l2 -51v-51l7 -51l7 -52v-51l-37 -37l20 -41l22 -42l38 -26l39 -23l46 -4l46 -5l46 4zM279 409l38 -4l40 2l14 12l1 47l-5 46
l-6 48l1 46l-17 15l-38 -2l-41 4l-10 -16l-4 -43l5 -43v-43l8 -59zM863 750l19 -2l14 -3v-17l-3 -18v-17l-3 -105v-19l-3 -17v-17l2 -19l-7 -139l2 -19l-1 -17l-3 -17v-19l-4 -70l1 -17l-18 2l-17 -3h-96l-17 -2l-53 5l-17 -3l-19 1l-1 19l-9 26v29l-2 22l20 -3l87 3l17 -4
l17 2l1 16l-4 33h-17h-19l-88 -1l-19 2l-1 17l-4 18l1 17l-19 140l-1 18l-1 17l-13 104l-4 17l-3 36h17h17l81 3l14 -6l3 -14l2 -17l7 -16l7 -68l4 -17l5 -33l4 -17l3 -16l4 -34l4 -16l19 -1h18l-1 17l-1 17l1 17v17l1 16l-2 17l-3 84v17l-2 33v19z" />
    <glyph glyph-name="RY3" unicode="R&#x176;" horiz-adv-x="966" 
d="M572 822l15 18l12 17l13 17l12 18l14 19l16 18l14 14l21 1l22 -1l23 1l22 2h21l22 -3l13 -16l14 -18l16 -15l11 -20l15 -15l10 -21l15 -15h-22l-24 -3l-23 -5l-23 -4h-24l-16 19l-14 21l-13 22l-14 -22l-18 -18l-13 -24l-23 4l-24 3h-23l-23 4l-24 2v0zM745 164l-46 -4
l-46 5l-46 4l-39 23l-38 26l-22 42l-20 41l37 37v51l-7 52l-7 51v51l-2 51l-6 52v52l-31 27l-30 24l-50 -2l-49 -1l-49 -2l-48 7l-6 -8l-47 8l-46 -5l-50 3l4 -51l-9 -50v-48l2 -50l-6 -50l-3 -49l-2 -50l1 -50l1 -50l-1 -49l-9 -50v-48l-2 -50l-3 -50v-50h54l52 2l53 -5
l52 4v46l-7 48l1 47l1 47l-7 47l-2 48l66 2l9 -50l18 -45l26 -40l29 -40l33 -36l45 -20l42 -23l46 -16l46 -10l49 -4l49 -6l55 5l56 -1l58 -3l-8 54l-5 53l-4 53l-43 -2l-45 6zM265 419l-8 59v43l-5 43l4 43l10 16l41 -4l38 2l17 -15l-1 -46l6 -48l5 -46l-1 -47l-14 -12
l-40 -2l-38 4zM780 748v-19l2 -33v-17l3 -84l2 -17l-1 -16v-17l-1 -17l1 -17l1 -17h-18l-19 1l-4 16l-4 34l-3 16l-4 17l-5 33l-4 17l-7 68l-7 16l-2 17l-3 14l-14 6l-81 -3h-17h-17l3 -36l4 -17l13 -104l1 -17l1 -18l19 -140l-1 -17l4 -18l1 -17l19 -2l88 1h19h17l4 -33
l-1 -16l-17 -2l-17 4l-87 -3l-20 3l2 -22v-29l9 -26l1 -19l19 -1l17 3l53 -5l17 2h96l17 3l18 -2l-1 17l4 70v19l3 17l1 17l-2 19l7 139l-2 19v17l3 17v19l3 105v17l3 18v17l-14 3l-19 2z" />
    <glyph glyph-name="KY" unicode="KY" horiz-adv-x="1006" 
d="M919 162v-54l9 -54l8 -52h-49l-48 2l-47 -4h-48h-49l-47 11l-44 13l-49 10l-41 22l-41 26l-34 32l-35 33l-19 45l-18 45l-13 47l-27 -32l-24 -36l-30 -29v-47l8 -45l-4 -46l4 -43h-52h-53l-52 1l-54 -5l4 52l5 49l-2 50l2 48l6 49v50l4 49l-4 50l6 49l5 50l-4 49l6 50
l-2 49l6 48v50h48l49 4l50 -2l2 -50l6 -49l-6 -48l4 -49l3 -48l8 -49v-44l28 33l35 30l28 39l30 34l9 48l-5 51l7 50l-2 52l51 -5l48 7l49 -5l-6 -49l-3 -50v-51l-4 -50l-4 -52l-33 -36l-27 -37l-5 -6l11 -46l22 -45l23 -43l24 -41l35 -36l43 -20l47 -17l49 2l48 -9l52 3
l51 -1zM897 750l19 -2l14 -3v-17l-3 -18v-17l-3 -105v-19l-3 -17v-17l2 -19l-7 -139l2 -19l-1 -17l-3 -17v-19l-4 -70l1 -17l-18 2l-17 -3h-96l-17 -2l-53 5l-17 -3l-19 1l-1 19l-9 26v29l-2 22l20 -3l87 3l17 -4l17 2l1 16l-4 33h-17h-19l-88 -1l-19 2l-1 17l-4 18l1 17
l-19 140l-1 18l-1 17l-13 104l-4 17l-3 36h17h17l81 3l14 -6l3 -14l2 -17l7 -16l7 -68l4 -17l5 -33l4 -17l3 -16l4 -34l4 -16l19 -1h18l-1 17l-1 17l1 17v17l1 16l-2 17l-3 84v17l-2 33v19z" />
    <glyph glyph-name="KY1" unicode="K&#xdd;" horiz-adv-x="1006" 
d="M619 830l-2 17v19l3 20l-3 18v18l3 17l16 2h19h17h17h17l18 1l17 -3l18 3l18 -3l15 3l18 -3h17h17l19 2h17h17h18l1 -19v-19l-1 -20l1 -17l2 -19l1 -20l-19 3l-17 -2h-17l-18 2h-18l-19 1l-17 -4l-17 3h-18h-18l-17 -2h-18l-17 3l-17 -4l-20 1h-17zM919 108l9 -54l8 -52
h-49l-48 2l-47 -4h-48h-49l-47 11l-44 13l-49 10l-41 22l-41 26l-34 32l-35 33l-19 45l-18 45l-13 47l-27 -32l-24 -36l-30 -29v-47l8 -45l-4 -46l4 -43h-52h-53l-52 1l-54 -5l4 52l5 49l-2 50l2 48l6 49v50l4 49l-4 50l6 49l5 50l-4 49l6 50l-2 49l6 48v50h48l49 4l50 -2
l2 -50l6 -49l-6 -48l4 -49l3 -48l8 -49v-44l28 33l35 30l28 39l30 34l9 48l-5 51l7 50l-2 52l51 -5l48 7l49 -5l-6 -49l-3 -50v-51l-4 -50l-4 -52l-33 -36l-27 -37l-5 -6l11 -46l22 -45l23 -43l24 -41l35 -36l43 -20l47 -17l49 2l48 -9l52 3l51 -1l52 3v-54zM897 750l19 -2
l14 -3v-17l-3 -18v-17l-3 -105v-19l-3 -17v-17l2 -19l-7 -139l2 -19l-1 -17l-3 -17v-19l-4 -70l1 -17l-18 2l-17 -3h-96l-17 -2l-53 5l-17 -3l-19 1l-1 19l-9 26v29l-2 22l20 -3l87 3l17 -4l17 2l1 16l-4 33h-17h-19l-88 -1l-19 2l-1 17l-4 18l1 17l-19 140l-1 18l-1 17
l-13 104l-4 17l-3 36h17h17l81 3l14 -6l3 -14l2 -17l7 -16l7 -68l4 -17l5 -33l4 -17l3 -16l4 -34l4 -16l19 -1h18l-1 17l-1 17l1 17v17l1 16l-2 17l-3 84v17l-2 33v19z" />
    <glyph glyph-name="KY2" unicode="K&#x178;" horiz-adv-x="1026" 
d="M940 943l12 -7l4 -14v-19l-2 -20l-2 -19v-19l-6 -12l-11 -7l-17 4l-19 1l-17 3l-17 4l-18 1l-12 8l-2 13v19l2 19v19l4 15l13 7l17 -1l18 1l18 2h17zM603 943l17 -2h17l18 -2h17h18l13 -7l5 -15v-19l1 -19l2 -18l-3 -14l-13 -8l-17 -1l-19 -2l-17 -3l-17 -2l-18 -3l-12 5
l-3 12l-2 19v21l-3 20v19l3 12l13 7v0zM919 108l9 -54l8 -52h-49l-48 2l-47 -4h-48h-49l-47 11l-44 13l-49 10l-41 22l-41 26l-34 32l-35 33l-19 45l-18 45l-13 47l-27 -32l-24 -36l-30 -29v-47l8 -45l-4 -46l4 -43h-52h-53l-52 1l-54 -5l4 52l5 49l-2 50l2 48l6 49v50l4 49
l-4 50l6 49l5 50l-4 49l6 50l-2 49l6 48v50h48l49 4l50 -2l2 -50l6 -49l-6 -48l4 -49l3 -48l8 -49v-44l28 33l35 30l28 39l30 34l9 48l-5 51l7 50l-2 52l51 -5l48 7l49 -5l-6 -49l-3 -50v-51l-4 -50l-4 -52l-33 -36l-27 -37l-5 -6l11 -46l22 -45l23 -43l24 -41l35 -36
l43 -20l47 -17l49 2l48 -9l52 3l51 -1l52 3v-54zM897 750l19 -2l14 -3v-17l-3 -18v-17l-3 -105v-19l-3 -17v-17l2 -19l-7 -139l2 -19l-1 -17l-3 -17v-19l-4 -70l1 -17l-18 2l-17 -3h-96l-17 -2l-53 5l-17 -3l-19 1l-1 19l-9 26v29l-2 22l20 -3l87 3l17 -4l17 2l1 16l-4 33
h-17h-19l-88 -1l-19 2l-1 17l-4 18l1 17l-19 140l-1 18l-1 17l-13 104l-4 17l-3 36h17h17l81 3l14 -6l3 -14l2 -17l7 -16l7 -68l4 -17l5 -33l4 -17l3 -16l4 -34l4 -16l19 -1h18l-1 17l-1 17l1 17v17l1 16l-2 17l-3 84v17l-2 33v19z" />
    <glyph glyph-name="KY3" unicode="K&#x176;" horiz-adv-x="1011" 
d="M619 820l15 17l14 18l15 16l9 21l15 15l14 17l14 18h22h22h21l23 -2l23 2l21 -2l12 -16l15 -17l12 -18l14 -17l15 -17l11 -18l15 -17h-24l-23 -3l-23 -6l-23 2l-22 -2l-14 20l-17 18l-13 22l-16 -20l-12 -23l-17 -20l-24 3l-23 3h-22l-23 5l-26 1v0zM919 162l-52 -3
l-51 1l-52 -3l-48 9l-49 -2l-47 17l-43 20l-35 36l-24 41l-23 43l-22 45l-11 46l5 6l27 37l33 36l4 52l4 50v51l3 50l6 49l-49 5l-48 -7l-51 5l2 -52l-7 -50l5 -51l-9 -48l-30 -34l-28 -39l-35 -30l-28 -33v44l-8 49l-3 48l-4 49l6 48l-6 49l-2 50l-50 2l-49 -4h-48v-50
l-6 -48l2 -49l-6 -50l4 -49l-5 -50l-6 -49l4 -50l-4 -49v-50l-6 -49l-2 -48l2 -50l-5 -49l-4 -52l54 5l52 -1h53h52l-4 43l4 46l-8 45v47l30 29l24 36l27 32l13 -47l18 -45l19 -45l35 -33l34 -32l41 -26l41 -22l49 -10l44 -13l47 -11h49h48l47 4l48 -2h49l-8 52l-9 54v54z
M814 748v-19l2 -33v-17l3 -84l2 -17l-1 -16v-17l-1 -17l1 -17l1 -17h-18l-19 1l-4 16l-4 34l-3 16l-4 17l-5 33l-4 17l-7 68l-7 16l-2 17l-3 14l-14 6l-81 -3h-17h-17l3 -36l4 -17l13 -104l1 -17l1 -18l19 -140l-1 -17l4 -18l1 -17l19 -2l88 1h19h17l4 -33l-1 -16l-17 -2
l-17 4l-87 -3l-20 3l2 -22v-29l9 -26l1 -19l19 -1l17 3l53 -5l17 2h96l17 3l18 -2l-1 17l4 70v19l3 17l1 17l-2 19l7 139l-2 19v17l3 17v19l3 105v17l3 18v17l-14 3l-19 2z" />
    <glyph glyph-name="HE" unicode="HE" horiz-adv-x="886" 
d="M847 113l4 -53v-57h-45l-47 -4l-47 6l-47 -8l-45 8v-2l-4 2l-45 -6l-141 6l-13 2l-4 15v18l4 88l2 18l3 17v89l-1 17l5 18l-15 2l-16 -4h-16h-15l-20 2l-80 2l6 -20l6 -123v-18l5 -55l-1 -15l7 -36l-2 -21l-19 6l-35 -2l-124 -7h-17l-20 3l8 19l-2 89v15l8 53l-2 137
l6 18l-4 17l9 104l2 51l-2 35v69l4 16v35v18l2 17l2 18l2 15l-2 18l18 2h18l74 -6l18 6l15 -4v-16l4 -15l4 -69l-2 -15v-18l8 -67v-17l-2 -53l20 2l17 2h18l121 -2l2 17l-4 16l2 18l4 17l2 16v119v16v18l6 17v14l16 4l156 -2l49 -2l51 6h51l51 -4v-43l4 -45l-2 -39l-43 -6
l-45 6l-47 -8l-45 8l-45 -4v-45l4 -45l-2 -34l4 -3v-8h47l49 2l49 -2l51 2l-2 -49l7 -49v-47l4 -51l-53 4h-49l-48 2l-49 -2v-4l3 -41l6 -43l2 -43l-2 -47h49l45 2h47h45h45v0z" />
    <glyph glyph-name="HE1" unicode="H&#xc8;" horiz-adv-x="886" 
d="M851 60v-57h-45l-47 -4l-47 6l-47 -8l-45 8v-2l-4 2l-45 -6l-141 6l-13 2l-4 15v18l4 88l2 18l3 17v89l-1 17l5 18l-15 2l-16 -4h-16h-15l-20 2l-80 2l6 -20l6 -123v-18l5 -55l-1 -15l7 -36l-2 -21l-19 6l-35 -2l-124 -7h-17l-20 3l8 19l-2 89v15l8 53l-2 137l6 18l-4 17
l9 104l2 51l-2 35v69l4 16v35v18l2 17l2 18l2 15l-2 18l18 2h18l74 -6l18 6l15 -4v-16l4 -15l4 -69l-2 -15v-18l8 -67v-17l-2 -53l20 2l17 2h18l121 -2l2 17l-4 16l2 18l4 17l2 16v119v16v18l6 17v14l16 4l156 -2l49 -2l51 6h51l51 -4v-43l4 -45l-2 -39l-43 -6l-45 6l-47 -8
l-45 8l-45 -4v-45l4 -45l-2 -34l4 -3v-8h47l49 2l49 -2l51 2l-2 -49l7 -49v-47l4 -51l-53 4h-49l-48 2l-49 -2v-4l3 -41l6 -43l2 -43l-2 -47h49l45 2h47h45h45zM450 861l5 39v42l42 -5l47 5h42h41l48 -5h43l43 5l41 -5l5 -37v-39l5 -42l-47 5l-47 -5h-43h-48h-41l-46 5
l-43 -5h-47v42z" />
    <glyph glyph-name="HE2" unicode="H&#xcb;" horiz-adv-x="896" 
d="M851 60v-57h-45l-47 -4l-47 6l-47 -8l-45 8v-2l-4 2l-45 -6l-141 6l-13 2l-4 15v18l4 88l2 18l3 17v89l-1 17l5 18l-15 2l-16 -4h-16h-15l-20 2l-80 2l6 -20l6 -123v-18l5 -55l-1 -15l7 -36l-2 -21l-19 6l-35 -2l-124 -7h-17l-20 3l8 19l-2 89v15l8 53l-2 137l6 18l-4 17
l9 104l2 51l-2 35v69l4 16v35v18l2 17l2 18l2 15l-2 18l18 2h18l74 -6l18 6l15 -4v-16l4 -15l4 -69l-2 -15v-18l8 -67v-17l-2 -53l20 2l17 2h18l121 -2l2 17l-4 16l2 18l4 17l2 16v119v16v18l6 17v14l16 4l156 -2l49 -2l51 6h51l51 -4v-43l4 -45l-2 -39l-43 -6l-45 6l-47 -8
l-45 8l-45 -4v-45l4 -45l-2 -34l4 -3v-8h47l49 2l49 -2l51 2l-2 -49l7 -49v-47l4 -51l-53 4h-49l-48 2l-49 -2v-4l3 -41l6 -43l2 -43l-2 -47h49l45 2h47h45h45zM861 916l-12 -39v-51l-19 -19h-41l-29 10h-39l-22 29l12 31v39l19 30h30h40h39zM420 946h41h29l40 -10l20 -20
v-39v-31l-20 -29h-31l-38 -10h-30l-31 19v51v50z" />
    <glyph glyph-name="HE3" unicode="H&#xca;" horiz-adv-x="886" 
d="M847 113h-45h-45h-47l-45 -2h-49l2 47l-2 43l-6 43l-3 41v4l49 2l48 -2h49l53 -4l-4 51v47l-7 49l2 49l-51 -2l-49 2l-49 -2h-47v8l-4 3l2 34l-4 45v45l45 4l45 -8l47 8l45 -6l43 6l2 39l-4 45v43l-51 4h-51l-51 -6l-49 2l-156 2l-16 -4v-14l-6 -17v-18v-16v-119l-2 -16
l-4 -17l-2 -18l4 -16l-2 -17l-121 2h-18l-17 -2l-20 -2l2 53v17l-8 67v18l2 15l-4 69l-4 15v16l-15 4l-18 -6l-74 6h-18l-18 -2l2 -18l-2 -15l-2 -18l-2 -17v-18v-35l-4 -16v-69l2 -35l-2 -51l-9 -104l4 -17l-6 -18l2 -137l-8 -53v-15l2 -89l-8 -19l20 -3h17l124 7l35 2
l19 -6l2 21l-7 36l1 15l-5 55v18l-6 123l-6 20l80 -2l20 -2h15h16l16 4l15 -2l-5 -18l1 -17v-89l-3 -17l-2 -18l-4 -88v-18l4 -15l13 -2l141 -6l45 6l4 -2v2l45 -8l47 8l47 -6l47 4h45v57zM472 822l15 15l10 17l15 19l11 18l11 19l19 15l10 17h22l22 -3l23 3h22h22h22
l15 -17l10 -19l15 -15l15 -18l11 -19l15 -14l15 -18h-27l-22 -4l-22 -3h-25l-22 -5l-11 22l-18 19l-15 18l-16 -18l-14 -22l-15 -19l-22 5h-22l-25 3h-22z" />
    <glyph glyph-name="CH" unicode="CH" horiz-adv-x="1096" 
d="M101 744l17 -2l17 2h140l19 -2h17l52 4l16 -4l4 -16v-16v-18l2 -18l1 -18l2 -20l2 -14l-15 -2l-92 -2h-17l-21 4l1 -20l2 -17l-3 -17l11 -86l2 -18l2 -19v-17v-17l2 -17l2 -18v-17l7 -52v-17l-2 -17l8 -122l2 -18l6 -16h15l17 -1l18 1l17 -1h17l17 -2l144 5l101 -5l18 2
l16 -2l16 -2l4 -15l4 -56l-2 -19v-17h-16l-16 2l-160 -6l-16 2l-18 -2h-54h-17l-35 -2l-36 2h-52h-105l-44 21l-19 27l-13 10l-16 7v19v18l4 16v18l2 17l-2 17l8 175v17l6 17l4 52l1 68l-1 18v36l3 18v16v18l-2 18l4 68v20l2 16l2 16v0zM1026 3l-18 2l-16 2l-18 -2l-17 -4
l-86 4l-18 -2l-15 -2h-19l2 21l2 17v18l-1 35l2 52l3 37v19v15l2 18l2 19l3 17l-3 15h-14l-15 2l-15 4h-56l-38 -2l-24 2l6 -21l2 -19l-4 -19l10 -71l-34 2l-20 -2l-70 2l-36 2l-34 1l-4 16l4 19l2 37l-2 34l4 52l-4 19l4 17l-4 17l8 54l2 17l-2 35l4 17l-4 19l2 18v34v17
l2 17l4 88l2 18l2 16v18l17 2l37 2l16 -2h56l16 -4l2 -14l2 -16l-2 -35l4 -49l1 -36v-16l4 -18l2 -32l-2 -18v-36l21 2l104 -2h17l17 2l17 2l2 15l-4 17l4 18l4 17l2 17v32l-2 18l2 34v33l4 51v16l17 4h69h36l18 -2l7 -104l-2 -36l2 -18l2 -16v-18l2 -16l-2 -18l-2 -18
l8 -51l-4 -35l4 -34l3 -17l2 -17l-4 -18l4 -17l2 -34l2 -104l2 -17l4 -17v-16v-18l2 -18v-52l2 -16z" />
    <glyph glyph-name="TT" unicode="TT" horiz-adv-x="990" 
d="M970 611l-20 1l-17 -1h-19l-17 7l-88 2l-50 -2l-17 -4v-18l6 -17l-2 -17l4 -35l-4 -18l2 -18l2 -16v-36l3 -34l4 -19l-4 -16l6 -17l-4 -19l6 -17l2 -16l2 -19v-17l3 -34v-18l-2 -36l-1 -33l1 -36v-18l4 -17v-17l9 -17v-16v-21l-35 -2h-52l-88 2l-16 -2l-18 3l-15 -3l6 56
v88l2 16l-2 19l7 17l-3 17l-4 18l2 18l12 85v19l3 35l-3 34v18l1 17l5 18l-1 34l1 18l2 35l-7 17v18l4 15l-15 -1l-17 1l-32 8l-117 -11l-17 2l2 3l-2 -18l4 -17v-17l-2 -19v-16l7 -122l2 -19l2 -16l4 -17l2 -36l-2 -18l-2 -50l9 -20l-3 -16l5 -17v-19v-17l2 -16v-19l4 -17
v-16l2 -19v-17v-17l-2 -18l3 -18l-16 -5l-19 2l-17 6l-69 -4l-52 4h-17l-17 -3l-15 3l-2 15l4 18l9 138l-1 19l1 17l-1 18l11 155v19v17v18l2 17l-2 36v16l3 36l2 17l2 17v17v20l-18 -4l-17 -1l-17 3h-17l-99 6l-35 -8l5 19l-2 17l-3 61l5 21v17l17 -2l19 -2l17 5l171 1
l34 -2h69l17 -4l17 2l104 2l19 2l87 -6l18 4l16 3l17 -3l17 3l35 -2l34 1l35 2l34 -2l53 2l33 -8h17l17 2h16h17l2 -15l2 -34v-17l11 -68v0z" />
    <glyph glyph-name="FF" unicode="FF" horiz-adv-x="852" 
d="M109 750l51 2h52l50 -5l51 7l52 -7l50 6h50l49 -4l51 1l48 -1l50 3h49h49l47 -2v-40l6 -41l3 -42h-52l-51 1l-51 -5l-52 4l6 -47l-2 -46l5 -45l55 -3h56l57 3v-50l1 -49l7 -48l-1 -48l-55 6l-55 -2h-54l-1 -48l7 -50l-3 -49l8 -49l1 -51l3 -50l-46 3l-46 -3l-45 7l-45 -2
l-47 -3l6 48l1 48l2 49l-2 49l7 49v47l-47 2l-50 5l-46 -4l-2 -46l6 -50v-49l3 -49l5 -51l2 -50l-47 3h-45l-46 -4l-45 6l-49 -6l7 53l4 49l-3 50l5 51l6 49l-4 50l4 49v51l7 50l5 49v51l-1 49l7 50l4 49zM276 488l54 1l56 -3l57 -1l-3 49l3 48l3 43l-43 3l-45 2l-45 -2
l-44 -5l-2 -43l2 -47z" />
    <glyph glyph-name="FFI" unicode="FFI" horiz-adv-x="1144" 
d="M1074 4l-17 -5l-71 3h-52l-31 -3l-21 1l-19 4l3 19l-1 18l1 51l2 17l3 16l2 19l5 119l2 35l5 86v19l-2 16l8 68l2 18l-2 17l2 18l-2 19h19l91 -5l18 1l18 4l-1 -19l5 -16l-2 -19l12 -154l1 -18l-3 -17l8 -16l-1 -19v-16l3 -17l-2 -18l4 -17v-18l1 -16l5 -52l2 -18l-3 -17
l1 -35v-16l4 -18l3 -19v0zM110 748l99 -1l102 1l99 -3l50 2h144h145h98l144 3l46 2l2 -51l5 -40l2 -41h-50l-50 2l-48 1l-50 -3l-48 -2h-50l-48 4l-50 -7l-49 5l6 -47l-3 -46l7 -43l53 -3h54l57 3l-2 -50l3 -46l7 -49l-2 -46l-53 5l-54 -2h-53l-2 -46l8 -50l-5 -48l10 -48
l2 -50l3 -50l-48 -6l-45 1l-45 4l-44 -2l-44 5l5 48l2 47v48l-3 48l8 48v46l-46 2l-48 5l-45 -3l-4 -45l7 -50v-48l3 -50l5 -48l2 -50l-46 -5h-45l-39 1l-49 2l-50 -1l7 53l5 50l-4 50l7 48l5 50l-5 48l3 49l2 50l7 48l6 48l-1 50l-2 50l8 48l3 48zM272 482l55 3l55 -3
l56 -3l-5 50l5 46l2 43l-41 4l-45 1l-45 -3l-42 -3l-3 -44l2 -46z" />
    <glyph glyph-name="FJ" unicode="FJ" horiz-adv-x="827" 
d="M716 750l4 -15v-18l-4 -18l8 -103l6 -70l-2 -34l4 -18l-2 -16l4 -19v-16l2 -18l2 -17l-3 -17l-1 -18l2 -18l5 -17v-17v-18v-16l1 -18l3 -17l1 -18v-18v-16v-18l3 -17l-2 -18l2 -17v-17l2 -18l3 -17l2 -18l1 -17l-3 -18l-18 2l-16 1l-19 -7l-121 -1l-51 -2h-35l-18 -1
l-87 3l-16 3l-11 91l1 18l19 1l17 -4l18 -1l18 5l18 -4l53 4l18 -1l18 1h17l4 17l-2 16l2 19v18l-2 16l11 194l-2 35l-1 19l-1 18l4 16l2 124l2 18l-18 -1l-18 5h-18l-18 3h-172l-36 -2l-16 -1h-18v-19l3 -16l4 -35v-35l-4 -18l8 -13l14 -3l51 -3l17 2h33l51 2l-2 -19l1 -16
l1 -19l6 -86l-2 -19l2 -29h-55l-91 -1l-15 -3l-4 -12l1 -18l4 -18l-1 -86l4 -36l2 -17l4 -34l-3 -18v-18l7 -17l-4 -16h-14l-18 3h-18l-156 -5l-15 3l-2 15l2 17l-3 18l8 69l2 35l1 34l1 17v17l3 18l1 18l-1 68l6 69l2 18l-1 17v35l1 18l7 120l1 17v36l6 17l-3 17l2 18l2 16
l-2 19h17l18 -3l16 -3l18 5l34 -2l53 -1l17 4l17 -3l17 2l263 -3l54 4l17 1l17 -1l18 1l18 -2h16v0z" />
    <glyph glyph-name="FFJ" unicode="FFJ" horiz-adv-x="1154" 
d="M108 751l16 -3l53 2h34l71 -3l17 1l18 2h18l87 -3l18 -2l68 5l18 -3h17l16 3h18h51h18l68 -2l33 -1l18 4l17 -4l34 3l35 1l51 -3l70 2l52 -2h14l13 5l5 -17l-5 -26l2 -34l-2 -35l5 -33l4 -69v-17l2 -18l-2 -16l3 -18l-3 -52l3 -51l3 -34v-34l3 -18l2 -34l3 -17l3 -137
l3 -17l4 -17v-33v-26h-31l-69 -3h-17l-35 4l-102 -1l-18 4l-51 -3l-17 -1l-34 3l-14 -2v12l2 29l-5 33l4 31l59 1l51 1l19 3l16 -1l18 1h18h18l-3 18l5 18l6 19l-6 16l1 18l3 17l-1 18v18l1 51l2 35l4 18v34l2 35l1 71l-1 34l1 17l3 18l-1 16l-2 18l-1 16l-98 4l-71 -1
l-69 1l-72 3l-2 -19l5 -34l-2 -34l2 -17l6 -34l16 -2l67 -1l16 -3h33l17 3l12 -2l6 -30l-2 -18l2 -22l1 -13v-16l9 -69l-8 -16l-32 3l-36 -1l-38 1l-35 5h-22l4 -38l3 -34v-18l-3 -17l3 -18l11 -104l3 -69l-18 -6h-53h-34h-52l-63 -1v93l5 33v18l-2 17l2 16l3 68l3 34l-3 17
h-18l-18 8l-73 -2l-18 2l-19 -2l3 -18l-2 -17l6 -103l-4 -19l7 -51l-4 -16l1 -18l5 -17l4 -27l2 -18l-18 2l-35 4l-16 -2l-19 2l-16 -1l-18 -3h-35h-16l-17 3l-36 -3l3 60l3 18l6 137l2 34v17l4 16l-3 18l5 17l-2 18l5 33l3 35l-5 18l2 16l-3 17l1 18l3 17l-1 16l3 18l1 17
l5 86l4 16l-3 18l2 17v16l4 18zM431 503l3 16l-4 18l4 35l-12 50h-54l-35 -3l-36 4l-16 -1l-17 -2l2 -15l-2 -18l3 -17l-1 -16l7 -66l15 -2l127 6z" />
    <glyph glyph-name="KO" unicode="KO" horiz-adv-x="1021" 
d="M956 158l6 -52l5 -54l4 -52l-43 -3l-45 1h-46l-44 5l-47 -1l-47 -5l-49 10l-45 12l-47 14l-44 19l-41 26l-32 36l-35 33l-23 43l-16 46l-12 46l-29 -30l-22 -37l-26 -32l-5 -44l5 -45v-47l3 -45h-52l-53 -5l-53 3l-53 2l5 48l-2 52l2 48l6 50l3 51l-5 50l2 48l8 50v51
l1 48l3 51l-3 49l8 49l-2 51l4 51h51l49 1l48 -1l5 -51l3 -50l3 -47l-3 -49l3 -49l4 -49v-52l31 40l34 33l33 34l34 34l-1 52l1 50l-1 52l3 53l53 -6l49 -2l50 8l-5 -53l-11 -52l-1 -50l3 -52l-10 -51l-26 -36l-32 -37v-6l13 -46l14 -47l20 -44l30 -40l35 -36l43 -26l48 -9
l48 -8l51 3l46 -2h47l48 3zM934 272l-11 -13l-9 -15l-12 -14l-10 -13l-19 -2l-71 4l-53 2l-18 -2l-90 -6l-16 4l-12 15l-14 14l-23 28l-9 16v17l3 16l-2 18l4 106l4 17l4 18l-2 18l10 140l-2 17l2 20l1 16l14 10l38 35l14 10l19 2l18 2l91 -2l17 -4l18 2h19l12 -12l41 -33
l14 -10l2 -16l10 -90l2 -18l3 -34l4 -20v-35l3 -16l2 -19l8 -106l8 -53zM791 322l11 11v17l2 18v18l2 16l-4 18l2 19l-2 18l-2 16l2 17l-2 54l2 17l4 18l-15 64l-15 6l-14 6l-17 -2l-14 -10l-9 -13l-2 -17l-4 -17l2 -17v-18v-17l-2 -19l-2 -88l2 -17l-4 -52v-18l-1 -19
l12 -11l14 -8l21 -3l22 3z" />
    <glyph glyph-name="KO1" unicode="K&#xd2;" horiz-adv-x="1021" 
d="M962 106l5 -54l4 -52l-43 -3l-45 1h-46l-44 5l-47 -1l-47 -5l-49 10l-45 12l-47 14l-44 19l-41 26l-32 36l-35 33l-23 43l-16 46l-12 46l-29 -30l-22 -37l-26 -32l-5 -44l5 -45v-47l3 -45h-52l-53 -5l-53 3l-53 2l5 48l-2 52l2 48l6 50l3 51l-5 50l2 48l8 50v51l1 48
l3 51l-3 49l8 49l-2 51l4 51h51l49 1l48 -1l5 -51l3 -50l3 -47l-3 -49l3 -49l4 -49v-52l31 40l34 33l33 34l34 34l-1 52l1 50l-1 52l3 53l53 -6l49 -2l50 8l-5 -53l-11 -52l-1 -50l3 -52l-10 -51l-26 -36l-32 -37v-6l13 -46l14 -47l20 -44l30 -40l35 -36l43 -26l48 -9l48 -8
l51 3l46 -2h47l48 3l46 -3zM934 272l-11 -13l-9 -15l-12 -14l-10 -13l-19 -2l-71 4l-53 2l-18 -2l-90 -6l-16 4l-12 15l-14 14l-23 28l-9 16v17l3 16l-2 18l4 106l4 17l4 18l-2 18l10 140l-2 17l2 20l1 16l14 10l38 35l14 10l19 2l18 2l91 -2l17 -4l18 2h19l12 -12l41 -33
l14 -10l2 -16l10 -90l2 -18l3 -34l4 -20v-35l3 -16l2 -19l8 -106l8 -53zM791 322l11 11v17l2 18v18l2 16l-4 18l2 19l-2 18l-2 16l2 17l-2 54l2 17l4 18l-15 64l-15 6l-14 6l-17 -2l-14 -10l-9 -13l-2 -17l-4 -17l2 -17v-18v-17l-2 -19l-2 -88l2 -17l-4 -52v-18l-1 -19
l12 -11l14 -8l21 -3l22 3zM596 846l-2 18l4 19l-2 19v18l4 17h15l17 2l18 -2l17 2h18h15l17 -2l18 2l17 -2l17 4l18 -4h17h18l17 2l17 -2l16 2h19v-19l2 -20l-2 -19l2 -17l2 -20v-19l-18 2l-19 -2h-17l-18 4l-17 -2l-17 2l-18 -4l-17 2h-17h-18l-19 -2h-17l-18 4l-17 -4h-17
h-18l-17 4v17z" />
    <glyph glyph-name="KO2" unicode="K&#xd6;" horiz-adv-x="1021" 
d="M962 106l5 -54l4 -52l-43 -3l-45 1h-46l-44 5l-47 -1l-47 -5l-49 10l-45 12l-47 14l-44 19l-41 26l-32 36l-35 33l-23 43l-16 46l-12 46l-29 -30l-22 -37l-26 -32l-5 -44l5 -45v-47l3 -45h-52l-53 -5l-53 3l-53 2l5 48l-2 52l2 48l6 50l3 51l-5 50l2 48l8 50v51l1 48
l3 51l-3 49l8 49l-2 51l4 51h51l49 1l48 -1l5 -51l3 -50l3 -47l-3 -49l3 -49l4 -49v-52l31 40l34 33l33 34l34 34l-1 52l1 50l-1 52l3 53l53 -6l49 -2l50 8l-5 -53l-11 -52l-1 -50l3 -52l-10 -51l-26 -36l-32 -37v-6l13 -46l14 -47l20 -44l30 -40l35 -36l43 -26l48 -9l48 -8
l51 3l46 -2h47l48 3l46 -3zM934 272l-11 -13l-9 -15l-12 -14l-10 -13l-19 -2l-71 4l-53 2l-18 -2l-90 -6l-16 4l-12 15l-14 14l-23 28l-9 16v17l3 16l-2 18l4 106l4 17l4 18l-2 18l10 140l-2 17l2 20l1 16l14 10l38 35l14 10l19 2l18 2l91 -2l17 -4l18 2h19l12 -12l41 -33
l14 -10l2 -16l10 -90l2 -18l3 -34l4 -20v-35l3 -16l2 -19l8 -106l8 -53zM791 322l11 11v17l2 18v18l2 16l-4 18l2 19l-2 18l-2 16l2 17l-2 54l2 17l4 18l-15 64l-15 6l-14 6l-17 -2l-14 -10l-9 -13l-2 -17l-4 -17l2 -17v-18v-17l-2 -19l-2 -88l2 -17l-4 -52v-18l-1 -19
l12 -11l14 -8l21 -3l22 3zM930 933l3 -12v-20l-2 -19l-1 -19v-19l-6 -14l-12 -7l-17 3l-19 4l-17 2l-17 3l-18 2l-12 8l-3 12l2 21l1 17v21l6 14l12 7h17h19l17 2h17l18 1zM580 940l17 -1l17 1l19 -3h16h19l13 -5l4 -16v-21l1 -17v-21l-1 -12l-12 -8l-19 -2l-16 -2l-19 -3
l-15 -2l-19 -2l-14 4l-2 15l-1 18v20l-2 19l-2 19l4 12z" />
    <glyph glyph-name="KO3" unicode="K&#xd4;" horiz-adv-x="1021" 
d="M956 158l-46 3l-48 -3h-47l-46 2l-51 -3l-48 8l-48 9l-43 26l-35 36l-30 40l-20 44l-14 47l-13 46v6l32 37l26 36l10 51l-3 52l1 50l11 52l5 53l-50 -8l-49 2l-53 6l-3 -53l1 -52l-1 -50l1 -52l-34 -34l-33 -34l-34 -33l-31 -40v52l-4 49l-3 49l3 49l-3 47l-3 50l-5 51
l-48 1l-49 -1h-51l-4 -51l2 -51l-8 -49l3 -49l-3 -51l-1 -48v-51l-8 -50l-2 -48l5 -50l-3 -51l-6 -50l-2 -48l2 -52l-5 -48l53 -2l53 -3l53 5h52l-3 45v47l-5 45l5 44l26 32l22 37l29 30l12 -46l16 -46l23 -43l35 -33l32 -36l41 -26l44 -19l47 -14l45 -12l49 -10l47 5l47 1
l44 -5h46l45 -1l43 3l-4 52l-5 54zM946 286l-8 53l-8 106l-2 19l-3 16v35l-4 20l-3 34l-2 18l-10 90l-2 16l-14 10l-41 33l-12 12h-19l-18 -2l-17 4l-91 2l-18 -2l-19 -2l-14 -10l-38 -35l-14 -10l-1 -16l-2 -20l2 -17l-10 -140l2 -18l-4 -18l-4 -17l-4 -106l2 -18l-3 -16
v-17l9 -16l23 -28l14 -14l12 -15l16 -4l90 6l18 2l53 -2l71 -4l19 2l10 13l12 14l9 15l11 13zM780 312l-22 -3l-21 3l-14 8l-12 11l1 19v18l4 52l-2 17l2 88l2 19v17v18l-2 17l4 17l2 17l9 13l14 10l17 2l14 -6l15 -6l15 -64l-4 -18l-2 -17l2 -54l-2 -17l2 -16l2 -18l-2 -19
l4 -18l-2 -16v-18l-2 -18v-17l-11 -11zM591 819l14 18l12 19l17 15l10 20l16 15l10 20l14 17l23 -3l23 2l22 1l22 -3l21 2l22 -2l14 -16l13 -17l11 -18l15 -18l14 -15l14 -19l14 -18h-26l-22 -3l-22 -4h-24l-24 -6l-13 23l-15 20l-14 17l-15 -16l-12 -22l-20 -16l-21 -2
l-23 2l-23 4l-23 1z" />
    <glyph glyph-name="KO4" unicode="K&#xd5;" horiz-adv-x="1021" 
d="M956 158l-46 3l-48 -3h-47l-46 2l-51 -3l-48 8l-48 9l-43 26l-35 36l-30 40l-20 44l-14 47l-13 46v6l32 37l26 36l10 51l-3 52l1 50l11 52l5 53l-50 -8l-49 2l-53 6l-3 -53l1 -52l-1 -50l1 -52l-34 -34l-33 -34l-34 -33l-31 -40v52l-4 49l-3 49l3 49l-3 47l-3 50l-5 51
l-48 1l-49 -1h-51l-4 -51l2 -51l-8 -49l3 -49l-3 -51l-1 -48v-51l-8 -50l-2 -48l5 -50l-3 -51l-6 -50l-2 -48l2 -52l-5 -48l53 -2l53 -3l53 5h52l-3 45v47l-5 45l5 44l26 32l22 37l29 30l12 -46l16 -46l23 -43l35 -33l32 -36l41 -26l44 -19l47 -14l45 -12l49 -10l47 5l47 1
l44 -5h46l45 -1l43 3l-4 52l-5 54zM946 286l-8 53l-8 106l-2 19l-3 16v35l-4 20l-3 34l-2 18l-10 90l-2 16l-14 10l-41 33l-12 12h-19l-18 -2l-17 4l-91 2l-18 -2l-19 -2l-14 -10l-38 -35l-14 -10l-1 -16l-2 -20l2 -17l-10 -140l2 -18l-4 -18l-4 -17l-4 -106l2 -18l-3 -16
v-17l9 -16l23 -28l14 -14l12 -15l16 -4l90 6l18 2l53 -2l71 -4l19 2l10 13l12 14l9 15l11 13zM780 312l-22 -3l-21 3l-14 8l-12 11l1 19v18l4 52l-2 17l2 88l2 19v17v18l-2 17l4 17l2 17l9 13l14 10l17 2l14 -6l15 -6l15 -64l-4 -18l-2 -17l2 -54l-2 -17l2 -16l2 -18l-2 -19
l4 -18l-2 -16v-18l-2 -18v-17l-11 -11zM910 846l-41 -21l-44 -13l-47 4l-48 9l-50 4l-45 -7l-42 -14l-4 36v37l-2 38l42 14l44 13l47 -2l47 -7l48 -8l48 8l43 22l-1 -38l5 -38v-37z" />
    <glyph glyph-name=".notdef" horiz-adv-x="500" 
 />
    <glyph glyph-name="space" unicode=" " horiz-adv-x="250" 
 />
    <glyph glyph-name="space" unicode="&#xa0;" horiz-adv-x="250" 
 />
    <glyph glyph-name="exclam" unicode="!" horiz-adv-x="211" 
d="M20 749h36l28 6l36 -6h35h36v-43l-5 -47v-42v-46l-6 -42v-47v-42v-46v-47l-6 -42l6 -46v-42l-6 -47l-5 -42v-46v-42v-47l-42 5l-43 -5h-34v47l-5 42l-6 46l6 42l-6 47v42v46v42l-8 47v42l-3 46v43v46l-8 46l8 42v47zM84 -173l-34 18l-11 41l17 36l28 22l43 8l42 -25
l5 -41l-11 -48l-36 -18z" />
    <glyph glyph-name="quotedbl" unicode="&#x22;" horiz-adv-x="305" 
d="M91 503h-39l-40 1v46v47l-2 48v47l2 47l40 2l39 2l44 2l-4 -49l2 -49l-2 -50l2 -47v-47h-42zM253 503h-39l-40 1v46v47l-2 48v47l2 47l40 2l39 2l44 2l-4 -49l2 -49l-2 -50l2 -47v-47h-42z" />
    <glyph glyph-name="numbersign" unicode="#" horiz-adv-x="418" 
d="M401 320v-29v-27v-29l7 -27h-20h-22l-6 -28l6 -35h-20h-28h-21h-29h-20v35v28h-28h-29l-26 7v-35v-35h-22h-28h-20h-29l-21 6v29l7 35l-42 -7v27v29v27v29h42v28v20v29l-21 -7l-21 7v27v21l7 29v27h22h21v29v19v29l27 -7h28h28v-22l7 -19v-29h28h28h27h29v22v26v22h27h29
h28v-22v-26l7 -22h20h28v-27v-29v-29l7 -19h-26h-29v-29l7 -29v-19h22h19zM156 320h22h28h21h28v19v29v29h-28h-21h-28h-22v-29v-29v-19z" />
    <glyph glyph-name="dollar" unicode="$" horiz-adv-x="479" 
d="M439 78l-25 -23l-25 -30l-28 -29l-64 6l-1 -35l1 -36v-35l-37 -3h-38l-38 3l-2 35l4 38v35l-50 -5l-48 3h-48l8 42l-3 41l3 46l48 -5l45 -3l45 3l-9 40l-13 40l-15 41v43l-16 37l-9 42l-16 37l-10 40l-13 41l-10 41l-9 40l-8 40l-10 39l18 37l27 31l23 35l35 -3l33 6
l5 35l-3 41l5 35l34 7l37 -12l38 7v-40l-4 -38l4 -38l44 -3l48 6l-3 -48l5 -44l3 -45l-44 2l-40 -2l-40 7l-41 -5l-41 -2h-2l18 -38l15 -40l25 -36l18 -38l15 -40l17 -38l24 -38l15 -40l17 -39l21 -37l10 -40l26 -36l14 -41l15 -37v0z" />
    <glyph glyph-name="percent" unicode="%" horiz-adv-x="567" 
d="M291 117l-24 3l-23 6l-27 7l-20 5v24l5 24l6 23l6 24l3 23l3 24l6 24l9 21l3 23l2 24l6 24l3 23l6 24l3 24l6 23l6 21v26l6 24l26 -6h27l24 -2l27 -3l-9 -27v-24l-9 -23l-3 -24l-6 -24l-6 -23v-27l-9 -21l-5 -26l-4 -24l-3 -24l-6 -23l-5 -24l-4 -24l-5 -23l-4 -27
l-5 -24zM368 369l21 21l20 20l18 -2h27h24h23l18 -18l18 -15l17 -15v-21v-20v-21l3 -24l-3 -23v-24v-27v-23v-24l-15 -15l-17 -12l-26 -2h-27h-27h-27h-15l-17 14l-15 15v24l-3 23l3 27v24v23v24v24v23v24zM472 206l8 6l-2 26v27v27v27l-6 6h-21l-6 -3v-30v-27v-27v-26l6 -3
zM12 511l22 21l20 21l18 -3h23h24h24l18 -18l18 -15l18 -15v-21v-20l2 -21v-24v-24l-2 -23l2 -26v-24l-2 -24l-13 -15l-18 -11l-29 -4h-24h-27h-26h-17l-16 15l-17 15v24v24v26v23v24v24l2 24l-2 24zM113 348l9 6l-3 27l3 27l-3 26l3 27l-9 6h-21l-6 -3v-30v-26l4 -27
l-4 -27l9 -3z" />
    <glyph glyph-name="ampersand" unicode="&#x26;" horiz-adv-x="800" 
d="M759 400l1 -27l-36 -7l-34 -11l-27 3l-29 3l-29 2l-27 6l-36 -3l-35 -10l-1 25l1 25l-2 24l34 10l34 8l28 -2l30 -1l26 -11l29 -2l24 1l25 7l24 11l-2 -27zM623 124l10 -27l62 -94l-23 -3l-89 2l-57 -2h-41l-19 29l-7 27l-16 -15l-20 -17l-25 -12l-24 -12l-27 -1l-25 -8
l-27 3l-27 -8h-25l-25 10l-23 7l-27 2l-24 13l-19 15l-22 14l-19 17l-7 26l-20 18l-9 24l-3 27l-3 25l-2 25l1 27v28l12 24l11 25l7 28l20 19l19 18l17 17l21 13l15 17l16 19l9 7l-2 6l-20 23l-9 24l-7 7l-7 10l-6 14l-9 13l-7 13l-7 14l-2 21l11 30l23 22l33 24l5 12l12 9
l11 9l12 6l15 5l10 8l12 10l12 7l14 6l11 8l12 6l15 -2l14 -2l13 3l13 -7l17 -2l8 -10l11 -12l9 -12l7 -13l11 -11l11 -10l8 -13l11 -12l9 -11l-75 -54l-9 10l-7 15l-5 9l-6 4l-7 11l-8 15l-15 1l-12 -3l-13 -2l-10 -7l-4 -12l-1 -13l6 -9l9 -10l4 -6l11 -12l6 -10v0l1 -4
l7 -13l4 -11l1 -2l2 -4l17 -21l8 -19l5 -6l8 -11l6 -11l4 -5l22 -24l4 -7l6 -5l17 -25l13 -26l87 -128l11 -28l20 -23l19 -26l3 -10l6 -8l6 -8l5 -4zM359 144l22 16h3h-1l-18 26l-18 25l-23 25l-16 28l-14 27l-16 28l-16 24l-9 -10l-19 -15l-15 -21l-20 -16l-7 -23l-13 -23
l1 -26v-26l19 -20l14 -19l21 -14l23 -10l26 -1l25 3l27 9z" />
    <glyph glyph-name="quotesingle" unicode="'" horiz-adv-x="147" 
d="M91 503h-39l-40 1v46v47l-2 48v47l2 47l40 2l39 2l44 2l-4 -49l2 -49l-2 -50l2 -47v-47h-42z" />
    <glyph glyph-name="parenleft" unicode="(" horiz-adv-x="291" 
d="M248 870v-43v-33v-43h-33h-32l-22 -22v-33v-43v-43v-33l12 -44l-12 -42v-33v-43v-43v-33l12 -44l-12 -43v-32l12 -43l-12 -43l12 -33v-44v-33l10 -21l44 -12l44 12l10 -43l-10 -44v-33h-44h-44l-43 -10h-43l-33 22l-21 32l-33 22v42l10 33l-10 44v43v33v43v44v43v32v43
l10 43l-10 33v44l10 44l-10 32l10 43l-10 44v44l10 32l-10 43v43l33 22l21 32l33 22h43h33h42h33v0z" />
    <glyph glyph-name="parenright" unicode=")" horiz-adv-x="286" 
d="M34 752v34v48v33h33h47h34h35l36 -23l22 -34l35 -24v-34v-46v-35v-46v-35l-11 -46l11 -36l-11 -45l11 -34v-49v-33v-45v-36v-35v-46v-35v-46v-35v-45v-36l-11 -45l-24 -24l-22 -22l-24 -24l-47 11l-45 -11h-48h-45v46l11 35v46h34l48 -12l11 36l12 34l-12 35v46l12 35
l-12 46v34l12 48v33v35l-12 46v35l12 46l-12 35l12 36v45l-12 33v49l12 34l-23 23l-36 -11l-33 11v0z" />
    <glyph glyph-name="asterisk" unicode="*" horiz-adv-x="430" 
d="M420 364h-54l-41 -10l23 -42l41 -32l-23 -31l-32 -21l-40 32l-32 32l-9 -43v-52h-33h-43v41l-10 54l-33 -32l-41 -32l-20 21l-32 31l32 32l32 42h-43h-52v43v32l52 11h43l-32 41l-32 40l32 23l20 22l41 -31l33 -33l10 51v54h33h32l11 -54v-51l41 33l40 31l23 -22l22 -23
l-22 -40l-42 -41h51h54v-43v-33v0z" />
    <glyph glyph-name="plus" unicode="+" horiz-adv-x="458" 
d="M448 296l-64 -8l-63 8v-71v-64h-57h-63h-56v64v71h-64l-71 -8l8 64v56v64h63h64v56v63h56l63 8h57v-64v-63l63 -8h56l8 -56v-56v-56v0z" />
    <glyph glyph-name="comma" unicode="," horiz-adv-x="162" 
d="M114 -102l-39 4l1 30l4 35v31l-31 7l-30 8l-9 20l6 50l18 13l29 -3l35 -1v0l54 -6l-1 -35l-4 -30l1 -35l-1 -35l1 -31zM139 135l18 -23v-42l-6 -48l-17 -23l-35 6l-37 5h-34l-18 30v36v29l23 30h35h37h34z" />
    <glyph glyph-name="hyphen" unicode="-" horiz-adv-x="524" 
d="M55 274l-5 50l5 37v28h58l32 5l56 -5l50 7l37 -7h30l57 -8l59 8h30v-28l10 -20l-10 -67h-30h-57l-42 5l-47 -5h-57h-30l-64 3l-52 -3h-30v0z" />
    <glyph glyph-name="period" unicode="." horiz-adv-x="167" 
d="M139 135l18 -23v-42l-6 -48l-17 -23l-35 6l-37 5h-34l-18 30v36v29l23 30h35h37h34v0z" />
    <glyph glyph-name="slash" unicode="/" horiz-adv-x="290" 
d="M100 6l-28 7l-35 7l-27 6v35l14 28v28l7 27l6 35l7 28l7 27l8 34v29l13 27l6 34v29l15 27v34l7 28l7 28l7 28l7 34l6 28l7 28v34l15 28v28l6 27l28 7l34 -7h28l35 -7l-7 -27v-34l-14 -29l-7 -35l-7 -27v-35l-6 -28l-8 -27l-7 -35l-7 -27l-6 -35l-7 -28v-34l-7 -28l-7 -28
l-7 -34v-28l-7 -34l-14 -28v-34l-13 -28v-28l-15 -35v-27z" />
    <glyph glyph-name="zero" unicode="0" horiz-adv-x="596" 
d="M57 646l23 30l30 23l30 22l30 23l38 7l53 -7l45 7h45l53 -7l30 -23l37 -37l38 -30l30 -31v-37v-45v-38l7 -45l-7 -38v-45v-37v-45v-46l7 -37v-45l-7 -38v-46l-23 -22l-30 -23l-30 -30h-37h-31h-45h-37h-45h-38h-46l-37 -7l-30 30l-30 30l-23 22l-7 46l7 38l-7 45l7 45
l-7 45l7 45l-7 38v45l7 45v45l-7 45v38zM336 172l22 15v45v45l-7 38v38l7 45v37l-7 46v37v38l-23 22h-37l-30 8l-23 -23l-7 -45l15 -37l-8 -46v-37v-45l8 -38l-8 -38v-45v-37l23 -23h37h38z" />
    <glyph glyph-name="one" unicode="1" horiz-adv-x="496" 
d="M420 -1h-39h-45h-37h-45h-45l11 45l-5 39l5 45v39v45v39l6 45v38v45l8 39l-8 45l14 39l-14 45l8 37l6 45h-45l-45 -6l-45 6l-45 -6v45v39l6 40h45h45h39h45v5l51 -5h45h53v-45v-45l12 -40v-45v-45v-45v-45l5 -39v-45v-45v-45l8 -45v-45l6 -39l-6 -45l12 -45l-6 -45v0z
" />
    <glyph glyph-name="two" unicode="2" horiz-adv-x="552" 
d="M374 334l-23 -39l-11 -41l-12 -46l-18 -41l-11 -39h41l39 -7h46h41l46 7l-7 -46v-41l-4 -34h-41l-46 -7h-40l-46 7l-41 -7h-45l-41 7h-46l-40 -7l-23 34l-23 30l-29 29l23 35l23 34l18 35l23 34l16 34l18 35l17 41l29 34l17 40l29 41l16 39l25 41l23 41l16 39h7h-46
l-41 -5l-41 5l-46 -5h-39h-46l5 46v46v46h46l41 -12l39 5h41h41h39h41h40l29 -23l23 -22l23 -23l-7 -46l-16 -46l-23 -40l-11 -47l-23 -39l-12 -41l-11 -40l-12 -41v0z" />
    <glyph glyph-name="three" unicode="3" horiz-adv-x="567" 
d="M70 -1v112h112h124l11 181h-101h-101v101l11 90h101h102v146l-113 -12h-124l12 135h112h113h112l56 -102v-123v-112v-113v-112v-112l-90 -79h-112h-113h-112v0z" />
    <glyph glyph-name="four" unicode="4" horiz-adv-x="596" 
d="M241 285l-34 7l-43 -7h-42h-33l-36 7v34v41l8 44l-8 41l8 41l7 41v41v44v41l6 41v42h48h49h49l8 -42v-48l5 -42v-49v-41v-41h57l49 -8v49l7 41v49v42v48v49l49 -7h47h48v-42l8 -41l-8 -49l8 -41v-44v-46l8 -44v-41l5 -41v-49v-41l8 -41v-44v-49v-41l7 -41v-41l-41 -8h-43
h-42h-41h-41l8 41v44v41v41l5 41v36v42l8 7l-57 -7h-41v0z" />
    <glyph glyph-name="five" unicode="5" horiz-adv-x="542" 
d="M472 319l-6 -49l6 -48l-6 -48l6 -48l-6 -43l-24 -30l-30 -24l-31 -30l-35 6h-37l-42 -6h-42h-42h-42h-42h-49v48v43l6 41v37l43 6h35h43h36h62l18 18l6 42v42l-6 43h-42l-44 1l-60 -1h-22l-44 24l-18 18v47v43l6 42l-6 48v42v48v43v42v48l41 -7l43 7h42l42 6l42 -6h43h41
l48 -7l37 7l6 -48v-42l6 -49l-49 6l-48 7l-48 -13l-42 6h-48v-41v-37l6 -36h36h42h43h35l20 -15l24 -27l19 -28l29 -56l2 -35l-3 -37v0z" />
    <glyph glyph-name="six" unicode="6" horiz-adv-x="542" 
d="M422 512l25 -25l31 -20l-6 -41l10 -41l-4 -41v-41l4 -40v-41l5 -40v-42v-40l5 -41l-30 -25l-31 -26l-40 -5l-41 5l-40 -5h-42l-41 5l-4 -5l-46 5l-46 -5l-16 36l-25 31l-20 30l5 40l5 46l-5 46l5 41v46l5 40l5 47l-5 40v46l5 40v47l5 40l5 47l-5 40l5 45l51 -4l46 4
l46 -4l5 -36v-41v-40l5 -42v-40l5 -36l41 -5h40h41zM268 364v-45v-46v-46l6 -45v-47l15 -15h35h36l15 15v47v45l-5 46v46l-10 45l-10 16h-36h-35z" />
    <glyph glyph-name="seven" unicode="7" horiz-adv-x="535" 
d="M465 285h-32h-37l5 -43l-5 -40l9 -38l5 -42v-41v-37v-41h-43l-41 -5h-40h-43h-46l5 46l4 37l-4 41l4 42l5 38l-5 40l5 43l-51 -5l-55 5l5 36v42l4 37l5 36l4 33l47 9l50 -5v42l5 37l-5 36v37l-41 -4l-42 9h-46l-41 -5l4 42v36v43l46 3l42 -9l41 6h46v0h46h51h47l9 -47
l-4 -42l4 -46v-46l5 -46v-46l37 9l32 -9v-37l5 -36v-42v-37l4 -36v0z" />
    <glyph glyph-name="eight" unicode="8" 
d="M538 305l-6 -41l6 -41v-40l-6 -41l6 -64l-29 -23l-29 -24l-23 -29l-41 6l-35 -6h-41h-40h-41h-41h-40h-41l-29 24l-29 29l-29 23v40l6 41l-6 47v41v41l6 40l29 23l29 29l-35 23l-29 29l6 41l-6 41v40v48l6 40l23 23l29 29l29 18l29 29h41h46h47l47 -6h46l35 -29l34 -29
l36 -35l34 -29v-35l6 -41l-6 -35v-34l6 -36l-40 -34l-29 -35l29 -29zM259 613l-23 -18v-46v-47l23 -23h35h35l23 23l-5 47l5 46l-29 18h-35h-29zM329 113l23 23v41v41v46l-29 17l-35 7l-29 -7l-23 -17v-41v-46v-41l29 -18l29 -5h35z" />
    <glyph glyph-name="nine" unicode="9" horiz-adv-x="548" 
d="M107 289l-32 19l-19 25l-6 44l6 44v50l-6 45l6 43v44l-6 51l6 44l26 25l31 19l44 6h38l43 -6l38 6h45h6h43h44l19 -31l19 -32l26 -31v-44v-45v-44v-44l-6 -44l6 -44v-44v-45v-36v-44l-6 -45l6 -44v-43l-6 -44l6 -45h-45h-44h-43h-44v45v38v44v36v45v38v44h-38h-44l-38 6
l-38 -6h-37zM282 433v44v44l-6 44l6 45l-18 12l-44 7l-38 -7l-19 -12v-45v-44v-44v-44l19 -12l44 -7h44z" />
    <glyph glyph-name="colon" unicode=":" horiz-adv-x="167" 
d="M157 276v-42l-6 -48l-17 -23l-35 6l-37 5h-34l-18 30v36v29l23 30h35h37h34zM157 499v-42l-6 -48l-17 -23l-35 6l-37 5h-34l-18 30v36v29l23 30h35h37h34z" />
    <glyph glyph-name="semicolon" unicode=";" horiz-adv-x="171" 
d="M158 499v-42l-6 -48l-17 -23l-35 6l-37 5h-34l-18 30v36v29l23 30h35h37h34zM132 100h-38v30l-8 39v30l-29 8h-39l-8 21v54l16 15h31l37 8v0h53l8 -37v-40l6 -29v-38v-31z" />
    <glyph glyph-name="less" unicode="&#x3c;" horiz-adv-x="340" 
d="M312 69l-47 38l-59 34l-46 45l-52 27l-45 46l-53 33v77v79l53 32l52 40l45 39l46 32l45 47l53 32l8 -73l5 -70v-73l-52 -32l-59 -27l-52 -26l59 -25l59 -26l58 -26l-6 -79l-7 -72l-5 -72v0z" />
    <glyph glyph-name="equal" unicode="=" horiz-adv-x="318" 
d="M10 418v37v42l8 37h37h34h37h36h37h30h34h45v-37v-42v-37h-37h-36h-36h-37h-36h-43h-36h-37zM10 200v44v37l8 42h37h34h37h36h37h30l34 -8l45 8v-42v-37v-44h-37h-36h-36h-37h-36h-43h-36h-37z" />
    <glyph glyph-name="greater" unicode="&#x3e;" horiz-adv-x="340" 
d="M28 669l47 -38l59 -34l46 -45l52 -27l45 -46l53 -33v-77v-79l-53 -32l-52 -40l-45 -39l-46 -32l-45 -47l-53 -32l-8 73l-5 70v73l52 32l59 27l52 26l-59 25l-59 26l-58 26l6 79l7 72z" />
    <glyph glyph-name="question" unicode="?" horiz-adv-x="486" 
d="M70 577v38v50v37v48h50h60l50 -10l49 10l50 -10h62l36 -24l39 -39v-50v-50v-47l-14 -49v-50v-38l-12 -49v-50l-38 -25l-24 -36l-36 -25l-50 -24l-38 -36l-36 -25l-25 -25v-51v-47h-60l-63 10v50v50v49v49l36 36l39 25l48 25l37 25l37 25v61v51v50l12 48l-25 23h-49h-47
h-38h-50zM193 -87v-37l12 -38l-25 -12h-35h-50l-13 12v38v50l24 10h64z" />
    <glyph glyph-name="at" unicode="@" horiz-adv-x="1026" 
d="M944 245v-60v-44v-55h-69h-81l-68 -13v13h-59h-57l-11 44v55h-93v-67l-11 -57v-69h-58h-56h-59l12 69v69v68v59l11 69v69l13 68l-13 70l13 57v68h68h69h67h72h57l11 -68v-68v-71v-68l12 -69v-69h57v69l10 69v68v71l-10 68v68l10 69h-67l-67 -9l-72 9h-69l-69 -9l-68 9
l-71 -9l-56 9l-12 -69l12 -68v-68v-71l-12 -56v-69l12 -69l-12 -72v-67l12 -57l-12 -69l12 -70l56 13h60l56 -13h60h67h58v-56v-45v-59h-58h-67l-72 -12l-68 12l-69 -12l-57 12h-69h-69v79v0v69v72v56v68v59v68v58l10 67v72l-10 57v68l10 59l-10 69v69l10 55l-10 71h10v12
h69h59h69h68h69h60h67h69h57h70h69h69h56v0h13v-92l12 -71h-12v-69v-68v-68v-71l-13 -68l13 -69l-13 -69h13zM495 349h92v69l-12 56v68l-69 13v-81l-11 -56v-69z" />
    <glyph glyph-name="A" unicode="A" horiz-adv-x="584" 
d="M483 751v-48v-44v-42l6 -44l6 -44v-42v-44v-49l7 -44v-41l6 -44v-44l6 -42l-6 -44v-42l6 -51v-37l-44 -5l-48 5l-44 -5v42v44v42l-6 44v42h-55h-50v-42l-6 -44v-42l-7 -44l7 -42l-48 5l-51 -5l-42 5l-50 -5v49l6 44l7 42v44v42v44v44l6 41l6 51l-6 42l6 44v42v44l6 44v42
l7 44l-7 42l42 6h44l44 -6h42l44 6h36l44 -6l44 6h42zM254 394l57 7l48 -7v49v44l-6 42v50l-6 42l-36 6l-44 -6v-42v-50l-6 -42v-44z" />
    <glyph glyph-name="B" unicode="B" horiz-adv-x="589" 
d="M529 362l8 -37l5 -43v-38v-44l3 -39l4 -39l5 -42l-31 -30l-35 -21l-31 -27h-39h-39l-40 -9l-39 4l-40 5v0h-49h-44h-49l-48 -5v49l5 44v44l3 44v44l5 44l-5 44l5 45l4 43v44v45l6 44l4 43l-4 43l8 45v45v43h48l49 -4l43 9l9 -5h36h40h40l39 5h39l32 -25l26 -27l4 -45
l4 -48l8 -46l5 -42v-45l6 -43l-46 -40zM268 624l-18 -11l4 -43v-43l10 -45v-18l17 -8l39 -9h41l18 17l-9 47v49l-4 50l-14 18h-45zM356 111l23 11l-5 51l-4 45v48l-9 44l-14 19l-40 -4l-39 8l-18 -18v-44l10 -44v-45l4 -56l13 -19h39z" />
    <glyph glyph-name="C" unicode="C" horiz-adv-x="457" 
d="M95 750h40h41h40l39 5l40 -10h42l45 5v-45v-40l5 -41l-45 -5l-52 5l-45 -5v-41l5 -40v-39l5 -45v-41l5 -46l5 -40l-5 -40l10 -46v-40l10 -44l-5 -46h46l46 5h45l5 -36l-5 -40l10 -40h-45l-35 5h-41h-41h-39l-40 5l-41 -10l-40 30l-30 35l5 46l-5 41l5 44v40l5 46l5 40
l-10 45l10 41l-5 46l10 40l-5 39l5 45v41v46v40l5 45v0z" />
    <glyph glyph-name="D" unicode="D" horiz-adv-x="572" 
d="M70 7v42v41v42l7 49v41v42v49l7 41l-7 42l14 42v49v41v42v49v41v42l14 49l34 -6h43l41 6h42l35 -6h41l42 6l34 -28l29 -27l34 -29v-41l7 -42v-42v-48l8 -42v-42l6 -41l-6 -42l6 -42l7 -41v-42l7 -43l7 -41v-49l-35 -20l-21 -22l-27 -27h-42h-42h-41l-42 7l-43 -7l-41 7
l-42 -7h-41zM244 633l7 -49v-42l7 -41v-49l7 -42v-41v-42l7 -42v-41v-42v-43l6 -47h36h34l28 27l-7 42v41l7 42v42l-7 41l7 42l-7 49v41l7 42l-7 43l7 41l-28 21h-48z" />
    <glyph glyph-name="E" unicode="E" horiz-adv-x="532" 
d="M391 -4l-109 4l-108 -4l-104 4l2 74l2 52l-7 31l10 32v32l-3 37l6 40l7 77l-2 88l6 37l-7 24l12 26l-4 38l9 29l-7 30l7 35l-5 16l6 30l1 22l21 2l50 -2h50l48 2l27 -2l41 5l33 -4l33 1l56 -2l1 -16l-1 -20l3 -18l1 -13l-1 -11v-25l2 -14l-1 -16l-13 2l-24 -2l-41 3
l-39 1l-54 -5l-46 4l-16 -3v-4l-1 -6l2 -8v-8l5 -10l-6 -12l7 -26l-3 -15l3 -21v-12l1 -5v-7h5l4 -1l5 3l13 1l12 -1l16 -3l13 2l17 -1l16 1l8 -1l16 -1l13 1l16 1l14 -1h14l8 2l10 -2v-7v-22l-2 -9l-2 -20l1 -15l5 -15l-1 -16l3 -13l-3 -28l2 -19l-1 -21l2 -11l-12 -2
l-23 2l-24 -1h-20l-18 -1l-14 2l-26 -1l-16 2l-16 -1l-17 1l-14 -1v-13l6 -17v-8l-2 -9l2 -12l-1 -9l3 -17l-1 -23l2 -13l2 -19v-11l3 -21l-1 -6l10 1l10 -1l16 1l9 -1l13 1l8 -1l14 -2l12 6l11 -4l16 3l7 -1l13 -1l21 -1l15 4l17 1l12 -2h13l13 1h7l-2 -24l3 -16l-2 -12
l3 -43l-2 -18z" />
    <glyph glyph-name="F" unicode="F" horiz-adv-x="503" 
d="M297 0l-113 -6l-114 6v124l11 126v125l12 125l11 130v121l120 5l119 -5l119 5l6 -126l-102 -5l-103 5l12 -141h170l6 -97v-97l-171 6l12 -153l5 -148v0z" />
    <glyph glyph-name="G" unicode="G" horiz-adv-x="573" 
d="M436 5l-39 5h-49h-41l-40 -5l-41 5l-41 -10l-40 5l-44 22l-31 38v41l5 46v39l5 41l4 46v42l5 46l-5 41v46l5 41v41l5 45v43l-5 46l5 40l3 41l43 5h41h41l39 -5h41h40l40 10l41 -5l36 -5l5 -35l-5 -46v-41h-41l-46 2l-40 -2l-41 -5l-46 5l1 -42v-46l10 -41v-41l5 -46
l6 -41l5 -42v-46l5 -41v-40l9 -46l5 -36h35l41 -9v45v35v41l5 40h-46v40l6 41l5 36l40 5h41h46l41 -5v-41v-46l5 -40l3 -46l5 -46l5 -46v-42l-27 -26l-32 -25l-28 -26v0z" />
    <glyph glyph-name="H" unicode="H" horiz-adv-x="692" 
d="M622 6h-39l-45 -6h-39l-40 6l-45 -6l5 45v39v45v40v40l6 39v39l-56 6h-62l-39 -6l5 -39v-39l6 -40v-45v-40v-39l5 -45l-45 6h-40l-45 -6l-39 6l-45 -6v51l6 39v45l5 46v45v45l6 39v45l5 45l-5 46l5 45v39v45v45l6 45l6 46l-6 39h51l50 6l46 -6l6 -45v-46l5 -45v-45l6 -45
l-6 -45l45 -5l45 11h45l45 -6v45l6 45l-6 45l6 45v46v51l51 -6h45l51 6v-45l5 -46v-45v-45v-45l6 -39v-45v-46l6 -45l5 -45v-39v-45l11 -45l-5 -46v-45l5 -39v-45v0z" />
    <glyph glyph-name="I" unicode="I" horiz-adv-x="354" 
d="M284 0h-44l-44 -6l-38 6h-43h-45v44l6 44v45v44l7 44v44v44v44v44l6 44v44v44v44l6 44v45l7 43v45l43 -7l51 7h50v-45v-43l13 -45l-6 -44l6 -44v-44l6 -44l-6 -44l6 -44l7 -44v-44l6 -44v-44v-44v-45v-44l6 -44v0z" />
    <glyph glyph-name="J" unicode="J" horiz-adv-x="514" 
d="M245 105v42l5 47v42v42l5 43v41l-5 47l5 42l5 43v41v42l6 47l-53 -5l-52 5l-6 43l11 41v42h37h42h41h37h43l41 5l-5 -47l10 -46v-43l6 -47l5 -42l-5 -42l5 -47l-5 -42l10 -48l-5 -42l5 -46l6 -42v-48l5 -42l-5 -46l10 -43l-5 -42h-43l-42 -5h-46l-48 5l-42 -5h-47l-41 5
h-48h-42v53l5 52h42h43h36l42 5l37 -5v0z" />
    <glyph glyph-name="K" unicode="K" horiz-adv-x="679" 
d="M467 419l24 -41l12 -41l17 -42l24 -36l18 -41l17 -41l18 -42l18 -35l24 -41l-36 -31l-35 -29h-36h-36l-35 6l-17 41l-6 42l-18 41l-7 48l-17 41l-12 48l-12 35l-24 -24l-23 -35l-24 -30l-23 -29v-48v-41l5 -48v-47h-47l-41 6l-42 -6h-41h-42v47l6 42l-6 47l12 42l-6 41
v48l6 41v47v42l6 41v47v42l6 47v42l6 41v48v47l48 -5h47l53 5v-47v-41v-42l6 -48l6 -41v-41v-42v-47l36 35l29 42l36 29l29 36v41v42l6 41l-6 36l6 42l53 -7l47 7h48v-42l-6 -41v-42l-6 -41l-5 -48v-41l-36 -30l-24 -42v0z" />
    <glyph glyph-name="L" unicode="L" horiz-adv-x="557" 
d="M107 750l40 -4l43 4h44l2 -43v-43l11 -45l3 -43l-3 -46l12 -44v-43l8 -43l-4 -45v-43l6 -42v-70l11 -40l44 2l46 -9l43 7h44h47v-24v-46l-4 -48l7 -42l-43 2l-45 -6l-42 6l-47 -6h-44h-43l-42 4l-44 -4h-44l-43 4l4 42l2 44l-2 47l2 43v43l4 47v44l10 43l-3 44l3 46l3 43
l-3 44l3 42l4 47l2 45l8 43v43v0z" />
    <glyph glyph-name="M" unicode="M" horiz-adv-x="798" 
d="M723 9l-36 -4l-42 -5l-41 5l-47 -5l-41 5v45l5 46v46v43v45l4 46l5 46v46l-88 -78h-45v0v0h-46l-87 78v-41l4 -37v-41v-42l9 -41l-4 -42l9 -37v-41l5 -46h-46l-43 5h-41l-46 -5l-36 9v37l-5 46l9 41v47l5 46l-5 41v46l9 41l-4 46l4 41l5 46v43v45v42l9 46l-4 41v46l50 4
l50 -9l47 5l19 -41l23 -37l18 -37l14 -41l23 -37l13 -41l21 -35l21 -40l23 37l13 42l19 37l23 37l18 37l14 41l18 41l19 41h51l50 -9l46 5v-46l10 -41l-5 -46l5 -42v-45l4 -47l5 -42v-45l4 -42v-46v-41l5 -46v-41l4 -47l5 -41v-46z" />
    <glyph glyph-name="N" unicode="N" horiz-adv-x="667" 
d="M617 -5l-45 6h-40h-40h-44l-24 40l-11 39l-17 40l-22 39l-18 40l-17 40l-16 40l-17 40l-18 39l-22 40l-17 39l-17 40v-40v-44v-41v-45l6 -45v-46l5 -39v-46l6 -45v-40v-45l-40 -6h-40l-40 6h-39h-40l6 45v40v45v46v45l5 40v45l6 45v46v45l5 40l6 46l-6 45l6 45v40l6 45
v46h45h52l44 6h52l17 -46l17 -39l17 -35l17 -40l17 -39l17 -40l17 -40l17 -40l6 46l-6 46l6 45v40l5 45v45v46h40l40 6h40l28 -5l5 -1l7 -46l5 -40v-45l6 -45v-45v-46v-40v-45v-46l6 -45l5 -39l6 -46l-6 -45l6 -46l-6 -45l6 -40l5 -51v0z" />
    <glyph glyph-name="O" unicode="O" 
d="M538 73l-40 -29l-38 -39l-40 5l-43 -5h-39h-39l-44 -5l-40 5l-38 -5l-39 5l-29 24l-30 30l-29 19l5 44v39v44v44l5 39v44l4 43l5 40v44l-5 43l5 40l5 43v44v40l35 28l29 29l29 25h48h50l44 -4l48 4l49 5l30 -30l29 -29l33 -28v-40l6 -44v-43l10 -40v-43v-44l5 -45l4 -38
l5 -44l-5 -45l5 -43l5 -39l5 -44v-44zM347 157l25 19v49v43l-5 69l5 49l5 43l-10 44v44l5 49v44l-30 19l-58 5l-24 -24l-5 -49l5 -44l-5 -44v-44v-49v-43l5 -69l-10 -43v-49l29 -19h35h33z" />
    <glyph glyph-name="P" unicode="P" horiz-adv-x="556" 
d="M531 332l-24 -25l-25 -24h-43h-43h-43l-37 6l-43 -6v-38v-42l6 -37v-43v-43l6 -37v-37l-42 -6l-44 6l-43 -6h-43h-36v43l-7 49l13 43l-6 44l6 42v43l6 43v43v43v44l6 49l-6 43l12 42v43v43v44v43l49 6l49 -6h44h6h43l36 6l37 -6h43h37l31 -25l25 -24l6 -43v-38l6 -43v-36
l5 -43v-44v-36l7 -43zM359 399l18 19l-6 43v49v49l-6 43l-18 19l-37 -7l-37 7l-19 -13l6 -49v-43v-43v-55l19 -19h43h37z" />
    <glyph glyph-name="Q" unicode="Q" 
d="M538 75l-45 -32l-38 -37l-40 5l-42 -5h-35h-41l-42 -4l-41 4l-41 -4h-40l-28 27l-23 27l-32 24l5 40v40l-5 43v45l8 40v42l5 41l6 45v40l-6 43l6 40l4 45v42v41l32 27l31 27l32 27h46l46 -4h46l48 4l47 4l31 -31l32 -27l33 -27v-41l4 -46v-41l9 -40v-43v-45l4 -40l5 -41
l6 -46l-6 -41l6 -40l8 -43v-45zM341 180l28 23v45v40l-4 46l4 46l4 44l-8 47v46l4 46v45l-28 18l-59 4l-27 -22v-45l5 -46l-5 -46l-5 -47l5 -44v-46v-46l-10 -40v-45l28 -23h37h31zM482 -144l-100 -32l-85 8l-83 11l-100 -19l-13 109l104 23l81 -4l83 -10l109 27l4 -113v0z
" />
    <glyph glyph-name="R" unicode="R" horiz-adv-x="624" 
d="M480 297l21 -41l15 -39l22 -39l21 -35l9 -43l26 -41l-39 -25l-30 -31h-37h-34l-39 -4l-13 43l-9 39l-8 45l-9 39l-17 43v39l-17 41l-37 4l-39 -4l5 -41v-39v-43l4 -39l4 -41l-4 -39l9 -43h-48l-39 -4l-45 4l-43 -4l-39 9v38v46l4 47v43v43v46l9 43v43l-4 43l8 45v43v44
v43l5 49v43l4 44l4 38l43 9h50l43 -4h9h39h38h41l39 4l39 -4l30 -22l30 -26v-47v-50l7 -43l4 -43l4 -47l5 -46v-47l4 -43zM262 422l13 -13h39h41l13 13v49l-5 48l-4 43l4 47l-17 20h-41l-39 -5l-17 -15l4 -39v-43v-43z" />
    <glyph glyph-name="S" unicode="S" horiz-adv-x="474" 
d="M190 617h4l21 -38l16 -37l14 -42l20 -37l17 -38l16 -41l26 -38l12 -41l21 -39l20 -37l17 -38l17 -41l21 -38l12 -37l-25 -24l-29 -26l-29 -25l-47 -8l-45 4h-46l-45 -4l-47 8h-45h-46l4 42l4 41v43h46h46l50 -4l-8 41l-17 42l-9 41l-8 42l-17 37l-8 42l-12 37l-12 42
l-9 41l-8 43l-17 37l-13 42l-12 41l29 34l25 33l21 33l45 -4l47 4l46 4l45 -4l46 4h50l-4 -45l4 -47l4 -45l-41 4l-43 -4l-41 4h-42l-41 -4v0z" />
    <glyph glyph-name="T" unicode="T" horiz-adv-x="629" 
d="M597 747l4 -42v-45l8 -45h-45l-45 -5l-46 5l-46 4l-45 -4v-46l4 -41l4 -45v-46l9 -41v-45v-41l8 -45l-4 -45v-46l12 -42l-8 -45l8 -45l4 -41h-45h-45h-45h-45h-46v41v45v45l4 42v46v45l9 41v45l4 45v41l4 46l4 45v41l4 46l-41 4h-42l-41 -4h-37l-41 4v41l4 45v46h45h41
h45l47 -4l41 4l45 -4l45 4h45h41h46l45 -8l46 4h41v0z" />
    <glyph glyph-name="U" unicode="U" horiz-adv-x="608" 
d="M404 747l46 -3l43 6l47 -3v-43l6 -43v-40l-6 -43l6 -44l-3 -40l6 -43l-3 -41v-42l3 -43l3 -41l3 -43v-40l3 -44v-43l-3 -39l-25 -26l-27 -21l-26 -28l-39 3l-40 -6l-41 3h-40h-40h-41h-39h-40l-29 28l-30 18l-28 29v42l3 40l6 44l-3 43l9 40l-6 44l6 40v42l6 41l4 43v43
l-7 41l3 43l7 40l-3 43l6 37l37 6l40 -3l40 -3l41 6v-43l3 -43v-43l3 -43v-44l-3 -43l6 -43v-44l3 -40l-3 -42v-44l6 -43l3 -40l19 -26h33l34 4l26 19l6 43l-3 43v44l3 42l3 43l-3 44l9 40l-6 43l6 44l3 43l-3 43l6 43l-6 43v0z" />
    <glyph glyph-name="V" unicode="V" horiz-adv-x="597" 
d="M358 183l8 19l-4 17l4 18l-4 18l4 17l4 17v19l7 14v36l4 34l-4 36l6 18v18l8 103l7 17l-7 18l3 18l4 14v17l4 18v19l3 17v17l-3 21h21l17 -2h14l22 2l14 -2h18h21h18v-29l-7 -18l-15 -85v-17l4 -18v-19l-10 -17l3 -18l-3 -17v-18l-8 -14l-7 -71l-3 -17v-19l3 -17l-6 -14
v-18v-18l-11 -53v-18l3 -17l-12 -15l4 -22l-21 -123l-7 -18l3 -17l-6 -14h-305l4 25l-7 13v17l-22 117l4 20v17l-6 14v17v18l-4 18l-8 17l3 19l-7 18v17l-4 13l-3 19v17l-3 17v18v36l-21 155l-11 15l-4 18l8 17l-8 19l-7 35v17l18 4l18 -6l13 2l20 -2h17h17h14h18h18h13
l23 2v-17v-17l3 -18v-19l7 -70l4 -18l4 -13v-20l3 -17v-17l6 -18l-6 -18l3 -17l7 -51l4 -17l-4 -17l8 -19l-4 -17l7 -17l4 -18v-15l2 -17l4 -18l-4 -18l4 -17l4 -18v-17v-8z" />
    <glyph glyph-name="W" unicode="W" horiz-adv-x="767" 
d="M50 752h45h46l42 -8l42 4l45 4l-11 -50l7 -45l-3 -45l-4 -46v-45l-7 -45l4 -46l-4 -46l21 39l24 35l22 35l21 38l24 38l21 36h-3l28 -36l24 -38l14 -38l28 -35l21 -38l25 -36l-4 39l4 42l-7 38l-4 42l4 43l-4 38l-7 41v42v39l42 4h42h41l43 -8l42 4l3 -42l-7 -45l-3 -42
l3 -46v-45l-10 -42l3 -45v-46l-3 -42l3 -45l-7 -42v-46l-3 -45v-42l-4 -45l4 -42l-7 -46l-49 -3h-49l-49 3l-17 39l-21 38l-18 42l-21 35l-18 42l-21 38l-17 39l-21 38l-17 -38l-14 -42l-21 -39l-24 -34l-22 -39l-10 -42l-21 -38l-21 -35l-45 -4l-49 -3l-49 3l-7 46v42
l-7 45l3 46v41v46l-7 42v45v45l-3 43v45l-7 42v45l-4 46l-3 42v45l-7 46v0z" />
    <glyph glyph-name="X" unicode="X" horiz-adv-x="605" 
d="M286 293l-10 -21v-21l-3 -21l-11 -18l-4 -21v-25l-7 -21v-24l4 -22l-4 -25v-20l4 -26l-4 -21l-21 -3h-21h-21l-25 3h-21h-21h-25l-21 4l-25 -7l7 24v26l4 20l7 21l-4 26l7 20l4 25l3 22l4 24v21l11 22l10 17l14 18l7 21l14 18l7 21l15 18l7 21v3l-7 25l-15 21l-3 25
l-10 24l-4 25l-7 21l-7 25l-11 22v24l-10 21l-4 25l-7 21l4 28l-15 22v21h22l24 3l25 -7l21 4l25 3h24l7 -24l-3 -26l11 -20v-25l11 -22l6 -20l-3 -25l7 -22l14 -17l11 -18l3 -21l14 -18l28 4l15 14v21l11 18l9 21l11 18l4 25l7 20v26l10 21l4 20v26l7 21h24h22h25h24l22 3
h24v-24l-11 -26l-3 -20l-7 -25l-3 -25l-7 -21l-4 -24l-11 -22l-6 -25l-4 -24l-3 -22l-8 -24l-14 -25l-7 -25l-14 -21l4 -3l7 -21l17 -18l11 -18l11 -21l6 -18l11 -21l11 -17l10 -22l3 -21l4 -24l-4 -22l8 -25l3 -20l8 -22l3 -25v-24v-22l7 -21h-21h-25l-21 -3l-21 3l-25 4
l-22 -7l-20 3h-25l-22 -3v24v26l4 20l-4 25v22l-3 24l7 21l-4 25l-9 21l-8 18l-3 21l-8 18l-7 17z" />
    <glyph glyph-name="Y" unicode="Y" horiz-adv-x="564" 
d="M327 747l47 -7l37 7l42 -12l41 12l-5 -48v-42l-7 -42l-6 -40l6 -48v-43v-41l-6 -40l6 -44l-6 -40v-43l-12 -41v-47l7 -42l-7 -43v-40l-5 -43l5 -41l-5 -40v-44l-6 -48v-35l-47 -5l-49 5h-41l-48 -5l-48 5l-47 -5h-47v35v41l-13 37h49l46 -7l48 7h42l6 42v40h-43h-35h-41
h-35h-44v43l-5 41v42l-13 37l-5 40v43l-5 40l-7 41v43v41l-6 43l-5 41l-12 41v42l-6 35v42l-12 42v41h48l48 7l41 -12l48 12v-48l11 -42v-42v-40l12 -43l5 -41l8 -42l5 -41v-49l12 -40v-43v-41l13 -42l5 -42v-40h35v40l6 42l-6 42l6 41v43v45l-6 44l6 41v42v41v43l7 40
l-7 42l7 42l-7 48v0z" />
    <glyph glyph-name="Z" unicode="Z" horiz-adv-x="539" 
d="M294 129l38 -6h44h41h43l44 6l-3 -44l-3 -40l3 -44l-46 3l-44 -3l-44 3l-44 3h-43h-44h-44l-40 3l-47 -6l-20 32l-21 32l-29 29l20 35l27 32l14 38l23 32l18 38l15 35l23 32l-50 3v38v38v40v41l47 -6l47 9h43l26 35l24 38l20 41v0h-44l-40 3l-44 -3h-41l-44 3l-43 -3v43
l9 44l2 41l38 3h41l38 3l41 -6l41 3l40 -3l41 3l41 3l29 -24l20 -29l30 -23l-15 -44l-20 -43l-12 -44l-15 -44h30h32l3 -41l-12 -40l3 -38l6 -44l-44 3l-38 3l-38 -3l-14 -44l-18 -41l-17 -40l-15 -44l-9 -41v0z" />
    <glyph glyph-name="bracketleft" unicode="[" horiz-adv-x="309" 
d="M298 874v-34l-12 -44l12 -44h-34h-33l-33 -23l11 -44v-44v-44v-44v-44v-44v-45v-55v-44v-44l10 -44v-45v-43v-45v-44v-45l23 -32h33l44 10v-43l-10 -44v-55v-34l-34 -11l-44 11l-44 -11h-44l-45 11l-32 11l-22 34l-34 21l11 45v44l-11 43l11 45v44v45v43v45l11 44v44v44
v44v45v33v44l12 44l-12 43l12 45l-12 44l12 45v44l33 22l21 33l34 33h44l43 -10h34h45v0z" />
    <glyph glyph-name="backslash" unicode="\" horiz-adv-x="294" 
d="M195 718l27 -6l33 -8l27 -5v-36l-14 -26v-27l-7 -27l-6 -33l-6 -27l-6 -26l-8 -34v-28l-13 -26l-6 -34v-28l-15 -25v-33l-6 -28l-7 -28l-6 -27l-8 -33l-7 -27l-5 -27v-33l-15 -27v-27l-5 -26l-27 -8l-32 8h-27l-33 6l6 26v34l14 29l6 32l7 26v34l6 27l9 27l5 34l7 26
l5 35l7 25v35l7 28l6 27l7 34v25l8 34l14 27v33l10 27v26l15 36v25z" />
    <glyph glyph-name="bracketright" unicode="]" horiz-adv-x="307" 
d="M10 836v39h39h41h48h39l31 -29l30 -30l29 -20v-49l11 -41l-11 -49l11 -39l-11 -40l11 -50v-39v-39v-50v-39l9 -50l-9 -40l9 -40v-48v-41l10 -39l-10 -49l10 -40v-50l-10 -39l10 -50l-30 -20l-29 -28l-30 -21h-40h-40h-49h-39h-40v49v40l-10 50l10 38h29h40l21 31v40v49
v39v50v39l9 49v41v50v39l10 49v40l-10 50v38v50v51l10 39l-30 30l-30 -10h-39l9 39l-9 50v0z" />
    <glyph glyph-name="asciicircum" unicode="^" horiz-adv-x="340" 
d="M10 840l15 15l10 17l15 19l11 18l11 19l19 15l10 17h22l22 -3l23 3h22h22h22l15 -17l10 -19l15 -15l15 -18l11 -19l15 -14l15 -18h-27l-22 -4l-22 -3h-25l-22 -5l-11 22l-18 19l-15 18l-16 -18l-14 -22l-15 -19l-22 5h-22l-25 3h-22z" />
    <glyph glyph-name="underscore" unicode="_" horiz-adv-x="444" 
d="M10 -68l5 37v28h58l32 5l56 -5l50 7l37 -7h30l57 -8l59 8h30v-28l10 -20l-10 -67h-30h-57l-42 5l-47 -5h-57h-30l-64 3l-52 -3h-30z" />
    <glyph glyph-name="grave" unicode="`" horiz-adv-x="382" 
d="M10 898l5 39v42l42 -5l47 5h42h41l48 -5h43l43 5l41 -5l5 -37v-39l5 -42l-47 5l-47 -5h-43h-48h-41l-46 5l-43 -5h-47v42z" />
    <glyph glyph-name="a" unicode="a" horiz-adv-x="584" 
d="M483 751v-48v-44v-42l6 -44l6 -44v-42v-44v-49l7 -44v-41l6 -44v-44l6 -42l-6 -44v-42l6 -51v-37l-44 -5l-48 5l-44 -5v42v44v42l-6 44v42h-55h-50v-42l-6 -44v-42l-7 -44l7 -42l-48 5l-51 -5l-42 5l-50 -5v49l6 44l7 42v44v42v44v44l6 41l6 51l-6 42l6 44v42v44l6 44v42
l7 44l-7 42l42 6h44l44 -6h42l44 6h36l44 -6l44 6h42zM254 394l57 7l48 -7v49v44l-6 42v50l-6 42l-36 6l-44 -6v-42v-50l-6 -42v-44z" />
    <glyph glyph-name="b" unicode="b" horiz-adv-x="589" 
d="M537 325l5 -43v-38v-44l3 -39l4 -39l5 -42l-31 -30l-35 -21l-31 -27h-39h-39l-40 -9l-39 4l-40 5v0h-49h-44h-49l-48 -5v49l5 44v44l3 44v44l5 44l-5 44l5 45l4 43v44v45l6 44l4 43l-4 43l8 45v45v43h48l49 -4l43 9l9 -5h36h40h40l39 5h39l32 -25l26 -27l4 -45l4 -48
l8 -46l5 -42v-45l6 -43l-46 -40l46 -32zM268 624l-18 -11l4 -43v-43l10 -45v-18l17 -8l39 -9h41l18 17l-9 47v49l-4 50l-14 18h-45zM356 111l23 11l-5 51l-4 45v48l-9 44l-14 19l-40 -4l-39 8l-18 -18v-44l10 -44v-45l4 -56l13 -19h39z" />
    <glyph glyph-name="c" unicode="c" horiz-adv-x="457" 
d="M95 750h40h41h40l39 5l40 -10h42l45 5v-45v-40l5 -41l-45 -5l-52 5l-45 -5v-41l5 -40v-39l5 -45v-41l5 -46l5 -40l-5 -40l10 -46v-40l10 -44l-5 -46h46l46 5h45l5 -36l-5 -40l10 -40h-45l-35 5h-41h-41h-39l-40 5l-41 -10l-40 30l-30 35l5 46l-5 41l5 44v40l5 46l5 40
l-10 45l10 41l-5 46l10 40l-5 39l5 45v41v46v40z" />
    <glyph glyph-name="d" unicode="d" horiz-adv-x="572" 
d="M70 49v41v42l7 49v41v42v49l7 41l-7 42l14 42v49v41v42v49v41v42l14 49l34 -6h43l41 6h42l35 -6h41l42 6l34 -28l29 -27l34 -29v-41l7 -42v-42v-48l8 -42v-42l6 -41l-6 -42l6 -42l7 -41v-42l7 -43l7 -41v-49l-35 -20l-21 -22l-27 -27h-42h-42h-41l-42 7l-43 -7l-41 7
l-42 -7h-41l-35 7v42zM244 633l7 -49v-42l7 -41v-49l7 -42v-41v-42l7 -42v-41v-42v-43l6 -47h36h34l28 27l-7 42v41l7 42v42l-7 41l7 42l-7 49v41l7 42l-7 43l7 41l-28 21h-48z" />
    <glyph glyph-name="e" unicode="e" horiz-adv-x="535" 
d="M394 -4l-109 4l-108 -4l-104 4l2 74l2 52l-7 31l10 32v32l-3 37l6 40l7 77l-2 88l6 37l-7 24l12 26l-4 38l9 29l-7 30l7 35l-5 16l6 30l1 22l21 2l50 -2h50l48 2l27 -2l41 5l33 -4l33 1l56 -2l1 -16l-1 -20l3 -18l1 -13l-1 -11v-25l2 -14l-1 -16l-13 2l-24 -2l-41 3
l-39 1l-54 -5l-46 4l-16 -3v-4l-1 -6l2 -8v-8l5 -10l-6 -12l7 -26l-3 -15l3 -21v-12l1 -5v-7h5l4 -1l5 3l13 1l12 -1l16 -3l13 2l17 -1l16 1l8 -1l16 -1l13 1l16 1l14 -1h14l8 2l10 -2v-7v-22l-2 -9l-2 -20l1 -15l5 -15l-1 -16l3 -13l-3 -28l2 -19l-1 -21l2 -11l-12 -2
l-23 2l-24 -1h-20l-18 -1l-14 2l-26 -1l-16 2l-16 -1l-17 1l-14 -1v-13l6 -17v-8l-2 -9l2 -12l-1 -9l3 -17l-1 -23l2 -13l2 -19v-11l3 -21l-1 -6l10 1l10 -1l16 1l9 -1l13 1l8 -1l14 -2l12 6l11 -4l16 3l7 -1l13 -1l21 -1l15 4l17 1l12 -2h13l13 1h7l-2 -24l3 -16l-2 -12
l3 -43l-2 -18z" />
    <glyph glyph-name="f" unicode="f" horiz-adv-x="503" 
d="M184 -6l-114 6v124l11 126v125l12 125l11 130v121l120 5l119 -5l119 5l6 -126l-102 -5l-103 5l12 -141h170l6 -97v-97l-171 6l12 -153l5 -148z" />
    <glyph glyph-name="g" unicode="g" horiz-adv-x="573" 
d="M436 5l-39 5h-49h-41l-40 -5l-41 5l-41 -10l-40 5l-44 22l-31 38v41l5 46v39l5 41l4 46v42l5 46l-5 41v46l5 41v41l5 45v43l-5 46l5 40l3 41l43 5h41h41l39 -5h41h40l40 10l41 -5l36 -5l5 -35l-5 -46v-41h-41l-46 2l-40 -2l-41 -5l-46 5l1 -42v-46l10 -41v-41l5 -46
l6 -41l5 -42v-46l5 -41v-40l9 -46l5 -36h35l41 -9v45v35v41l5 40h-46v40l6 41l5 36l40 5h41h46l41 -5v-41v-46l5 -40l3 -46l5 -46l5 -46v-42l-27 -26l-32 -25z" />
    <glyph glyph-name="h" unicode="h" horiz-adv-x="692" 
d="M583 6l-45 -6h-39l-40 6l-45 -6l5 45v39v45v40v40l6 39v39l-56 6h-62l-39 -6l5 -39v-39l6 -40v-45v-40v-39l5 -45l-45 6h-40l-45 -6l-39 6l-45 -6v51l6 39v45l5 46v45v45l6 39v45l5 45l-5 46l5 45v39v45v45l6 45l6 46l-6 39h51l50 6l46 -6l6 -45v-46l5 -45v-45l6 -45
l-6 -45l45 -5l45 11h45l45 -6v45l6 45l-6 45l6 45v46v51l51 -6h45l51 6v-45l5 -46v-45v-45v-45l6 -39v-45v-46l6 -45l5 -45v-39v-45l11 -45l-5 -46v-45l5 -39v-45h-39z" />
    <glyph glyph-name="i" unicode="i" horiz-adv-x="354" 
d="M284 0h-44l-44 -6l-38 6h-43h-45v44l6 44v45v44l7 44v44v44v44v44l6 44v44v44v44l6 44v45l7 43v45l43 -7l51 7h50v-45v-43l13 -45l-6 -44l6 -44v-44l6 -44l-6 -44l6 -44l7 -44v-44l6 -44v-44v-44v-45v-44z" />
    <glyph glyph-name="j" unicode="j" horiz-adv-x="514" 
d="M245 147l5 47v42v42l5 43v41l-5 47l5 42l5 43v41v42l6 47l-53 -5l-52 5l-6 43l11 41v42h37h42h41h37h43l41 5l-5 -47l10 -46v-43l6 -47l5 -42l-5 -42l5 -47l-5 -42l10 -48l-5 -42l5 -46l6 -42v-48l5 -42l-5 -46l10 -43l-5 -42h-43l-42 -5h-46l-48 5l-42 -5h-47l-41 5h-48
h-42v53l5 52h42h43h36l42 5l37 -5v42z" />
    <glyph glyph-name="k" unicode="k" horiz-adv-x="679" 
d="M491 378l12 -41l17 -42l24 -36l18 -41l17 -41l18 -42l18 -35l24 -41l-36 -31l-35 -29h-36h-36l-35 6l-17 41l-6 42l-18 41l-7 48l-17 41l-12 48l-12 35l-24 -24l-23 -35l-24 -30l-23 -29v-48v-41l5 -48v-47h-47l-41 6l-42 -6h-41h-42v47l6 42l-6 47l12 42l-6 41v48l6 41
v47v42l6 41v47v42l6 47v42l6 41v48v47l48 -5h47l53 5v-47v-41v-42l6 -48l6 -41v-41v-42v-47l36 35l29 42l36 29l29 36v41v42l6 41l-6 36l6 42l53 -7l47 7h48v-42l-6 -41v-42l-6 -41l-5 -48v-41l-36 -30l-24 -42z" />
    <glyph glyph-name="l" unicode="l" horiz-adv-x="557" 
d="M147 746l43 4h44l2 -43v-43l11 -45l3 -43l-3 -46l12 -44v-43l8 -43l-4 -45v-43l6 -42v-70l11 -40l44 2l46 -9l43 7h44h47v-24v-46l-4 -48l7 -42l-43 2l-45 -6l-42 6l-47 -6h-44h-43l-42 4l-44 -4h-44l-43 4l4 42l2 44l-2 47l2 43v43l4 47v44l10 43l-3 44l3 46l3 43l-3 44
l3 42l4 47l2 45l8 43v43z" />
    <glyph glyph-name="m" unicode="m" horiz-adv-x="798" 
d="M687 5l-42 -5l-41 5l-47 -5l-41 5v45l5 46v46v43v45l4 46l5 46v46l-88 -78h-45v0v0h-46l-87 78v-41l4 -37v-41v-42l9 -41l-4 -42l9 -37v-41l5 -46h-46l-43 5h-41l-46 -5l-36 9v37l-5 46l9 41v47l5 46l-5 41v46l9 41l-4 46l4 41l5 46v43v45v42l9 46l-4 41v46l50 4l50 -9
l47 5l19 -41l23 -37l18 -37l14 -41l23 -37l13 -41l21 -35l21 -40l23 37l13 42l19 37l23 37l18 37l14 41l18 41l19 41h51l50 -9l46 5v-46l10 -41l-5 -46l5 -42v-45l4 -47l5 -42v-45l4 -42v-46v-41l5 -46v-41l4 -47l5 -41v-46l-5 -37z" />
    <glyph glyph-name="n" unicode="n" horiz-adv-x="667" 
d="M617 -5l-45 6h-40h-40h-44l-24 40l-11 39l-17 40l-22 39l-18 40l-17 40l-16 40l-17 40l-18 39l-22 40l-17 39l-17 40v-40v-44v-41v-45l6 -45v-46l5 -39v-46l6 -45v-40v-45l-40 -6h-40l-40 6h-39h-40l6 45v40v45v46v45l5 40v45l6 45v46v45l5 40l6 46l-6 45l6 45v40l6 45
v46h45h52l44 6h52l17 -46l17 -39l17 -35l17 -40l17 -39l17 -40l17 -40l17 -40l6 46l-6 46l6 45v40l5 45v45v46h40l40 6h40l28 -5l5 -1l7 -46l5 -40v-45l6 -45v-45v-46v-40v-45v-46l6 -45l5 -39l6 -46l-6 -45l6 -46l-6 -45l6 -40z" />
    <glyph glyph-name="o" unicode="o" 
d="M498 44l-38 -39l-40 5l-43 -5h-39h-39l-44 -5l-40 5l-38 -5l-39 5l-29 24l-30 30l-29 19l5 44v39v44v44l5 39v44l4 43l5 40v44l-5 43l5 40l5 43v44v40l35 28l29 29l29 25h48h50l44 -4l48 4l49 5l30 -30l29 -29l33 -28v-40l6 -44v-43l10 -40v-43v-44l5 -45l4 -38l5 -44
l-5 -45l5 -43l5 -39l5 -44v-44zM347 157l25 19v49v43l-5 69l5 49l5 43l-10 44v44l5 49v44l-30 19l-58 5l-24 -24l-5 -49l5 -44l-5 -44v-44v-49v-43l5 -69l-10 -43v-49l29 -19h35h33z" />
    <glyph glyph-name="p" unicode="p" horiz-adv-x="556" 
d="M507 307l-25 -24h-43h-43h-43l-37 6l-43 -6v-38v-42l6 -37v-43v-43l6 -37v-37l-42 -6l-44 6l-43 -6h-43h-36v43l-7 49l13 43l-6 44l6 42v43l6 43v43v43v44l6 49l-6 43l12 42v43v43v44v43l49 6l49 -6h44h6h43l36 6l37 -6h43h37l31 -25l25 -24l6 -43v-38l6 -43v-36l5 -43
v-44v-36l7 -43l6 -37zM359 399l18 19l-6 43v49v49l-6 43l-18 19l-37 -7l-37 7l-19 -13l6 -49v-43v-43v-55l19 -19h43h37z" />
    <glyph glyph-name="q" unicode="q" 
d="M493 43l-38 -37l-40 5l-42 -5h-35h-41l-42 -4l-41 4l-41 -4h-40l-28 27l-23 27l-32 24l5 40v40l-5 43v45l8 40v42l5 41l6 45v40l-6 43l6 40l4 45v42v41l32 27l31 27l32 27h46l46 -4h46l48 4l47 4l31 -31l32 -27l33 -27v-41l4 -46v-41l9 -40v-43v-45l4 -40l5 -41l6 -46
l-6 -41l6 -40l8 -43v-45l5 -40zM369 203v45v40l-4 46l4 46l4 44l-8 47v46l4 46v45l-28 18l-59 4l-27 -22v-45l5 -46l-5 -46l-5 -47l5 -44v-46v-46l-10 -40v-45l28 -23h37h31zM482 -144l-100 -32l-85 8l-83 11l-100 -19l-13 109l104 23l81 -4l83 -10l109 27z" />
    <glyph glyph-name="r" unicode="r" horiz-adv-x="624" 
d="M501 256l15 -39l22 -39l21 -35l9 -43l26 -41l-39 -25l-30 -31h-37h-34l-39 -4l-13 43l-9 39l-8 45l-9 39l-17 43v39l-17 41l-37 4l-39 -4l5 -41v-39v-43l4 -39l4 -41l-4 -39l9 -43h-48l-39 -4l-45 4l-43 -4l-39 9v38v46l4 47v43v43v46l9 43v43l-4 43l8 45v43v44v43l5 49
v43l4 44l4 38l43 9h50l43 -4h9h39h38h41l39 4l39 -4l30 -22l30 -26v-47v-50l7 -43l4 -43l4 -47l5 -46v-47l4 -43l-45 -43zM275 409h39h41l13 13v49l-5 48l-4 43l4 47l-17 20h-41l-39 -5l-17 -15l4 -39v-43v-43l9 -62z" />
    <glyph glyph-name="s" unicode="s" horiz-adv-x="474" 
d="M194 617l21 -38l16 -37l14 -42l20 -37l17 -38l16 -41l26 -38l12 -41l21 -39l20 -37l17 -38l17 -41l21 -38l12 -37l-25 -24l-29 -26l-29 -25l-47 -8l-45 4h-46l-45 -4l-47 8h-45h-46l4 42l4 41v43h46h46l50 -4l-8 41l-17 42l-9 41l-8 42l-17 37l-8 42l-12 37l-12 42l-9 41
l-8 43l-17 37l-13 42l-12 41l29 34l25 33l21 33l45 -4l47 4l46 4l45 -4l46 4h50l-4 -45l4 -47l4 -45l-41 4l-43 -4l-41 4h-42l-41 -4h4z" />
    <glyph glyph-name="t" unicode="t" horiz-adv-x="629" 
d="M597 747l4 -42v-45l8 -45h-45l-45 -5l-46 5l-46 4l-45 -4v-46l4 -41l4 -45v-46l9 -41v-45v-41l8 -45l-4 -45v-46l12 -42l-8 -45l8 -45l4 -41h-45h-45h-45h-45h-46v41v45v45l4 42v46v45l9 41v45l4 45v41l4 46l4 45v41l4 46l-41 4h-42l-41 -4h-37l-41 4v41l4 45v46h45h41
h45l47 -4l41 4l45 -4l45 4h45h41h46l45 -8l46 4h41z" />
    <glyph glyph-name="u" unicode="u" horiz-adv-x="608" 
d="M450 744l43 6l47 -3v-43l6 -43v-40l-6 -43l6 -44l-3 -40l6 -43l-3 -41v-42l3 -43l3 -41l3 -43v-40l3 -44v-43l-3 -39l-25 -26l-27 -21l-26 -28l-39 3l-40 -6l-41 3h-40h-40h-41h-39h-40l-29 28l-30 18l-28 29v42l3 40l6 44l-3 43l9 40l-6 44l6 40v42l6 41l4 43v43l-7 41
l3 43l7 40l-3 43l6 37l37 6l40 -3l40 -3l41 6v-43l3 -43v-43l3 -43v-44l-3 -43l6 -43v-44l3 -40l-3 -42v-44l6 -43l3 -40l19 -26h33l34 4l26 19l6 43l-3 43v44l3 42l3 43l-3 44l9 40l-6 43l6 44l3 43l-3 43l6 43l-6 43z" />
    <glyph glyph-name="v" unicode="v" horiz-adv-x="597" 
d="M295 180l63 3v0l8 19l-4 17l4 18l-4 18l4 17l4 17v19l7 14v36l4 34l-4 36l6 18v18l8 103l7 17l-7 18l3 18l4 14v17l4 18v19l3 17v17l-3 21h21l17 -2h14l22 2l14 -2h18h21h18v-29l-7 -18l-15 -85v-17l4 -18v-19l-10 -17l3 -18l-3 -17v-18l-8 -14l-7 -71l-3 -17v-19l3 -17
l-6 -14v-18v-18l-11 -53v-18l3 -17l-12 -15l4 -22l-21 -123l-7 -18l3 -17l-6 -14h-305l4 25l-7 13v17l-22 117l4 20v17l-6 14v17v18l-4 18l-8 17l3 19l-7 18v17l-4 13l-3 19v17l-3 17v18v36l-21 155l-11 15l-4 18l8 17l-8 19l-7 35v17l18 4l18 -6l13 2l20 -2h17h17h14h18h18
h13l23 2v-17v-17l3 -18v-19l7 -70l4 -18l4 -13v-20l3 -17v-17l6 -18l-6 -18l3 -17l7 -51l4 -17l-4 -17l8 -19l-4 -17l7 -17l4 -18v-15l2 -17l4 -18l-4 -18l4 -17l4 -18v-17v-8v0z" />
    <glyph glyph-name="w" unicode="w" horiz-adv-x="767" 
d="M95 752h46l42 -8l42 4l45 4l-11 -50l7 -45l-3 -45l-4 -46v-45l-7 -45l4 -46l-4 -46l21 39l24 35l22 35l21 38l24 38l21 36h-3l28 -36l24 -38l14 -38l28 -35l21 -38l25 -36l-4 39l4 42l-7 38l-4 42l4 43l-4 38l-7 41v42v39l42 4h42h41l43 -8l42 4l3 -42l-7 -45l-3 -42
l3 -46v-45l-10 -42l3 -45v-46l-3 -42l3 -45l-7 -42v-46l-3 -45v-42l-4 -45l4 -42l-7 -46l-49 -3h-49l-49 3l-17 39l-21 38l-18 42l-21 35l-18 42l-21 38l-17 39l-21 38l-17 -38l-14 -42l-21 -39l-24 -34l-22 -39l-10 -42l-21 -38l-21 -35l-45 -4l-49 -3l-49 3l-7 46v42
l-7 45l3 46v41v46l-7 42v45v45l-3 43v45l-7 42v45l-4 46l-3 42v45l-7 46h45z" />
    <glyph glyph-name="x" unicode="x" horiz-adv-x="605" 
d="M318 286l-32 7l-10 -21v-21l-3 -21l-11 -18l-4 -21v-25l-7 -21v-24l4 -22l-4 -25v-20l4 -26l-4 -21l-21 -3h-21h-21l-25 3h-21h-21h-25l-21 4l-25 -7l7 24v26l4 20l7 21l-4 26l7 20l4 25l3 22l4 24v21l11 22l10 17l14 18l7 21l14 18l7 21l15 18l7 21v3l-7 25l-15 21
l-3 25l-10 24l-4 25l-7 21l-7 25l-11 22v24l-10 21l-4 25l-7 21l4 28l-15 22v21h22l24 3l25 -7l21 4l25 3h24l7 -24l-3 -26l11 -20v-25l11 -22l6 -20l-3 -25l7 -22l14 -17l11 -18l3 -21l14 -18l28 4l15 14v21l11 18l9 21l11 18l4 25l7 20v26l10 21l4 20v26l7 21h24h22h25h24
l22 3h24v-24l-11 -26l-3 -20l-7 -25l-3 -25l-7 -21l-4 -24l-11 -22l-6 -25l-4 -24l-3 -22l-8 -24l-14 -25l-7 -25l-14 -21l4 -3l7 -21l17 -18l11 -18l11 -21l6 -18l11 -21l11 -17l10 -22l3 -21l4 -24l-4 -22l8 -25l3 -20l8 -22l3 -25v-24v-22l7 -21h-21h-25l-21 -3l-21 3
l-25 4l-22 -7l-20 3h-25l-22 -3v24v26l4 20l-4 25v22l-3 24l7 21l-4 25l-9 21l-8 18l-3 21l-8 18l-7 17v0z" />
    <glyph glyph-name="y" unicode="y" horiz-adv-x="564" 
d="M374 740l37 7l42 -12l41 12l-5 -48v-42l-7 -42l-6 -40l6 -48v-43v-41l-6 -40l6 -44l-6 -40v-43l-12 -41v-47l7 -42l-7 -43v-40l-5 -43l5 -41l-5 -40v-44l-6 -48v-35l-47 -5l-49 5h-41l-48 -5l-48 5l-47 -5h-47v35v41l-13 37h49l46 -7l48 7h42l6 42v40h-43h-35h-41h-35
h-44v43l-5 41v42l-13 37l-5 40v43l-5 40l-7 41v43v41l-6 43l-5 41l-12 41v42l-6 35v42l-12 42v41h48l48 7l41 -12l48 12v-48l11 -42v-42v-40l12 -43l5 -41l8 -42l5 -41v-49l12 -40v-43v-41l13 -42l5 -42v-40h35v40l6 42l-6 42l6 41v43v45l-6 44l6 41v42v41v43l7 40l-7 42
l7 42l-7 48z" />
    <glyph glyph-name="z" unicode="z" horiz-adv-x="539" 
d="M332 123h44h41h43l44 6l-3 -44l-3 -40l3 -44l-46 3l-44 -3l-44 3l-44 3h-43h-44h-44l-40 3l-47 -6l-20 32l-21 32l-29 29l20 35l27 32l14 38l23 32l18 38l15 35l23 32l-50 3v38v38v40v41l47 -6l47 9h43l26 35l24 38l20 41v0h-44l-40 3l-44 -3h-41l-44 3l-43 -3v43l9 44
l2 41l38 3h41l38 3l41 -6l41 3l40 -3l41 3l41 3l29 -24l20 -29l30 -23l-15 -44l-20 -43l-12 -44l-15 -44h30h32l3 -41l-12 -40l3 -38l6 -44l-44 3l-38 3l-38 -3l-14 -44l-18 -41l-17 -40l-15 -44l-9 -41z" />
    <glyph glyph-name="braceleft" unicode="{" horiz-adv-x="271" 
d="M195 466v-27l-15 -25l-25 -5l3 -32l-3 -32l30 -2l15 -25l-5 -30l5 -29l-5 -32v-30v-29l5 -30l-8 -32l20 -15l25 3l22 -3l2 -27l-2 -29l2 -30h-29l-27 -5l-30 7h-27l-25 15l-19 20l-20 22v32l-7 32l2 32v32l2 32l-2 32l-5 32l-7 28l-27 12l-30 2v32v0l5 30l-5 30l30 2
l22 17l15 25v32l-3 32l5 32v32l-2 32l2 32l5 30l20 22l24 15l18 27l29 -3l30 -2h27l29 2l-2 -29v-30l2 -29l-24 -3l-22 -2l-25 -8l2 -32l8 -29l-3 -32l-2 -30v-29v-30v0z" />
    <glyph glyph-name="bar" unicode="|" horiz-adv-x="176" 
d="M159 -104l-34 -2l-36 2l-38 8h-34l-2 36v39v39l-3 40l3 37l-3 39l-2 37v40l9 38l-9 40v39l11 37l-2 40l-4 37l4 40l-7 38l5 39l2 36l2 40l-6 38l6 40l-2 37l-2 40l2 34l34 10h38l36 12l39 2l-4 -42l2 -37l-2 -37l4 -40l-2 -36l-5 -40l3 -38l4 -37v-37l-2 -41l-5 -36
l5 -39l-7 -37l5 -39l2 -39l-2 -36l2 -37v-40l2 -37l-2 -38l-2 -41l4 -37l-7 -36l3 -40l-3 -35v0z" />
    <glyph glyph-name="braceright" unicode="}" horiz-adv-x="271" 
d="M76 313l15 25l25 5l-3 32l3 32l-30 2l-15 25l5 30l-5 29l5 32v30v29l-5 30l8 32l-20 15l-25 -3l-22 3l-2 27l2 29l-2 30h29l27 5l30 -7h27l25 -15l19 -20l20 -22v-32l7 -32l-2 -32v-32l-2 -32l2 -32l5 -32l7 -28l27 -12l30 -2v-32v0l-5 -30l5 -30l-30 -2l-22 -17l-15 -25
v-32l3 -32l-5 -32v-32l2 -32l-2 -32l-5 -30l-20 -22l-24 -15l-18 -27l-29 3l-30 2h-27l-29 -2l2 29v30l-2 29l24 3l22 2l25 8l-2 32l-8 29l3 32l2 30v29v30v27z" />
    <glyph glyph-name="asciitilde" unicode="~" horiz-adv-x="401" 
d="M391 329l-100 -32l-85 8l-83 11l-100 -19l-13 109l104 23l81 -4l83 -10l109 27z" />
    <glyph glyph-name="exclamdown" unicode="&#xa1;" horiz-adv-x="211" 
d="M191 -173h-36l-28 -6l-36 6h-35h-36v43l5 47v42v46l6 42v47v42v46v47l6 42l-6 46v42l6 47l5 42v46v42v47l42 -5l43 5h34v-47l5 -42l6 -46l-6 -42l6 -47v-42v-46v-42l8 -47v-42l3 -46v-43v-46l8 -46l-8 -42v-47l8 -43v0zM127 749l34 -18l11 -41l-17 -36l-28 -22l-43 -8
l-42 25l-5 41l11 48l36 18l43 -7v0z" />
    <glyph glyph-name="currency" unicode="&#xa4;" horiz-adv-x="770" 
d="M633 360l-3 -45l3 -47l-3 -45l21 -33l21 -32l27 -27l21 -36l-39 -21l-33 -20l-30 -27l-32 -18l-24 27l-24 29l-21 30l-24 33h-11l-39 -6l-39 3l-39 6l-38 -6l-39 3l-9 -3l-24 -30l-20 -32l-24 -30l-24 -30l-33 24l-33 24l-35 20l-36 24l27 36l21 33l26 29l21 36l18 33v39
v38l3 39l-3 36l3 38l6 39l-24 36l-27 30l-20 35l-24 33l-21 33l30 27l35 20l33 21l33 24l21 -27l27 -30l20 -29l21 -30l42 -3l44 6l42 -6l45 -3l44 6l24 30l24 26l21 30l24 30l32 -21l33 -24l33 -23l33 -24l-24 -33l-21 -36l-27 -32l-24 -36l9 -6v-39l6 -39l-9 -38zM431 286
l27 18l-3 38v36l-6 39l3 38l-24 21l-33 -3h-33l-17 -18l-3 -35v-39l3 -39v-38l23 -15l30 -9z" />
    <glyph glyph-name="yen" unicode="&#xa5;" horiz-adv-x="680" 
d="M601 108l3 -35l6 -37v-35h-48h-53l2 -51l-2 -47l-4 -48l-5 -44l-50 -6l-42 2l-46 -2l-46 2l-48 4l-47 -4h-48l-3 37l-4 35v33l45 3l45 2l44 -2l48 2l3 39l-3 42l-45 3l-44 3l-44 -3h-45l-48 -3l-44 6l-48 -8l9 40v37l-3 38l36 3h35h33v42l-6 47l-5 44h-48l-45 4l-6 35
l3 36l3 39h42l42 -4l-4 45l-5 45v41l-10 45l-5 41l-4 45l-5 41l-4 46l-5 41l47 3l45 -3l45 -3l46 3l10 -41l3 -46l2 -44l4 -42l9 -41v-45l5 -41l6 -45v-45h40l31 6l7 39l-3 45v41l-4 45l13 41l-3 45v41l3 42l-6 48l41 -9l42 3h39l38 3l4 -45l-4 -42l-6 -44v-42v-41l-5 -45
v-41l5 -45l-9 -41h42l41 2l-5 -41l9 -36v-35h-45l-42 -6l-9 -42l4 -47v-45h41zM375 251h-59l5 -48l12 -44l-2 -51l38 3v45l2 47z" />
    <glyph glyph-name="section" unicode="&#xa7;" horiz-adv-x="511" 
d="M463 305l8 -27l-19 -15l-20 -19l-18 -17l-30 -4l-33 3l-32 -2l-32 2l-30 -2l-17 2l5 -12l13 -26l13 -28l13 -26l12 -27l16 -26l7 -28l-19 -15l-19 -18l-20 -17l-30 -3l-32 2h-31h-32l-32 -2l-32 5l-32 -5l3 31l2 27l1 29l32 2l32 -2h31l-8 28l-8 27l-3 29l-9 29l-10 26
l-7 29l-9 27l-4 28l-6 29l-10 27l-7 28l-8 27l-10 29l18 23l17 23l15 26l32 -1l32 1h31l32 -1l18 -2l-3 15l-6 29l-9 28l-8 27l-6 28l-11 29l19 23l16 23l14 26l32 -4l32 4l32 -2h32l32 -3l31 1l1 -29l2 -30l3 -32l-29 3l-29 -2h-29l-28 -3l-29 3v0l14 -27l11 -28l11 -27
l15 -26l14 -26l13 -27l13 -26l10 -28l14 -26l11 -27l13 -28l13 -26zM263 311h30l-7 28l-8 27l-4 29l-8 28l-3 8l-5 1l-29 -3h-27l-29 -3l-29 3v0l14 -27l10 -28l12 -27l14 -26l6 -10l31 2z" />
    <glyph glyph-name="dieresis" unicode="&#xa8;" horiz-adv-x="481" 
d="M471 949l-12 -39v-51l-19 -19h-41l-29 10h-39l-22 29l12 31v39l19 30h30h40h39zM30 979h41h29l40 -10l20 -20v-39v-31l-20 -29h-31l-38 -10h-30l-31 19v51v50z" />
    <glyph glyph-name="copyright" unicode="&#xa9;" horiz-adv-x="248" 
d="M78 698h23l21 -1h23h22l3 -20l1 -20h-23h-23l3 -22l5 -23l3 -21h22l21 -2l2 -34h-30l-29 -1h-31l-23 21l2 25l3 24v25l5 23v26v0zM133 501l-18 -1l-54 12l-40 40l-11 55l2 39l12 54l37 40l54 12h18l55 -12l39 -39l11 -55l-2 -39l-26 -81l-77 -25v0zM115 726l-57 -22
l-20 -58l1 -39l20 -58l56 -21l18 -2l60 22l18 59v39l-20 60l-58 20h-18v0z" />
    <glyph glyph-name="guillemotleft" unicode="&#xab;" horiz-adv-x="567" 
d="M539 67l-47 38l-59 34l-46 45l-52 27l-45 46l-53 33v77v79l53 32l52 40l45 39l46 32l45 47l53 32l8 -73l5 -70v-73l-52 -32l-59 -27l-52 -26l59 -25l59 -26l58 -26l-6 -79l-7 -72zM312 67l-47 38l-59 34l-46 45l-52 27l-45 46l-53 33v77v79l53 32l52 40l45 39l46 32
l45 47l53 32l8 -73l5 -70v-73l-52 -32l-59 -27l-52 -26l59 -25l59 -26l58 -26l-6 -79l-7 -72z" />
    <glyph glyph-name="registered" unicode="&#xae;" horiz-adv-x="251" 
d="M167 604l21 14l-1 29l-6 34l-16 14h-28h-29h-2h-33v-28l-2 -28v-27l-4 -28v-28h25h28l-6 31h23l9 -31h29l13 13l-10 15l-11 20v0zM112 622v19l-4 16l6 2h23l6 -2l3 -35l-3 -3h-25l-6 3v0zM134 502h-20l-54 11l-39 41l-11 56l4 41l9 51l37 42l54 11h20l54 -11l40 -39
l13 -54l-2 -39l-28 -86l-77 -24v0zM114 730l-57 -20l-19 -59v-39l19 -60l57 -26h20l60 23l19 63v39l-19 59l-60 20h-20v0z" />
    <glyph glyph-name="plusminus" unicode="&#xb1;" horiz-adv-x="461" 
d="M13 109v59l3 54l53 4l53 -4h52l56 4l51 -4l57 4l49 -4l60 4l-3 -63l6 -54v-59h-53h-57h-54l-56 -5h-56h-52l-53 5h-59zM387 395l-63 8v-71v-64h-57h-63h-56v64v71h-64l-71 -8l8 64v56v64h63h64v56v63h56l63 8h57v-64v-63l63 -8h56l8 -56v-56v-56z" />
    <glyph glyph-name="guillemotright" unicode="&#xbb;" horiz-adv-x="737" 
d="M111 669l47 -38l59 -34l46 -45l52 -27l45 -46l53 -33v-77v-79l-53 -32l-52 -40l-45 -39l-46 -32l-45 -47l-53 -32l-8 73l-5 70v73l52 32l59 27l52 26l-59 25l-59 26l-58 26l6 79l7 72zM338 669l47 -38l59 -34l46 -45l52 -27l45 -46l53 -33v-77v-79l-53 -32l-52 -40
l-45 -39l-46 -32l-45 -47l-53 -32l-8 73l-5 70v73l52 32l59 27l52 26l-59 25l-59 26l-58 26l6 79l7 72z" />
    <glyph glyph-name="questiondown" unicode="&#xbf;" horiz-adv-x="593" 
d="M498 -1v-38v-50v-37v-48h-50h-60l-50 10l-49 -10l-50 10h-62l-36 24l-39 39v50v50v47l14 49v50v38l12 49v50l38 25l24 36l36 25l50 24l38 36l36 25l25 25v51v47h60l63 -10v-50v-50v-49v-49l-36 -36l-39 -25l-48 -25l-37 -25l-37 -25v-61v-51v-50l-12 -48l25 -23h49h47h38
h50zM375 663v37l-12 38l25 12h35h50l13 -12v-38v-50l-24 -10h-64z" />
    <glyph glyph-name="Agrave" unicode="&#xc0;" horiz-adv-x="584" 
d="M106 865l5 39v42l42 -5l47 5h42h41l48 -5h43l43 5l41 -5l5 -37v-39l5 -42l-47 5l-47 -5h-43h-48h-41l-46 5l-43 -5h-47v42zM483 751v-48v-44v-42l6 -44l6 -44v-42v-44v-49l7 -44v-41l6 -44v-44l6 -42l-6 -44v-42l6 -51v-37l-44 -5l-48 5l-44 -5v42v44v42l-6 44v42h-55
h-50v-42l-6 -44v-42l-7 -44l7 -42l-48 5l-51 -5l-42 5l-50 -5v49l6 44l7 42v44v42v44v44l6 41l6 51l-6 42l6 44v42v44l6 44v42l7 44l-7 42l42 6h44l44 -6h42l44 6h36l44 -6l44 6h42zM254 394l57 7l48 -7v49v44l-6 42v50l-6 42l-36 6l-44 -6v-42v-50l-6 -42v-44z" />
    <glyph glyph-name="Aacute" unicode="&#xc1;" horiz-adv-x="624" 
d="M111 867l5 39v42l42 -5l47 5h42h41l48 -5h43l43 5l41 -5l5 -37v-39l5 -42l-47 5l-47 -5h-43h-48h-41l-46 5l-43 -5h-47v42zM483 751v-48v-44v-42l6 -44l6 -44v-42v-44v-49l7 -44v-41l6 -44v-44l6 -42l-6 -44v-42l6 -51v-37l-44 -5l-48 5l-44 -5v42v44v42l-6 44v42h-55
h-50v-42l-6 -44v-42l-7 -44l7 -42l-48 5l-51 -5l-42 5l-50 -5v49l6 44l7 42v44v42v44v44l6 41l6 51l-6 42l6 44v42v44l6 44v42l7 44l-7 42l42 6h44l44 -6h42l44 6h36l44 -6l44 6h42zM254 394l57 7l48 -7v49v44l-6 42v50l-6 42l-36 6l-44 -6v-42v-50l-6 -42v-44z" />
    <glyph glyph-name="Acircumflex" unicode="&#xc2;" horiz-adv-x="584" 
d="M136 823l15 15l10 17l15 19l11 18l11 19l19 15l10 17h22l22 -3l23 3h22h22h22l15 -17l10 -19l15 -15l15 -18l11 -19l15 -14l15 -18h-27l-22 -4l-22 -3h-25l-22 -5l-11 22l-18 19l-15 18l-16 -18l-14 -22l-15 -19l-22 5h-22l-25 3h-22zM441 751l-44 -6l-44 6h-36l-44 -6
h-42l-44 6h-44l-42 -6l7 -42l-7 -44v-42l-6 -44v-44v-42l-6 -44l6 -42l-6 -51l-6 -41v-44v-44v-42v-44l-7 -42l-6 -44v-49l50 5l42 -5l51 5l48 -5l-7 42l7 44v42l6 44v42h50h55v-42l6 -44v-42v-44v-42l44 5l48 -5l44 5v37l-6 51v42l6 44l-6 42v44l-6 44v41l-7 44v49v44v42
l-6 44l-6 44v42v44v48h-42zM261 443v44l6 42v50v42l44 6l36 -6l6 -42v-50l6 -42v-44v-49l-48 7l-57 -7z" />
    <glyph glyph-name="Atilde" unicode="&#xc3;" horiz-adv-x="584" 
d="M480 857l-100 -32l-85 8l-83 11l-100 -19l-13 109l104 23l81 -4l83 -10l109 27zM441 751l-44 -6l-44 6h-36l-44 -6h-42l-44 6h-44l-42 -6l7 -42l-7 -44v-42l-6 -44v-44v-42l-6 -44l6 -42l-6 -51l-6 -41v-44v-44v-42v-44l-7 -42l-6 -44v-49l50 5l42 -5l51 5l48 -5l-7 42
l7 44v42l6 44v42h50h55v-42l6 -44v-42v-44v-42l44 5l48 -5l44 5v37l-6 51v42l6 44l-6 42v44l-6 44v41l-7 44v49v44v42l-6 44l-6 44v42v44v48h-42zM261 443v44l6 42v50v42l44 6l36 -6l6 -42v-50l6 -42v-44v-49l-48 7l-57 -7z" />
    <glyph glyph-name="Adieresis" unicode="&#xc4;" horiz-adv-x="601" 
d="M509 941l22 -30l-12 -39v-51l-19 -19h-41l-29 10h-39l-22 29l12 31v39l19 30h30h40h39zM90 941h41h29l40 -10l20 -20v-39v-31l-20 -29h-31l-38 -10h-30l-31 19v51v50l20 19v0zM483 751v-48v-44v-42l6 -44l6 -44v-42v-44v-49l7 -44v-41l6 -44v-44l6 -42l-6 -44v-42l6 -51
v-37l-44 -5l-48 5l-44 -5v42v44v42l-6 44v42h-55h-50v-42l-6 -44v-42l-7 -44l7 -42l-48 5l-51 -5l-42 5l-50 -5v49l6 44l7 42v44v42v44v44l6 41l6 51l-6 42l6 44v42v44l6 44v42l7 44l-7 42l42 6h44l44 -6h42l44 6h36l44 -6l44 6h42zM254 394l57 7l48 -7v49v44l-6 42v50
l-6 42l-36 6l-44 -6v-42v-50l-6 -42v-44z" />
    <glyph glyph-name="AE" unicode="&#xc6;" horiz-adv-x="839" 
d="M758 4l-42 -3h-41l-42 3l-44 -3l-42 7l-42 -7l-42 7l-46 -4l-41 4v0v-4v41l-10 46v42v42v44h-52l-51 -3l-6 -41v-42l2 -42l-9 -46v-37h-44l-46 -4l-44 4h-43v41l-3 45v42l3 45l10 45l-6 45l6 42l-4 45l7 45l4 42l-4 44l4 46v42l2 44l4 46l3 42v44l42 4l41 -6l42 2l42 -2
l46 2l41 4l42 -4l42 4l42 -4v0l42 -2h41h42l39 6l42 -6l42 6l42 -6v-42l2 -46l4 -44l-48 -4h-46l-48 6l-44 -2l-49 2l3 -48v-44l4 -46l38 4h41l40 -7l39 3h42v-38l2 -39l-2 -38l2 -39l4 -39l-39 -3l-39 3l-42 4l-38 -4h-39l4 -45l-4 -45l6 -42l4 -45h49h44l48 3l46 -3l48 3
v-38l3 -39l-3 -35h-43zM305 399h51l-3 46l3 44l-7 49v45l-2 45l-42 4l-42 -4v-45l-4 -48l-2 -46v-44l-7 -48z" />
    <glyph glyph-name="Ccedilla" unicode="&#xc7;" horiz-adv-x="486" 
d="M100 750h40h41h40l39 5l40 -10h42l45 5v-45v-40l5 -41l-45 -5l-52 5l-45 -5v-41l5 -40v-39l5 -45v-41l5 -46l5 -40l-5 -40l10 -46v-40l10 -44l-5 -46h46l46 5h45l5 -36l-5 -40l10 -40h-45l-35 5h-41h-41h-39l-40 5l-41 -10l-40 30l-30 35l5 46l-5 41l5 44v40l5 46l5 40
l-10 45l10 41l-5 46l10 40l-5 39l5 45v41v46v40l5 45v0zM451 -144l-100 -32l-85 8l-83 11l-100 -19l-13 109l104 23l81 -4l83 -10l109 27z" />
    <glyph glyph-name="Egrave" unicode="&#xc8;" horiz-adv-x="535" 
d="M103 862l5 39v42l42 -5l47 5h42h41l48 -5h43l43 5l41 -5l5 -37v-39l5 -42l-47 5l-47 -5h-43h-48h-41l-46 5l-43 -5h-47v42zM394 -4l-109 4l-108 -4l-104 4l2 74l2 52l-7 31l10 32v32l-3 37l6 40l7 77l-2 88l6 37l-7 24l12 26l-4 38l9 29l-7 30l7 35l-5 16l6 30l1 22l21 2
l50 -2h50l48 2l27 -2l41 5l33 -4l33 1l56 -2l1 -16l-1 -20l3 -18l1 -13l-1 -11v-25l2 -14l-1 -16l-13 2l-24 -2l-41 3l-39 1l-54 -5l-46 4l-16 -3v-4l-1 -6l2 -8v-8l5 -10l-6 -12l7 -26l-3 -15l3 -21v-12l1 -5v-7h5l4 -1l5 3l13 1l12 -1l16 -3l13 2l17 -1l16 1l8 -1l16 -1
l13 1l16 1l14 -1h14l8 2l10 -2v-7v-22l-2 -9l-2 -20l1 -15l5 -15l-1 -16l3 -13l-3 -28l2 -19l-1 -21l2 -11l-12 -2l-23 2l-24 -1h-20l-18 -1l-14 2l-26 -1l-16 2l-16 -1l-17 1l-14 -1v-13l6 -17v-8l-2 -9l2 -12l-1 -9l3 -17l-1 -23l2 -13l2 -19v-11l3 -21l-1 -6l10 1l10 -1
l16 1l9 -1l13 1l8 -1l14 -2l12 6l11 -4l16 3l7 -1l13 -1l21 -1l15 4l17 1l12 -2h13l13 1h7l-2 -24l3 -16l-2 -12l3 -43l-2 -18z" />
    <glyph glyph-name="Eacute" unicode="&#xc9;" horiz-adv-x="535" 
d="M103 865l5 39v42l42 -5l47 5h42h41l48 -5h43l43 5l41 -5l5 -37v-39l5 -42l-47 5l-47 -5h-43h-48h-41l-46 5l-43 -5h-47v42zM394 -4l-109 4l-108 -4l-104 4l2 74l2 52l-7 31l10 32v32l-3 37l6 40l7 77l-2 88l6 37l-7 24l12 26l-4 38l9 29l-7 30l7 35l-5 16l6 30l1 22l21 2
l50 -2h50l48 2l27 -2l41 5l33 -4l33 1l56 -2l1 -16l-1 -20l3 -18l1 -13l-1 -11v-25l2 -14l-1 -16l-13 2l-24 -2l-41 3l-39 1l-54 -5l-46 4l-16 -3v-4l-1 -6l2 -8v-8l5 -10l-6 -12l7 -26l-3 -15l3 -21v-12l1 -5v-7h5l4 -1l5 3l13 1l12 -1l16 -3l13 2l17 -1l16 1l8 -1l16 -1
l13 1l16 1l14 -1h14l8 2l10 -2v-7v-22l-2 -9l-2 -20l1 -15l5 -15l-1 -16l3 -13l-3 -28l2 -19l-1 -21l2 -11l-12 -2l-23 2l-24 -1h-20l-18 -1l-14 2l-26 -1l-16 2l-16 -1l-17 1l-14 -1v-13l6 -17v-8l-2 -9l2 -12l-1 -9l3 -17l-1 -23l2 -13l2 -19v-11l3 -21l-1 -6l10 1l10 -1
l16 1l9 -1l13 1l8 -1l14 -2l12 6l11 -4l16 3l7 -1l13 -1l21 -1l15 4l17 1l12 -2h13l13 1h7l-2 -24l3 -16l-2 -12l3 -43l-2 -18z" />
    <glyph glyph-name="Ecircumflex" unicode="&#xca;" horiz-adv-x="535" 
d="M130 822l15 15l10 17l15 19l11 18l11 19l19 15l10 17h22l22 -3l23 3h22h22h22l15 -17l10 -19l15 -15l15 -18l11 -19l15 -14l15 -18h-27l-22 -4l-22 -3h-25l-22 -5l-11 22l-18 19l-15 18l-16 -18l-14 -22l-15 -19l-22 5h-22l-25 3h-22zM498 0l2 18l-3 43l2 12l-3 16l2 24
h-7l-13 -1h-13l-12 2l-17 -1l-15 -4l-21 1l-13 1l-7 1l-16 -3l-11 4l-12 -6l-14 2l-8 1l-13 -1l-9 1l-16 -1l-10 1l-10 -1l1 6l-3 21v11l-2 19l-2 13l1 23l-3 17l1 9l-2 12l2 9v8l-6 17v13l14 1l17 -1l16 1l16 -2l26 1l14 -2l18 1h20l24 1l23 -2l12 2l-2 11l1 21l-2 19l3 28
l-3 13l1 16l-5 15l-1 15l2 20l2 9v22v7l-10 2l-8 -2h-14l-14 1l-16 -1l-13 -1l-16 1l-8 1l-16 -1l-17 1l-13 -2l-16 3l-12 1l-13 -1l-5 -3l-4 1h-5v7l-1 5v12l-3 21l3 15l-7 26l6 12l-5 10v8l-2 8l1 6v4l16 3l46 -4l54 5l39 -1l41 -3l24 2l13 -2l1 16l-2 14v25l1 11l-1 13
l-3 18l1 20l-1 16l-56 2l-33 -1l-33 4l-41 -5l-27 2l-48 -2h-50l-50 2l-21 -2l-1 -22l-6 -30l5 -16l-7 -35l7 -30l-9 -29l4 -38l-12 -26l7 -24l-6 -37l2 -88l-7 -77l-6 -40l3 -37v-32l-10 -32l7 -31l-2 -52l-2 -74l104 -4l108 4l109 -4z" />
    <glyph glyph-name="Edieresis" unicode="&#xcb;" horiz-adv-x="566" 
d="M531 912l-12 -39v-51l-19 -19h-41l-29 10h-39l-22 29l12 31v39l19 30h30h40h39zM90 942h41h29l40 -10l20 -20v-39v-31l-20 -29h-31l-38 -10h-30l-31 19v51v50zM407 -4l-109 4l-108 -4l-104 4l2 74l2 52l-7 31l10 32v32l-3 37l6 40l7 77l-2 88l6 37l-7 24l12 26l-4 38
l9 29l-7 30l7 35l-5 16l6 30l1 22l21 2l50 -2h50l48 2l27 -2l41 5l33 -4l33 1l56 -2l1 -16l-1 -20l3 -18l1 -13l-1 -11v-25l2 -14l-1 -16l-13 2l-24 -2l-41 3l-39 1l-54 -5l-46 4l-16 -3v-4l-1 -6l2 -8v-8l5 -10l-6 -12l7 -26l-3 -15l3 -21v-12l1 -5v-7h5l4 -1l5 3l13 1
l12 -1l16 -3l13 2l17 -1l16 1l8 -1l16 -1l13 1l16 1l14 -1h14l8 2l10 -2v-7v-22l-2 -9l-2 -20l1 -15l5 -15l-1 -16l3 -13l-3 -28l2 -19l-1 -21l2 -11l-12 -2l-23 2l-24 -1h-20l-18 -1l-14 2l-26 -1l-16 2l-16 -1l-17 1l-14 -1v-13l6 -17v-8l-2 -9l2 -12l-1 -9l3 -17l-1 -23
l2 -13l2 -19v-11l3 -21l-1 -6l10 1l10 -1l16 1l9 -1l13 1l8 -1l14 -2l12 6l11 -4l16 3l7 -1l13 -1l21 -1l15 4l17 1l12 -2h13l13 1h7l-2 -24l3 -16l-2 -12l3 -43l-2 -18z" />
    <glyph glyph-name="Igrave" unicode="&#xcc;" horiz-adv-x="502" 
d="M70 862l5 39v42l42 -5l47 5h42h41l48 -5h43l43 5l41 -5l5 -37v-39l5 -42l-47 5l-47 -5h-43h-48h-41l-46 5l-43 -5h-47v42zM362 0h-44l-44 -6l-38 6h-43h-45v44l6 44v45v44l7 44v44v44v44v44l6 44v44v44v44l6 44v45l7 43v45l43 -7l51 7h50v-45v-43l13 -45l-6 -44l6 -44
v-44l6 -44l-6 -44l6 -44l7 -44v-44l6 -44v-44v-44v-45v-44l6 -44v0z" />
    <glyph glyph-name="Iacute" unicode="&#xcd;" horiz-adv-x="502" 
d="M70 862l5 39v42l42 -5l47 5h42h41l48 -5h43l43 5l41 -5l5 -37v-39l5 -42l-47 5l-47 -5h-43h-48h-41l-46 5l-43 -5h-47v42zM362 0h-44l-44 -6l-38 6h-43h-45v44l6 44v45v44l7 44v44v44v44v44l6 44v44v44v44l6 44v45l7 43v45l43 -7l51 7h50v-45v-43l13 -45l-6 -44l6 -44
v-44l6 -44l-6 -44l6 -44l7 -44v-44l6 -44v-44v-44v-45v-44l6 -44v0z" />
    <glyph glyph-name="Icircumflex" unicode="&#xce;" horiz-adv-x="460" 
d="M70 827l15 15l10 17l15 19l11 18l11 19l19 15l10 17h22l22 -3l23 3h22h22h22l15 -17l10 -19l15 -15l15 -18l11 -19l15 -14l15 -18h-27l-22 -4l-22 -3h-25l-22 -5l-11 22l-18 19l-15 18l-16 -18l-14 -22l-15 -19l-22 5h-22l-25 3h-22zM337 0h-44l-44 -6l-38 6h-43h-45v44
l6 44v45v44l7 44v44v44v44v44l6 44v44v44v44l6 44v45l7 43v45l43 -7l51 7h50v-45v-43l13 -45l-6 -44l6 -44v-44l6 -44l-6 -44l6 -44l7 -44v-44l6 -44v-44v-44v-45v-44l6 -44v0z" />
    <glyph glyph-name="Idieresis" unicode="&#xcf;" horiz-adv-x="601" 
d="M531 910l-12 -39v-51l-19 -19h-41l-29 10h-39l-22 29l12 31v39l19 30h30h40h39zM90 940h41h29l40 -10l20 -20v-39v-31l-20 -29h-31l-38 -10h-30l-31 19v51v50zM417 0h-44l-44 -6l-38 6h-43h-45v44l6 44v45v44l7 44v44v44v44v44l6 44v44v44v44l6 44v45l7 43v45l43 -7l51 7
h50v-45v-43l13 -45l-6 -44l6 -44v-44l6 -44l-6 -44l6 -44l7 -44v-44l6 -44v-44v-44v-45v-44l6 -44v0z" />
    <glyph glyph-name="Eth" unicode="&#xd0;" horiz-adv-x="677" 
d="M571 664l2 -43l2 -42v-43l6 -42l4 -43l3 -40l6 -42l-3 -44l4 -42l4 -42l3 -42l1 -42l2 -43l7 -42l-31 -22l-24 -26l-27 -21l-42 -3l-42 3l-39 1l-43 -4l-39 3l-42 1l-40 -5l-42 5l-39 -1h-42l4 41l2 40l-2 40l3 42l3 39l4 40v40h-40l-38 2v38v37l6 38l4 39l-2 39h39h41
l1 44v43l7 46l3 44l-2 46v45l48 -1l46 -3l46 3h43h46l46 -4l44 4l34 -26l29 -28zM440 118l21 17l3 42l2 44l-6 42l4 42l-3 43l3 42v42l-3 44l5 42l-5 42v42l-23 23l-46 2l-45 -3l-46 -3l4 -46l2 -50l5 -47l50 -2l50 -2l5 -45l1 -49l-4 -47l-2 -46l-44 -2h-43l1 -41v-45
l7 -42l3 -41l53 -2z" />
    <glyph glyph-name="Ntilde" unicode="&#xd1;" horiz-adv-x="667" 
d="M528 857l-100 -32l-85 8l-83 11l-100 -19l-13 109l104 23l81 -4l83 -10l109 27zM617 -5l-45 6h-40h-40h-44l-24 40l-11 39l-17 40l-22 39l-18 40l-17 40l-16 40l-17 40l-18 39l-22 40l-17 39l-17 40v-40v-44v-41v-45l6 -45v-46l5 -39v-46l6 -45v-40v-45l-40 -6h-40l-40 6
h-39h-40l6 45v40v45v46v45l5 40v45l6 45v46v45l5 40l6 46l-6 45l6 45v40l6 45v46h45h52l44 6h52l17 -46l17 -39l17 -35l17 -40l17 -39l17 -40l17 -40l17 -40l6 46l-6 46l6 45v40l5 45v45v46h40l40 6h40l28 -5l5 -1l7 -46l5 -40v-45l6 -45v-45v-46v-40v-45v-46l6 -45l5 -39
l6 -46l-6 -45l6 -46l-6 -45l6 -40l5 -51v0z" />
    <glyph glyph-name="Ograve" unicode="&#xd2;" 
d="M95 862l5 39v42l42 -5l47 5h42h41l48 -5h43l43 5l41 -5l5 -37v-39l5 -42l-47 5l-47 -5h-43h-48h-41l-46 5l-43 -5h-47v42zM538 73l-40 -29l-38 -39l-40 5l-43 -5h-39h-39l-44 -5l-40 5l-38 -5l-39 5l-29 24l-30 30l-29 19l5 44v39v44v44l5 39v44l4 43l5 40v44l-5 43l5 40
l5 43v44v40l35 28l29 29l29 25h48h50l44 -4l48 4l49 5l30 -30l29 -29l33 -28v-40l6 -44v-43l10 -40v-43v-44l5 -45l4 -38l5 -44l-5 -45l5 -43l5 -39l5 -44v-44zM347 157l25 19v49v43l-5 69l5 49l5 43l-10 44v44l5 49v44l-30 19l-58 5l-24 -24l-5 -49l5 -44l-5 -44v-44v-49
v-43l5 -69l-10 -43v-49l29 -19h35h33z" />
    <glyph glyph-name="Oacute" unicode="&#xd3;" 
d="M91 865l5 39v42l42 -5l47 5h42h41l48 -5h43l43 5l41 -5l5 -37v-39l5 -42l-47 5l-47 -5h-43h-48h-41l-46 5l-43 -5h-47v42zM538 73l-40 -29l-38 -39l-40 5l-43 -5h-39h-39l-44 -5l-40 5l-38 -5l-39 5l-29 24l-30 30l-29 19l5 44v39v44v44l5 39v44l4 43l5 40v44l-5 43l5 40
l5 43v44v40l35 28l29 29l29 25h48h50l44 -4l48 4l49 5l30 -30l29 -29l33 -28v-40l6 -44v-43l10 -40v-43v-44l5 -45l4 -38l5 -44l-5 -45l5 -43l5 -39l5 -44v-44zM347 157l25 19v49v43l-5 69l5 49l5 43l-10 44v44l5 49v44l-30 19l-58 5l-24 -24l-5 -49l5 -44l-5 -44v-44v-49
v-43l5 -69l-10 -43v-49l29 -19h35h33z" />
    <glyph glyph-name="Ocircumflex" unicode="&#xd4;" 
d="M126 825l15 15l10 17l15 19l11 18l11 19l19 15l10 17h22l22 -3l23 3h22h22h22l15 -17l10 -19l15 -15l15 -18l11 -19l15 -14l15 -18h-27l-22 -4l-22 -3h-25l-22 -5l-11 22l-18 19l-15 18l-16 -18l-14 -22l-15 -19l-22 5h-22l-25 3h-22zM538 73v44l-5 44l-5 39l-5 43l5 45
l-5 44l-4 38l-5 45v44v43l-10 40v43l-6 44v40l-33 28l-29 29l-30 30l-49 -5l-48 -4l-44 4h-50h-48l-29 -25l-29 -29l-35 -28v-40v-44l-5 -43l-5 -40l5 -43v-44l-5 -40l-4 -43v-44l-5 -39v-44v-44v-39l-5 -44l29 -19l30 -30l29 -24l39 -5l38 5l40 -5l44 5h39h39l43 5l40 -5
l38 39l40 29v0zM314 157h-35l-29 19v49l10 43l-5 69v43v49v44l5 44l-5 44l5 49l24 24l58 -5l30 -19v-44l-5 -49v-44l10 -44l-5 -43l-5 -49l5 -69v-43v-49l-25 -19h-33z" />
    <glyph glyph-name="Otilde" unicode="&#xd5;" 
d="M463 857l-100 -32l-85 8l-83 11l-100 -19l-13 109l104 23l81 -4l83 -10l109 27zM538 73v44l-5 44l-5 39l-5 43l5 45l-5 44l-4 38l-5 45v44v43l-10 40v43l-6 44v40l-33 28l-29 29l-30 30l-49 -5l-48 -4l-44 4h-50h-48l-29 -25l-29 -29l-35 -28v-40v-44l-5 -43l-5 -40
l5 -43v-44l-5 -40l-4 -43v-44l-5 -39v-44v-44v-39l-5 -44l29 -19l30 -30l29 -24l39 -5l38 5l40 -5l44 5h39h39l43 5l40 -5l38 39l40 29v0zM314 157h-35l-29 19v49l10 43l-5 69v43v49v44l5 44l-5 44l5 49l24 24l58 -5l30 -19v-44l-5 -49v-44l10 -44l-5 -43l-5 -49l5 -69v-43
v-49l-25 -19h-33z" />
    <glyph glyph-name="Odieresis" unicode="&#xd6;" 
d="M531 915l-12 -39v-51l-19 -19h-41l-29 10h-39l-22 29l12 31v39l19 30h30h40h39zM90 945h41h29l40 -10l20 -20v-39v-31l-20 -29h-31l-38 -10h-30l-31 19v51v50zM538 73l-40 -29l-38 -39l-40 5l-43 -5h-39h-39l-44 -5l-40 5l-38 -5l-39 5l-29 24l-30 30l-29 19l5 44v39v44
v44l5 39v44l4 43l5 40v44l-5 43l5 40l5 43v44v40l35 28l29 29l29 25h48h50l44 -4l48 4l49 5l30 -30l29 -29l33 -28v-40l6 -44v-43l10 -40v-43v-44l5 -45l4 -38l5 -44l-5 -45l5 -43l5 -39l5 -44v-44zM347 157l25 19v49v43l-5 69l5 49l5 43l-10 44v44l5 49v44l-30 19l-58 5
l-24 -24l-5 -49l5 -44l-5 -44v-44v-49v-43l5 -69l-10 -43v-49l29 -19h35h33z" />
    <glyph glyph-name="multiply" unicode="&#xd7;" horiz-adv-x="552" 
d="M381 190l-43 34l-42 43l-40 -43l-34 -46l-39 34l-34 39l-39 34l39 43l38 39l-43 39l-43 34l34 39l36 34l34 39l43 -39l39 -34l34 39l39 38l39 -34l39 -30l34 -34l-34 -39l-39 -43l39 -39l38 -34l-34 -36l-27 -43l-34 -34v0z" />
    <glyph glyph-name="Ugrave" unicode="&#xd9;" horiz-adv-x="628" 
d="M136 867l5 39v42l42 -5l47 5h42h41l48 -5h43l43 5l41 -5l5 -37v-39l5 -42l-47 5l-47 -5h-43h-48h-41l-46 5l-43 -5h-47v42zM404 747l46 -3l43 6l47 -3v-43l6 -43v-40l-6 -43l6 -44l-3 -40l6 -43l-3 -41v-42l3 -43l3 -41l3 -43v-40l3 -44v-43l-3 -39l-25 -26l-27 -21
l-26 -28l-39 3l-40 -6l-41 3h-40h-40h-41h-39h-40l-29 28l-30 18l-28 29v42l3 40l6 44l-3 43l9 40l-6 44l6 40v42l6 41l4 43v43l-7 41l3 43l7 40l-3 43l6 37l37 6l40 -3l40 -3l41 6v-43l3 -43v-43l3 -43v-44l-3 -43l6 -43v-44l3 -40l-3 -42v-44l6 -43l3 -40l19 -26h33l34 4
l26 19l6 43l-3 43v44l3 42l3 43l-3 44l9 40l-6 43l6 44l3 43l-3 43l6 43z" />
    <glyph glyph-name="Uacute" unicode="&#xda;" horiz-adv-x="628" 
d="M137 865l5 39v42l42 -5l47 5h42h41l48 -5h43l43 5l41 -5l5 -37v-39l5 -42l-47 5l-47 -5h-43h-48h-41l-46 5l-43 -5h-47v42zM404 747l46 -3l43 6l47 -3v-43l6 -43v-40l-6 -43l6 -44l-3 -40l6 -43l-3 -41v-42l3 -43l3 -41l3 -43v-40l3 -44v-43l-3 -39l-25 -26l-27 -21
l-26 -28l-39 3l-40 -6l-41 3h-40h-40h-41h-39h-40l-29 28l-30 18l-28 29v42l3 40l6 44l-3 43l9 40l-6 44l6 40v42l6 41l4 43v43l-7 41l3 43l7 40l-3 43l6 37l37 6l40 -3l40 -3l41 6v-43l3 -43v-43l3 -43v-44l-3 -43l6 -43v-44l3 -40l-3 -42v-44l6 -43l3 -40l19 -26h33l34 4
l26 19l6 43l-3 43v44l3 42l3 43l-3 44l9 40l-6 43l6 44l3 43l-3 43l6 43z" />
    <glyph glyph-name="Ucircumflex" unicode="&#xdb;" horiz-adv-x="628" 
d="M136 823l15 15l10 17l15 19l11 18l11 19l19 15l10 17h22l22 -3l23 3h22h22h22l15 -17l10 -19l15 -15l15 -18l11 -19l15 -14l15 -18h-27l-22 -4l-22 -3h-25l-22 -5l-11 22l-18 19l-15 18l-16 -18l-14 -22l-15 -19l-22 5h-22l-25 3h-22zM404 747l6 -43l-6 -43l3 -43l-3 -43
l-6 -44l6 -43l-9 -40l3 -44l-3 -43l-3 -42v-44l3 -43l-6 -43l-26 -19l-34 -4h-33l-19 26l-3 40l-6 43v44l3 42l-3 40v44l-6 43l3 43v44l-3 43v43l-3 43v43l-41 -6l-40 3l-40 3l-37 -6l-6 -37l3 -43l-7 -40l-3 -43l7 -41v-43l-4 -43l-6 -41v-42l-6 -40l6 -44l-9 -40l3 -43
l-6 -44l-3 -40v-42l28 -29l30 -18l29 -28h40h39h41h40h40l41 -3l40 6l39 -3l26 28l27 21l25 26l3 39v43l-3 44v40l-3 43l-3 41l-3 43v42l3 41l-6 43l3 40l-6 44l6 43v40l-6 43v43l-47 3l-43 -6l-46 3v0z" />
    <glyph glyph-name="Udieresis" unicode="&#xdc;" horiz-adv-x="628" 
d="M551 912l-12 -39v-51l-19 -19h-41l-29 10h-39l-22 29l12 31v39l19 30h30h40h39zM110 942h41h29l40 -10l20 -20v-39v-31l-20 -29h-31l-38 -10h-30l-31 19v51v50zM404 747l46 -3l43 6l47 -3v-43l6 -43v-40l-6 -43l6 -44l-3 -40l6 -43l-3 -41v-42l3 -43l3 -41l3 -43v-40
l3 -44v-43l-3 -39l-25 -26l-27 -21l-26 -28l-39 3l-40 -6l-41 3h-40h-40h-41h-39h-40l-29 28l-30 18l-28 29v42l3 40l6 44l-3 43l9 40l-6 44l6 40v42l6 41l4 43v43l-7 41l3 43l7 40l-3 43l6 37l37 6l40 -3l40 -3l41 6v-43l3 -43v-43l3 -43v-44l-3 -43l6 -43v-44l3 -40
l-3 -42v-44l6 -43l3 -40l19 -26h33l34 4l26 19l6 43l-3 43v44l3 42l3 43l-3 44l9 40l-6 43l6 44l3 43l-3 43l6 43z" />
    <glyph glyph-name="Yacute" unicode="&#xdd;" horiz-adv-x="564" 
d="M93 865l5 39v42l42 -5l47 5h42h41l48 -5h43l43 5l41 -5l5 -37v-39l5 -42l-47 5l-47 -5h-43h-48h-41l-46 5l-43 -5h-47v42zM327 747l47 -7l37 7l42 -12l41 12l-5 -48v-42l-7 -42l-6 -40l6 -48v-43v-41l-6 -40l6 -44l-6 -40v-43l-12 -41v-47l7 -42l-7 -43v-40l-5 -43l5 -41
l-5 -40v-44l-6 -48v-35l-47 -5l-49 5h-41l-48 -5l-48 5l-47 -5h-47v35v41l-13 37h49l46 -7l48 7h42l6 42v40h-43h-35h-41h-35h-44v43l-5 41v42l-13 37l-5 40v43l-5 40l-7 41v43v41l-6 43l-5 41l-12 41v42l-6 35v42l-12 42v41h48l48 7l41 -12l48 12v-48l11 -42v-42v-40
l12 -43l5 -41l8 -42l5 -41v-49l12 -40v-43v-41l13 -42l5 -42v-40h35v40l6 42l-6 42l6 41v43v45l-6 44l6 41v42v41v43l7 40l-7 42l7 42z" />
    <glyph glyph-name="Thorn" unicode="&#xde;" horiz-adv-x="568" 
d="M511 547l5 -40v-39l4 -45l5 -40v-41l9 -40v-41l4 -38v-45l-27 -23l-27 -18l-45 -4l-43 4h-49l-45 -4h-50v4l5 -45l-5 -45l5 -47l-50 5h-42h-41l-45 4l-4 38v45v45l4 41v45l-4 43l9 40l-14 45l9 41v45l-4 45l4 38v45v45v41l5 45l-5 42h45l45 9l43 5l40 -5l5 -33l-9 -36
l4 -41l5 -36h40l36 -4h41l40 4l39 -4l27 -27zM369 254l18 12l-9 49l5 45l-9 50l-5 45l-9 22l-45 -4l-40 4l-14 -18l9 -4l5 -50l-5 -45v-49l5 -45l13 -12h41h40z" />
    <glyph glyph-name="agrave" unicode="&#xe0;" horiz-adv-x="584" 
d="M110 862l5 39v42l42 -5l47 5h42h41l48 -5h43l43 5l41 -5l5 -37v-39l5 -42l-47 5l-47 -5h-43h-48h-41l-46 5l-43 -5h-47v42zM483 751v-48v-44v-42l6 -44l6 -44v-42v-44v-49l7 -44v-41l6 -44v-44l6 -42l-6 -44v-42l6 -51v-37l-44 -5l-48 5l-44 -5v42v44v42l-6 44v42h-55
h-50v-42l-6 -44v-42l-7 -44l7 -42l-48 5l-51 -5l-42 5l-50 -5v49l6 44l7 42v44v42v44v44l6 41l6 51l-6 42l6 44v42v44l6 44v42l7 44l-7 42l42 6h44l44 -6h42l44 6h36l44 -6l44 6h42zM254 394l57 7l48 -7v49v44l-6 42v50l-6 42l-36 6l-44 -6v-42v-50l-6 -42v-44z" />
    <glyph glyph-name="aacute" unicode="&#xe1;" horiz-adv-x="584" 
d="M114 865l5 39v42l42 -5l47 5h42h41l48 -5h43l43 5l41 -5l5 -37v-39l5 -42l-47 5l-47 -5h-43h-48h-41l-46 5l-43 -5h-47v42zM483 751v-48v-44v-42l6 -44l6 -44v-42v-44v-49l7 -44v-41l6 -44v-44l6 -42l-6 -44v-42l6 -51v-37l-44 -5l-48 5l-44 -5v42v44v42l-6 44v42h-55
h-50v-42l-6 -44v-42l-7 -44l7 -42l-48 5l-51 -5l-42 5l-50 -5v49l6 44l7 42v44v42v44v44l6 41l6 51l-6 42l6 44v42v44l6 44v42l7 44l-7 42l42 6h44l44 -6h42l44 6h36l44 -6l44 6h42zM254 394l57 7l48 -7v49v44l-6 42v50l-6 42l-36 6l-44 -6v-42v-50l-6 -42v-44z" />
    <glyph glyph-name="acircumflex" unicode="&#xe2;" horiz-adv-x="584" 
d="M136 823l15 15l10 17l15 19l11 18l11 19l19 15l10 17h22l22 -3l23 3h22h22h22l15 -17l10 -19l15 -15l15 -18l11 -19l15 -14l15 -18h-27l-22 -4l-22 -3h-25l-22 -5l-11 22l-18 19l-15 18l-16 -18l-14 -22l-15 -19l-22 5h-22l-25 3h-22zM441 751l-44 -6l-44 6h-36l-44 -6
h-42l-44 6h-44l-42 -6l7 -42l-7 -44v-42l-6 -44v-44v-42l-6 -44l6 -42l-6 -51l-6 -41v-44v-44v-42v-44l-7 -42l-6 -44v-49l50 5l42 -5l51 5l48 -5l-7 42l7 44v42l6 44v42h50h55v-42l6 -44v-42v-44v-42l44 5l48 -5l44 5v37l-6 51v42l6 44l-6 42v44l-6 44v41l-7 44v49v44v42
l-6 44l-6 44v42v44v48h-42zM261 443v44l6 42v50v42l44 6l36 -6l6 -42v-50l6 -42v-44v-49l-48 7l-57 -7z" />
    <glyph glyph-name="atilde" unicode="&#xe3;" horiz-adv-x="584" 
d="M480 857l-100 -32l-85 8l-83 11l-100 -19l-13 109l104 23l81 -4l83 -10l109 27zM441 751l-44 -6l-44 6h-36l-44 -6h-42l-44 6h-44l-42 -6l7 -42l-7 -44v-42l-6 -44v-44v-42l-6 -44l6 -42l-6 -51l-6 -41v-44v-44v-42v-44l-7 -42l-6 -44v-49l50 5l42 -5l51 5l48 -5l-7 42
l7 44v42l6 44v42h50h55v-42l6 -44v-42v-44v-42l44 5l48 -5l44 5v37l-6 51v42l6 44l-6 42v44l-6 44v41l-7 44v49v44v42l-6 44l-6 44v42v44v48h-42zM261 443v44l6 42v50v42l44 6l36 -6l6 -42v-50l6 -42v-44v-49l-48 7l-57 -7z" />
    <glyph glyph-name="adieresis" unicode="&#xe4;" horiz-adv-x="601" 
d="M531 913l-12 -39v-51l-19 -19h-41l-29 10h-39l-22 29l12 31v39l19 30h30h40h39zM90 943h41h29l40 -10l20 -20v-39v-31l-20 -29h-31l-38 -10h-30l-31 19v51v50zM483 751v-48v-44v-42l6 -44l6 -44v-42v-44v-49l7 -44v-41l6 -44v-44l6 -42l-6 -44v-42l6 -51v-37l-44 -5
l-48 5l-44 -5v42v44v42l-6 44v42h-55h-50v-42l-6 -44v-42l-7 -44l7 -42l-48 5l-51 -5l-42 5l-50 -5v49l6 44l7 42v44v42v44v44l6 41l6 51l-6 42l6 44v42v44l6 44v42l7 44l-7 42l42 6h44l44 -6h42l44 6h36l44 -6l44 6h42zM254 394l57 7l48 -7v49v44l-6 42v50l-6 42l-36 6
l-44 -6v-42v-50l-6 -42v-44z" />
    <glyph glyph-name="ae" unicode="&#xe6;" horiz-adv-x="839" 
d="M801 4h-43l-42 -3h-41l-42 3l-44 -3l-42 7l-42 -7l-42 7l-46 -4l-41 4v0v-4v41l-10 46v42v42v44h-52l-51 -3l-6 -41v-42l2 -42l-9 -46v-37h-44l-46 -4l-44 4h-43v41l-3 45v42l3 45l10 45l-6 45l6 42l-4 45l7 45l4 42l-4 44l4 46v42l2 44l4 46l3 42v44l42 4l41 -6l42 2
l42 -2l46 2l41 4l42 -4l42 4l42 -4v0l42 -2h41h42l39 6l42 -6l42 6l42 -6v-42l2 -46l4 -44l-48 -4h-46l-48 6l-44 -2l-49 2l3 -48v-44l4 -46l38 4h41l40 -7l39 3h42v-38l2 -39l-2 -38l2 -39l4 -39l-39 -3l-39 3l-42 4l-38 -4h-39l4 -45l-4 -45l6 -42l4 -45h49h44l48 3l46 -3
l48 3v-38l3 -39zM250 397l55 2h51l-3 46l3 44l-7 49v45l-2 45l-42 4l-42 -4v-45l-4 -48l-2 -46v-44z" />
    <glyph glyph-name="ccedilla" unicode="&#xe7;" horiz-adv-x="486" 
d="M100 750h40h41h40l39 5l40 -10h42l45 5v-45v-40l5 -41l-45 -5l-52 5l-45 -5v-41l5 -40v-39l5 -45v-41l5 -46l5 -40l-5 -40l10 -46v-40l10 -44l-5 -46h46l46 5h45l5 -36l-5 -40l10 -40h-45l-35 5h-41h-41h-39l-40 5l-41 -10l-40 30l-30 35l5 46l-5 41l5 44v40l5 46l5 40
l-10 45l10 41l-5 46l10 40l-5 39l5 45v41v46v40zM451 -144l-100 -32l-85 8l-83 11l-100 -19l-13 109l104 23l81 -4l83 -10l109 27z" />
    <glyph glyph-name="egrave" unicode="&#xe8;" horiz-adv-x="535" 
d="M103 865l5 39v42l42 -5l47 5h42h41l48 -5h43l43 5l41 -5l5 -37v-39l5 -42l-47 5l-47 -5h-43h-48h-41l-46 5l-43 -5h-47v42zM394 -4l-109 4l-108 -4l-104 4l2 74l2 52l-7 31l10 32v32l-3 37l6 40l7 77l-2 88l6 37l-7 24l12 26l-4 38l9 29l-7 30l7 35l-5 16l6 30l1 22l21 2
l50 -2h50l48 2l27 -2l41 5l33 -4l33 1l56 -2l1 -16l-1 -20l3 -18l1 -13l-1 -11v-25l2 -14l-1 -16l-13 2l-24 -2l-41 3l-39 1l-54 -5l-46 4l-16 -3v-4l-1 -6l2 -8v-8l5 -10l-6 -12l7 -26l-3 -15l3 -21v-12l1 -5v-7h5l4 -1l5 3l13 1l12 -1l16 -3l13 2l17 -1l16 1l8 -1l16 -1
l13 1l16 1l14 -1h14l8 2l10 -2v-7v-22l-2 -9l-2 -20l1 -15l5 -15l-1 -16l3 -13l-3 -28l2 -19l-1 -21l2 -11l-12 -2l-23 2l-24 -1h-20l-18 -1l-14 2l-26 -1l-16 2l-16 -1l-17 1l-14 -1v-13l6 -17v-8l-2 -9l2 -12l-1 -9l3 -17l-1 -23l2 -13l2 -19v-11l3 -21l-1 -6l10 1l10 -1
l16 1l9 -1l13 1l8 -1l14 -2l12 6l11 -4l16 3l7 -1l13 -1l21 -1l15 4l17 1l12 -2h13l13 1h7l-2 -24l3 -16l-2 -12l3 -43l-2 -18z" />
    <glyph glyph-name="eacute" unicode="&#xe9;" horiz-adv-x="535" 
d="M103 868l5 39v42l42 -5l47 5h42h41l48 -5h43l43 5l41 -5l5 -37v-39l5 -42l-47 5l-47 -5h-43h-48h-41l-46 5l-43 -5h-47v42zM394 -4l-109 4l-108 -4l-104 4l2 74l2 52l-7 31l10 32v32l-3 37l6 40l7 77l-2 88l6 37l-7 24l12 26l-4 38l9 29l-7 30l7 35l-5 16l6 30l1 22l21 2
l50 -2h50l48 2l27 -2l41 5l33 -4l33 1l56 -2l1 -16l-1 -20l3 -18l1 -13l-1 -11v-25l2 -14l-1 -16l-13 2l-24 -2l-41 3l-39 1l-54 -5l-46 4l-16 -3v-4l-1 -6l2 -8v-8l5 -10l-6 -12l7 -26l-3 -15l3 -21v-12l1 -5v-7h5l4 -1l5 3l13 1l12 -1l16 -3l13 2l17 -1l16 1l8 -1l16 -1
l13 1l16 1l14 -1h14l8 2l10 -2v-7v-22l-2 -9l-2 -20l1 -15l5 -15l-1 -16l3 -13l-3 -28l2 -19l-1 -21l2 -11l-12 -2l-23 2l-24 -1h-20l-18 -1l-14 2l-26 -1l-16 2l-16 -1l-17 1l-14 -1v-13l6 -17v-8l-2 -9l2 -12l-1 -9l3 -17l-1 -23l2 -13l2 -19v-11l3 -21l-1 -6l10 1l10 -1
l16 1l9 -1l13 1l8 -1l14 -2l12 6l11 -4l16 3l7 -1l13 -1l21 -1l15 4l17 1l12 -2h13l13 1h7l-2 -24l3 -16l-2 -12l3 -43l-2 -18z" />
    <glyph glyph-name="ecircumflex" unicode="&#xea;" horiz-adv-x="535" 
d="M130 822l15 15l10 17l15 19l11 18l11 19l19 15l10 17h22l22 -3l23 3h22h22h22l15 -17l10 -19l15 -15l15 -18l11 -19l15 -14l15 -18h-27l-22 -4l-22 -3h-25l-22 -5l-11 22l-18 19l-15 18l-16 -18l-14 -22l-15 -19l-22 5h-22l-25 3h-22zM498 0l2 18l-3 43l2 12l-3 16l2 24
h-7l-13 -1h-13l-12 2l-17 -1l-15 -4l-21 1l-13 1l-7 1l-16 -3l-11 4l-12 -6l-14 2l-8 1l-13 -1l-9 1l-16 -1l-10 1l-10 -1l1 6l-3 21v11l-2 19l-2 13l1 23l-3 17l1 9l-2 12l2 9v8l-6 17v13l14 1l17 -1l16 1l16 -2l26 1l14 -2l18 1h20l24 1l23 -2l12 2l-2 11l1 21l-2 19l3 28
l-3 13l1 16l-5 15l-1 15l2 20l2 9v22v7l-10 2l-8 -2h-14l-14 1l-16 -1l-13 -1l-16 1l-8 1l-16 -1l-17 1l-13 -2l-16 3l-12 1l-13 -1l-5 -3l-4 1h-5v7l-1 5v12l-3 21l3 15l-7 26l6 12l-5 10v8l-2 8l1 6v4l16 3l46 -4l54 5l39 -1l41 -3l24 2l13 -2l1 16l-2 14v25l1 11l-1 13
l-3 18l1 20l-1 16l-56 2l-33 -1l-33 4l-41 -5l-27 2l-48 -2h-50l-50 2l-21 -2l-1 -22l-6 -30l5 -16l-7 -35l7 -30l-9 -29l4 -38l-12 -26l7 -24l-6 -37l2 -88l-7 -77l-6 -40l3 -37v-32l-10 -32l7 -31l-2 -52l-2 -74l104 -4l108 4l109 -4z" />
    <glyph glyph-name="edieresis" unicode="&#xeb;" horiz-adv-x="566" 
d="M531 916l-12 -39v-51l-19 -19h-41l-29 10h-39l-22 29l12 31v39l19 30h30h40h39zM90 946h41h29l40 -10l20 -20v-39v-31l-20 -29h-31l-38 -10h-30l-31 19v51v50zM407 -4l-109 4l-108 -4l-104 4l2 74l2 52l-7 31l10 32v32l-3 37l6 40l7 77l-2 88l6 37l-7 24l12 26l-4 38
l9 29l-7 30l7 35l-5 16l6 30l1 22l21 2l50 -2h50l48 2l27 -2l41 5l33 -4l33 1l56 -2l1 -16l-1 -20l3 -18l1 -13l-1 -11v-25l2 -14l-1 -16l-13 2l-24 -2l-41 3l-39 1l-54 -5l-46 4l-16 -3v-4l-1 -6l2 -8v-8l5 -10l-6 -12l7 -26l-3 -15l3 -21v-12l1 -5v-7h5l4 -1l5 3l13 1
l12 -1l16 -3l13 2l17 -1l16 1l8 -1l16 -1l13 1l16 1l14 -1h14l8 2l10 -2v-7v-22l-2 -9l-2 -20l1 -15l5 -15l-1 -16l3 -13l-3 -28l2 -19l-1 -21l2 -11l-12 -2l-23 2l-24 -1h-20l-18 -1l-14 2l-26 -1l-16 2l-16 -1l-17 1l-14 -1v-13l6 -17v-8l-2 -9l2 -12l-1 -9l3 -17l-1 -23
l2 -13l2 -19v-11l3 -21l-1 -6l10 1l10 -1l16 1l9 -1l13 1l8 -1l14 -2l12 6l11 -4l16 3l7 -1l13 -1l21 -1l15 4l17 1l12 -2h13l13 1h7l-2 -24l3 -16l-2 -12l3 -43l-2 -18z" />
    <glyph glyph-name="igrave" unicode="&#xec;" horiz-adv-x="502" 
d="M70 865l5 39v42l42 -5l47 5h42h41l48 -5h43l43 5l41 -5l5 -37v-39l5 -42l-47 5l-47 -5h-43h-48h-41l-46 5l-43 -5h-47v42zM362 0h-44l-44 -6l-38 6h-43h-45v44l6 44v45v44l7 44v44v44v44v44l6 44v44v44v44l6 44v45l7 43v45l43 -7l51 7h50v-45v-43l13 -45l-6 -44l6 -44
v-44l6 -44l-6 -44l6 -44l7 -44v-44l6 -44v-44v-44v-45v-44z" />
    <glyph glyph-name="iacute" unicode="&#xed;" horiz-adv-x="502" 
d="M70 863l5 39v42l42 -5l47 5h42h41l48 -5h43l43 5l41 -5l5 -37v-39l5 -42l-47 5l-47 -5h-43h-48h-41l-46 5l-43 -5h-47v42zM362 0h-44l-44 -6l-38 6h-43h-45v44l6 44v45v44l7 44v44v44v44v44l6 44v44v44v44l6 44v45l7 43v45l43 -7l51 7h50v-45v-43l13 -45l-6 -44l6 -44
v-44l6 -44l-6 -44l6 -44l7 -44v-44l6 -44v-44v-44v-45v-44z" />
    <glyph glyph-name="icircumflex" unicode="&#xee;" horiz-adv-x="460" 
d="M70 827l15 15l10 17l15 19l11 18l11 19l19 15l10 17h22l22 -3l23 3h22h22h22l15 -17l10 -19l15 -15l15 -18l11 -19l15 -14l15 -18h-27l-22 -4l-22 -3h-25l-22 -5l-11 22l-18 19l-15 18l-16 -18l-14 -22l-15 -19l-22 5h-22l-25 3h-22zM341 0h-44l-44 -6l-38 6h-43h-45v44
l6 44v45v44l7 44v44v44v44v44l6 44v44v44v44l6 44v45l7 43v45l43 -7l51 7h50v-45v-43l13 -45l-6 -44l6 -44v-44l6 -44l-6 -44l6 -44l7 -44v-44l6 -44v-44v-44v-45v-44z" />
    <glyph glyph-name="idieresis" unicode="&#xef;" horiz-adv-x="601" 
d="M418 0h-44l-44 -6l-38 6h-43h-45v44l6 44v45v44l7 44v44v44v44v44l6 44v44v44v44l6 44v45l7 43v45l43 -7l51 7h50v-45v-43l13 -45l-6 -44l6 -44v-44l6 -44l-6 -44l6 -44l7 -44v-44l6 -44v-44v-44v-45v-44zM531 912l-12 -39v-51l-19 -19h-41l-29 10h-39l-22 29l12 31v39
l19 30h30h40h39zM90 942h41h29l40 -10l20 -20v-39v-31l-20 -29h-31l-38 -10h-30l-31 19v51v50z" />
    <glyph glyph-name="ntilde" unicode="&#xf1;" horiz-adv-x="667" 
d="M528 857l-100 -32l-85 8l-83 11l-100 -19l-13 109l104 23l81 -4l83 -10l109 27zM617 -5l-45 6h-40h-40h-44l-24 40l-11 39l-17 40l-22 39l-18 40l-17 40l-16 40l-17 40l-18 39l-22 40l-17 39l-17 40v-40v-44v-41v-45l6 -45v-46l5 -39v-46l6 -45v-40v-45l-40 -6h-40l-40 6
h-39h-40l6 45v40v45v46v45l5 40v45l6 45v46v45l5 40l6 46l-6 45l6 45v40l6 45v46h45h52l44 6h52l17 -46l17 -39l17 -35l17 -40l17 -39l17 -40l17 -40l17 -40l6 46l-6 46l6 45v40l5 45v45v46h40l40 6h40l28 -5l5 -1l7 -46l5 -40v-45l6 -45v-45v-46v-40v-45v-46l6 -45l5 -39
l6 -46l-6 -45l6 -46l-6 -45l6 -40z" />
    <glyph glyph-name="ograve" unicode="&#xf2;" 
d="M95 865l5 39v42l42 -5l47 5h42h41l48 -5h43l43 5l41 -5l5 -37v-39l5 -42l-47 5l-47 -5h-43h-48h-41l-46 5l-43 -5h-47v42zM498 44l-38 -39l-40 5l-43 -5h-39h-39l-44 -5l-40 5l-38 -5l-39 5l-29 24l-30 30l-29 19l5 44v39v44v44l5 39v44l4 43l5 40v44l-5 43l5 40l5 43v44
v40l35 28l29 29l29 25h48h50l44 -4l48 4l49 5l30 -30l29 -29l33 -28v-40l6 -44v-43l10 -40v-43v-44l5 -45l4 -38l5 -44l-5 -45l5 -43l5 -39l5 -44v-44zM347 157l25 19v49v43l-5 69l5 49l5 43l-10 44v44l5 49v44l-30 19l-58 5l-24 -24l-5 -49l5 -44l-5 -44v-44v-49v-43l5 -69
l-10 -43v-49l29 -19h35h33z" />
    <glyph glyph-name="oacute" unicode="&#xf3;" 
d="M95 863l5 39v42l42 -5l47 5h42h41l48 -5h43l43 5l41 -5l5 -37v-39l5 -42l-47 5l-47 -5h-43h-48h-41l-46 5l-43 -5h-47v42zM498 44l-38 -39l-40 5l-43 -5h-39h-39l-44 -5l-40 5l-38 -5l-39 5l-29 24l-30 30l-29 19l5 44v39v44v44l5 39v44l4 43l5 40v44l-5 43l5 40l5 43v44
v40l35 28l29 29l29 25h48h50l44 -4l48 4l49 5l30 -30l29 -29l33 -28v-40l6 -44v-43l10 -40v-43v-44l5 -45l4 -38l5 -44l-5 -45l5 -43l5 -39l5 -44v-44zM347 157l25 19v49v43l-5 69l5 49l5 43l-10 44v44l5 49v44l-30 19l-58 5l-24 -24l-5 -49l5 -44l-5 -44v-44v-49v-43l5 -69
l-10 -43v-49l29 -19h35h33z" />
    <glyph glyph-name="ocircumflex" unicode="&#xf4;" 
d="M126 825l15 15l10 17l15 19l11 18l11 19l19 15l10 17h22l22 -3l23 3h22h22h22l15 -17l10 -19l15 -15l15 -18l11 -19l15 -14l15 -18h-27l-22 -4l-22 -3h-25l-22 -5l-11 22l-18 19l-15 18l-16 -18l-14 -22l-15 -19l-22 5h-22l-25 3h-22l-22 4v0zM538 73v44l-5 44l-5 39
l-5 43l5 45l-5 44l-4 38l-5 45v44v43l-10 40v43l-6 44v40l-33 28l-29 29l-30 30l-49 -5l-48 -4l-44 4h-50h-48l-29 -25l-29 -29l-35 -28v-40v-44l-5 -43l-5 -40l5 -43v-44l-5 -40l-4 -43v-44l-5 -39v-44v-44v-39l-5 -44l29 -19l30 -30l29 -24l39 -5l38 5l40 -5l44 5h39h39
l43 5l40 -5l38 39zM314 157h-35l-29 19v49l10 43l-5 69v43v49v44l5 44l-5 44l5 49l24 24l58 -5l30 -19v-44l-5 -49v-44l10 -44l-5 -43l-5 -49l5 -69v-43v-49l-25 -19h-33z" />
    <glyph glyph-name="otilde" unicode="&#xf5;" 
d="M463 857l-100 -32l-85 8l-83 11l-100 -19l-13 109l104 23l81 -4l83 -10l109 27zM538 73v44l-5 44l-5 39l-5 43l5 45l-5 44l-4 38l-5 45v44v43l-10 40v43l-6 44v40l-33 28l-29 29l-30 30l-49 -5l-48 -4l-44 4h-50h-48l-29 -25l-29 -29l-35 -28v-40v-44l-5 -43l-5 -40
l5 -43v-44l-5 -40l-4 -43v-44l-5 -39v-44v-44v-39l-5 -44l29 -19l30 -30l29 -24l39 -5l38 5l40 -5l44 5h39h39l43 5l40 -5l38 39zM314 157h-35l-29 19v49l10 43l-5 69v43v49v44l5 44l-5 44l5 49l24 24l58 -5l30 -19v-44l-5 -49v-44l10 -44l-5 -43l-5 -49l5 -69v-43v-49
l-25 -19h-33z" />
    <glyph glyph-name="odieresis" unicode="&#xf6;" horiz-adv-x="589" 
d="M511 913l-12 -39v-51l-19 -19h-41l-29 10h-39l-22 29l12 31v39l19 30h30h40h39zM70 943h41h29l40 -10l20 -20v-39v-31l-20 -29h-31l-38 -10h-30l-31 19v51v50zM499 44l-38 -39l-40 5l-43 -5h-39h-39l-44 -5l-40 5l-38 -5l-39 5l-29 24l-30 30l-29 19l5 44v39v44v44l5 39
v44l4 43l5 40v44l-5 43l5 40l5 43v44v40l35 28l29 29l29 25h48h50l44 -4l48 4l49 5l30 -30l29 -29l33 -28v-40l6 -44v-43l10 -40v-43v-44l5 -45l4 -38l5 -44l-5 -45l5 -43l5 -39l5 -44v-44zM348 157l25 19v49v43l-5 69l5 49l5 43l-10 44v44l5 49v44l-30 19l-58 5l-24 -24
l-5 -49l5 -44l-5 -44v-44v-49v-43l5 -69l-10 -43v-49l29 -19h35h33z" />
    <glyph glyph-name="divide" unicode="&#xf7;" horiz-adv-x="460" 
d="M286 715l23 -29v-59l-6 -61l-26 -31l-47 8l-44 3l-47 6l-24 35v48l5 43l25 34h48l46 3h47zM286 247l23 -31v-55l-6 -65l-26 -29l-47 7l-44 3l-47 9l-24 33v46l5 47l25 32h48l46 3h47zM10 300l3 59v59l3 54l53 4l53 -4h52l56 4l51 -4l57 4l49 -4l60 4l-3 -63l6 -54v-59
h-53h-57h-54l-56 -5h-56h-52l-53 5h-59z" />
    <glyph glyph-name="ugrave" unicode="&#xf9;" horiz-adv-x="608" 
d="M136 864l5 39v42l42 -5l47 5h42h41l48 -5h43l43 5l41 -5l5 -37v-39l5 -42l-47 5l-47 -5h-43h-48h-41l-46 5l-43 -5h-47v42zM450 744l43 6l47 -3v-43l6 -43v-40l-6 -43l6 -44l-3 -40l6 -43l-3 -41v-42l3 -43l3 -41l3 -43v-40l3 -44v-43l-3 -39l-25 -26l-27 -21l-26 -28
l-39 3l-40 -6l-41 3h-40h-40h-41h-39h-40l-29 28l-30 18l-28 29v42l3 40l6 44l-3 43l9 40l-6 44l6 40v42l6 41l4 43v43l-7 41l3 43l7 40l-3 43l6 37l37 6l40 -3l40 -3l41 6v-43l3 -43v-43l3 -43v-44l-3 -43l6 -43v-44l3 -40l-3 -42v-44l6 -43l3 -40l19 -26h33l34 4l26 19
l6 43l-3 43v44l3 42l3 43l-3 44l9 40l-6 43l6 44l3 43l-3 43l6 43l-6 43z" />
    <glyph glyph-name="uacute" unicode="&#xfa;" horiz-adv-x="608" 
d="M136 862l5 39v42l42 -5l47 5h42h41l48 -5h43l43 5l41 -5l5 -37v-39l5 -42l-47 5l-47 -5h-43h-48h-41l-46 5l-43 -5h-47v42zM450 744l43 6l47 -3v-43l6 -43v-40l-6 -43l6 -44l-3 -40l6 -43l-3 -41v-42l3 -43l3 -41l3 -43v-40l3 -44v-43l-3 -39l-25 -26l-27 -21l-26 -28
l-39 3l-40 -6l-41 3h-40h-40h-41h-39h-40l-29 28l-30 18l-28 29v42l3 40l6 44l-3 43l9 40l-6 44l6 40v42l6 41l4 43v43l-7 41l3 43l7 40l-3 43l6 37l37 6l40 -3l40 -3l41 6v-43l3 -43v-43l3 -43v-44l-3 -43l6 -43v-44l3 -40l-3 -42v-44l6 -43l3 -40l19 -26h33l34 4l26 19
l6 43l-3 43v44l3 42l3 43l-3 44l9 40l-6 43l6 44l3 43l-3 43l6 43l-6 43z" />
    <glyph glyph-name="ucircumflex" unicode="&#xfb;" horiz-adv-x="608" 
d="M167 823l15 15l10 17l15 19l11 18l11 19l19 15l10 17h22l22 -3l23 3h22h22h22l15 -17l10 -19l15 -15l15 -18l11 -19l15 -14l15 -18h-27l-22 -4l-22 -3h-25l-22 -5l-11 22l-18 19l-15 18l-16 -18l-14 -22l-15 -19l-22 5h-22l-25 3h-22zM404 747l6 -43l-6 -43l3 -43l-3 -43
l-6 -44l6 -43l-9 -40l3 -44l-3 -43l-3 -42v-44l3 -43l-6 -43l-26 -19l-34 -4h-33l-19 26l-3 40l-6 43v44l3 42l-3 40v44l-6 43l3 43v44l-3 43v43l-3 43v43l-41 -6l-40 3l-40 3l-37 -6l-6 -37l3 -43l-7 -40l-3 -43l7 -41v-43l-4 -43l-6 -41v-42l-6 -40l6 -44l-9 -40l3 -43
l-6 -44l-3 -40v-42l28 -29l30 -18l29 -28h40h39h41h40h40l41 -3l40 6l39 -3l26 28l27 21l25 26l3 39v43l-3 44v40l-3 43l-3 41l-3 43v42l3 41l-6 43l3 40l-6 44l6 43v40l-6 43v43l-47 3l-43 -6z" />
    <glyph glyph-name="udieresis" unicode="&#xfc;" horiz-adv-x="608" 
d="M551 912l-12 -39v-51l-19 -19h-41l-29 10h-39l-22 29l12 31v39l19 30h30h40h39zM110 942h41h29l40 -10l20 -20v-39v-31l-20 -29h-31l-38 -10h-30l-31 19v51v50zM450 744l43 6l47 -3v-43l6 -43v-40l-6 -43l6 -44l-3 -40l6 -43l-3 -41v-42l3 -43l3 -41l3 -43v-40l3 -44v-43
l-3 -39l-25 -26l-27 -21l-26 -28l-39 3l-40 -6l-41 3h-40h-40h-41h-39h-40l-29 28l-30 18l-28 29v42l3 40l6 44l-3 43l9 40l-6 44l6 40v42l6 41l4 43v43l-7 41l3 43l7 40l-3 43l6 37l37 6l40 -3l40 -3l41 6v-43l3 -43v-43l3 -43v-44l-3 -43l6 -43v-44l3 -40l-3 -42v-44
l6 -43l3 -40l19 -26h33l34 4l26 19l6 43l-3 43v44l3 42l3 43l-3 44l9 40l-6 43l6 44l3 43l-3 43l6 43l-6 43z" />
    <glyph glyph-name="yacute" unicode="&#xfd;" horiz-adv-x="564" 
d="M93 862l5 39v42l42 -5l47 5h42h41l48 -5h43l43 5l41 -5l5 -37v-39l5 -42l-47 5l-47 -5h-43h-48h-41l-46 5l-43 -5h-47v42zM374 740l37 7l42 -12l41 12l-5 -48v-42l-7 -42l-6 -40l6 -48v-43v-41l-6 -40l6 -44l-6 -40v-43l-12 -41v-47l7 -42l-7 -43v-40l-5 -43l5 -41
l-5 -40v-44l-6 -48v-35l-47 -5l-49 5h-41l-48 -5l-48 5l-47 -5h-47v35v41l-13 37h49l46 -7l48 7h42l6 42v40h-43h-35h-41h-35h-44v43l-5 41v42l-13 37l-5 40v43l-5 40l-7 41v43v41l-6 43l-5 41l-12 41v42l-6 35v42l-12 42v41h48l48 7l41 -12l48 12v-48l11 -42v-42v-40
l12 -43l5 -41l8 -42l5 -41v-49l12 -40v-43v-41l13 -42l5 -42v-40h35v40l6 42l-6 42l6 41v43v45l-6 44l6 41v42v41v43l7 40l-7 42l7 42l-7 48z" />
    <glyph glyph-name="thorn" unicode="&#xfe;" horiz-adv-x="568" 
d="M516 507v-39l4 -45l5 -40v-41l9 -40v-41l4 -38v-45l-27 -23l-27 -18l-45 -4l-43 4h-49l-45 -4h-50v4l5 -45l-5 -45l5 -47l-50 5h-42h-41l-45 4l-4 38v45v45l4 41v45l-4 43l9 40l-14 45l9 41v45l-4 45l4 38v45v45v41l5 45l-5 42h45l45 9l43 5l40 -5l5 -33l-9 -36l4 -41
l5 -36h40l36 -4h41l40 4l39 -4l27 -27l31 -23zM387 266l-9 49l5 45l-9 50l-5 45l-9 22l-45 -4l-40 4l-14 -18l9 -4l5 -50l-5 -45v-49l5 -45l13 -12h41h40z" />
    <glyph glyph-name="ydieresis" unicode="&#xff;" horiz-adv-x="573" 
d="M503 913l-12 -39v-51l-19 -19h-41l-29 10h-39l-22 29l12 31v39l19 30h30h40h39zM62 943h41h29l40 -10l20 -20v-39v-31l-20 -29h-31l-38 -10h-30l-31 19v51v50zM374 740l37 7l42 -12l41 12l-5 -48v-42l-7 -42l-6 -40l6 -48v-43v-41l-6 -40l6 -44l-6 -40v-43l-12 -41v-47
l7 -42l-7 -43v-40l-5 -43l5 -41l-5 -40v-44l-6 -48v-35l-47 -5l-49 5h-41l-48 -5l-48 5l-47 -5h-47v35v41l-13 37h49l46 -7l48 7h42l6 42v40h-43h-35h-41h-35h-44v43l-5 41v42l-13 37l-5 40v43l-5 40l-7 41v43v41l-6 43l-5 41l-12 41v42l-6 35v42l-12 42v41h48l48 7l41 -12
l48 12v-48l11 -42v-42v-40l12 -43l5 -41l8 -42l5 -41v-49l12 -40v-43v-41l13 -42l5 -42v-40h35v40l6 42l-6 42l6 41v43v45l-6 44l6 41v42v41v43l7 40l-7 42l7 42l-7 48z" />
    <glyph glyph-name="Itilde" unicode="&#x128;" horiz-adv-x="521" 
d="M367 0h-44l-44 -6l-38 6h-43h-45v44l6 44v45v44l7 44v44v44v44v44l6 44v44v44v44l6 44v45l7 43v45l43 -7l51 7h50v-45v-43l13 -45l-6 -44l6 -44v-44l6 -44l-6 -44l6 -44l7 -44v-44l6 -44v-44v-44v-45v-44l6 -44v0zM451 831l-100 -32l-85 8l-83 11l-100 -19l-13 109
l104 23l81 -4l83 -10l109 27z" />
    <glyph glyph-name="itilde" unicode="&#x129;" horiz-adv-x="521" 
d="M367 0h-44l-44 -6l-38 6h-43h-45v44l6 44v45v44l7 44v44v44v44v44l6 44v44v44v44l6 44v45l7 43v45l43 -7l51 7h50v-45v-43l13 -45l-6 -44l6 -44v-44l6 -44l-6 -44l6 -44l7 -44v-44l6 -44v-44v-44v-45v-44zM451 831l-100 -32l-85 8l-83 11l-100 -19l-13 109l104 23l81 -4
l83 -10l109 27z" />
    <glyph glyph-name="OE" unicode="&#x152;" horiz-adv-x="857" 
d="M745 0h-40l-41 -3h-40l-42 8l-41 -5l-42 5l-41 -3v3l-39 -5l-40 2l-41 -2l-40 2h-41h-39l-40 3l-39 -3l-28 26l-32 21l-26 24l-3 41l3 43l8 41l-3 44l5 43v41l5 42l-2 42l2 43l3 40l3 44l-3 40l5 44l5 41l28 27l30 26l31 26l45 5l47 -5l46 5h45l46 2l12 -3l31 -4h46l43 2
l44 3l46 -5l43 2l43 -2h43l8 -42l-5 -42l2 -44l-43 -2l-46 2h-45l-46 -2l-44 -3l-3 -40l3 -46l3 -42l38 -7l39 7l40 -5l38 3h41l3 -38v-41l4 -37v-39l-2 -36l-38 -2l-38 5h-41l-38 -8l-44 5l13 -45l-3 -44v-43l6 -46l48 3h46l46 2l45 -2h46l3 -39v-35l3 -38h-44zM313 173
l32 2l24 21v46v45l-3 44l3 45l5 46l-3 44l3 45v47l-5 42l-24 26l-58 -8l-28 -18l-2 -45v-44v-45l2 -46v-44l-2 -45l-3 -46v-43v-46l23 -18z" />
    <glyph glyph-name="oe" unicode="&#x153;" horiz-adv-x="859" 
d="M789 0h-44h-40l-41 -3h-40l-42 8l-41 -5l-42 5l-41 -3v3l-39 -5l-40 2l-41 -2l-40 2h-41h-39l-40 3l-39 -3l-28 26l-32 21l-26 24l-3 41l3 43l8 41l-3 44l5 43v41l5 42l-2 42l2 43l3 40l3 44l-3 40l5 44l5 41l28 27l30 26l31 26l45 5l47 -5l46 5h45l46 2l12 -3l31 -4h46
l43 2l44 3l46 -5l43 2l43 -2h43l8 -42l-5 -42l2 -44l-43 -2l-46 2h-45l-46 -2l-44 -3l-3 -40l3 -46l3 -42l38 -7l39 7l40 -5l38 3h41l3 -38v-41l4 -37v-39l-2 -36l-38 -2l-38 5h-41l-38 -8l-44 5l13 -45l-3 -44v-43l6 -46l48 3h46l46 2l45 -2h46l3 -39v-35zM277 178l36 -5
l32 2l24 21v46v45l-3 44l3 45l5 46l-3 44l3 45v47l-5 42l-24 26l-58 -8l-28 -18l-2 -45v-44v-45l2 -46v-44l-2 -45l-3 -46v-43v-46z" />
    <glyph glyph-name="Scaron" unicode="&#x160;" horiz-adv-x="484" 
d="M383 948l-15 -15l-10 -17l-15 -19l-11 -18l-11 -19l-19 -15l-10 -17h-22l-22 3l-23 -3h-22h-22h-22l-15 17l-10 19l-15 15l-15 18l-11 19l-15 14l-15 18h27l22 4l22 3h25l22 5l11 -22l18 -19l15 -18l16 18l14 22l15 19l22 -5h22l25 -3h22zM190 617l41 4h42l41 -4l43 4
l41 -4l-4 45l-4 47l4 45h-50l-46 -4l-45 4l-46 -4l-47 -4l-45 4l-21 -33l-25 -33l-29 -34l12 -41l13 -42l17 -37l8 -43l9 -41l12 -42l12 -37l8 -42l17 -37l8 -42l9 -41l17 -42l8 -41l-50 4h-46h-46v-43l-4 -41l-4 -42h46h45l47 -8l45 4h46l45 -4l47 8l29 25l29 26l25 24
l-12 37l-21 38l-17 41l-17 38l-20 37l-21 39l-12 41l-26 38l-16 41l-17 38l-20 37l-14 42l-16 37l-21 38h-4v0z" />
    <glyph glyph-name="scaron" unicode="&#x161;" horiz-adv-x="484" 
d="M383 948l-15 -15l-10 -17l-15 -19l-11 -18l-11 -19l-19 -15l-10 -17h-22l-22 3l-23 -3h-22h-22h-22l-15 17l-10 19l-15 15l-15 18l-11 19l-15 14l-15 18h27l22 4l22 3h25l22 5l11 -22l18 -19l15 -18l16 18l14 22l15 19l22 -5h22l25 -3h22zM190 617l41 4h42l41 -4l43 4
l41 -4l-4 45l-4 47l4 45h-50l-46 -4l-45 4l-46 -4l-47 -4l-45 4l-21 -33l-25 -33l-29 -34l12 -41l13 -42l17 -37l8 -43l9 -41l12 -42l12 -37l8 -42l17 -37l8 -42l9 -41l17 -42l8 -41l-50 4h-46h-46v-43l-4 -41l-4 -42h46h45l47 -8l45 4h46l45 -4l47 8l29 25l29 26l25 24
l-12 37l-21 38l-17 41l-17 38l-20 37l-21 39l-12 41l-26 38l-16 41l-17 38l-20 37l-14 42l-16 37l-21 38h-4z" />
    <glyph glyph-name="Ycircumflex" unicode="&#x176;" horiz-adv-x="564" 
d="M327 747l47 -7l37 7l42 -12l41 12l-5 -48v-42l-7 -42l-6 -40l6 -48v-43v-41l-6 -40l6 -44l-6 -40v-43l-12 -41v-47l7 -42l-7 -43v-40l-5 -43l5 -41l-5 -40v-44l-6 -48v-35l-47 -5l-49 5h-41l-48 -5l-48 5l-47 -5h-47v35v41l-13 37h49l46 -7l48 7h42l6 42v40h-43h-35h-41
h-35h-44v43l-5 41v42l-13 37l-5 40v43l-5 40l-7 41v43v41l-6 43l-5 41l-12 41v42l-6 35v42l-12 42v41h48l48 7l41 -12l48 12v-48l11 -42v-42v-40l12 -43l5 -41l8 -42l5 -41v-49l12 -40v-43v-41l13 -42l5 -42v-40h35v40l6 42l-6 42l6 41v43v45l-6 44l6 41v42v41v43l7 40
l-7 42l7 42l-7 48v0zM122 825l15 15l10 17l15 19l11 18l11 19l19 15l10 17h22l22 -3l23 3h22h22h22l15 -17l10 -19l15 -15l15 -18l11 -19l15 -14l15 -18h-27l-22 -4l-22 -3h-25l-22 -5l-11 22l-18 19l-15 18l-16 -18l-14 -22l-15 -19l-22 5h-22l-25 3h-22z" />
    <glyph glyph-name="ycircumflex" unicode="&#x177;" horiz-adv-x="564" 
d="M374 740l37 7l42 -12l41 12l-5 -48v-42l-7 -42l-6 -40l6 -48v-43v-41l-6 -40l6 -44l-6 -40v-43l-12 -41v-47l7 -42l-7 -43v-40l-5 -43l5 -41l-5 -40v-44l-6 -48v-35l-47 -5l-49 5h-41l-48 -5l-48 5l-47 -5h-47v35v41l-13 37h49l46 -7l48 7h42l6 42v40h-43h-35h-41h-35
h-44v43l-5 41v42l-13 37l-5 40v43l-5 40l-7 41v43v41l-6 43l-5 41l-12 41v42l-6 35v42l-12 42v41h48l48 7l41 -12l48 12v-48l11 -42v-42v-40l12 -43l5 -41l8 -42l5 -41v-49l12 -40v-43v-41l13 -42l5 -42v-40h35v40l6 42l-6 42l6 41v43v45l-6 44l6 41v42v41v43l7 40l-7 42
l7 42l-7 48zM122 840l15 15l10 17l15 19l11 18l11 19l19 15l10 17h22l22 -3l23 3h22h22h22l15 -17l10 -19l15 -15l15 -18l11 -19l15 -14l15 -18h-27l-22 -4l-22 -3h-25l-22 -5l-11 22l-18 19l-15 18l-16 -18l-14 -22l-15 -19l-22 5h-22l-25 3h-22z" />
    <glyph glyph-name="Ydieresis" unicode="&#x178;" horiz-adv-x="568" 
d="M498 949l-12 -39v-51l-19 -19h-41l-29 10h-39l-22 29l12 31v39l19 30h30h40h39zM57 979h41h29l40 -10l20 -20v-39v-31l-20 -29h-31l-38 -10h-30l-31 19v51v50zM327 747l47 -7l37 7l42 -12l41 12l-5 -48v-42l-7 -42l-6 -40l6 -48v-43v-41l-6 -40l6 -44l-6 -40v-43l-12 -41
v-47l7 -42l-7 -43v-40l-5 -43l5 -41l-5 -40v-44l-6 -48v-35l-47 -5l-49 5h-41l-48 -5l-48 5l-47 -5h-47v35v41l-13 37h49l46 -7l48 7h42l6 42v40h-43h-35h-41h-35h-44v43l-5 41v42l-13 37l-5 40v43l-5 40l-7 41v43v41l-6 43l-5 41l-12 41v42l-6 35v42l-12 42v41h48l48 7
l41 -12l48 12v-48l11 -42v-42v-40l12 -43l5 -41l8 -42l5 -41v-49l12 -40v-43v-41l13 -42l5 -42v-40h35v40l6 42l-6 42l6 41v43v45l-6 44l6 41v42v41v43l7 40l-7 42l7 42z" />
    <glyph glyph-name="Zcaron" unicode="&#x17d;" horiz-adv-x="529" 
d="M453 948l-15 -15l-10 -17l-15 -19l-11 -18l-11 -19l-19 -15l-10 -17h-22l-22 3l-23 -3h-22h-22h-22l-15 17l-10 19l-15 15l-15 18l-11 19l-15 14l-15 18h27l22 4l22 3h25l22 5l11 -22l18 -19l15 -18l16 18l14 22l15 19l22 -5h22l25 -3h22zM289 129l9 41l15 44l17 40
l18 41l14 44l38 3l38 -3l44 -3l-6 44l-3 38l12 40l-3 41h-32h-30l15 44l12 44l20 43l15 44l-30 23l-20 29l-29 24l-41 -3l-41 -3l-40 3l-41 -3l-41 6l-38 -3h-41l-38 -3l-2 -41l-9 -44v-43l43 3l44 -3h41l44 3l40 -3h44v0l-20 -41l-24 -38l-26 -35h-43l-47 -9l-47 6v-41v-40
v-38v-38l50 -3l-23 -32l-15 -35l-18 -38l-23 -32l-14 -38l-27 -32l-20 -35l29 -29l21 -32l20 -32l47 6l40 -3h44h44h43l44 -3l44 -3l44 3l46 -3l-3 44l3 40l3 44l-44 -6h-43h-41h-44l-38 6v0z" />
    <glyph glyph-name="zcaron" unicode="&#x17e;" horiz-adv-x="529" 
d="M453 948l-15 -15l-10 -17l-15 -19l-11 -18l-11 -19l-19 -15l-10 -17h-22l-22 3l-23 -3h-22h-22h-22l-15 17l-10 19l-15 15l-15 18l-11 19l-15 14l-15 18h27l22 4l22 3h25l22 5l11 -22l18 -19l15 -18l16 18l14 22l15 19l22 -5h22l25 -3h22zM289 129l9 41l15 44l17 40
l18 41l14 44l38 3l38 -3l44 -3l-6 44l-3 38l12 40l-3 41h-32h-30l15 44l12 44l20 43l15 44l-30 23l-20 29l-29 24l-41 -3l-41 -3l-40 3l-41 -3l-41 6l-38 -3h-41l-38 -3l-2 -41l-9 -44v-43l43 3l44 -3h41l44 3l40 -3h44v0l-20 -41l-24 -38l-26 -35h-43l-47 -9l-47 6v-41v-40
v-38v-38l50 -3l-23 -32l-15 -35l-18 -38l-23 -32l-14 -38l-27 -32l-20 -35l29 -29l21 -32l20 -32l47 6l40 -3h44h44h43l44 -3l44 -3l44 3l46 -3l-3 44l3 40l3 44l-44 -6h-43h-41h-44z" />
    <glyph glyph-name="circumflex" unicode="&#x2c6;" horiz-adv-x="340" 
d="M10 840l15 15l10 17l15 19l11 18l11 19l19 15l10 17h22l22 -3l23 3h22h22h22l15 -17l10 -19l15 -15l15 -18l11 -19l15 -14l15 -18h-27l-22 -4l-22 -3h-25l-22 -5l-11 22l-18 19l-15 18l-16 -18l-14 -22l-15 -19l-22 5h-22l-25 3h-22z" />
    <glyph glyph-name="tilde" unicode="&#x2dc;" horiz-adv-x="401" 
d="M391 857l-100 -32l-85 8l-83 11l-100 -19l-13 109l104 23l81 -4l83 -10l109 27z" />
    <glyph glyph-name="Ygrave" unicode="&#x1ef2;" horiz-adv-x="564" 
d="M327 747l47 -7l37 7l42 -12l41 12l-5 -48v-42l-7 -42l-6 -40l6 -48v-43v-41l-6 -40l6 -44l-6 -40v-43l-12 -41v-47l7 -42l-7 -43v-40l-5 -43l5 -41l-5 -40v-44l-6 -48v-35l-47 -5l-49 5h-41l-48 -5l-48 5l-47 -5h-47v35v41l-13 37h49l46 -7l48 7h42l6 42v40h-43h-35h-41
h-35h-44v43l-5 41v42l-13 37l-5 40v43l-5 40l-7 41v43v41l-6 43l-5 41l-12 41v42l-6 35v42l-12 42v41h48l48 7l41 -12l48 12v-48l11 -42v-42v-40l12 -43l5 -41l8 -42l5 -41v-49l12 -40v-43v-41l13 -42l5 -42v-40h35v40l6 42l-6 42l6 41v43v45l-6 44l6 41v42v41v43l7 40
l-7 42l7 42l-7 48v0zM101 868l5 39v42l42 -5l47 5h42h41l48 -5h43l43 5l41 -5l5 -37v-39l5 -42l-47 5l-47 -5h-43h-48h-41l-46 5l-43 -5h-47v42z" />
    <glyph glyph-name="ygrave" unicode="&#x1ef3;" horiz-adv-x="564" 
d="M374 740l37 7l42 -12l41 12l-5 -48v-42l-7 -42l-6 -40l6 -48v-43v-41l-6 -40l6 -44l-6 -40v-43l-12 -41v-47l7 -42l-7 -43v-40l-5 -43l5 -41l-5 -40v-44l-6 -48v-35l-47 -5l-49 5h-41l-48 -5l-48 5l-47 -5h-47v35v41l-13 37h49l46 -7l48 7h42l6 42v40h-43h-35h-41h-35
h-44v43l-5 41v42l-13 37l-5 40v43l-5 40l-7 41v43v41l-6 43l-5 41l-12 41v42l-6 35v42l-12 42v41h48l48 7l41 -12l48 12v-48l11 -42v-42v-40l12 -43l5 -41l8 -42l5 -41v-49l12 -40v-43v-41l13 -42l5 -42v-40h35v40l6 42l-6 42l6 41v43v45l-6 44l6 41v42v41v43l7 40l-7 42
l7 42l-7 48zM101 898l5 39v42l42 -5l47 5h42h41l48 -5h43l43 5l41 -5l5 -37v-39l5 -42l-47 5l-47 -5h-43h-48h-41l-46 5l-43 -5h-47v42z" />
    <glyph glyph-name="endash" unicode="&#x2013;" horiz-adv-x="444" 
d="M10 324l5 37v28h58l32 5l56 -5l50 7l37 -7h30l57 -8l59 8h30v-28l10 -20l-10 -67h-30h-57l-42 5l-47 -5h-57h-30l-64 3l-52 -3h-30z" />
    <glyph glyph-name="emdash" unicode="&#x2014;" horiz-adv-x="722" 
d="M10 330l8 34v26h96l53 4l93 -4l83 6l61 -6h49l95 -8l97 8h50v-26l17 -18l-17 -62h-50h-94l-69 5l-78 -5h-94h-50l-106 3l-86 -3h-50z" />
    <glyph glyph-name="quoteleft" unicode="&#x2018;" horiz-adv-x="144" 
d="M91 503h-39l-40 1v46v47l-2 48v47l2 47l40 2l39 2l44 2l-4 -49l2 -49l-2 -50l2 -47v-47h-42z" />
    <glyph glyph-name="quoteright" unicode="&#x2019;" horiz-adv-x="143" 
d="M91 503h-39l-40 1v46v47l-2 48v47l2 47l40 2l39 2l44 2l-4 -49l2 -49l-2 -50l2 -47v-47h-42z" />
    <glyph glyph-name="quotesinglbase" unicode="&#x201a;" horiz-adv-x="162" 
d="M75 -98l1 30l4 35v31l-31 7l-30 8l-9 20l6 50l18 13l29 -3l35 -1v0l54 -6l-1 -35l-4 -30l1 -35l-1 -35l1 -31l-34 -22z" />
    <glyph glyph-name="quotedblleft" unicode="&#x201c;" horiz-adv-x="301" 
d="M91 503h-39l-40 1v46v47l-2 48v47l2 47l40 2l39 2l44 2l-4 -49l2 -49l-2 -50l2 -47v-47h-42zM253 503h-39l-40 1v46v47l-2 48v47l2 47l40 2l39 2l44 2l-4 -49l2 -49l-2 -50l2 -47v-47h-42z" />
    <glyph glyph-name="quotedblright" unicode="&#x201d;" horiz-adv-x="308" 
d="M91 503h-39l-40 1v46v47l-2 48v47l2 47l40 2l39 2l44 2l-4 -49l2 -49l-2 -50l2 -47v-47h-42zM253 503h-39l-40 1v46v47l-2 48v47l2 47l40 2l39 2l44 2l-4 -49l2 -49l-2 -50l2 -47v-47h-42z" />
    <glyph glyph-name="quotedblbase" unicode="&#x201e;" horiz-adv-x="322" 
d="M235 -98l1 30l4 35v31l-31 7l-30 8l-9 20l6 50l18 13l29 -3l35 -1v0l54 -6l-1 -35l-4 -30l1 -35l-1 -35l1 -31l-34 -22zM75 -98l1 30l4 35v31l-31 7l-30 8l-9 20l6 50l18 13l29 -3l35 -1v0l54 -6l-1 -35l-4 -30l1 -35l-1 -35l1 -31l-34 -22z" />
    <glyph glyph-name="dagger" unicode="&#x2020;" horiz-adv-x="444" 
d="M293 -104l-34 -2l-36 2l-38 8h-34l-2 36v39v39l-3 40l3 37l-3 39l-2 37v40l9 38l-9 40v39l11 37l-2 40l-4 37l4 40l-7 38l5 39l2 36l2 40l-6 38l6 40l-2 37l-2 40l2 34l34 10h38l36 12l39 2l-4 -42l2 -37l-2 -37l4 -40l-2 -36l-5 -40l3 -38l4 -37v-37l-2 -41l-5 -36
l5 -39l-7 -37l5 -39l2 -39l-2 -36l2 -37v-40l2 -37l-2 -38l-2 -41l4 -37l-7 -36l3 -40zM15 497l-5 50l5 37v28h58l32 5l56 -5l50 7l37 -7h30l57 -8l59 8h30v-28l10 -20l-10 -67h-30h-57l-42 5l-47 -5h-57h-30l-64 3l-52 -3h-30z" />
    <glyph glyph-name="daggerdbl" unicode="&#x2021;" horiz-adv-x="444" 
d="M293 -104l-34 -2l-36 2l-38 8h-34l-2 36v39v39l-3 40l3 37l-3 39l-2 37v40l9 38l-9 40v39l11 37l-2 40l-4 37l4 40l-7 38l5 39l2 36l2 40l-6 38l6 40l-2 37l-2 40l2 34l34 10h38l36 12l39 2l-4 -42l2 -37l-2 -37l4 -40l-2 -36l-5 -40l3 -38l4 -37v-37l-2 -41l-5 -36
l5 -39l-7 -37l5 -39l2 -39l-2 -36l2 -37v-40l2 -37l-2 -38l-2 -41l4 -37l-7 -36l3 -40zM10 547l5 37v28h58l32 5l56 -5l50 7l37 -7h30l57 -8l59 8h30v-28l10 -20l-10 -67h-30h-57l-42 5l-47 -5h-57h-30l-64 3l-52 -3h-30zM10 337l5 37v28h58l32 5l56 -5l50 7l37 -7h30l57 -8
l59 8h30v-28l10 -20l-10 -67h-30h-57l-42 5l-47 -5h-57h-30l-64 3l-52 -3h-30z" />
    <glyph glyph-name="bullet" unicode="&#x2022;" horiz-adv-x="170" 
d="M107 449l41 -18l12 -45l-18 -47l-35 -22l-50 -6l-41 22l-6 53l6 45l41 24l50 -6v0z" />
    <glyph glyph-name="ellipsis" unicode="&#x2026;" horiz-adv-x="687" 
d="M139 135l18 -23v-42l-6 -48l-17 -23l-35 6l-37 5h-34l-18 30v36v29l23 30h35h37h34zM399 135l18 -23v-42l-6 -48l-17 -23l-35 6l-37 5h-34l-18 30v36v29l23 30h35h37h34zM659 135l18 -23v-42l-6 -48l-17 -23l-35 6l-37 5h-34l-18 30v36v29l23 30h35h37h34z" />
    <glyph glyph-name="guilsinglleft" unicode="&#x2039;" horiz-adv-x="340" 
d="M312 69l-47 38l-59 34l-46 45l-52 27l-45 46l-53 33v77v79l53 32l52 40l45 39l46 32l45 47l53 32l8 -73l5 -70v-73l-52 -32l-59 -27l-52 -26l59 -25l59 -26l58 -26l-6 -79l-7 -72z" />
    <glyph glyph-name="guilsinglright" unicode="&#x203a;" horiz-adv-x="340" 
d="M28 669l47 -38l59 -34l46 -45l52 -27l45 -46l53 -33v-77v-79l-53 -32l-52 -40l-45 -39l-46 -32l-45 -47l-53 -32l-8 73l-5 70v73l52 32l59 27l52 26l-59 25l-59 26l-58 26l6 79l7 72z" />
    <glyph glyph-name="fraction" unicode="&#x2044;" horiz-adv-x="290" 
d="M134 -1l-34 7l-28 7l-35 7l-27 6v35l14 28v28l7 27l6 35l7 28l7 27l8 34v29l13 27l6 34v29l15 27v34l7 28l7 28l7 28l7 34l6 28l7 28v34l15 28v28l6 27l28 7l34 -7h28l35 -7l-7 -27v-34l-14 -29l-7 -35l-7 -27v-35l-6 -28l-8 -27l-7 -35l-7 -27l-6 -35l-7 -28v-34l-7 -28
l-7 -28l-7 -34v-28l-7 -34l-14 -28v-34l-13 -28v-28l-15 -35v-27v0z" />
    <glyph glyph-name="Euro" unicode="&#x20ac;" horiz-adv-x="599" 
d="M531 2l-42 -4l-42 4h-44h-42h-42h-44l-42 2h-42l-44 -6l-40 4l4 42l-2 40l4 42l2 42v40v40l-42 4v36l-6 36l4 40l54 -4v52h-54l2 38v38l-2 38h58l6 44l-2 44l6 46v44v46l46 -4h44l46 4l44 -4h44l44 6h44h48v-46l2 -44v-42l-44 -2h-48l-46 4l-46 -2l-42 -4l-4 -44l4 -46
l38 -6l42 2l38 2l40 -4l42 6l-4 -40l10 -36l-2 -38l-42 -2l-40 6l-40 -10l-38 6h-42l2 -52l40 4l38 2l40 -8l38 2h38v-36l6 -36l-4 -36h-46h-48l-48 -4l-48 4l6 -48l2 -46l4 -44h46h46l46 2l46 -2l44 -4l6 -34l-2 -38l2 -36v0z" />
    <glyph glyph-name="minus" unicode="&#x2212;" horiz-adv-x="518" 
d="M42 359v59l3 54l53 4l53 -4h52l56 4l51 -4l57 4l49 -4l60 4l-3 -63l6 -54v-59h-53h-57h-54l-56 -5h-56h-52l-53 5h-59z" />
    <glyph glyph-name=".null" horiz-adv-x="0" 
 />
    <glyph glyph-name="nonmarkingreturn" horiz-adv-x="500" 
 />
    <glyph glyph-name="HE.001" horiz-adv-x="0" 
 />
    <glyph glyph-name="KU4" horiz-adv-x="0" 
 />
    </font>
</defs>
</svg>
