<?xml version="1.0" standalone="no"?>
<!DOCTYPE svg PUBLIC "-//W3C//DTD SVG 1.1//EN" "http://www.w3.org/Graphics/SVG/1.1/DTD/svg11.dtd" >
<svg xmlns="http://www.w3.org/2000/svg" xmlns:xlink="http://www.w3.org/1999/xlink" version="1.1">
<metadata>
Created by FontForge 20160405 at Fri Jul 15 10:10:57 2016
 By www-data
Copyright (c) 2012, Eduardo Tunni (http://www.tipo.net.ar), with Reserved Font Name 'Unica'
</metadata>
<defs>
<font id="UnicaOne-Regular" horiz-adv-x="510" >
  <font-face 
    font-family="Unica One"
    font-weight="400"
    font-stretch="normal"
    units-per-em="1000"
    panose-1="2 0 5 6 0 0 0 2 0 4"
    ascent="800"
    descent="-200"
    x-height="650"
    cap-height="650"
    bbox="-181 -265 1183 917"
    underline-thickness="50"
    underline-position="-150"
    unicode-range="U+0020-FB04"
  />
<missing-glyph horiz-adv-x="230" 
 />
    <glyph glyph-name=".notdef" horiz-adv-x="230" 
 />
    <glyph glyph-name=".null" horiz-adv-x="0" 
 />
    <glyph glyph-name="nonmarkingreturn" horiz-adv-x="333" 
 />
    <glyph glyph-name="space" unicode=" " horiz-adv-x="230" 
 />
    <glyph glyph-name="exclam" unicode="!" horiz-adv-x="290" 
d="M180 0h-70v110h70v-110zM105 650h80v-245l-15 -195h-50l-15 195v245z" />
    <glyph glyph-name="quotedbl" unicode="&#x22;" horiz-adv-x="410" 
d="M85 665h90v-60l-30 -165h-30l-30 165v60zM235 665h90v-60l-30 -165h-30l-30 165v60z" />
    <glyph glyph-name="numbersign" unicode="#" horiz-adv-x="630" 
d="M40 195v60h109l21 140h-99v60h109l30 195h60l-30 -195h190l30 195h60l-30 -195h100v-60h-110l-21 -140h100v-60h-109l-30 -195h-60l30 195h-190l-30 -195h-60l30 195h-100zM230 395l-21 -140h190l21 140h-190z" />
    <glyph glyph-name="dollar" unicode="$" 
d="M230 -100v86q-144 10 -144 139v85h70v-89q0 -65 74 -75v256l-90 88q-31 31 -42.5 60.5t-11.5 74.5q0 129 144 139v86h50v-86q134 -12 134 -139v-85h-70v89q0 61 -64 73v-252l93 -89q29 -32 40 -61.5t11 -74.5q0 -129 -144 -139v-86h-50zM156 529q0 -34 7 -54t31 -42
l36 -35v206q-74 -9 -74 -75zM354 121q0 33 -7.5 53.5t-30.5 43.5l-36 35v-207q74 10 74 75z" />
    <glyph glyph-name="percent" unicode="%" horiz-adv-x="650" 
d="M260 -60h-45l175 770h45zM265 592v-153q0 -35 -22.5 -55.5t-67 -20.5t-67.5 20t-23 56v153q0 76 90 76q44 0 67 -20t23 -56zM217 439v153q0 33 -42 33t-42 -33v-153q0 -33 42 -33t42 33zM565 219v-153q0 -35 -22.5 -55.5t-67 -20.5t-67.5 20t-23 56v153q0 76 90 76
q44 0 67 -20t23 -56zM517 66v153q0 33 -42 33t-42 -33v-153q0 -33 42 -33t42 33z" />
    <glyph glyph-name="ampersand" unicode="&#x26;" 
d="M70 125v90q0 107 72 134q-52 81 -52 126v50q0 67 41.5 103.5t125.5 36.5q161 0 161 -140v-85h-70v89q0 36 -23.5 56t-70.5 20t-70.5 -20t-23.5 -56v-54q0 -36 55 -115h274v-60h-81v-175q0 -140 -169 -140t-169 140zM338 121v179h-129q-69 0 -69 -85v-94q0 -36 25 -56
t74 -20t74 20t25 56z" />
    <glyph glyph-name="quotesingle" unicode="'" horiz-adv-x="260" 
d="M85 665h90v-60l-30 -165h-30l-30 165v60z" />
    <glyph glyph-name="parenleft" unicode="(" horiz-adv-x="322" 
d="M85 75v500q0 67 43 103.5t129 36.5v-60q-102 0 -102 -80v-500q0 -80 101 -80v-60q-85 0 -128 36.5t-43 103.5z" />
    <glyph glyph-name="parenright" unicode=")" horiz-adv-x="322" 
d="M197 575v-500q0 -67 -43 -103.5t-128 -36.5v60q101 0 101 80v500q0 80 -102 80v60q86 0 129 -36.5t43 -103.5z" />
    <glyph glyph-name="asterisk" unicode="*" horiz-adv-x="382" 
d="M166 580v100h50v-100l99 26l12 -46l-99 -26l63 -80l-37 -30l-63 80l37 30l-12 46h-50zM154 534l-99 26l12 46l99 -26zM191 504l-63 -80l-37 30l63 80z" />
    <glyph glyph-name="plus" unicode="+" 
d="M225 485h60v-130h130v-60h-130v-130h-60v130h-130v60h130v130z" />
    <glyph glyph-name="comma" unicode="," horiz-adv-x="260" 
d="M85 110h90v-95l-49 -126l-32 6l15 105l-24 9v101z" />
    <glyph glyph-name="hyphen" unicode="-" horiz-adv-x="490" 
d="M95 300v60h300v-60h-300z" />
    <glyph glyph-name="period" unicode="." horiz-adv-x="260" 
d="M175 0h-90v110h90v-110z" />
    <glyph glyph-name="slash" unicode="/" horiz-adv-x="380" 
d="M120 -100h-60l200 850h60z" />
    <glyph glyph-name="zero" unicode="0" 
d="M425 525v-400q0 -67 -42.5 -103.5t-127 -36.5t-127.5 36.5t-43 103.5v400q0 67 42.5 103.5t127 36.5t127.5 -36.5t43 -103.5zM355 125v400q0 80 -100 80t-100 -80v-400q0 -80 100 -80t100 80z" />
    <glyph glyph-name="one" unicode="1" 
d="M306 650v-590h110v-60h-290v60h110v521l-134 -77l-30 51l164 95h70z" />
    <glyph glyph-name="two" unicode="2" 
d="M90 0v60l190 269q4 5 15 21t16 23t14 21t13.5 22.5t9.5 19.5q10 20 10 39v54q0 36 -23.5 56t-70.5 20t-70.5 -20t-23.5 -56v-89h-70v85q0 140 161 140q84 0 125.5 -36.5t41.5 -103.5v-50q0 -34 -21.5 -74.5t-72.5 -113.5l-159 -227h252v-60h-337z" />
    <glyph glyph-name="three" unicode="3" 
d="M415 525v-90q0 -85 -71 -109q81 -22 81 -111v-90q0 -140 -169 -140t-169 140v85h70v-89q0 -36 25 -56t74 -20t74 20t25 56v94q0 32 -24 58.5t-65 26.5h-101v50h91q42 0 65.5 26t23.5 59v94q0 36 -23.5 56t-70.5 20t-70.5 -20t-23.5 -56v-89h-70v85q0 140 161 140
q84 0 125.5 -36.5t41.5 -103.5z" />
    <glyph glyph-name="four" unicode="4" 
d="M366 650v-440h50v-60h-50v-150h-70v150h-265v60l265 440h70zM296 210v324l-195 -324h195z" />
    <glyph glyph-name="five" unicode="5" 
d="M167 590v-200h99q77 0 118 -39t41 -106v-120q0 -140 -169 -140t-169 140v85h70v-89q0 -36 25 -56t74 -20t74 20t25 56v124q0 32 -24 58.5t-65 26.5h-169v320h318v-60h-248z" />
    <glyph glyph-name="six" unicode="6" 
d="M85 126v399q0 140 169 140t169 -140v-65h-70v69q0 76 -99 76t-99 -76v-180q34 36 109 36t118 -36.5t43 -103.5v-120q0 -67 -42.5 -103.5t-127 -36.5t-127.5 36.5t-43 103.5l1 1h-1zM155 125q0 -80 100 -80t100 80v120q0 80 -97.5 80t-102.5 -73v-127z" />
    <glyph glyph-name="seven" unicode="7" 
d="M81 590v60h327v-60l-183 -590h-72l183 590h-255z" />
    <glyph glyph-name="eight" unicode="8" 
d="M86 125v95q0 82 72 105q-72 21 -72 105v95q0 140 161 140q84 0 125.5 -36.5t41.5 -103.5v-95q0 -82 -67 -104q77 -21 77 -106v-95q0 -140 -169 -140t-169 140zM265 300h-20q-42 0 -65.5 -24t-23.5 -56v-99q0 -36 25 -56t74 -20t74 20t25 56v99q0 32 -23.5 56t-65.5 24z
M156 529v-99q0 -33 23.5 -56.5t65.5 -23.5h10q42 0 65.5 23.5t23.5 56.5v99q0 36 -23.5 56t-70.5 20t-70.5 -20t-23.5 -56z" />
    <glyph glyph-name="nine" unicode="9" 
d="M425 524v-399q0 -140 -169 -140t-169 140v65h70v-69q0 -76 99 -76t99 76v179q-33 -35 -108.5 -35t-118.5 36.5t-43 103.5v120q0 67 42.5 103.5t127 36.5t127.5 -36.5t43 -103.5l-1 -1h1zM355 405v120q0 80 -100 80t-100 -80v-120q0 -80 100 -80t100 80z" />
    <glyph glyph-name="colon" unicode=":" horiz-adv-x="260" 
d="M175 0h-90v110h90v-110zM175 400h-90v110h90v-110z" />
    <glyph glyph-name="semicolon" unicode=";" horiz-adv-x="260" 
d="M85 110h90v-95l-49 -126l-32 6l15 105l-24 9v101zM175 400h-90v110h90v-110z" />
    <glyph glyph-name="less" unicode="&#x3c;" 
d="M95 303v44l293 170l27 -53l-243 -139l243 -139l-27 -53z" />
    <glyph glyph-name="equal" unicode="=" 
d="M415 275v-60h-320v60h320zM415 435v-60h-320v60h320z" />
    <glyph glyph-name="greater" unicode="&#x3e;" 
d="M415 347v-44l-293 -170l-27 53l243 139l-243 139l27 53z" />
    <glyph glyph-name="question" unicode="?" horiz-adv-x="438" 
d="M246 0h-70v110h70v-110zM189 210v60l41 59q4 5 15 21t16 23t14 21t13.5 22.5t9.5 19.5q10 20 10 39v54q0 36 -23.5 56t-70.5 20t-70.5 -20t-23.5 -56v-89h-70v85q0 140 161 140q84 0 125.5 -36.5t41.5 -103.5v-50q0 -34 -21.5 -75.5t-72.5 -112.5l-55 -77h-40z" />
    <glyph glyph-name="at" unicode="@" horiz-adv-x="746" 
d="M497 489v-147h77v165q0 163 -201 163t-201 -163v-364q0 -163 201 -163t201 163v25h52v-25q0 -99 -63 -153.5t-189 -54.5t-190 54.5t-64 153.5v364q0 99 63 153.5t188.5 54.5t190 -54.5t64.5 -153.5v-216h-129v-129q0 -111 -129 -111t-129 111v73q0 52 27 79.5t90 27.5h77
v150q0 26 -16 41t-46 15q-60 0 -60 -56v-87h-65v84q0 111 125.5 111t125.5 -111zM433 159v132h-82q-46 0 -46 -53v-80q0 -55 64 -55t64 56z" />
    <glyph glyph-name="A" unicode="A" horiz-adv-x="479" 
d="M187 650h105l147 -650h-70l-34 150h-191l-34 -150h-70zM239 572l-82 -362h164z" />
    <glyph glyph-name="B" unicode="B" horiz-adv-x="505" 
d="M100 650h151q78 0 118.5 -37t40.5 -103v-60q0 -85 -71 -109q81 -22 81 -111v-90q0 -67 -40 -103.5t-119 -36.5h-161v650zM350 140v90q0 32 -24 58.5t-65 26.5h-91v-255h91q42 0 65.5 23.5t23.5 56.5zM340 450v60q0 32 -23.5 56t-65.5 24h-81v-225h81q42 0 65.5 26
t23.5 59z" />
    <glyph glyph-name="C" unicode="C" horiz-adv-x="490" 
d="M345 125v55h70v-55q0 -67 -41 -103.5t-123 -36.5t-124 36.5t-42 103.5v400q0 67 41 103.5t123 36.5t124 -36.5t42 -103.5v-95h-70v95q0 80 -95 80t-95 -80v-400q0 -80 95 -80t95 80z" />
    <glyph glyph-name="D" unicode="D" horiz-adv-x="505" 
d="M261 0h-161v650h161q78 0 118.5 -37t40.5 -103v-370q0 -67 -40 -103.5t-119 -36.5zM350 140v370q0 32 -23.5 56t-65.5 24h-91v-530h91q42 0 65.5 23.5t23.5 56.5z" />
    <glyph glyph-name="E" unicode="E" horiz-adv-x="445" 
d="M395 0h-295v650h285v-60h-215v-230h175v-60h-175v-240h225v-60z" />
    <glyph glyph-name="F" unicode="F" horiz-adv-x="415" 
d="M170 0h-70v650h275v-60h-205v-230h165v-60h-165v-300z" />
    <glyph glyph-name="G" unicode="G" horiz-adv-x="500" 
d="M233 270v60h182v-330h-30l-26 64q-21 -36 -55 -57.5t-74 -21.5q-145 0 -145 140v400q0 67 41 103.5t123 36.5t124 -36.5t42 -103.5v-55h-70v55q0 80 -95 80t-95 -80v-400q0 -38 16 -59t58.5 -21t79 34t36.5 66v125h-112z" />
    <glyph glyph-name="H" unicode="H" horiz-adv-x="537" 
d="M170 0h-70v650h70v-290h197v290h70v-650h-70v300h-197v-300z" />
    <glyph glyph-name="I" unicode="I" horiz-adv-x="310" 
d="M240 60v-60h-170v60h50v530h-50v60h170v-60h-50v-530h50z" />
    <glyph glyph-name="J" unicode="J" horiz-adv-x="380" 
d="M90 650h200v-535q0 -64 -36 -97t-100 -33t-99 33t-35 97v65h70v-69q0 -66 64 -66q66 0 66 66v479h-130v60z" />
    <glyph glyph-name="K" unicode="K" horiz-adv-x="455" 
d="M171 0h-70v650h70v-276l174 276h78l-177 -280l189 -370h-77l-154 303l-33 -53v-250z" />
    <glyph glyph-name="L" unicode="L" horiz-adv-x="373" 
d="M100 0v650h70v-590h183v-60h-253z" />
    <glyph glyph-name="M" unicode="M" horiz-adv-x="639" 
d="M170 0h-70v650h105l114 -429l115 429h105v-650h-70v538l-117 -438h-65l-117 438v-538z" />
    <glyph glyph-name="N" unicode="N" horiz-adv-x="557" 
d="M170 0h-70v650h70l217 -500v500h70v-650h-70l-217 500v-500z" />
    <glyph glyph-name="O" unicode="O" 
d="M425 525v-400q0 -67 -42.5 -103.5t-127 -36.5t-127.5 36.5t-43 103.5v400q0 67 42.5 103.5t127 36.5t127.5 -36.5t43 -103.5zM355 125v400q0 80 -100 80t-100 -80v-400q0 -80 100 -80t100 80z" />
    <glyph glyph-name="P" unicode="P" horiz-adv-x="460" 
d="M160 0h-70v650h151q78 0 118.5 -37t40.5 -103v-170q0 -67 -40 -103.5t-119 -36.5h-81v-200zM330 340v170q0 38 -23 59t-66 21h-81v-330h81q89 0 89 80z" />
    <glyph glyph-name="Q" unicode="Q" 
d="M425 525v-400q0 -123 -135 -138l30 -129h-60l-30 128q-145 12 -145 139v400q0 67 42.5 103.5t127 36.5t127.5 -36.5t43 -103.5zM355 125v400q0 80 -100 80t-100 -80v-400q0 -80 100 -80t100 80z" />
    <glyph glyph-name="R" unicode="R" horiz-adv-x="485" 
d="M170 0h-70v650h151q78 0 118.5 -37t40.5 -103v-140q0 -102 -88 -130l123 -240h-77l-117 230h-81v-230zM340 370v140q0 38 -23 59t-66 21h-81v-300h81q89 0 89 80z" />
    <glyph glyph-name="S" unicode="S" horiz-adv-x="498" 
d="M418 125q0 -140 -169 -140t-169 140v85h70v-89q0 -36 25 -56t74 -20t74 20t25 54.5t-7.5 55t-30.5 43.5l-176 172q-31 31 -42.5 60.5t-11.5 74.5q0 67 41.5 103.5t125.5 36.5q161 0 161 -140v-85h-70v89q0 36 -23.5 56t-70.5 20t-70.5 -20t-23.5 -55t7 -55t31 -42
l179 -172q29 -32 40 -61.5t11 -74.5z" />
    <glyph glyph-name="T" unicode="T" horiz-adv-x="390" 
d="M360 650v-60h-130v-590h-70v590h-130v60h330z" />
    <glyph glyph-name="U" unicode="U" horiz-adv-x="520" 
d="M360 125v525h70v-525q0 -67 -42.5 -103.5t-127 -36.5t-127.5 36.5t-43 103.5v525h70v-525q0 -80 100 -80t100 80z" />
    <glyph glyph-name="V" unicode="V" horiz-adv-x="479" 
d="M292 0h-105l-147 650h70l129 -573l130 573h70z" />
    <glyph glyph-name="W" unicode="W" horiz-adv-x="683" 
d="M240 0h-98l-97 650h70l82 -549l107 549h75l107 -549l82 549h70l-97 -650h-98l-102 519z" />
    <glyph glyph-name="X" unicode="X" horiz-adv-x="452" 
d="M412 0h-73l-113 253l-113 -253h-73l150 335l-140 315h73l107 -242l109 242h73l-145 -324z" />
    <glyph glyph-name="Y" unicode="Y" horiz-adv-x="450" 
d="M260 0h-70v233l-165 417h74l126 -335l126 335h74l-165 -418v-232z" />
    <glyph glyph-name="Z" unicode="Z" horiz-adv-x="417" 
d="M50 590v60h327v-60l-269 -530h264v-60h-337v60l269 530h-254z" />
    <glyph glyph-name="bracketleft" unicode="[" horiz-adv-x="322" 
d="M85 -60v770h172v-60h-102v-650h101v-60h-171z" />
    <glyph glyph-name="backslash" unicode="\" horiz-adv-x="380" 
d="M320 -100h-60l-200 850h60z" />
    <glyph glyph-name="bracketright" unicode="]" horiz-adv-x="322" 
d="M197 710v-770h-171v60h101v650h-102v60h172z" />
    <glyph glyph-name="asciicircum" unicode="^" 
d="M233 650h44l133 -228l-53 -27l-102 178l-102 -178l-53 27z" />
    <glyph glyph-name="underscore" unicode="_" horiz-adv-x="420" 
d="M401 0v-60h-382v60h382z" />
    <glyph glyph-name="grave" unicode="`" horiz-adv-x="317" 
d="M128 755l-38 38l54 54l123 -123l-26 -26z" />
    <glyph glyph-name="a" unicode="a" horiz-adv-x="500" 
d="M410 0h-30l-26 64q-21 -36 -55 -57.5t-75 -21.5q-144 0 -144 140v100q0 140 144 140h116v164q0 36 -23 56t-68 20q-89 0 -89 -76v-59h-70v55q0 67 39.5 103.5t119.5 36.5t120.5 -36.5t40.5 -103.5v-525zM340 305h-116q-42 0 -58 -21t-16 -59v-100q0 -38 16 -59t58 -21
t78 32.5t38 64.5v163z" />
    <glyph glyph-name="b" unicode="b" horiz-adv-x="505" 
d="M100 650h151q78 0 118.5 -37t40.5 -103v-60q0 -85 -71 -109q81 -22 81 -111v-90q0 -67 -40 -103.5t-119 -36.5h-161v650zM350 140v90q0 38 -23 61.5t-66 23.5h-91v-255h91q89 0 89 80zM340 450v60q0 38 -23 59t-66 21h-81v-225h81q44 0 66.5 23t22.5 62z" />
    <glyph glyph-name="c" unicode="c" horiz-adv-x="490" 
d="M345 125v55h70v-55q0 -67 -41 -103.5t-123 -36.5t-124 36.5t-42 103.5v400q0 67 41 103.5t123 36.5t124 -36.5t42 -103.5v-95h-70v95q0 80 -95 80t-95 -80v-400q0 -80 95 -80t95 80z" />
    <glyph glyph-name="d" unicode="d" horiz-adv-x="505" 
d="M261 0h-161v650h161q78 0 118.5 -37t40.5 -103v-370q0 -67 -40 -103.5t-119 -36.5zM350 140v370q0 38 -23 59t-66 21h-91v-530h91q89 0 89 80z" />
    <glyph glyph-name="e" unicode="e" horiz-adv-x="500" 
d="M345 125v55h70v-55q0 -67 -41 -103.5t-123 -36.5t-124 36.5t-42 103.5v400q0 67 41 103.5t123 36.5t124 -36.5t42 -103.5v-220h-260v-180q0 -80 95 -80t95 80zM155 525v-160h190v160q0 80 -95 80t-95 -80z" />
    <glyph glyph-name="f" unicode="f" horiz-adv-x="415" 
d="M170 0h-70v650h275v-60h-205v-230h165v-60h-165v-300z" />
    <glyph glyph-name="g" unicode="g" horiz-adv-x="500" 
d="M233 270v60h182v-205q0 -67 -41 -103.5t-123 -36.5t-124 36.5t-42 103.5v400q0 67 41 103.5t123 36.5t124 -36.5t42 -103.5v-55h-70v55q0 80 -95 80t-95 -80v-400q0 -80 95 -80t95 80v145h-112z" />
    <glyph glyph-name="h" unicode="h" horiz-adv-x="537" 
d="M170 0h-70v650h70v-290h197v290h70v-650h-70v300h-197v-300z" />
    <glyph glyph-name="i" unicode="i" horiz-adv-x="270" 
d="M170 0h-70v650h70v-650z" />
    <glyph glyph-name="j" unicode="j" horiz-adv-x="380" 
d="M220 650h70v-535q0 -64 -36 -97t-100 -33t-99 33t-35 97v65h70v-69q0 -66 64 -66q66 0 66 66v539z" />
    <glyph glyph-name="k" unicode="k" horiz-adv-x="455" 
d="M171 0h-70v650h70v-276l174 276h78l-177 -280l189 -370h-77l-154 303l-33 -53v-250z" />
    <glyph glyph-name="l" unicode="l" horiz-adv-x="373" 
d="M100 0v650h70v-590h183v-60h-253z" />
    <glyph glyph-name="m" unicode="m" horiz-adv-x="770" 
d="M170 0h-70v650h30l25 -64q21 36 55 57.5t74 21.5q101 0 129 -73q48 73 126 73q141 0 141 -140v-525h-70v525q0 80 -72 80q-42 0 -77.5 -34t-35.5 -66v-505h-70v525q0 80 -72 80q-42 0 -77.5 -32.5t-35.5 -64.5v-508z" />
    <glyph glyph-name="n" unicode="n" horiz-adv-x="525" 
d="M170 0h-70v650h30l25 -65q48 80 133 80q147 0 147 -140v-525h-70v525q0 38 -16.5 59t-60.5 21t-81 -34t-37 -66v-505z" />
    <glyph glyph-name="o" unicode="o" 
d="M425 525v-400q0 -67 -42.5 -103.5t-127 -36.5t-127.5 36.5t-43 103.5v400q0 67 42.5 103.5t127 36.5t127.5 -36.5t43 -103.5zM355 125v400q0 80 -100 80t-100 -80v-400q0 -80 100 -80t100 80z" />
    <glyph glyph-name="p" unicode="p" horiz-adv-x="460" 
d="M160 0h-70v650h151q78 0 118.5 -37t40.5 -103v-170q0 -67 -40 -103.5t-119 -36.5h-81v-200zM330 340v170q0 38 -23 59t-66 21h-81v-330h81q89 0 89 80z" />
    <glyph glyph-name="q" unicode="q" 
d="M425 525v-400q0 -74 -60 -107l145 -28l-11 -53l-243 48q-85 0 -128 36.5t-43 103.5v400q0 67 42.5 103.5t127 36.5t127.5 -36.5t43 -103.5zM355 125v400q0 80 -100 80t-100 -80v-400q0 -80 100 -80t100 80z" />
    <glyph glyph-name="r" unicode="r" horiz-adv-x="400" 
d="M170 0h-70v650h30l29 -74q32 89 102 89q119 0 119 -130v-65h-67v69q0 66 -55 66q-33 0 -60.5 -38t-27.5 -110v-457z" />
    <glyph glyph-name="s" unicode="s" horiz-adv-x="498" 
d="M418 125q0 -140 -169 -140t-169 140v85h70v-89q0 -36 25 -56t74 -20t74 20t25 54.5t-7.5 55t-30.5 43.5l-176 172q-31 31 -42.5 60.5t-11.5 74.5q0 67 41.5 103.5t125.5 36.5q161 0 161 -140v-85h-70v89q0 36 -23.5 56t-70.5 20t-70.5 -20t-23.5 -55t7 -55t31 -42
l179 -172q29 -32 40 -61.5t11 -74.5z" />
    <glyph glyph-name="t" unicode="t" horiz-adv-x="375" 
d="M85 650h220v-60h-150v-479q0 -28 14.5 -47t41 -19t40.5 18.5t14 47.5v119h70v-115q0 -63 -33.5 -96.5t-90.5 -33.5t-91.5 33.5t-34.5 96.5v535z" />
    <glyph glyph-name="u" unicode="u" horiz-adv-x="525" 
d="M90 125v525h70v-525q0 -38 16.5 -59t60.5 -21t81 34t37 66v505h70v-650h-30l-26 64q-22 -36 -56.5 -57.5t-75.5 -21.5q-147 0 -147 140z" />
    <glyph glyph-name="v" unicode="v" horiz-adv-x="479" 
d="M292 0h-105l-147 650h70l129 -573l130 573h70z" />
    <glyph glyph-name="w" unicode="w" horiz-adv-x="760" 
d="M345 125v525h70v-525q0 -80 92.5 -80t92.5 80v525h70v-525q0 -66 -42 -103t-124.5 -37t-123.5 58q-39 -58 -122.5 -58t-125.5 37t-42 103v525h70v-525q0 -80 92.5 -80t92.5 80z" />
    <glyph glyph-name="x" unicode="x" horiz-adv-x="452" 
d="M412 0h-73l-113 253l-113 -253h-73l150 335l-140 315h73l107 -242l109 242h73l-145 -324z" />
    <glyph glyph-name="y" unicode="y" horiz-adv-x="470" 
d="M271 0h-70v184q-136 15 -136 138v328h70v-328q0 -80 100 -80t100 80v328h70v-328q0 -123 -134 -138v-184z" />
    <glyph glyph-name="z" unicode="z" horiz-adv-x="417" 
d="M50 590v60h327v-60l-269 -530h264v-60h-337v60l269 530h-254z" />
    <glyph glyph-name="braceleft" unicode="{" horiz-adv-x="322" 
d="M85 75v169q0 22 -15.5 39t-43.5 17v50q28 0 43.5 17t15.5 39v169q0 67 43 103.5t129 36.5v-60q-102 0 -102 -80v-169q0 -62 -70 -78v-8q70 -16 70 -76v-169q0 -80 102 -80v-60q-86 0 -129 36.5t-43 103.5z" />
    <glyph glyph-name="bar" unicode="|" horiz-adv-x="270" 
d="M110 -100v850h60v-850h-60z" />
    <glyph glyph-name="braceright" unicode="}" horiz-adv-x="322" 
d="M197 244v-169q0 -67 -43 -103.5t-129 -36.5v60q102 0 102 80v169q0 60 70 76v8q-70 16 -70 78v169q0 80 -102 80v60q86 0 129 -36.5t43 -103.5v-169q0 -22 15.5 -39t43.5 -17v-50q-28 0 -43.5 -17t-15.5 -39z" />
    <glyph glyph-name="asciitilde" unicode="~" 
d="M415 295q-34 23 -68 23t-90.5 -24.5t-94 -24.5t-67.5 26v60q31 -26 64 -26t89.5 24.5t93 24.5t73.5 -23v-60z" />
    <glyph glyph-name="nbspace" unicode="&#xa0;" horiz-adv-x="230" 
 />
    <glyph glyph-name="exclamdown" unicode="&#xa1;" horiz-adv-x="290" 
d="M110 650h70v-110h-70v110zM105 0v245l15 195h50l15 -195v-245h-80z" />
    <glyph glyph-name="cent" unicode="&#xa2;" 
d="M245 -100v135q-74 4 -112 40.5t-38 99.5v300q0 133 150 139v136h50v-137q64 -8 97 -43.5t33 -94.5v-65h-70v65q0 61 -60 76v-453q60 13 60 77v25h70v-25q0 -123 -130 -138v-137h-50zM165 175q0 -73 80 -80v459q-80 -6 -80 -79v-300z" />
    <glyph glyph-name="sterling" unicode="&#xa3;" 
d="M428 60v-60h-367l30 55l4 205h-45v50h46l4 215q3 140 167 140q75 0 113 -36.5t38 -103.5v-85h-70v89q0 36 -21 56t-63 20q-92 0 -94 -76l-4 -219h192v-50h-193l-4 -200h267z" />
    <glyph glyph-name="currency" unicode="&#xa4;" 
d="M406 350v-50q0 -44 -16 -75l98 -98l-35 -35l-95 95q-36 -27 -101 -27t-104 28l-96 -96l-35 35l99 99q-15 31 -15 74v50q0 45 15 74l-99 99l35 35l96 -96q37 28 101 28t103 -28l96 96l35 -35l-98 -98q16 -31 16 -75zM336 300v50q0 80 -81 80q-79 0 -79 -80v-50
q0 -80 81 -80q79 0 79 80z" />
    <glyph glyph-name="yen" unicode="&#xa5;" 
d="M290 0h-70v110h-145v50h145v73l-11 27h-134v50h114l-134 340h74l126 -335l126 335h74l-135 -340h115v-50h-135l-10 -27v-73h145v-50h-145v-110z" />
    <glyph glyph-name="brokenbar" unicode="&#xa6;" horiz-adv-x="270" 
d="M110 -100v320h60v-320h-60zM110 430v320h60v-320h-60z" />
    <glyph glyph-name="section" unicode="&#xa7;" horiz-adv-x="478" 
d="M150 340h61l139 -138q58 -58 58 -122v-10q0 -67 -41.5 -103.5t-125.5 -36.5q-161 0 -161 140v55h70v-59q0 -36 23.5 -56t70.5 -20t70.5 20t23.5 56v14q0 24 -14.5 45.5t-66.5 73.5l-107 106v35zM328 325h-61l-139 138q-58 58 -58 122v10q0 67 41.5 103.5t125.5 36.5
q161 0 161 -140v-55h-70v59q0 36 -23.5 56t-70.5 20t-70.5 -20t-23.5 -56v-14q0 -24 14.5 -45.5t66.5 -73.5l107 -106v-35z" />
    <glyph glyph-name="dieresis" unicode="&#xa8;" horiz-adv-x="380" 
d="M155 715h-70v110h70v-110zM295 715h-70v110h70v-110z" />
    <glyph glyph-name="copyright" unicode="&#xa9;" horiz-adv-x="500" 
d="M289 366v34h48v-34q0 -36 -22 -56t-65.5 -20t-65.5 20t-22 56v153q0 76 87.5 76t87.5 -76v-53h-48v53q0 33 -39.5 33t-39.5 -33v-153q0 -33 39.5 -33t39.5 33zM420 525v-167q0 -67 -42.5 -103.5t-127 -36.5t-127.5 36.5t-43 103.5v167q0 67 42.5 103.5t127 36.5
t127.5 -36.5t43 -103.5zM385 358v167q0 110 -135 110t-135 -110v-167q0 -110 135 -110t135 110z" />
    <glyph glyph-name="ordfeminine" unicode="&#xaa;" horiz-adv-x="344" 
d="M254 398h-16l-19 32q-25 -40 -62 -40q-77 0 -77 75v18q0 75 77 75h50v64q0 31 -37.5 31t-37.5 -31v-25h-47v23q0 75 84.5 75t84.5 -75v-222zM157 433q18 0 34 13.5t16 26.5v44h-50q-29 0 -29 -32v-20q0 -32 29 -32z" />
    <glyph glyph-name="guillemotleft" unicode="&#xab;" horiz-adv-x="452" 
d="M125 325l117 -149l-49 -43l-133 170v44l133 170l49 -43zM295 325l117 -149l-49 -43l-133 170v44l133 170l49 -43z" />
    <glyph glyph-name="logicalnot" unicode="&#xac;" 
d="M361 295h-266v60h320v-180h-54v120z" />
    <glyph glyph-name="registered" unicode="&#xae;" horiz-adv-x="500" 
d="M420 525v-167q0 -67 -42.5 -103.5t-127 -36.5t-127.5 36.5t-43 103.5v167q0 67 42.5 103.5t127 36.5t127.5 -36.5t43 -103.5zM385 358v167q0 110 -135 110t-135 -110v-167q0 -110 135 -110t135 110zM217 300h-48v285h80q42 0 63.5 -20.5t21.5 -55.5v-31q0 -51 -40 -67
l56 -111h-52l-50 103h-31v-103zM286 478v31q0 33 -37 33h-32v-96h32q37 0 37 32z" />
    <glyph glyph-name="macron" unicode="&#xaf;" horiz-adv-x="366" 
d="M75 740v60h216v-60h-216z" />
    <glyph glyph-name="degree" unicode="&#xb0;" horiz-adv-x="379" 
d="M294 590v-124q0 -75 -104.5 -75t-104.5 75v124q0 75 104.5 75t104.5 -75zM246 466v124q0 33 -56.5 33t-56.5 -33v-124q0 -32 56.5 -32t56.5 32z" />
    <glyph glyph-name="plusminus" unicode="&#xb1;" 
d="M225 485h60v-130h130v-60h-130v-130h-60v130h-130v60h130v130zM415 60v-60h-320v60h320z" />
    <glyph glyph-name="twosuperior" unicode="&#xb2;" horiz-adv-x="305" 
d="M64 365v39l101 124q30 38 30 52v6q0 31 -39 31t-39 -31v-20h-48v18q0 76 87 76t87 -76v-4q0 -30 -47 -87l-71 -85h117v-43h-178z" />
    <glyph glyph-name="threesuperior" unicode="&#xb3;" horiz-adv-x="305" 
d="M236 584v-27q0 -37 -34 -53q39 -14 39 -54v-19q0 -76 -89.5 -76t-89.5 76v13h48v-15q0 -31 41.5 -31t41.5 31v21q0 13 -10 24t-26 11h-47v38h42q17 0 26.5 10.5t9.5 23.5v29q0 31 -39 31t-39 -31v-20h-48v18q0 76 87 76t87 -76z" />
    <glyph glyph-name="acute" unicode="&#xb4;" horiz-adv-x="317" 
d="M277 793l-38 -38l-113 -57l-26 26l123 123z" />
    <glyph glyph-name="mu" unicode="&#xb5;" horiz-adv-x="525" 
d="M90 550h70v-425q0 -38 16.5 -59t60.5 -21t81 34t37 66v405h70v-550h-30l-26 64q-22 -36 -56.5 -57.5t-75.5 -21.5q-65 0 -96 33l19 -118v-150h-70v800z" />
    <glyph glyph-name="paragraph" unicode="&#xb6;" horiz-adv-x="478" 
d="M239 0h-70v276l-25 31q-55 67 -74.5 100.5t-19.5 67.5v50q0 67 41.5 103.5t125.5 36.5q161 0 161 -140v-525h-70v529q0 36 -23.5 56t-70.5 20t-70.5 -20t-23.5 -56v-54q0 -24 14 -44.5t19 -27.5t23 -28t22 -26l41 -49v-300z" />
    <glyph glyph-name="periodcentered" unicode="&#xb7;" horiz-adv-x="260" 
d="M175 270h-90v110h90v-110z" />
    <glyph glyph-name="cedilla" unicode="&#xb8;" horiz-adv-x="305" 
d="M167 -62q41 0 62.5 -21.5t21.5 -57.5v-23q0 -76 -89.5 -76t-89.5 76v8h48v-10q0 -31 41.5 -31t41.5 31v25q0 14 -10 25t-26 11h-60l21 107h47l-13 -64h5z" />
    <glyph glyph-name="onesuperior" unicode="&#xb9;" horiz-adv-x="305" 
d="M188 650v-285h-48v233l-62 -35l-21 35l88 52h43z" />
    <glyph glyph-name="ordmasculine" unicode="&#xba;" horiz-adv-x="349" 
d="M264 621v-155q0 -75 -89.5 -75t-89.5 75v155q0 75 89.5 75t89.5 -75zM216 466v155q0 33 -41.5 33t-41.5 -33v-155q0 -32 41.5 -32t41.5 32z" />
    <glyph glyph-name="guillemotright" unicode="&#xbb;" horiz-adv-x="452" 
d="M327 325l-117 149l49 43l133 -170v-44l-133 -170l-49 43zM157 325l-117 149l49 43l133 -170v-44l-133 -170l-49 43z" />
    <glyph glyph-name="onequarter" unicode="&#xbc;" horiz-adv-x="395" 
d="M70 316v29h255v-29h-255zM223 658v-285h-48v233l-62 -35l-21 35l88 52h43zM254 285v-189h25v-43h-25v-53h-48v53h-130v39l133 193h45zM206 96v106l-77 -106h77z" />
    <glyph glyph-name="onehalf" unicode="&#xbd;" horiz-adv-x="395" 
d="M70 316v29h255v-29h-255zM223 658v-285h-48v233l-62 -35l-21 35l88 52h43zM108 0v39l101 124q30 37 30 52v6q0 31 -39 31t-39 -31v-20h-48v18q0 76 87 76t87 -76v-4q0 -30 -47 -87l-71 -85h117v-43h-178z" />
    <glyph glyph-name="threequarters" unicode="&#xbe;" horiz-adv-x="395" 
d="M70 316v29h255v-29h-255zM282 592v-27q0 -37 -34 -53q39 -14 39 -54v-19q0 -76 -89.5 -76t-89.5 76v13h48v-15q0 -31 41.5 -31t41.5 31v21q0 13 -10 24t-26 11h-47v38h42q17 0 26.5 10.5t9.5 23.5v29q0 31 -39 31t-39 -31v-20h-48v18q0 76 87 76t87 -76zM254 285v-189h25
v-43h-25v-53h-48v53h-130v39l133 193h45zM206 96v106l-77 -106h77z" />
    <glyph glyph-name="questiondown" unicode="&#xbf;" horiz-adv-x="438" 
d="M152 650h70v-110h-70v110zM209 440v-60l-41 -59q-4 -5 -15 -21t-16 -23t-14 -21t-13.5 -22.5t-9.5 -19.5q-10 -20 -10 -39v-54q0 -36 23.5 -56t70.5 -20t70.5 20t23.5 56v89h70v-85q0 -140 -161 -140q-84 0 -125.5 36.5t-41.5 103.5v50q0 34 21.5 75.5t72.5 112.5l55 77
h40z" />
    <glyph glyph-name="Agrave" unicode="&#xc0;" horiz-adv-x="479" 
d="M187 650h105l147 -650h-70l-34 150h-191l-34 -150h-70zM239 572l-82 -362h164zM189 755l-38 38l54 54l123 -123l-26 -26z" />
    <glyph glyph-name="Aacute" unicode="&#xc1;" horiz-adv-x="479" 
d="M187 650h105l147 -650h-70l-34 150h-191l-34 -150h-70zM239 572l-82 -362h164zM328 793l-38 -38l-113 -57l-26 26l123 123z" />
    <glyph glyph-name="Acircumflex" unicode="&#xc2;" horiz-adv-x="479" 
d="M187 650h105l147 -650h-70l-34 150h-191l-34 -150h-70zM239 572l-82 -362h164zM239 760l-88 -62l-26 26l98 113h32l98 -113l-26 -26z" />
    <glyph glyph-name="Atilde" unicode="&#xc3;" horiz-adv-x="479" 
d="M187 650h105l147 -650h-70l-34 150h-191l-34 -150h-70zM239 572l-82 -362h164zM282 759q-15 0 -43 -19t-53.5 -19t-43.5 20t-21 54l41 14q10 -28 34 -28q15 0 43 19t53.5 19t43.5 -20t21 -54l-41 -14q-10 28 -34 28z" />
    <glyph glyph-name="Adieresis" unicode="&#xc4;" horiz-adv-x="479" 
d="M187 650h105l147 -650h-70l-34 150h-191l-34 -150h-70zM239 572l-82 -362h164zM204 715h-70v110h70v-110zM344 715h-70v110h70v-110z" />
    <glyph glyph-name="Aring" unicode="&#xc5;" horiz-adv-x="479" 
d="M187 650h105l147 -650h-70l-34 150h-191l-34 -150h-70zM239 572l-82 -362h164zM324 780v-20q0 -75 -85 -75t-85 75v20q0 75 85 75t85 -75zM204 780v-20q0 -31 35 -31t35 31v20q0 31 -35 31t-35 -31z" />
    <glyph glyph-name="AE" unicode="&#xc6;" horiz-adv-x="680" 
d="M620 650v-60h-215v-270h175v-60h-175v-200h225v-60h-295v260h-170l-95 -260h-70l237 650h383zM335 320v270h-50l-98 -270h148z" />
    <glyph glyph-name="Ccedilla" unicode="&#xc7;" horiz-adv-x="490" 
d="M345 125v55h70v-55q0 -133 -151 -139l-9 -48h5q41 0 62.5 -21.5t21.5 -57.5v-23q0 -76 -89.5 -76t-89.5 76v8h48v-10q0 -31 41.5 -31t41.5 31v25q0 14 -10 25t-26 11h-60l18 92q-66 7 -99.5 42.5t-33.5 95.5v400q0 67 41 103.5t123 36.5t124 -36.5t42 -103.5v-95h-70v95
q0 80 -95 80t-95 -80v-400q0 -80 95 -80t95 80z" />
    <glyph glyph-name="Egrave" unicode="&#xc8;" horiz-adv-x="445" 
d="M395 0h-295v650h285v-60h-215v-230h175v-60h-175v-240h225v-60zM192 755l-38 38l54 54l123 -123l-26 -26z" />
    <glyph glyph-name="Eacute" unicode="&#xc9;" horiz-adv-x="445" 
d="M395 0h-295v650h285v-60h-215v-230h175v-60h-175v-240h225v-60zM341 793l-38 -38l-113 -57l-26 26l123 123z" />
    <glyph glyph-name="Ecircumflex" unicode="&#xca;" horiz-adv-x="445" 
d="M395 0h-295v650h285v-60h-215v-230h175v-60h-175v-240h225v-60zM252 760l-88 -62l-26 26l98 113h32l98 -113l-26 -26z" />
    <glyph glyph-name="Edieresis" unicode="&#xcb;" horiz-adv-x="445" 
d="M395 0h-295v650h285v-60h-215v-230h175v-60h-175v-240h225v-60zM217 715h-70v110h70v-110zM357 715h-70v110h70v-110z" />
    <glyph glyph-name="Igrave" unicode="&#xcc;" horiz-adv-x="310" 
d="M240 60v-60h-170v60h50v530h-50v60h170v-60h-50v-530h50zM105 755l-38 38l54 54l123 -123l-26 -26z" />
    <glyph glyph-name="Iacute" unicode="&#xcd;" horiz-adv-x="310" 
d="M240 60v-60h-170v60h50v530h-50v60h170v-60h-50v-530h50zM244 793l-38 -38l-113 -57l-26 26l123 123z" />
    <glyph glyph-name="Icircumflex" unicode="&#xce;" horiz-adv-x="310" 
d="M240 60v-60h-170v60h50v530h-50v60h170v-60h-50v-530h50zM155 760l-88 -62l-26 26l98 113h32l98 -113l-26 -26z" />
    <glyph glyph-name="Idieresis" unicode="&#xcf;" horiz-adv-x="310" 
d="M240 60v-60h-170v60h50v530h-50v60h170v-60h-50v-530h50zM120 715h-70v110h70v-110zM260 715h-70v110h70v-110z" />
    <glyph glyph-name="Eth" unicode="&#xd0;" horiz-adv-x="505" 
d="M31 305v50h69v295h161q78 0 118.5 -37t40.5 -103v-370q0 -67 -40 -103.5t-119 -36.5h-161v305h-69zM350 140v370q0 32 -23.5 56t-65.5 24h-91v-235h121v-50h-121v-245h91q42 0 65.5 23.5t23.5 56.5z" />
    <glyph glyph-name="Ntilde" unicode="&#xd1;" horiz-adv-x="557" 
d="M170 0h-70v650h70l217 -500v500h70v-650h-70l-217 500v-500zM321 759q-15 0 -43 -19t-53.5 -19t-43.5 20t-21 54l41 14q10 -28 34 -28q15 0 43 19t53.5 19t43.5 -20t21 -54l-41 -14q-10 28 -34 28z" />
    <glyph glyph-name="Ograve" unicode="&#xd2;" 
d="M425 525v-400q0 -67 -42.5 -103.5t-127 -36.5t-127.5 36.5t-43 103.5v400q0 67 42.5 103.5t127 36.5t127.5 -36.5t43 -103.5zM355 125v400q0 80 -100 80t-100 -80v-400q0 -80 100 -80t100 80zM204 755l-38 38l54 54l123 -123l-26 -26z" />
    <glyph glyph-name="Oacute" unicode="&#xd3;" 
d="M425 525v-400q0 -67 -42.5 -103.5t-127 -36.5t-127.5 36.5t-43 103.5v400q0 67 42.5 103.5t127 36.5t127.5 -36.5t43 -103.5zM355 125v400q0 80 -100 80t-100 -80v-400q0 -80 100 -80t100 80zM343 793l-38 -38l-113 -57l-26 26l123 123z" />
    <glyph glyph-name="Ocircumflex" unicode="&#xd4;" 
d="M425 525v-400q0 -67 -42.5 -103.5t-127 -36.5t-127.5 36.5t-43 103.5v400q0 67 42.5 103.5t127 36.5t127.5 -36.5t43 -103.5zM355 125v400q0 80 -100 80t-100 -80v-400q0 -80 100 -80t100 80zM255 760l-88 -62l-26 26l98 113h32l98 -113l-26 -26z" />
    <glyph glyph-name="Otilde" unicode="&#xd5;" 
d="M425 525v-400q0 -67 -42.5 -103.5t-127 -36.5t-127.5 36.5t-43 103.5v400q0 67 42.5 103.5t127 36.5t127.5 -36.5t43 -103.5zM355 125v400q0 80 -100 80t-100 -80v-400q0 -80 100 -80t100 80zM298 759q-15 0 -43 -19t-53.5 -19t-43.5 20t-21 54l41 14q10 -28 34 -28
q15 0 43 19t53.5 19t43.5 -20t21 -54l-41 -14q-10 28 -34 28z" />
    <glyph glyph-name="Odieresis" unicode="&#xd6;" 
d="M425 525v-400q0 -67 -42.5 -103.5t-127 -36.5t-127.5 36.5t-43 103.5v400q0 67 42.5 103.5t127 36.5t127.5 -36.5t43 -103.5zM355 125v400q0 80 -100 80t-100 -80v-400q0 -80 100 -80t100 80zM220 715h-70v110h70v-110zM360 715h-70v110h70v-110z" />
    <glyph glyph-name="multiply" unicode="&#xd7;" 
d="M103 435l42 42l110 -110l110 110l42 -42l-110 -110l110 -110l-42 -42l-110 110l-110 -110l-42 42l110 110z" />
    <glyph glyph-name="Oslash" unicode="&#xd8;" 
d="M85 125v400q0 67 42.5 103.5t126.5 36.5q27 0 54 -5l12 50h45l-14 -63q74 -33 74 -122v-400q0 -67 -42.5 -103.5t-126.5 -36.5q-27 0 -55 5l-11 -50h-45l14 62q-74 34 -74 123zM355 125v400q0 32 -20 54l-120 -530q16 -4 41 -4q99 0 99 80zM155 125q0 -35 19 -54l121 529
q-20 5 -41 5q-99 0 -99 -80v-400z" />
    <glyph glyph-name="Ugrave" unicode="&#xd9;" horiz-adv-x="520" 
d="M360 125v525h70v-525q0 -67 -42.5 -103.5t-127 -36.5t-127.5 36.5t-43 103.5v525h70v-525q0 -80 100 -80t100 80zM199 755l-38 38l54 54l123 -123l-26 -26z" />
    <glyph glyph-name="Uacute" unicode="&#xda;" horiz-adv-x="520" 
d="M360 125v525h70v-525q0 -67 -42.5 -103.5t-127 -36.5t-127.5 36.5t-43 103.5v525h70v-525q0 -80 100 -80t100 80zM368 793l-38 -38l-113 -57l-26 26l123 123z" />
    <glyph glyph-name="Ucircumflex" unicode="&#xdb;" horiz-adv-x="520" 
d="M360 125v525h70v-525q0 -67 -42.5 -103.5t-127 -36.5t-127.5 36.5t-43 103.5v525h70v-525q0 -80 100 -80t100 80zM260 760l-88 -62l-26 26l98 113h32l98 -113l-26 -26z" />
    <glyph glyph-name="Udieresis" unicode="&#xdc;" horiz-adv-x="520" 
d="M360 125v525h70v-525q0 -67 -42.5 -103.5t-127 -36.5t-127.5 36.5t-43 103.5v525h70v-525q0 -80 100 -80t100 80zM225 715h-70v110h70v-110zM365 715h-70v110h70v-110z" />
    <glyph glyph-name="Yacute" unicode="&#xdd;" horiz-adv-x="450" 
d="M260 0h-70v233l-165 417h74l126 -335l126 335h74l-165 -418v-232zM333 793l-38 -38l-113 -57l-26 26l123 123z" />
    <glyph glyph-name="Thorn" unicode="&#xde;" horiz-adv-x="460" 
d="M160 0h-70v650h70v-100h81q78 0 118.5 -37t40.5 -103v-170q0 -67 -40 -103.5t-119 -36.5h-81v-100zM330 240v170q0 38 -23 59t-66 21h-81v-330h81q89 0 89 80z" />
    <glyph glyph-name="germandbls" unicode="&#xdf;" horiz-adv-x="523" 
d="M428 525v-90q0 -85 -71 -109q81 -22 81 -111v-75q0 -140 -169 -140h-49v60h49q49 0 74 20t25 56v79q0 32 -24 58.5t-65 26.5h-31v50h21q42 0 65.5 26t23.5 59v94q0 36 -23.5 56t-70.5 20t-70.5 -20t-23.5 -56v-529h-70v525q0 140 161 140q84 0 125.5 -36.5t41.5 -103.5z
" />
    <glyph glyph-name="agrave" unicode="&#xe0;" horiz-adv-x="500" 
d="M410 0h-30l-26 64q-21 -36 -55 -57.5t-75 -21.5q-144 0 -144 140v100q0 140 144 140h116v164q0 36 -23 56t-68 20q-89 0 -89 -76v-59h-70v55q0 67 39.5 103.5t119.5 36.5t120.5 -36.5t40.5 -103.5v-525zM340 305h-116q-42 0 -58 -21t-16 -59v-100q0 -38 16 -59t58 -21
t78 32.5t38 64.5v163zM189 755l-38 38l54 54l123 -123l-26 -26z" />
    <glyph glyph-name="aacute" unicode="&#xe1;" horiz-adv-x="500" 
d="M410 0h-30l-26 64q-21 -36 -55 -57.5t-75 -21.5q-144 0 -144 140v100q0 140 144 140h116v164q0 36 -23 56t-68 20q-89 0 -89 -76v-59h-70v55q0 67 39.5 103.5t119.5 36.5t120.5 -36.5t40.5 -103.5v-525zM340 305h-116q-42 0 -58 -21t-16 -59v-100q0 -38 16 -59t58 -21
t78 32.5t38 64.5v163zM369 793l-38 -38l-113 -57l-26 26l123 123z" />
    <glyph glyph-name="acircumflex" unicode="&#xe2;" horiz-adv-x="500" 
d="M410 0h-30l-26 64q-21 -36 -55 -57.5t-75 -21.5q-144 0 -144 140v100q0 140 144 140h116v164q0 36 -23 56t-68 20q-89 0 -89 -76v-59h-70v55q0 67 39.5 103.5t119.5 36.5t120.5 -36.5t40.5 -103.5v-525zM340 305h-116q-42 0 -58 -21t-16 -59v-100q0 -38 16 -59t58 -21
t78 32.5t38 64.5v163zM250 760l-88 -62l-26 26l98 113h32l98 -113l-26 -26z" />
    <glyph glyph-name="atilde" unicode="&#xe3;" horiz-adv-x="500" 
d="M410 0h-30l-26 64q-21 -36 -55 -57.5t-75 -21.5q-144 0 -144 140v100q0 140 144 140h116v164q0 36 -23 56t-68 20q-89 0 -89 -76v-59h-70v55q0 67 39.5 103.5t119.5 36.5t120.5 -36.5t40.5 -103.5v-525zM340 305h-116q-42 0 -58 -21t-16 -59v-100q0 -38 16 -59t58 -21
t78 32.5t38 64.5v163zM293 759q-15 0 -43 -19t-53.5 -19t-43.5 20t-21 54l41 14q10 -28 34 -28q15 0 43 19t53.5 19t43.5 -20t21 -54l-41 -14q-10 28 -34 28z" />
    <glyph glyph-name="adieresis" unicode="&#xe4;" horiz-adv-x="500" 
d="M410 0h-30l-26 64q-21 -36 -55 -57.5t-75 -21.5q-144 0 -144 140v100q0 140 144 140h116v164q0 36 -23 56t-68 20q-89 0 -89 -76v-59h-70v55q0 67 39.5 103.5t119.5 36.5t120.5 -36.5t40.5 -103.5v-525zM340 305h-116q-42 0 -58 -21t-16 -59v-100q0 -38 16 -59t58 -21
t78 32.5t38 64.5v163zM215 715h-70v110h70v-110zM355 715h-70v110h70v-110z" />
    <glyph glyph-name="aring" unicode="&#xe5;" horiz-adv-x="500" 
d="M410 0h-30l-26 64q-21 -36 -55 -57.5t-75 -21.5q-144 0 -144 140v100q0 140 144 140h116v164q0 36 -23 56t-68 20q-89 0 -89 -76v-59h-70v55q0 67 39.5 103.5t119.5 36.5t120.5 -36.5t40.5 -103.5v-525zM340 305h-116q-42 0 -58 -21t-16 -59v-100q0 -38 16 -59t58 -21
t78 32.5t38 64.5v163zM335 780v-20q0 -75 -85 -75t-85 75v20q0 75 85 75t85 -75zM215 780v-20q0 -31 35 -31t35 31v20q0 31 -35 31t-35 -31z" />
    <glyph glyph-name="ae" unicode="&#xe6;" horiz-adv-x="755" 
d="M600 125v55h70v-55q0 -67 -41 -103.5t-123 -36.5q-119 0 -154 76q-47 -76 -128 -76q-144 0 -144 140v100q0 140 144 140h116v166q0 34 -23.5 54t-67.5 20t-66.5 -20.5t-22.5 -55.5v-59h-70v55q0 67 40 103.5t121.5 36.5t123.5 -42q42 42 126.5 42t126.5 -36.5t42 -103.5
v-220h-260v-180q0 -80 95 -80t95 80zM340 145v160h-116q-42 0 -58 -21t-16 -59v-100q0 -38 16 -59t58.5 -21t79 34t36.5 66zM410 531v-166h190v160q0 80 -96 80q-45 0 -69.5 -19.5t-24.5 -54.5z" />
    <glyph glyph-name="ccedilla" unicode="&#xe7;" horiz-adv-x="490" 
d="M345 125v55h70v-55q0 -133 -151 -139l-9 -48h5q41 0 62.5 -21.5t21.5 -57.5v-23q0 -76 -89.5 -76t-89.5 76v8h48v-10q0 -31 41.5 -31t41.5 31v25q0 14 -10 25t-26 11h-60l18 92q-66 7 -99.5 42.5t-33.5 95.5v400q0 67 41 103.5t123 36.5t124 -36.5t42 -103.5v-95h-70v95
q0 80 -95 80t-95 -80v-400q0 -80 95 -80t95 80z" />
    <glyph glyph-name="egrave" unicode="&#xe8;" horiz-adv-x="500" 
d="M345 125v55h70v-55q0 -67 -41 -103.5t-123 -36.5t-124 36.5t-42 103.5v400q0 67 41 103.5t123 36.5t124 -36.5t42 -103.5v-220h-260v-180q0 -80 95 -80t95 80zM155 525v-160h190v160q0 80 -95 80t-95 -80zM189 755l-38 38l54 54l123 -123l-26 -26z" />
    <glyph glyph-name="eacute" unicode="&#xe9;" horiz-adv-x="500" 
d="M345 125v55h70v-55q0 -67 -41 -103.5t-123 -36.5t-124 36.5t-42 103.5v400q0 67 41 103.5t123 36.5t124 -36.5t42 -103.5v-220h-260v-180q0 -80 95 -80t95 80zM155 525v-160h190v160q0 80 -95 80t-95 -80zM369 793l-38 -38l-113 -57l-26 26l123 123z" />
    <glyph glyph-name="ecircumflex" unicode="&#xea;" horiz-adv-x="500" 
d="M345 125v55h70v-55q0 -67 -41 -103.5t-123 -36.5t-124 36.5t-42 103.5v400q0 67 41 103.5t123 36.5t124 -36.5t42 -103.5v-220h-260v-180q0 -80 95 -80t95 80zM155 525v-160h190v160q0 80 -95 80t-95 -80zM250 760l-88 -62l-26 26l98 113h32l98 -113l-26 -26z" />
    <glyph glyph-name="edieresis" unicode="&#xeb;" horiz-adv-x="500" 
d="M345 125v55h70v-55q0 -67 -41 -103.5t-123 -36.5t-124 36.5t-42 103.5v400q0 67 41 103.5t123 36.5t124 -36.5t42 -103.5v-220h-260v-180q0 -80 95 -80t95 80zM155 525v-160h190v160q0 80 -95 80t-95 -80zM215 715h-70v110h70v-110zM355 715h-70v110h70v-110z" />
    <glyph glyph-name="igrave" unicode="&#xec;" horiz-adv-x="270" 
d="M170 0h-70v650h70v-650zM85 755l-38 38l54 54l123 -123l-26 -26z" />
    <glyph glyph-name="iacute" unicode="&#xed;" horiz-adv-x="270" 
d="M170 0h-70v650h70v-650zM234 793l-38 -38l-113 -57l-26 26l123 123z" />
    <glyph glyph-name="icircumflex" unicode="&#xee;" horiz-adv-x="270" 
d="M170 0h-70v650h70v-650zM135 760l-88 -62l-26 26l98 113h32l98 -113l-26 -26z" />
    <glyph glyph-name="idieresis" unicode="&#xef;" horiz-adv-x="270" 
d="M170 0h-70v650h70v-650zM100 715h-70v110h70v-110zM240 715h-70v110h70v-110z" />
    <glyph glyph-name="eth" unicode="&#xf0;" horiz-adv-x="505" 
d="M31 305v50h69v295h161q78 0 118.5 -37t40.5 -103v-370q0 -67 -40 -103.5t-119 -36.5h-161v305h-69zM350 140v370q0 32 -23.5 56t-65.5 24h-91v-235h121v-50h-121v-245h91q42 0 65.5 23.5t23.5 56.5z" />
    <glyph glyph-name="ntilde" unicode="&#xf1;" horiz-adv-x="525" 
d="M170 0h-70v650h30l25 -65q48 80 133 80q147 0 147 -140v-525h-70v525q0 38 -16.5 59t-60.5 21t-81 -34t-37 -66v-505zM320 759q-15 0 -43 -19t-53.5 -19t-43.5 20t-21 54l41 14q10 -28 34 -28q15 0 43 19t53.5 19t43.5 -20t21 -54l-41 -14q-10 28 -34 28z" />
    <glyph glyph-name="ograve" unicode="&#xf2;" 
d="M425 525v-400q0 -67 -42.5 -103.5t-127 -36.5t-127.5 36.5t-43 103.5v400q0 67 42.5 103.5t127 36.5t127.5 -36.5t43 -103.5zM355 125v400q0 80 -100 80t-100 -80v-400q0 -80 100 -80t100 80zM194 755l-38 38l54 54l123 -123l-26 -26z" />
    <glyph glyph-name="oacute" unicode="&#xf3;" 
d="M425 525v-400q0 -67 -42.5 -103.5t-127 -36.5t-127.5 36.5t-43 103.5v400q0 67 42.5 103.5t127 36.5t127.5 -36.5t43 -103.5zM355 125v400q0 80 -100 80t-100 -80v-400q0 -80 100 -80t100 80zM374 793l-38 -38l-113 -57l-26 26l123 123z" />
    <glyph glyph-name="ocircumflex" unicode="&#xf4;" 
d="M425 525v-400q0 -67 -42.5 -103.5t-127 -36.5t-127.5 36.5t-43 103.5v400q0 67 42.5 103.5t127 36.5t127.5 -36.5t43 -103.5zM355 125v400q0 80 -100 80t-100 -80v-400q0 -80 100 -80t100 80zM255 760l-88 -62l-26 26l98 113h32l98 -113l-26 -26z" />
    <glyph glyph-name="otilde" unicode="&#xf5;" 
d="M425 525v-400q0 -67 -42.5 -103.5t-127 -36.5t-127.5 36.5t-43 103.5v400q0 67 42.5 103.5t127 36.5t127.5 -36.5t43 -103.5zM355 125v400q0 80 -100 80t-100 -80v-400q0 -80 100 -80t100 80zM298 759q-15 0 -43 -19t-53.5 -19t-43.5 20t-21 54l41 14q10 -28 34 -28
q15 0 43 19t53.5 19t43.5 -20t21 -54l-41 -14q-10 28 -34 28z" />
    <glyph glyph-name="odieresis" unicode="&#xf6;" 
d="M425 525v-400q0 -67 -42.5 -103.5t-127 -36.5t-127.5 36.5t-43 103.5v400q0 67 42.5 103.5t127 36.5t127.5 -36.5t43 -103.5zM355 125v400q0 80 -100 80t-100 -80v-400q0 -80 100 -80t100 80zM220 715h-70v110h70v-110zM360 715h-70v110h70v-110z" />
    <glyph glyph-name="divide" unicode="&#xf7;" 
d="M293 435h-81v99h81v-99zM415 355v-60h-320v60h320zM293 116h-81v99h81v-99z" />
    <glyph glyph-name="oslash" unicode="&#xf8;" 
d="M85 125v400q0 67 42.5 103.5t126.5 36.5q27 0 54 -5l12 50h45l-14 -63q74 -33 74 -122v-400q0 -67 -42.5 -103.5t-126.5 -36.5q-27 0 -55 5l-11 -50h-45l14 62q-74 34 -74 123zM155 125q0 -35 19 -54l121 529q-20 5 -41 5q-99 0 -99 -80v-400zM355 125v400q0 32 -20 54
l-120 -530q16 -4 41 -4q99 0 99 80z" />
    <glyph glyph-name="ugrave" unicode="&#xf9;" horiz-adv-x="525" 
d="M90 125v525h70v-525q0 -38 16.5 -59t60.5 -21t81 34t37 66v505h70v-650h-30l-26 64q-22 -36 -56.5 -57.5t-75.5 -21.5q-147 0 -147 140zM202 755l-38 38l54 54l123 -123l-26 -26z" />
    <glyph glyph-name="uacute" unicode="&#xfa;" horiz-adv-x="525" 
d="M90 125v525h70v-525q0 -38 16.5 -59t60.5 -21t81 34t37 66v505h70v-650h-30l-26 64q-22 -36 -56.5 -57.5t-75.5 -21.5q-147 0 -147 140zM381 793l-38 -38l-113 -57l-26 26l123 123z" />
    <glyph glyph-name="ucircumflex" unicode="&#xfb;" horiz-adv-x="525" 
d="M90 125v525h70v-525q0 -38 16.5 -59t60.5 -21t81 34t37 66v505h70v-650h-30l-26 64q-22 -36 -56.5 -57.5t-75.5 -21.5q-147 0 -147 140zM262 760l-88 -62l-26 26l98 113h32l98 -113l-26 -26z" />
    <glyph glyph-name="udieresis" unicode="&#xfc;" horiz-adv-x="525" 
d="M90 125v525h70v-525q0 -38 16.5 -59t60.5 -21t81 34t37 66v505h70v-650h-30l-26 64q-22 -36 -56.5 -57.5t-75.5 -21.5q-147 0 -147 140zM227 715h-70v110h70v-110zM367 715h-70v110h70v-110z" />
    <glyph glyph-name="yacute" unicode="&#xfd;" horiz-adv-x="470" 
d="M271 0h-70v184q-136 15 -136 138v328h70v-328q0 -80 100 -80t100 80v328h70v-328q0 -123 -134 -138v-184zM344 793l-38 -38l-113 -57l-26 26l123 123z" />
    <glyph glyph-name="thorn" unicode="&#xfe;" horiz-adv-x="460" 
d="M160 0h-70v650h70v-100h81q78 0 118.5 -37t40.5 -103v-170q0 -67 -40 -103.5t-119 -36.5h-81v-100zM330 240v170q0 38 -23 59t-66 21h-81v-330h81q89 0 89 80z" />
    <glyph glyph-name="ydieresis" unicode="&#xff;" horiz-adv-x="470" 
d="M271 0h-70v184q-136 15 -136 138v328h70v-328q0 -80 100 -80t100 80v328h70v-328q0 -123 -134 -138v-184zM201 715h-70v110h70v-110zM341 715h-70v110h70v-110z" />
    <glyph glyph-name="Amacron" unicode="&#x100;" horiz-adv-x="479" 
d="M187 650h105l147 -650h-70l-34 150h-191l-34 -150h-70zM239 572l-82 -362h164zM131 740v60h216v-60h-216z" />
    <glyph glyph-name="amacron" unicode="&#x101;" horiz-adv-x="500" 
d="M410 0h-30l-26 64q-21 -36 -55 -57.5t-75 -21.5q-144 0 -144 140v100q0 140 144 140h116v164q0 36 -23 56t-68 20q-89 0 -89 -76v-59h-70v55q0 67 39.5 103.5t119.5 36.5t120.5 -36.5t40.5 -103.5v-525zM340 305h-116q-42 0 -58 -21t-16 -59v-100q0 -38 16 -59t58 -21
t78 32.5t38 64.5v163zM142 740v60h216v-60h-216z" />
    <glyph glyph-name="Abreve" unicode="&#x102;" horiz-adv-x="479" 
d="M187 650h105l147 -650h-70l-34 150h-191l-34 -150h-70zM239 572l-82 -362h164zM196 816v-20q0 -31 43 -31t43 31v20h55v-26q0 -75 -98 -75t-98 75v26h55z" />
    <glyph glyph-name="abreve" unicode="&#x103;" horiz-adv-x="500" 
d="M410 0h-30l-26 64q-21 -36 -55 -57.5t-75 -21.5q-144 0 -144 140v100q0 140 144 140h116v164q0 36 -23 56t-68 20q-89 0 -89 -76v-59h-70v55q0 67 39.5 103.5t119.5 36.5t120.5 -36.5t40.5 -103.5v-525zM340 305h-116q-42 0 -58 -21t-16 -59v-100q0 -38 16 -59t58 -21
t78 32.5t38 64.5v163zM207 816v-20q0 -31 43 -31t43 31v20h55v-26q0 -75 -98 -75t-98 75v26h55z" />
    <glyph glyph-name="Aogonek" unicode="&#x104;" horiz-adv-x="479" 
d="M327 -124v-42q0 -31 41.5 -31t41.5 31v30h48v-28q0 -76 -89.5 -76t-89.5 76v40q0 45 41 83l49 41l-34 150h-191l-34 -150h-70l147 650h105l147 -650l-63 -51q-49 -40 -49 -73zM239 572l-82 -362h164z" />
    <glyph glyph-name="aogonek" unicode="&#x105;" horiz-adv-x="500" 
d="M298 -124v-42q0 -31 41.5 -31t41.5 31v30h48v-28q0 -76 -89.5 -76t-89.5 76v40q0 49 41 83l79 66l-16 39q-21 -36 -55 -57.5t-75 -21.5q-144 0 -144 140v100q0 140 144 140h116v164q0 36 -23 56t-68 20q-89 0 -89 -76v-59h-70v55q0 67 39.5 103.5t119.5 36.5t120.5 -36.5
t40.5 -103.5v-525l-63 -51q-49 -40 -49 -73zM340 305h-116q-42 0 -58 -21t-16 -59v-100q0 -38 16 -59t58 -21t78 32.5t38 64.5v163z" />
    <glyph glyph-name="Cacute" unicode="&#x106;" horiz-adv-x="490" 
d="M345 125v55h70v-55q0 -67 -41 -103.5t-123 -36.5t-124 36.5t-42 103.5v400q0 67 41 103.5t123 36.5t124 -36.5t42 -103.5v-95h-70v95q0 80 -95 80t-95 -80v-400q0 -80 95 -80t95 80zM333 793l-38 -38l-113 -57l-26 26l123 123z" />
    <glyph glyph-name="cacute" unicode="&#x107;" horiz-adv-x="490" 
d="M345 125v55h70v-55q0 -67 -41 -103.5t-123 -36.5t-124 36.5t-42 103.5v400q0 67 41 103.5t123 36.5t124 -36.5t42 -103.5v-95h-70v95q0 80 -95 80t-95 -80v-400q0 -80 95 -80t95 80zM333 793l-38 -38l-113 -57l-26 26l123 123z" />
    <glyph glyph-name="Ccircumflex" unicode="&#x108;" horiz-adv-x="490" 
d="M345 125v55h70v-55q0 -67 -41 -103.5t-123 -36.5t-124 36.5t-42 103.5v400q0 67 41 103.5t123 36.5t124 -36.5t42 -103.5v-95h-70v95q0 80 -95 80t-95 -80v-400q0 -80 95 -80t95 80zM245 760l-88 -62l-26 26l98 113h32l98 -113l-26 -26z" />
    <glyph glyph-name="ccircumflex" unicode="&#x109;" horiz-adv-x="490" 
d="M345 125v55h70v-55q0 -67 -41 -103.5t-123 -36.5t-124 36.5t-42 103.5v400q0 67 41 103.5t123 36.5t124 -36.5t42 -103.5v-95h-70v95q0 80 -95 80t-95 -80v-400q0 -80 95 -80t95 80zM245 760l-88 -62l-26 26l98 113h32l98 -113l-26 -26z" />
    <glyph glyph-name="Cdotaccent" unicode="&#x10a;" horiz-adv-x="490" 
d="M345 125v55h70v-55q0 -67 -41 -103.5t-123 -36.5t-124 36.5t-42 103.5v400q0 67 41 103.5t123 36.5t124 -36.5t42 -103.5v-95h-70v95q0 80 -95 80t-95 -80v-400q0 -80 95 -80t95 80zM285 715h-80v110h80v-110z" />
    <glyph glyph-name="cdotaccent" unicode="&#x10b;" horiz-adv-x="490" 
d="M345 125v55h70v-55q0 -67 -41 -103.5t-123 -36.5t-124 36.5t-42 103.5v400q0 67 41 103.5t123 36.5t124 -36.5t42 -103.5v-95h-70v95q0 80 -95 80t-95 -80v-400q0 -80 95 -80t95 80zM285 715h-80v110h80v-110z" />
    <glyph glyph-name="Ccaron" unicode="&#x10c;" horiz-adv-x="490" 
d="M345 125v55h70v-55q0 -67 -41 -103.5t-123 -36.5t-124 36.5t-42 103.5v400q0 67 41 103.5t123 36.5t124 -36.5t42 -103.5v-95h-70v95q0 80 -95 80t-95 -80v-400q0 -80 95 -80t95 80zM245 778l88 62l26 -26l-98 -113h-32l-98 113l26 26z" />
    <glyph glyph-name="ccaron" unicode="&#x10d;" horiz-adv-x="490" 
d="M345 125v55h70v-55q0 -67 -41 -103.5t-123 -36.5t-124 36.5t-42 103.5v400q0 67 41 103.5t123 36.5t124 -36.5t42 -103.5v-95h-70v95q0 80 -95 80t-95 -80v-400q0 -80 95 -80t95 80zM245 778l88 62l26 -26l-98 -113h-32l-98 113l26 26z" />
    <glyph glyph-name="Dcaron" unicode="&#x10e;" horiz-adv-x="505" 
d="M261 0h-161v650h161q78 0 118.5 -37t40.5 -103v-370q0 -67 -40 -103.5t-119 -36.5zM350 140v370q0 32 -23.5 56t-65.5 24h-91v-530h91q42 0 65.5 23.5t23.5 56.5zM252 778l88 62l26 -26l-98 -113h-32l-98 113l26 26z" />
    <glyph glyph-name="dcaron" unicode="&#x10f;" horiz-adv-x="505" 
d="M261 0h-161v650h161q78 0 118.5 -37t40.5 -103v-370q0 -67 -40 -103.5t-119 -36.5zM350 140v370q0 38 -23 59t-66 21h-91v-530h91q89 0 89 80zM465 715h80v-85l-44 -116l-32 6l20 95l-24 9v91z" />
    <glyph glyph-name="Dcroat" unicode="&#x110;" horiz-adv-x="500" 
d="M31 305v50h69v295h161q78 0 118.5 -37t40.5 -103v-370q0 -67 -40 -103.5t-119 -36.5h-161v305h-69zM350 140v370q0 32 -23.5 56t-65.5 24h-91v-235h121v-50h-121v-245h91q42 0 65.5 23.5t23.5 56.5z" />
    <glyph glyph-name="dcroat" unicode="&#x111;" horiz-adv-x="500" 
d="M31 305v50h69v295h161q78 0 118.5 -37t40.5 -103v-370q0 -67 -40 -103.5t-119 -36.5h-161v305h-69zM350 140v370q0 32 -23.5 56t-65.5 24h-91v-235h121v-50h-121v-245h91q42 0 65.5 23.5t23.5 56.5z" />
    <glyph glyph-name="Emacron" unicode="&#x112;" horiz-adv-x="445" 
d="M395 0h-295v650h285v-60h-215v-230h175v-60h-175v-240h225v-60zM144 740v60h216v-60h-216z" />
    <glyph glyph-name="emacron" unicode="&#x113;" horiz-adv-x="500" 
d="M345 125v55h70v-55q0 -67 -41 -103.5t-123 -36.5t-124 36.5t-42 103.5v400q0 67 41 103.5t123 36.5t124 -36.5t42 -103.5v-220h-260v-180q0 -80 95 -80t95 80zM155 525v-160h190v160q0 80 -95 80t-95 -80zM142 740v60h216v-60h-216z" />
    <glyph glyph-name="Ebreve" unicode="&#x114;" horiz-adv-x="445" 
d="M395 0h-295v650h285v-60h-215v-230h175v-60h-175v-240h225v-60zM209 816v-20q0 -31 43 -31t43 31v20h55v-26q0 -75 -98 -75t-98 75v26h55z" />
    <glyph glyph-name="ebreve" unicode="&#x115;" horiz-adv-x="500" 
d="M345 125v55h70v-55q0 -67 -41 -103.5t-123 -36.5t-124 36.5t-42 103.5v400q0 67 41 103.5t123 36.5t124 -36.5t42 -103.5v-220h-260v-180q0 -80 95 -80t95 80zM155 525v-160h190v160q0 80 -95 80t-95 -80zM207 816v-20q0 -31 43 -31t43 31v20h55v-26q0 -75 -98 -75
t-98 75v26h55z" />
    <glyph glyph-name="Edotaccent" unicode="&#x116;" horiz-adv-x="445" 
d="M395 0h-295v650h285v-60h-215v-230h175v-60h-175v-240h225v-60zM292 715h-80v110h80v-110z" />
    <glyph glyph-name="edotaccent" unicode="&#x117;" horiz-adv-x="500" 
d="M345 125v55h70v-55q0 -67 -41 -103.5t-123 -36.5t-124 36.5t-42 103.5v400q0 67 41 103.5t123 36.5t124 -36.5t42 -103.5v-220h-260v-180q0 -80 95 -80t95 80zM155 525v-160h190v160q0 80 -95 80t-95 -80zM290 715h-80v110h80v-110z" />
    <glyph glyph-name="Eogonek" unicode="&#x118;" horiz-adv-x="445" 
d="M100 0v650h285v-60h-215v-230h175v-60h-175v-240h225v-60l-63 -51q-49 -40 -49 -73v-42q0 -31 41.5 -31t41.5 31v30h48v-28q0 -76 -89.5 -76t-89.5 76v40q0 45 41 83l49 41h-225z" />
    <glyph glyph-name="eogonek" unicode="&#x119;" horiz-adv-x="500" 
d="M345 125v55h70v-55q0 -94 -78 -125l-62 -51q-49 -40 -49 -73v-42q0 -31 41.5 -31t41.5 31v30h48v-28q0 -76 -89.5 -76t-89.5 76v40q0 45 41 83l31 26q-82 1 -123.5 37t-41.5 103v400q0 67 41 103.5t123 36.5t124 -36.5t42 -103.5v-220h-260v-180q0 -80 95 -80t95 80z
M155 525v-160h190v160q0 80 -95 80t-95 -80z" />
    <glyph glyph-name="Ecaron" unicode="&#x11a;" horiz-adv-x="445" 
d="M395 0h-295v650h285v-60h-215v-230h175v-60h-175v-240h225v-60zM252 778l88 62l26 -26l-98 -113h-32l-98 113l26 26z" />
    <glyph glyph-name="ecaron" unicode="&#x11b;" horiz-adv-x="500" 
d="M345 125v55h70v-55q0 -67 -41 -103.5t-123 -36.5t-124 36.5t-42 103.5v400q0 67 41 103.5t123 36.5t124 -36.5t42 -103.5v-220h-260v-180q0 -80 95 -80t95 80zM155 525v-160h190v160q0 80 -95 80t-95 -80zM250 778l88 62l26 -26l-98 -113h-32l-98 113l26 26z" />
    <glyph glyph-name="Gcircumflex" unicode="&#x11c;" horiz-adv-x="500" 
d="M233 270v60h182v-330h-30l-26 64q-21 -36 -55 -57.5t-74 -21.5q-145 0 -145 140v400q0 67 41 103.5t123 36.5t124 -36.5t42 -103.5v-55h-70v55q0 80 -95 80t-95 -80v-400q0 -38 16 -59t58.5 -21t79 34t36.5 66v125h-112zM250 760l-88 -62l-26 26l98 113h32l98 -113
l-26 -26z" />
    <glyph glyph-name="gcircumflex" unicode="&#x11d;" horiz-adv-x="500" 
d="M233 270v60h182v-205q0 -67 -41 -103.5t-123 -36.5t-124 36.5t-42 103.5v400q0 67 41 103.5t123 36.5t124 -36.5t42 -103.5v-55h-70v55q0 80 -95 80t-95 -80v-400q0 -80 95 -80t95 80v145h-112zM250 760l-88 -62l-26 26l98 113h32l98 -113l-26 -26z" />
    <glyph glyph-name="Gbreve" unicode="&#x11e;" horiz-adv-x="500" 
d="M233 270v60h182v-330h-30l-26 64q-21 -36 -55 -57.5t-74 -21.5q-145 0 -145 140v400q0 67 41 103.5t123 36.5t124 -36.5t42 -103.5v-55h-70v55q0 80 -95 80t-95 -80v-400q0 -38 16 -59t58.5 -21t79 34t36.5 66v125h-112zM207 816v-20q0 -31 43 -31t43 31v20h55v-26
q0 -75 -98 -75t-98 75v26h55z" />
    <glyph glyph-name="gbreve" unicode="&#x11f;" horiz-adv-x="500" 
d="M233 270v60h182v-205q0 -67 -41 -103.5t-123 -36.5t-124 36.5t-42 103.5v400q0 67 41 103.5t123 36.5t124 -36.5t42 -103.5v-55h-70v55q0 80 -95 80t-95 -80v-400q0 -80 95 -80t95 80v145h-112zM207 816v-20q0 -31 43 -31t43 31v20h55v-26q0 -75 -98 -75t-98 75v26h55z
" />
    <glyph glyph-name="Gdotaccent" unicode="&#x120;" horiz-adv-x="500" 
d="M233 270v60h182v-330h-30l-26 64q-21 -36 -55 -57.5t-74 -21.5q-145 0 -145 140v400q0 67 41 103.5t123 36.5t124 -36.5t42 -103.5v-55h-70v55q0 80 -95 80t-95 -80v-400q0 -38 16 -59t58.5 -21t79 34t36.5 66v125h-112zM290 715h-80v110h80v-110z" />
    <glyph glyph-name="gdotaccent" unicode="&#x121;" horiz-adv-x="500" 
d="M233 270v60h182v-205q0 -67 -41 -103.5t-123 -36.5t-124 36.5t-42 103.5v400q0 67 41 103.5t123 36.5t124 -36.5t42 -103.5v-55h-70v55q0 80 -95 80t-95 -80v-400q0 -80 95 -80t95 80v145h-112zM290 715h-80v110h80v-110z" />
    <glyph glyph-name="uni0122" unicode="&#x122;" horiz-adv-x="500" 
d="M233 270v60h182v-330h-30l-26 64q-21 -36 -55 -57.5t-74 -21.5q-145 0 -145 140v400q0 67 41 103.5t123 36.5t124 -36.5t42 -103.5v-55h-70v55q0 80 -95 80t-95 -80v-400q0 -38 16 -59t58.5 -21t79 34t36.5 66v125h-112zM220 -55h80v-85l-44 -116l-32 6l20 95l-24 9v91z
" />
    <glyph glyph-name="uni0123" unicode="&#x123;" horiz-adv-x="500" 
d="M233 270v60h182v-205q0 -67 -41 -103.5t-123 -36.5t-124 36.5t-42 103.5v400q0 67 41 103.5t123 36.5t124 -36.5t42 -103.5v-55h-70v55q0 80 -95 80t-95 -80v-400q0 -80 95 -80t95 80v145h-112zM300 715h-80v85l44 116l32 -6l-20 -95l24 -9v-91z" />
    <glyph glyph-name="Hcircumflex" unicode="&#x124;" horiz-adv-x="537" 
d="M170 0h-70v650h70v-290h197v290h70v-650h-70v300h-197v-300zM268 760l-88 -62l-26 26l98 113h32l98 -113l-26 -26z" />
    <glyph glyph-name="hcircumflex" unicode="&#x125;" horiz-adv-x="537" 
d="M170 0h-70v650h70v-290h197v290h70v-650h-70v300h-197v-300zM268 760l-88 -62l-26 26l98 113h32l98 -113l-26 -26z" />
    <glyph glyph-name="Hbar" unicode="&#x126;" horiz-adv-x="537" 
d="M47 505v50h53v95h70v-95h197v95h70v-95h52v-50h-52v-505h-70v300h-197v-300h-70v505h-53zM170 360h197v145h-197v-145z" />
    <glyph glyph-name="hbar" unicode="&#x127;" horiz-adv-x="537" 
d="M47 505v50h53v95h70v-95h197v95h70v-95h52v-50h-52v-505h-70v300h-197v-300h-70v505h-53zM170 360h197v145h-197v-145z" />
    <glyph glyph-name="Itilde" unicode="&#x128;" horiz-adv-x="310" 
d="M240 60v-60h-170v60h50v530h-50v60h170v-60h-50v-530h50zM198 759q-15 0 -43 -19t-53.5 -19t-43.5 20t-21 54l41 14q10 -28 34 -28q15 0 43 19t53.5 19t43.5 -20t21 -54l-41 -14q-10 28 -34 28z" />
    <glyph glyph-name="itilde" unicode="&#x129;" horiz-adv-x="270" 
d="M170 0h-70v650h70v-650zM178 759q-15 0 -43 -19t-53.5 -19t-43.5 20t-21 54l41 14q10 -28 34 -28q15 0 43 19t53.5 19t43.5 -20t21 -54l-41 -14q-10 28 -34 28z" />
    <glyph glyph-name="Imacron" unicode="&#x12a;" horiz-adv-x="310" 
d="M240 60v-60h-170v60h50v530h-50v60h170v-60h-50v-530h50zM47 740v60h216v-60h-216z" />
    <glyph glyph-name="imacron" unicode="&#x12b;" horiz-adv-x="270" 
d="M170 0h-70v650h70v-650zM27 740v60h216v-60h-216z" />
    <glyph glyph-name="Ibreve" unicode="&#x12c;" horiz-adv-x="310" 
d="M240 60v-60h-170v60h50v530h-50v60h170v-60h-50v-530h50zM112 816v-20q0 -31 43 -31t43 31v20h55v-26q0 -75 -98 -75t-98 75v26h55z" />
    <glyph glyph-name="ibreve" unicode="&#x12d;" horiz-adv-x="270" 
d="M170 0h-70v650h70v-650zM92 816v-20q0 -31 43 -31t43 31v20h55v-26q0 -75 -98 -75t-98 75v26h55z" />
    <glyph glyph-name="Iogonek" unicode="&#x12e;" horiz-adv-x="310" 
d="M70 0v60h50v530h-50v60h170v-60h-50v-530h50v-60l-63 -51q-49 -40 -49 -73v-42q0 -31 41.5 -31t41.5 31v30h48v-28q0 -76 -89.5 -76t-89.5 76v40q0 45 41 83l49 41h-100z" />
    <glyph glyph-name="iogonek" unicode="&#x12f;" horiz-adv-x="270" 
d="M170 0h-70v650h70v-650zM58 -124v-42q0 -31 41.5 -31t41.5 31v30h48v-28q0 -76 -89.5 -76t-89.5 76v40q0 45 41 83l49 41h70l-63 -51q-49 -40 -49 -73z" />
    <glyph glyph-name="Idotaccent" unicode="&#x130;" horiz-adv-x="310" 
d="M240 60v-60h-170v60h50v530h-50v60h170v-60h-50v-530h50zM195 715h-80v110h80v-110z" />
    <glyph glyph-name="dotlessi" unicode="&#x131;" horiz-adv-x="270" 
d="M170 0h-70v650h70v-650z" />
    <glyph glyph-name="IJ" unicode="&#x132;" horiz-adv-x="690" 
d="M240 60v-60h-170v60h50v530h-50v60h170v-60h-50v-530h50zM400 650h200v-535q0 -64 -36 -97t-100 -33t-99 33t-35 97v65h70v-69q0 -66 64 -66q66 0 66 66v479h-130v60z" />
    <glyph glyph-name="ij" unicode="&#x133;" horiz-adv-x="650" 
d="M170 0h-70v650h70v-650zM490 650h70v-535q0 -64 -36 -97t-100 -33t-99 33t-35 97v65h70v-69q0 -66 64 -66q66 0 66 66v539z" />
    <glyph glyph-name="Jcircumflex" unicode="&#x134;" horiz-adv-x="380" 
d="M90 650h200v-535q0 -64 -36 -97t-100 -33t-99 33t-35 97v65h70v-69q0 -66 64 -66q66 0 66 66v479h-130v60zM256 760l-88 -62l-26 26l98 113h32l98 -113l-26 -26z" />
    <glyph glyph-name="jcircumflex" unicode="&#x135;" horiz-adv-x="380" 
d="M220 650h70v-535q0 -64 -36 -97t-100 -33t-99 33t-35 97v65h70v-69q0 -66 64 -66q66 0 66 66v539zM255 760l-88 -62l-26 26l98 113h32l98 -113l-26 -26z" />
    <glyph glyph-name="uni0136" unicode="&#x136;" horiz-adv-x="455" 
d="M171 0h-70v650h70v-276l174 276h78l-177 -280l189 -370h-77l-154 303l-33 -53v-250zM187 -55h80v-85l-44 -116l-32 6l20 95l-24 9v91z" />
    <glyph glyph-name="uni0137" unicode="&#x137;" horiz-adv-x="455" 
d="M171 0h-70v650h70v-276l174 276h78l-177 -280l189 -370h-77l-154 303l-33 -53v-250zM187 -55h80v-85l-44 -116l-32 6l20 95l-24 9v91z" />
    <glyph glyph-name="kgreenlandic" unicode="&#x138;" horiz-adv-x="455" 
d="M171 0h-70v650h70v-276l174 276h78l-177 -280l189 -370h-77l-154 303l-33 -53v-250z" />
    <glyph glyph-name="Lacute" unicode="&#x139;" horiz-adv-x="373" 
d="M100 0v650h70v-590h183v-60h-253zM229 793l-38 -38l-113 -57l-26 26l123 123z" />
    <glyph glyph-name="lacute" unicode="&#x13a;" horiz-adv-x="373" 
d="M100 0v650h70v-590h183v-60h-253zM229 793l-38 -38l-113 -57l-26 26l123 123z" />
    <glyph glyph-name="uni013B" unicode="&#x13b;" horiz-adv-x="373" 
d="M100 0v650h70v-590h183v-60h-253zM190 -55h80v-85l-44 -116l-32 6l20 95l-24 9v91z" />
    <glyph glyph-name="uni013C" unicode="&#x13c;" horiz-adv-x="373" 
d="M100 0v650h70v-590h183v-60h-253zM190 -55h80v-85l-44 -116l-32 6l20 95l-24 9v91z" />
    <glyph glyph-name="Lcaron" unicode="&#x13d;" horiz-adv-x="373" 
d="M100 0v650h70v-590h183v-60h-253zM293 715h80v-85l-44 -116l-32 6l20 95l-24 9v91z" />
    <glyph glyph-name="lcaron" unicode="&#x13e;" horiz-adv-x="373" 
d="M100 0v650h70v-590h183v-60h-253zM293 715h80v-85l-44 -116l-32 6l20 95l-24 9v91z" />
    <glyph glyph-name="Ldot" unicode="&#x13f;" horiz-adv-x="373" 
d="M100 0v650h70v-590h183v-60h-253zM343 270h-90v110h90v-110z" />
    <glyph glyph-name="ldot" unicode="&#x140;" horiz-adv-x="373" 
d="M100 0v650h70v-590h183v-60h-253zM343 270h-90v110h90v-110z" />
    <glyph glyph-name="Lslash" unicode="&#x141;" horiz-adv-x="373" 
d="M100 650h70v-275l80 41l23 -45l-103 -53v-258h183v-60h-253v283l-76 -39l-23 45l99 50v311z" />
    <glyph glyph-name="lslash" unicode="&#x142;" horiz-adv-x="373" 
d="M100 650h70v-275l80 41l23 -45l-103 -53v-258h183v-60h-253v283l-76 -39l-23 45l99 50v311z" />
    <glyph glyph-name="Nacute" unicode="&#x143;" horiz-adv-x="557" 
d="M170 0h-70v650h70l217 -500v500h70v-650h-70l-217 500v-500zM367 793l-38 -38l-113 -57l-26 26l123 123z" />
    <glyph glyph-name="nacute" unicode="&#x144;" horiz-adv-x="525" 
d="M170 0h-70v650h30l25 -65q48 80 133 80q147 0 147 -140v-525h-70v525q0 38 -16.5 59t-60.5 21t-81 -34t-37 -66v-505zM351 793l-38 -38l-113 -57l-26 26l123 123z" />
    <glyph glyph-name="uni0145" unicode="&#x145;" horiz-adv-x="557" 
d="M170 0h-70v650h70l217 -500v500h70v-650h-70l-217 500v-500zM238 -55h80v-85l-44 -116l-32 6l20 95l-24 9v91z" />
    <glyph glyph-name="uni0146" unicode="&#x146;" horiz-adv-x="525" 
d="M170 0h-70v650h30l25 -65q48 80 133 80q147 0 147 -140v-525h-70v525q0 38 -16.5 59t-60.5 21t-81 -34t-37 -66v-505zM222 -55h80v-85l-44 -116l-32 6l20 95l-24 9v91z" />
    <glyph glyph-name="Ncaron" unicode="&#x147;" horiz-adv-x="557" 
d="M170 0h-70v650h70l217 -500v500h70v-650h-70l-217 500v-500zM278 778l88 62l26 -26l-98 -113h-32l-98 113l26 26z" />
    <glyph glyph-name="ncaron" unicode="&#x148;" horiz-adv-x="525" 
d="M170 0h-70v650h30l25 -65q48 80 133 80q147 0 147 -140v-525h-70v525q0 38 -16.5 59t-60.5 21t-81 -34t-37 -66v-505zM262 778l88 62l26 -26l-98 -113h-32l-98 113l26 26z" />
    <glyph glyph-name="napostrophe" unicode="&#x149;" horiz-adv-x="525" 
d="M170 0h-70v650h30l25 -65q48 80 133 80q147 0 147 -140v-525h-70v525q0 38 -16.5 59t-60.5 21t-81 -34t-37 -66v-505zM-40 716h80v-85l-44 -116l-32 6l20 95l-24 9v91z" />
    <glyph glyph-name="Eng" unicode="&#x14a;" horiz-adv-x="557" 
d="M170 0h-70v650h70l217 -500v500h70v-785q0 -64 -36 -97t-100 -33t-99 33t-35 97v25h70v-29q0 -66 64 -66q66 0 66 66v139l-217 500v-500z" />
    <glyph glyph-name="eng" unicode="&#x14b;" horiz-adv-x="525" 
d="M170 0h-70v650h30l25 -65q48 80 133 80q147 0 147 -140v-660q0 -64 -36 -97t-100 -33t-99 33t-35 97v25h70v-29q0 -66 64 -66q66 0 66 66v664q0 38 -16.5 59t-60.5 21t-81 -34t-37 -66v-505z" />
    <glyph glyph-name="Omacron" unicode="&#x14c;" 
d="M425 525v-400q0 -67 -42.5 -103.5t-127 -36.5t-127.5 36.5t-43 103.5v400q0 67 42.5 103.5t127 36.5t127.5 -36.5t43 -103.5zM355 125v400q0 80 -100 80t-100 -80v-400q0 -80 100 -80t100 80zM147 740v60h216v-60h-216z" />
    <glyph glyph-name="omacron" unicode="&#x14d;" 
d="M425 525v-400q0 -67 -42.5 -103.5t-127 -36.5t-127.5 36.5t-43 103.5v400q0 67 42.5 103.5t127 36.5t127.5 -36.5t43 -103.5zM355 125v400q0 80 -100 80t-100 -80v-400q0 -80 100 -80t100 80zM147 740v60h216v-60h-216z" />
    <glyph glyph-name="Obreve" unicode="&#x14e;" 
d="M425 525v-400q0 -67 -42.5 -103.5t-127 -36.5t-127.5 36.5t-43 103.5v400q0 67 42.5 103.5t127 36.5t127.5 -36.5t43 -103.5zM355 125v400q0 80 -100 80t-100 -80v-400q0 -80 100 -80t100 80zM212 816v-20q0 -31 43 -31t43 31v20h55v-26q0 -75 -98 -75t-98 75v26h55z" />
    <glyph glyph-name="obreve" unicode="&#x14f;" 
d="M425 525v-400q0 -67 -42.5 -103.5t-127 -36.5t-127.5 36.5t-43 103.5v400q0 67 42.5 103.5t127 36.5t127.5 -36.5t43 -103.5zM355 125v400q0 80 -100 80t-100 -80v-400q0 -80 100 -80t100 80zM212 816v-20q0 -31 43 -31t43 31v20h55v-26q0 -75 -98 -75t-98 75v26h55z" />
    <glyph glyph-name="Ohungarumlaut" unicode="&#x150;" 
d="M425 525v-400q0 -67 -42.5 -103.5t-127 -36.5t-127.5 36.5t-43 103.5v400q0 67 42.5 103.5t127 36.5t127.5 -36.5t43 -103.5zM355 125v400q0 80 -100 80t-100 -80v-400q0 -80 100 -80t100 80zM284 793l-38 -38l-113 -57l-26 26l123 123zM464 793l-38 -38l-113 -57l-26 26
l123 123z" />
    <glyph glyph-name="ohungarumlaut" unicode="&#x151;" 
d="M425 525v-400q0 -67 -42.5 -103.5t-127 -36.5t-127.5 36.5t-43 103.5v400q0 67 42.5 103.5t127 36.5t127.5 -36.5t43 -103.5zM355 125v400q0 80 -100 80t-100 -80v-400q0 -80 100 -80t100 80zM284 793l-38 -38l-113 -57l-26 26l123 123zM464 793l-38 -38l-113 -57l-26 26
l123 123z" />
    <glyph glyph-name="OE" unicode="&#x152;" horiz-adv-x="700" 
d="M425 525v-165h175v-60h-175v-175q0 -37 -14 -65h239v-60h-304q-36 -15 -90 -15q-85 0 -128 36.5t-43 103.5v400q0 67 42.5 103.5t126.5 36.5q54 0 91 -15h295v-60h-229q14 -30 14 -65zM355 125v400q0 80 -100 80t-100 -80v-400q0 -80 100 -80t100 80z" />
    <glyph glyph-name="oe" unicode="&#x153;" horiz-adv-x="770" 
d="M615 125v55h70v-55q0 -67 -41 -103.5t-128.5 -36.5t-125.5 52q-38 -52 -128.5 -52t-133.5 36.5t-43 103.5v400q0 67 42.5 103.5t133.5 36.5t128 -53q36 53 124 53t130 -36.5t42 -103.5v-220h-260v-180q0 -80 95 -80t95 80zM355 125v400q0 80 -100 80t-100 -80v-400
q0 -80 100 -80t100 80zM425 525v-160h190v160q0 80 -95 80t-95 -80z" />
    <glyph glyph-name="Racute" unicode="&#x154;" horiz-adv-x="485" 
d="M170 0h-70v650h151q78 0 118.5 -37t40.5 -103v-140q0 -102 -88 -130l123 -240h-77l-117 230h-81v-230zM340 370v140q0 38 -23 59t-66 21h-81v-300h81q89 0 89 80zM341 793l-38 -38l-113 -57l-26 26l123 123z" />
    <glyph glyph-name="racute" unicode="&#x155;" horiz-adv-x="400" 
d="M170 0h-70v650h30l29 -74q32 89 102 89q119 0 119 -130v-65h-67v69q0 66 -55 66q-33 0 -60.5 -38t-27.5 -110v-457zM338 793l-38 -38l-113 -57l-26 26l123 123z" />
    <glyph glyph-name="uni0156" unicode="&#x156;" horiz-adv-x="485" 
d="M170 0h-70v650h151q78 0 118.5 -37t40.5 -103v-140q0 -102 -88 -130l123 -240h-77l-117 230h-81v-230zM340 370v140q0 38 -23 59t-66 21h-81v-300h81q89 0 89 80zM202 -55h80v-85l-44 -116l-32 6l20 95l-24 9v91z" />
    <glyph glyph-name="uni0157" unicode="&#x157;" horiz-adv-x="400" 
d="M170 0h-70v650h30l29 -74q32 89 102 89q119 0 119 -130v-65h-67v69q0 66 -55 66q-33 0 -60.5 -38t-27.5 -110v-457zM95 -55h80v-85l-44 -116l-32 6l20 95l-24 9v91z" />
    <glyph glyph-name="Rcaron" unicode="&#x158;" horiz-adv-x="485" 
d="M170 0h-70v650h151q78 0 118.5 -37t40.5 -103v-140q0 -102 -88 -130l123 -240h-77l-117 230h-81v-230zM340 370v140q0 38 -23 59t-66 21h-81v-300h81q89 0 89 80zM242 778l88 62l26 -26l-98 -113h-32l-98 113l26 26z" />
    <glyph glyph-name="rcaron" unicode="&#x159;" horiz-adv-x="400" 
d="M170 0h-70v650h30l29 -74q32 89 102 89q119 0 119 -130v-65h-67v69q0 66 -55 66q-33 0 -60.5 -38t-27.5 -110v-457zM240 778l88 62l26 -26l-98 -113h-32l-98 113l26 26z" />
    <glyph glyph-name="Sacute" unicode="&#x15a;" horiz-adv-x="498" 
d="M418 125q0 -140 -169 -140t-169 140v85h70v-89q0 -36 25 -56t74 -20t74 20t25 54.5t-7.5 55t-30.5 43.5l-176 172q-31 31 -42.5 60.5t-11.5 74.5q0 67 41.5 103.5t125.5 36.5q161 0 161 -140v-85h-70v89q0 36 -23.5 56t-70.5 20t-70.5 -20t-23.5 -55t7 -55t31 -42
l179 -172q29 -32 40 -61.5t11 -74.5zM337 793l-38 -38l-113 -57l-26 26l123 123z" />
    <glyph glyph-name="sacute" unicode="&#x15b;" horiz-adv-x="498" 
d="M418 125q0 -140 -169 -140t-169 140v85h70v-89q0 -36 25 -56t74 -20t74 20t25 54.5t-7.5 55t-30.5 43.5l-176 172q-31 31 -42.5 60.5t-11.5 74.5q0 67 41.5 103.5t125.5 36.5q161 0 161 -140v-85h-70v89q0 36 -23.5 56t-70.5 20t-70.5 -20t-23.5 -55t7 -55t31 -42
l179 -172q29 -32 40 -61.5t11 -74.5zM337 793l-38 -38l-113 -57l-26 26l123 123z" />
    <glyph glyph-name="Scircumflex" unicode="&#x15c;" horiz-adv-x="498" 
d="M418 125q0 -140 -169 -140t-169 140v85h70v-89q0 -36 25 -56t74 -20t74 20t25 54.5t-7.5 55t-30.5 43.5l-176 172q-31 31 -42.5 60.5t-11.5 74.5q0 67 41.5 103.5t125.5 36.5q161 0 161 -140v-85h-70v89q0 36 -23.5 56t-70.5 20t-70.5 -20t-23.5 -55t7 -55t31 -42
l179 -172q29 -32 40 -61.5t11 -74.5zM249 760l-88 -62l-26 26l98 113h32l98 -113l-26 -26z" />
    <glyph glyph-name="scircumflex" unicode="&#x15d;" horiz-adv-x="498" 
d="M418 125q0 -140 -169 -140t-169 140v85h70v-89q0 -36 25 -56t74 -20t74 20t25 54.5t-7.5 55t-30.5 43.5l-176 172q-31 31 -42.5 60.5t-11.5 74.5q0 67 41.5 103.5t125.5 36.5q161 0 161 -140v-85h-70v89q0 36 -23.5 56t-70.5 20t-70.5 -20t-23.5 -55t7 -55t31 -42
l179 -172q29 -32 40 -61.5t11 -74.5zM249 760l-88 -62l-26 26l98 113h32l98 -113l-26 -26z" />
    <glyph glyph-name="Scedilla" unicode="&#x15e;" horiz-adv-x="498" 
d="M418 125q0 -136 -160 -140l-9 -47h5q41 0 62.5 -21.5t21.5 -57.5v-23q0 -76 -89.5 -76t-89.5 76v8h48v-10q0 -31 41.5 -31t41.5 31v25q0 14 -10 25t-26 11h-60l18 92q-132 16 -132 138v85h70v-89q0 -36 25 -56t74 -20t74 20t25 54.5t-7.5 55t-30.5 43.5l-176 172
q-31 31 -42.5 60.5t-11.5 74.5q0 67 41.5 103.5t125.5 36.5q161 0 161 -140v-85h-70v89q0 36 -23.5 56t-70.5 20t-70.5 -20t-23.5 -55t7 -55t31 -42l179 -172q29 -32 40 -61.5t11 -74.5z" />
    <glyph glyph-name="scedilla" unicode="&#x15f;" horiz-adv-x="498" 
d="M418 125q0 -136 -160 -140l-9 -47h5q41 0 62.5 -21.5t21.5 -57.5v-23q0 -76 -89.5 -76t-89.5 76v8h48v-10q0 -31 41.5 -31t41.5 31v25q0 14 -10 25t-26 11h-60l18 92q-132 16 -132 138v85h70v-89q0 -36 25 -56t74 -20t74 20t25 54.5t-7.5 55t-30.5 43.5l-176 172
q-31 31 -42.5 60.5t-11.5 74.5q0 67 41.5 103.5t125.5 36.5q161 0 161 -140v-85h-70v89q0 36 -23.5 56t-70.5 20t-70.5 -20t-23.5 -55t7 -55t31 -42l179 -172q29 -32 40 -61.5t11 -74.5z" />
    <glyph glyph-name="Scaron" unicode="&#x160;" horiz-adv-x="498" 
d="M418 125q0 -140 -169 -140t-169 140v85h70v-89q0 -36 25 -56t74 -20t74 20t25 54.5t-7.5 55t-30.5 43.5l-176 172q-31 31 -42.5 60.5t-11.5 74.5q0 67 41.5 103.5t125.5 36.5q161 0 161 -140v-85h-70v89q0 36 -23.5 56t-70.5 20t-70.5 -20t-23.5 -55t7 -55t31 -42
l179 -172q29 -32 40 -61.5t11 -74.5zM249 778l88 62l26 -26l-98 -113h-32l-98 113l26 26z" />
    <glyph glyph-name="scaron" unicode="&#x161;" horiz-adv-x="498" 
d="M418 125q0 -140 -169 -140t-169 140v85h70v-89q0 -36 25 -56t74 -20t74 20t25 54.5t-7.5 55t-30.5 43.5l-176 172q-31 31 -42.5 60.5t-11.5 74.5q0 67 41.5 103.5t125.5 36.5q161 0 161 -140v-85h-70v89q0 36 -23.5 56t-70.5 20t-70.5 -20t-23.5 -55t7 -55t31 -42
l179 -172q29 -32 40 -61.5t11 -74.5zM249 778l88 62l26 -26l-98 -113h-32l-98 113l26 26z" />
    <glyph glyph-name="uni0162" unicode="&#x162;" horiz-adv-x="433" 
d="M360 650v-60h-130v-590h-11l-12 -62h5q41 0 62.5 -21.5t21.5 -57.5v-23q0 -76 -89.5 -76t-89.5 76v8h48v-10q0 -31 41.5 -31t41.5 31v25q0 14 -10 25t-26 11h-60l20 105h-12v590h-130v60h330z" />
    <glyph glyph-name="uni0163" unicode="&#x163;" horiz-adv-x="353" 
d="M85 650h220v-60h-150v-479q0 -28 14.5 -47t41 -19t40.5 18.5t14 47.5v119h70v-115q0 -61 -30.5 -94t-83.5 -36l-9 -47h5q41 0 62.5 -21.5t21.5 -57.5v-23q0 -76 -89.5 -76t-89.5 76v8h48v-10q0 -31 41.5 -31t41.5 31v25q0 14 -10 25t-26 11h-60l18 94q-42 9 -66 41
t-24 85v535z" />
    <glyph glyph-name="Tcaron" unicode="&#x164;" horiz-adv-x="390" 
d="M360 650v-60h-130v-590h-70v590h-130v60h330zM195 778l88 62l26 -26l-98 -113h-32l-98 113l26 26z" />
    <glyph glyph-name="tcaron" unicode="&#x165;" horiz-adv-x="375" 
d="M85 650h220v-60h-150v-479q0 -28 14.5 -47t41 -19t40.5 18.5t14 47.5v119h70v-115q0 -63 -33.5 -96.5t-90.5 -33.5t-91.5 33.5t-34.5 96.5v535zM355 715h80v-85l-44 -116l-32 6l20 95l-24 9v91z" />
    <glyph glyph-name="Tbar" unicode="&#x166;" horiz-adv-x="390" 
d="M26 405v50h134v135h-130v60h330v-60h-130v-135h134v-50h-134v-405h-70v405h-134z" />
    <glyph glyph-name="tbar" unicode="&#x167;" horiz-adv-x="375" 
d="M20 405v50h65v195h220v-60h-150v-135h203v-50h-203v-294q0 -28 14.5 -47t41 -19t40.5 18.5t14 47.5v119h70v-115q0 -63 -33.5 -96.5t-90.5 -33.5t-91.5 33.5t-34.5 96.5v290h-65z" />
    <glyph glyph-name="Utilde" unicode="&#x168;" horiz-adv-x="520" 
d="M360 125v525h70v-525q0 -67 -42.5 -103.5t-127 -36.5t-127.5 36.5t-43 103.5v525h70v-525q0 -80 100 -80t100 80zM303 759q-15 0 -43 -19t-53.5 -19t-43.5 20t-21 54l41 14q10 -28 34 -28q15 0 43 19t53.5 19t43.5 -20t21 -54l-41 -14q-10 28 -34 28z" />
    <glyph glyph-name="utilde" unicode="&#x169;" horiz-adv-x="525" 
d="M90 125v525h70v-525q0 -38 16.5 -59t60.5 -21t81 34t37 66v505h70v-650h-30l-26 64q-22 -36 -56.5 -57.5t-75.5 -21.5q-147 0 -147 140zM305 759q-15 0 -43 -19t-53.5 -19t-43.5 20t-21 54l41 14q10 -28 34 -28q15 0 43 19t53.5 19t43.5 -20t21 -54l-41 -14
q-10 28 -34 28z" />
    <glyph glyph-name="Umacron" unicode="&#x16a;" horiz-adv-x="520" 
d="M360 125v525h70v-525q0 -67 -42.5 -103.5t-127 -36.5t-127.5 36.5t-43 103.5v525h70v-525q0 -80 100 -80t100 80zM152 740v60h216v-60h-216z" />
    <glyph glyph-name="umacron" unicode="&#x16b;" horiz-adv-x="525" 
d="M90 125v525h70v-525q0 -38 16.5 -59t60.5 -21t81 34t37 66v505h70v-650h-30l-26 64q-22 -36 -56.5 -57.5t-75.5 -21.5q-147 0 -147 140zM154 740v60h216v-60h-216z" />
    <glyph glyph-name="Ubreve" unicode="&#x16c;" horiz-adv-x="520" 
d="M360 125v525h70v-525q0 -67 -42.5 -103.5t-127 -36.5t-127.5 36.5t-43 103.5v525h70v-525q0 -80 100 -80t100 80zM217 816v-20q0 -31 43 -31t43 31v20h55v-26q0 -75 -98 -75t-98 75v26h55z" />
    <glyph glyph-name="ubreve" unicode="&#x16d;" horiz-adv-x="525" 
d="M90 125v525h70v-525q0 -38 16.5 -59t60.5 -21t81 34t37 66v505h70v-650h-30l-26 64q-22 -36 -56.5 -57.5t-75.5 -21.5q-147 0 -147 140zM219 816v-20q0 -31 43 -31t43 31v20h55v-26q0 -75 -98 -75t-98 75v26h55z" />
    <glyph glyph-name="Uring" unicode="&#x16e;" horiz-adv-x="520" 
d="M360 125v525h70v-525q0 -67 -42.5 -103.5t-127 -36.5t-127.5 36.5t-43 103.5v525h70v-525q0 -80 100 -80t100 80zM345 780v-20q0 -75 -85 -75t-85 75v20q0 75 85 75t85 -75zM225 780v-20q0 -31 35 -31t35 31v20q0 31 -35 31t-35 -31z" />
    <glyph glyph-name="uring" unicode="&#x16f;" horiz-adv-x="525" 
d="M90 125v525h70v-525q0 -38 16.5 -59t60.5 -21t81 34t37 66v505h70v-650h-30l-26 64q-22 -36 -56.5 -57.5t-75.5 -21.5q-147 0 -147 140zM347 780v-20q0 -75 -85 -75t-85 75v20q0 75 85 75t85 -75zM227 780v-20q0 -31 35 -31t35 31v20q0 31 -35 31t-35 -31z" />
    <glyph glyph-name="Uhungarumlaut" unicode="&#x170;" horiz-adv-x="520" 
d="M360 125v525h70v-525q0 -67 -42.5 -103.5t-127 -36.5t-127.5 36.5t-43 103.5v525h70v-525q0 -80 100 -80t100 80zM289 793l-38 -38l-113 -57l-26 26l123 123zM469 793l-38 -38l-113 -57l-26 26l123 123z" />
    <glyph glyph-name="uhungarumlaut" unicode="&#x171;" horiz-adv-x="525" 
d="M90 125v525h70v-525q0 -38 16.5 -59t60.5 -21t81 34t37 66v505h70v-650h-30l-26 64q-22 -36 -56.5 -57.5t-75.5 -21.5q-147 0 -147 140zM291 793l-38 -38l-113 -57l-26 26l123 123zM471 793l-38 -38l-113 -57l-26 26l123 123z" />
    <glyph glyph-name="Uogonek" unicode="&#x172;" horiz-adv-x="520" 
d="M360 125v525h70v-525q0 -94 -80 -125l-62 -51q-49 -40 -49 -73v-42q0 -31 41.5 -31t41.5 31v30h48v-28q0 -76 -89.5 -76t-89.5 76v40q0 45 41 83l31 26h-2q-85 0 -128 36.5t-43 103.5v525h70v-525q0 -80 100 -80t100 80z" />
    <glyph glyph-name="uogonek" unicode="&#x173;" horiz-adv-x="525" 
d="M90 125v525h70v-525q0 -38 16.5 -59t60.5 -21t81 34t37 66v505h70v-650l-63 -51q-49 -40 -49 -73v-42q0 -31 41.5 -31t41.5 31v30h48v-28q0 -76 -89.5 -76t-89.5 76v40q0 49 41 83l79 66l-16 39q-22 -36 -56.5 -57.5t-75.5 -21.5q-147 0 -147 140z" />
    <glyph glyph-name="Wcircumflex" unicode="&#x174;" horiz-adv-x="683" 
d="M240 0h-98l-97 650h70l82 -549l107 549h75l107 -549l82 549h70l-97 -650h-98l-102 519zM341 760l-88 -62l-26 26l98 113h32l98 -113l-26 -26z" />
    <glyph glyph-name="wcircumflex" unicode="&#x175;" horiz-adv-x="760" 
d="M345 125v525h70v-525q0 -80 92.5 -80t92.5 80v525h70v-525q0 -66 -42 -103t-124.5 -37t-123.5 58q-39 -58 -122.5 -58t-125.5 37t-42 103v525h70v-525q0 -80 92.5 -80t92.5 80zM380 760l-88 -62l-26 26l98 113h32l98 -113l-26 -26z" />
    <glyph glyph-name="Ycircumflex" unicode="&#x176;" horiz-adv-x="450" 
d="M260 0h-70v233l-165 417h74l126 -335l126 335h74l-165 -418v-232zM225 760l-88 -62l-26 26l98 113h32l98 -113l-26 -26z" />
    <glyph glyph-name="ycircumflex" unicode="&#x177;" horiz-adv-x="470" 
d="M271 0h-70v184q-136 15 -136 138v328h70v-328q0 -80 100 -80t100 80v328h70v-328q0 -123 -134 -138v-184zM235 760l-88 -62l-26 26l98 113h32l98 -113l-26 -26z" />
    <glyph glyph-name="Ydieresis" unicode="&#x178;" horiz-adv-x="450" 
d="M260 0h-70v233l-165 417h74l126 -335l126 335h74l-165 -418v-232zM190 715h-70v110h70v-110zM330 715h-70v110h70v-110z" />
    <glyph glyph-name="Zacute" unicode="&#x179;" horiz-adv-x="417" 
d="M50 590v60h327v-60l-269 -530h264v-60h-337v60l269 530h-254zM327 793l-38 -38l-113 -57l-26 26l123 123z" />
    <glyph glyph-name="zacute" unicode="&#x17a;" horiz-adv-x="417" 
d="M50 590v60h327v-60l-269 -530h264v-60h-337v60l269 530h-254zM327 793l-38 -38l-113 -57l-26 26l123 123z" />
    <glyph glyph-name="Zdotaccent" unicode="&#x17b;" horiz-adv-x="417" 
d="M50 590v60h327v-60l-269 -530h264v-60h-337v60l269 530h-254zM258 715h-80v110h80v-110z" />
    <glyph glyph-name="zdotaccent" unicode="&#x17c;" horiz-adv-x="417" 
d="M50 590v60h327v-60l-269 -530h264v-60h-337v60l269 530h-254zM258 715h-80v110h80v-110z" />
    <glyph glyph-name="Zcaron" unicode="&#x17d;" horiz-adv-x="417" 
d="M50 590v60h327v-60l-269 -530h264v-60h-337v60l269 530h-254zM218 778l88 62l26 -26l-98 -113h-32l-98 113l26 26z" />
    <glyph glyph-name="zcaron" unicode="&#x17e;" horiz-adv-x="417" 
d="M50 590v60h327v-60l-269 -530h264v-60h-337v60l269 530h-254zM218 778l88 62l26 -26l-98 -113h-32l-98 113l26 26z" />
    <glyph glyph-name="florin" unicode="&#x192;" 
d="M398 344v-50h-138v-265q0 -115 -116 -136l-19 59q38 6 51.5 23t13.5 50v269h-100v50h100v185q0 66 38 103t104 37t101 -37t35 -103v-35h-70v39q0 76 -65 76q-73 0 -73 -76v-189h138z" />
    <glyph glyph-name="Aringacute" unicode="&#x1fa;" horiz-adv-x="479" 
d="M187 650h105l147 -650h-70l-34 150h-191l-34 -150h-70zM239 572l-82 -362h164zM323 780v-20q0 -75 -85 -75t-85 75v20q0 75 85 75q26 0 45 -8l70 70l54 -54l-38 -38l-51 -15q5 -15 5 -30zM203 780v-20q0 -31 35 -31t35 31v20q0 31 -35 31t-35 -31z" />
    <glyph glyph-name="aringacute" unicode="&#x1fb;" horiz-adv-x="500" 
d="M410 0h-30l-26 64q-21 -36 -55 -57.5t-75 -21.5q-144 0 -144 140v100q0 140 144 140h116v164q0 36 -23 56t-68 20q-89 0 -89 -76v-59h-70v55q0 67 39.5 103.5t119.5 36.5t120.5 -36.5t40.5 -103.5v-525zM340 305h-116q-42 0 -58 -21t-16 -59v-100q0 -38 16 -59t58 -21
t78 32.5t38 64.5v163zM335 780v-20q0 -75 -85 -75t-85 75v20q0 75 85 75q26 0 45 -8l70 70l54 -54l-38 -38l-51 -15q5 -15 5 -30zM215 780v-20q0 -31 35 -31t35 31v20q0 31 -35 31t-35 -31z" />
    <glyph glyph-name="AEacute" unicode="&#x1fc;" horiz-adv-x="680" 
d="M620 650v-60h-215v-270h175v-60h-175v-200h225v-60h-295v260h-170l-95 -260h-70l237 650h383zM335 320v270h-50l-98 -270h148zM524 793l-38 -38l-113 -57l-26 26l123 123z" />
    <glyph glyph-name="aeacute" unicode="&#x1fd;" horiz-adv-x="755" 
d="M491 793l-38 -38l-113 -57l-26 26l123 123zM600 125v55h70v-55q0 -67 -41 -103.5t-123 -36.5q-119 0 -154 76q-47 -76 -128 -76q-144 0 -144 140v100q0 140 144 140h116v166q0 34 -23.5 54t-67.5 20t-66.5 -20.5t-22.5 -55.5v-59h-70v55q0 67 40 103.5t121.5 36.5
t123.5 -42q42 42 126.5 42t126.5 -36.5t42 -103.5v-220h-260v-180q0 -80 95 -80t95 80zM340 145v160h-116q-42 0 -58 -21t-16 -59v-100q0 -38 16 -59t58.5 -21t79 34t36.5 66zM410 531v-166h190v160q0 80 -96 80q-45 0 -69.5 -19.5t-24.5 -54.5z" />
    <glyph glyph-name="Oslashacute" unicode="&#x1fe;" 
d="M85 125v400q0 67 42.5 103.5t126.5 36.5q27 0 54 -5l12 50h45l-14 -63q74 -33 74 -122v-400q0 -67 -42.5 -103.5t-126.5 -36.5q-27 0 -55 5l-11 -50h-45l14 62q-74 34 -74 123zM155 125q0 -35 19 -54l121 529q-20 5 -41 5q-99 0 -99 -80v-400zM355 125v400q0 32 -20 54
l-120 -530q16 -4 41 -4q99 0 99 80zM343 793l-38 -38l-113 -57l-26 26l123 123z" />
    <glyph glyph-name="oslashacute" unicode="&#x1ff;" 
d="M85 125v400q0 67 42.5 103.5t126.5 36.5q27 0 54 -5l12 50h45l-14 -63q74 -33 74 -122v-400q0 -67 -42.5 -103.5t-126.5 -36.5q-27 0 -55 5l-11 -50h-45l14 62q-74 34 -74 123zM155 125q0 -35 19 -54l121 529q-20 5 -41 5q-99 0 -99 -80v-400zM355 125v400q0 32 -20 54
l-120 -530q16 -4 41 -4q99 0 99 80zM343 793l-38 -38l-113 -57l-26 26l123 123z" />
    <glyph glyph-name="uni0218" unicode="&#x218;" horiz-adv-x="498" 
d="M418 125q0 -140 -169 -140t-169 140v85h70v-89q0 -36 25 -56t74 -20t74 20t25 54.5t-7.5 55t-30.5 43.5l-176 172q-31 31 -42.5 60.5t-11.5 74.5q0 67 41.5 103.5t125.5 36.5q161 0 161 -140v-85h-70v89q0 36 -23.5 56t-70.5 20t-70.5 -20t-23.5 -55t7 -55t31 -42
l179 -172q29 -32 40 -61.5t11 -74.5zM209 -55h80v-85l-44 -116l-32 6l20 95l-24 9v91z" />
    <glyph glyph-name="uni0219" unicode="&#x219;" horiz-adv-x="498" 
d="M418 125q0 -140 -169 -140t-169 140v85h70v-89q0 -36 25 -56t74 -20t74 20t25 54.5t-7.5 55t-30.5 43.5l-176 172q-31 31 -42.5 60.5t-11.5 74.5q0 67 41.5 103.5t125.5 36.5q161 0 161 -140v-85h-70v89q0 36 -23.5 56t-70.5 20t-70.5 -20t-23.5 -55t7 -55t31 -42
l179 -172q29 -32 40 -61.5t11 -74.5zM209 -55h80v-85l-44 -116l-32 6l20 95l-24 9v91z" />
    <glyph glyph-name="uni021A" unicode="&#x21a;" horiz-adv-x="390" 
d="M360 650v-60h-130v-590h-70v590h-130v60h330zM154 -55h80v-85l-44 -116l-32 6l20 95l-24 9v91z" />
    <glyph glyph-name="uni021B" unicode="&#x21b;" horiz-adv-x="375" 
d="M85 650h220v-60h-150v-479q0 -28 14.5 -47t41 -19t40.5 18.5t14 47.5v119h70v-115q0 -63 -33.5 -96.5t-90.5 -33.5t-91.5 33.5t-34.5 96.5v535zM172 -55h80v-85l-44 -116l-32 6l20 95l-24 9v91z" />
    <glyph glyph-name="circumflex" unicode="&#x2c6;" horiz-adv-x="368" 
d="M184 760l-88 -62l-26 26l98 113h32l98 -113l-26 -26z" />
    <glyph glyph-name="caron" unicode="&#x2c7;" horiz-adv-x="368" 
d="M184 778l88 62l26 -26l-98 -113h-32l-98 113l26 26z" />
    <glyph glyph-name="breve" unicode="&#x2d8;" horiz-adv-x="380" 
d="M147 816v-20q0 -31 43 -31t43 31v20h55v-26q0 -75 -98 -75t-98 75v26h55z" />
    <glyph glyph-name="dotaccent" unicode="&#x2d9;" horiz-adv-x="380" 
d="M230 715h-80v110h80v-110z" />
    <glyph glyph-name="ring" unicode="&#x2da;" horiz-adv-x="380" 
d="M275 780v-20q0 -75 -85 -75t-85 75v20q0 75 85 75t85 -75zM155 780v-20q0 -31 35 -31t35 31v20q0 31 -35 31t-35 -31z" />
    <glyph glyph-name="ogonek" unicode="&#x2db;" horiz-adv-x="500" 
d="M210 -124v-42q0 -31 41.5 -31t41.5 31v30h48v-28q0 -76 -89.5 -76t-89.5 76v40q0 45 41 83l49 41h70l-63 -51q-49 -40 -49 -73z" />
    <glyph glyph-name="tilde" unicode="&#x2dc;" horiz-adv-x="366" 
d="M226 759q-15 0 -43 -19t-53.5 -19t-43.5 20t-21 54l41 14q10 -28 34 -28q15 0 43 19t53.5 19t43.5 -20t21 -54l-41 -14q-10 28 -34 28z" />
    <glyph glyph-name="hungarumlaut" unicode="&#x2dd;" horiz-adv-x="497" 
d="M277 793l-38 -38l-113 -57l-26 26l123 123zM457 793l-38 -38l-113 -57l-26 26l123 123z" />
    <glyph glyph-name="uni0394" unicode="&#x394;" horiz-adv-x="539" 
d="M50 0v55l195 595h49l195 -595v-55h-439zM419 60l-150 466l-149 -466h299z" />
    <glyph glyph-name="uni03A9" unicode="&#x3a9;" horiz-adv-x="550" 
d="M334 0v191q26 8 35.5 11.5t17.5 14t8 28.5v280q0 80 -120 80t-120 -80v-280q0 -24 12.5 -33.5t47.5 -19.5v-192h-160v60h100v84q-70 27 -70 101v280q0 67 47 103.5t141.5 36.5t143 -36.5t48.5 -103.5v-280q0 -75 -71 -102v-83h100v-60h-160z" />
    <glyph glyph-name="uni03BC" unicode="&#x3bc;" horiz-adv-x="520" 
d="M90 650h70v-525q0 -80 100 -80t100 80v525h70v-525q0 -67 -42.5 -103.5t-120.5 -36.5t-116 38l-31 -273h-30v900z" />
    <glyph glyph-name="pi" unicode="&#x3c0;" horiz-adv-x="597" 
d="M200 0h-70v490h-60v60h457v-60h-60v-490h-70v490h-197v-490z" />
    <glyph glyph-name="Wgrave" unicode="&#x1e80;" horiz-adv-x="683" 
d="M240 0h-98l-97 650h70l82 -549l107 549h75l107 -549l82 549h70l-97 -650h-98l-102 519zM291 755l-38 38l54 54l123 -123l-26 -26z" />
    <glyph glyph-name="wgrave" unicode="&#x1e81;" horiz-adv-x="760" 
d="M345 125v525h70v-525q0 -80 92.5 -80t92.5 80v525h70v-525q0 -66 -42 -103t-124.5 -37t-123.5 58q-39 -58 -122.5 -58t-125.5 37t-42 103v525h70v-525q0 -80 92.5 -80t92.5 80zM329 755l-38 38l54 54l123 -123l-26 -26z" />
    <glyph glyph-name="Wacute" unicode="&#x1e82;" horiz-adv-x="683" 
d="M240 0h-98l-97 650h70l82 -549l107 549h75l107 -549l82 549h70l-97 -650h-98l-102 519zM440 793l-38 -38l-113 -57l-26 26l123 123z" />
    <glyph glyph-name="wacute" unicode="&#x1e83;" horiz-adv-x="760" 
d="M345 125v525h70v-525q0 -80 92.5 -80t92.5 80v525h70v-525q0 -66 -42 -103t-124.5 -37t-123.5 58q-39 -58 -122.5 -58t-125.5 37t-42 103v525h70v-525q0 -80 92.5 -80t92.5 80zM478 793l-38 -38l-113 -57l-26 26l123 123z" />
    <glyph glyph-name="Wdieresis" unicode="&#x1e84;" horiz-adv-x="683" 
d="M240 0h-98l-97 650h70l82 -549l107 549h75l107 -549l82 549h70l-97 -650h-98l-102 519zM306 715h-70v110h70v-110zM446 715h-70v110h70v-110z" />
    <glyph glyph-name="wdieresis" unicode="&#x1e85;" horiz-adv-x="760" 
d="M345 125v525h70v-525q0 -80 92.5 -80t92.5 80v525h70v-525q0 -66 -42 -103t-124.5 -37t-123.5 58q-39 -58 -122.5 -58t-125.5 37t-42 103v525h70v-525q0 -80 92.5 -80t92.5 80zM345 715h-70v110h70v-110zM485 715h-70v110h70v-110z" />
    <glyph glyph-name="Ygrave" unicode="&#x1ef2;" horiz-adv-x="450" 
d="M260 0h-70v233l-165 417h74l126 -335l126 335h74l-165 -418v-232zM175 755l-38 38l54 54l123 -123l-26 -26z" />
    <glyph glyph-name="ygrave" unicode="&#x1ef3;" horiz-adv-x="470" 
d="M271 0h-70v184q-136 15 -136 138v328h70v-328q0 -80 100 -80t100 80v328h70v-328q0 -123 -134 -138v-184zM175 755l-38 38l54 54l123 -123l-26 -26z" />
    <glyph glyph-name="endash" unicode="&#x2013;" horiz-adv-x="557" 
d="M538 355v-60h-519v60h519z" />
    <glyph glyph-name="emdash" unicode="&#x2014;" horiz-adv-x="639" 
d="M620 355v-60h-601v60h601z" />
    <glyph glyph-name="quoteleft" unicode="&#x2018;" horiz-adv-x="260" 
d="M135 450h-90v95l49 126l32 -6l-15 -105l24 -9v-101z" />
    <glyph glyph-name="quoteright" unicode="&#x2019;" horiz-adv-x="260" 
d="M85 666h90v-95l-49 -126l-32 6l15 105l-24 9v101z" />
    <glyph glyph-name="quotesinglbase" unicode="&#x201a;" horiz-adv-x="260" 
d="M85 110h90v-95l-49 -126l-32 6l15 105l-24 9v101z" />
    <glyph glyph-name="quotedblleft" unicode="&#x201c;" horiz-adv-x="410" 
d="M135 450h-90v95l49 126l32 -6l-15 -105l24 -9v-101zM285 450h-90v95l49 126l32 -6l-15 -105l24 -9v-101z" />
    <glyph glyph-name="quotedblright" unicode="&#x201d;" horiz-adv-x="410" 
d="M85 665h90v-95l-49 -126l-32 6l15 105l-24 9v101zM235 666h90v-95l-49 -126l-32 6l15 105l-24 9v101z" />
    <glyph glyph-name="quotedblbase" unicode="&#x201e;" horiz-adv-x="410" 
d="M85 110h90v-95l-49 -126l-32 6l15 105l-24 9v101zM235 110h90v-95l-49 -126l-32 6l15 105l-24 9v101z" />
    <glyph glyph-name="dagger" unicode="&#x2020;" horiz-adv-x="440" 
d="M60 490v60h125v150h70v-150h125v-60h-125v-490h-70v490h-125z" />
    <glyph glyph-name="daggerdbl" unicode="&#x2021;" horiz-adv-x="440" 
d="M60 490v60h125v150h70v-150h125v-60h-125v-280h125v-60h-125v-150h-70v150h-125v60h125v280h-125z" />
    <glyph glyph-name="bullet" unicode="&#x2022;" horiz-adv-x="287" 
d="M208 253h-117v143h117v-143z" />
    <glyph glyph-name="ellipsis" unicode="&#x2026;" horiz-adv-x="700" 
d="M175 0h-90v110h90v-110zM395 0h-90v110h90v-110zM615 0h-90v110h90v-110z" />
    <glyph glyph-name="perthousand" unicode="&#x2030;" horiz-adv-x="880" 
d="M260 -60h-45l175 770h45zM265 592v-153q0 -35 -22.5 -55.5t-67 -20.5t-67.5 20t-23 56v153q0 76 90 76q44 0 67 -20t23 -56zM217 439v153q0 33 -42 33t-42 -33v-153q0 -33 42 -33t42 33zM565 219v-153q0 -35 -22.5 -55.5t-67 -20.5t-67.5 20t-23 56v153q0 76 90 76
q44 0 67 -20t23 -56zM517 66v153q0 33 -42 33t-42 -33v-153q0 -33 42 -33t42 33zM795 219v-153q0 -35 -22.5 -55.5t-67 -20.5t-67.5 20t-23 56v153q0 76 90 76q44 0 67 -20t23 -56zM747 66v153q0 33 -42 33t-42 -33v-153q0 -33 42 -33t42 33z" />
    <glyph glyph-name="guilsinglleft" unicode="&#x2039;" horiz-adv-x="282" 
d="M125 325l117 -149l-49 -43l-133 170v44l133 170l49 -43z" />
    <glyph glyph-name="guilsinglright" unicode="&#x203a;" horiz-adv-x="282" 
d="M157 325l-117 149l49 43l133 -170v-44l-133 -170l-49 43z" />
    <glyph glyph-name="fraction" unicode="&#x2044;" horiz-adv-x="395" 
d="M70 316v29h255v-29h-255z" />
    <glyph glyph-name="zeroinferior" unicode="&#x2080;" horiz-adv-x="62" 
d="M-1 219v-153q0 -35 -22.5 -55.5t-67 -20.5t-67.5 20t-23 56v153q0 76 90 76q44 0 67 -20t23 -56zM-49 66v153q0 33 -42 33t-42 -33v-153q0 -33 42 -33t42 33z" />
    <glyph glyph-name="oneinferior" unicode="&#x2081;" horiz-adv-x="305" 
d="M188 285v-285h-48v233l-62 -35l-21 35l88 52h43z" />
    <glyph glyph-name="twoinferior" unicode="&#x2082;" horiz-adv-x="305" 
d="M64 0v39l101 124q30 37 30 52v6q0 31 -39 31t-39 -31v-20h-48v18q0 76 87 76t87 -76v-4q0 -30 -47 -87l-71 -85h117v-43h-178z" />
    <glyph glyph-name="threeinferior" unicode="&#x2083;" horiz-adv-x="305" 
d="M236 219v-27q0 -37 -34 -53q39 -14 39 -54v-19q0 -76 -89.5 -76t-89.5 76v13h48v-15q0 -31 41.5 -31t41.5 31v21q0 13 -10 24t-26 11h-47v38h42q17 0 26.5 10.5t9.5 23.5v29q0 31 -39 31t-39 -31v-20h-48v18q0 76 87 76t87 -76z" />
    <glyph glyph-name="fourinferior" unicode="&#x2084;" horiz-adv-x="305" 
d="M212 285v-189h25v-43h-25v-53h-48v53h-130v39l133 193h45zM164 96v106l-77 -106h77z" />
    <glyph glyph-name="fiveinferior" unicode="&#x2085;" horiz-adv-x="305" 
d="M67 285h169v-43h-121v-64h42q41 0 62.5 -21.5t21.5 -57.5v-33q0 -76 -89.5 -76t-89.5 76v18h48v-20q0 -31 41.5 -31t41.5 31v35q0 14 -10 25t-26 11h-90v150z" />
    <glyph glyph-name="sixinferior" unicode="&#x2086;" horiz-adv-x="305" 
d="M61 67v152q0 76 89.5 76t89.5 -76v-18h-48v20q0 31 -41.5 31t-41.5 -31v-56q17 10 51.5 10t57.5 -20t23 -56v-33q0 -35 -22.5 -55.5t-66.5 -20.5q-91 0 -91 77zM109 66q0 -33 42 -33t42 33v33q0 33 -40.5 33t-43.5 -29v-37z" />
    <glyph glyph-name="seveninferior" unicode="&#x2087;" horiz-adv-x="305" 
d="M59 242v43h174v-38l-92 -247h-50l90 242h-122z" />
    <glyph glyph-name="eightinferior" unicode="&#x2088;" horiz-adv-x="305" 
d="M62 66v22q0 36 24 50q-24 14 -24 52v29q0 76 87 76t87 -76v-29q0 -37 -23 -51q28 -15 28 -51v-22q0 -76 -89.5 -76t-89.5 76zM156 120h-10q-17 0 -26.5 -10t-9.5 -22v-24q0 -31 41.5 -31t41.5 31v24q0 12 -10 22t-27 10zM110 221v-31q0 -13 9 -22.5t27 -9.5h5
q17 0 27 9.5t10 22.5v31q0 31 -39 31t-39 -31z" />
    <glyph glyph-name="nineinferior" unicode="&#x2089;" horiz-adv-x="305" 
d="M241 219v-153q0 -76 -89.5 -76t-89.5 76v9h48v-11q0 -31 41.5 -31t41.5 31v48q-16 -10 -51 -10t-58 20t-23 56v41q0 76 90 76q44 0 67 -20t23 -56zM193 178v41q0 33 -42 33t-42 -33v-41q0 -33 42 -33t42 33z" />
    <glyph glyph-name="franc" unicode="&#x20a3;" horiz-adv-x="415" 
d="M170 0h-70v170h-50v50h50v430h275v-60h-205v-230h165v-60h-165v-80h165v-50h-165v-170z" />
    <glyph glyph-name="lira" unicode="&#x20a4;" 
d="M428 60v-60h-367l30 55l2 115h-43v50h44l2 100h-46v50h47l3 155q3 140 167 140q75 0 113 -36.5t38 -103.5v-55h-70v59q0 36 -21 56t-63 20q-92 0 -94 -76l-3 -159h191v-50h-192l-2 -100h194v-50h-195l-2 -110h267z" />
    <glyph glyph-name="Euro" unicode="&#x20ac;" 
d="M195 375v-100h200l-10 -50h-190v-100q0 -80 94.5 -80t105.5 73l60 -19q-16 -114 -164 -114q-82 0 -124 36.5t-42 103.5v100h-65l10 50h55v100h-65l10 50h55v100q0 67 41 103.5t123 36.5q148 0 164 -114l-60 -19q-11 73 -104.5 73t-93.5 -80v-100h200l-10 -50h-190z" />
    <glyph glyph-name="uni2113" unicode="&#x2113;" horiz-adv-x="312" 
d="M201 -15q-56 0 -86 33t-30 97v535h70v-539q0 -66 46 -66q17 0 35 12t24 27l52 -33q-38 -66 -111 -66z" />
    <glyph glyph-name="trademark" unicode="&#x2122;" horiz-adv-x="544" 
d="M290 365h-48v285h68l45 -168l46 168h68v-285h-48v200h-4l-43 -151h-37l-43 151h-4v-200zM205 650v-43h-63v-242h-48v242h-64v43h175z" />
    <glyph glyph-name="Omega" unicode="&#x2126;" horiz-adv-x="550" 
d="M334 0v191q26 8 35.5 11.5t17.5 14t8 28.5v280q0 80 -120 80t-120 -80v-280q0 -24 12.5 -33.5t47.5 -19.5v-192h-160v60h100v84q-70 27 -70 101v280q0 67 47 103.5t141.5 36.5t143 -36.5t48.5 -103.5v-280q0 -75 -71 -102v-83h100v-60h-160z" />
    <glyph glyph-name="estimated" unicode="&#x212e;" horiz-adv-x="600" 
d="M157 259v-181q62 -59 145 -59q124 0 193 120l35 -21q-55 -74 -103.5 -104.5t-124.5 -30.5q-119 0 -188.5 79t-69.5 200t69.5 197t190 76t186 -76.5t71.5 -199.5h-404zM157 295h291v145q-63 60 -147.5 60t-143.5 -60v-145z" />
    <glyph glyph-name="partialdiff" unicode="&#x2202;" 
d="M429.5 459q14.5 -33 14.5 -49.5t-2 -34.5l-35 -250q-9 -67 -56.5 -103.5t-132.5 -36.5q-153 0 -153 115q0 7 2 25l35 250q9 66 54.5 103t120.5 37q18 0 39 -6l6 6l-162 235h77l113 -162q33 -46 49 -71t30.5 -58zM373 389q0 66 -95 66t-106 -80l-35 -250q-1 -5 -1 -14
q0 -66 95 -66t106 80l35 250q1 5 1 14z" />
    <glyph glyph-name="Delta" unicode="&#x2206;" horiz-adv-x="539" 
d="M50 0v55l195 595h49l195 -595v-55h-439zM419 60l-150 466l-149 -466h299z" />
    <glyph glyph-name="product" unicode="&#x220f;" horiz-adv-x="650" 
d="M210 -100h-70v690h-60v60h490v-60h-60v-690h-70v690h-230v-690z" />
    <glyph glyph-name="summation" unicode="&#x2211;" horiz-adv-x="490" 
d="M440 -40v-60h-340l-40 40l170 335l-170 335l40 40h340v-60h-295l160 -315l-160 -315h295z" />
    <glyph glyph-name="minus" unicode="&#x2212;" 
d="M415 355v-60h-320v60h320z" />
    <glyph glyph-name="uni2215" unicode="&#x2215;" horiz-adv-x="395" 
d="M70 316v29h255v-29h-255z" />
    <glyph glyph-name="radical" unicode="&#x221a;" horiz-adv-x="481" 
d="M561 750v-50h-145l-158 -700h-95l-103 331l64 18l83 -272l151 673h203z" />
    <glyph glyph-name="infinity" unicode="&#x221e;" horiz-adv-x="736" 
d="M534 429h-43q-30 0 -52.5 -26t-45.5 -83q50 -109 108 -109h33q71 0 71 109t-71 109zM526 156h-25q-47 0 -74.5 21.5t-58.5 74.5q-29 -54 -53 -75t-70 -21h-35q-140 0 -140 161q0 84 36.5 125.5t103.5 41.5h25q47 0 74 -21.5t58 -74.5q30 54 53.5 75t70.5 21h35
q140 0 140 -161q0 -84 -36.5 -125.5t-103.5 -41.5zM202 211h43q30 0 52.5 26t45.5 83q-50 109 -108 109h-33q-71 0 -71 -109t71 -109z" />
    <glyph glyph-name="integral" unicode="&#x222b;" horiz-adv-x="384" 
d="M227 529v-504q0 -67 -41.5 -103.5t-125.5 -36.5l3 60q47 0 70.5 20t23.5 56v504q0 67 41.5 103.5t125.5 36.5l-3 -60q-47 0 -70.5 -20t-23.5 -56z" />
    <glyph glyph-name="approxequal" unicode="&#x2248;" 
d="M415 375q-34 23 -68 23t-90.5 -24.5t-94 -24.5t-67.5 26v60q31 -26 64 -26t89.5 24.5t93 24.5t73.5 -23v-60zM415 215q-34 23 -68 23t-90.5 -24.5t-94 -24.5t-67.5 26v60q31 -26 64 -26t89.5 24.5t93 24.5t73.5 -23v-60z" />
    <glyph glyph-name="notequal" unicode="&#x2260;" 
d="M415 435v-60h-126l-23 -100h149v-60h-163l-62 -275h-45l62 275h-112v60h126l23 100h-149v60h162l63 275h45l-63 -275h113z" />
    <glyph glyph-name="lessequal" unicode="&#x2264;" 
d="M95 303v44l293 170l27 -53l-243 -139l243 -139l-27 -53zM415 60v-60h-320v60h320z" />
    <glyph glyph-name="greaterequal" unicode="&#x2265;" 
d="M415 347v-44l-293 -170l-27 53l243 139l-243 139l27 53zM415 60v-60h-320v60h320z" />
    <glyph glyph-name="lozenge" unicode="&#x25ca;" horiz-adv-x="539" 
d="M245 -100l-195 375l195 375h49l195 -375l-195 -375h-49zM416 275l-147 291l-146 -291l146 -292z" />
    <glyph glyph-name="commaaccent" unicode="&#xf6c3;" horiz-adv-x="260" 
d="M90 -55h80v-85l-44 -116l-32 6l20 95l-24 9v91z" />
    <glyph glyph-name="apple" unicode="&#xf8ff;" horiz-adv-x="963" 
d="M609 -89l-23 1q-14 0 -31.5 -12t-26.5 -12l-46 10q-8 0 -23.5 -6t-24 -6t-24.5 12.5t-29 12.5l-24 -2q-15 0 -33 17l-18 19q-12 6 -25 7t-22 6.5t-16 23t-12.5 22t-19.5 10t-20 14.5q-5 9 -7 23.5t-6 21t-14 13.5q-22 18 -22 38l3 25q0 9 -12.5 26.5t-12.5 26.5t6 23.5
t6 23t-6 21.5t-6 22t12.5 29.5t12.5 29.5l-1 25q0 15 16.5 29.5t19 19.5t4.5 21t6 22t19.5 12t20.5 11t12 20.5t13.5 21t25.5 9.5t24.5 7t20.5 20t29 18l26 -2q13 0 28.5 11.5t26.5 11.5l44 -12l45 12q13 0 29 -12.5t28 -12.5l28 3q16 0 29 -16.5t19.5 -20t21.5 -6.5
t22.5 -8t12.5 -19t10.5 -19t25.5 -15.5t24.5 -18.5t5 -24t3 -20.5t19.5 -19t17 -30.5l-1 -25q0 -13 12 -31.5t12 -27.5t-5.5 -22t-5.5 -20t5.5 -21.5t5 -22.5t-12.5 -20.5t-12 -26.5l2 -32q0 -16 -16 -29t-18.5 -18t-7 -24t-10 -25.5t-18 -12t-17.5 -10.5t-14 -21.5
t-16 -21.5t-24.5 -9.5t-22.5 -7.5t-18.5 -16.5t-28.5 -13.5zM482 -6l33 -7q6 0 17 7q15 10 27 10l15 -1q12 0 21 10t12.5 12t16.5 5.5t18.5 7.5t12 15.5t10 15t12.5 7.5t13 8.5t7 18.5t5.5 18t13.5 13t11 23l-1 20q0 11 8.5 20.5t9.5 15.5l-8 32l8 28q0 8 -9 22t-9 23l1 17
q0 12 -12 22t-14 14t-2.5 15.5t-3.5 17t-17.5 13t-18.5 11.5t-8 14t-9 14t-16 6t-16 4.5t-14 14.5t-21 12l-20 -2q-9 0 -20 9t-21 9l-33 -9l-32 9q-8 0 -20 -8.5t-22 -8.5l-17 1q-11 0 -21.5 -12.5t-15 -15t-17.5 -5t-18 -6.5t-10 -15t-9 -15t-14.5 -8t-14.5 -9
q-2 -4 -4 -15.5t-4 -15.5t-14 -14.5t-12 -21.5l1 -16q0 -8 -8.5 -23t-8.5 -23l8 -30l-8 -33q0 -8 8.5 -20.5t8.5 -20.5l-2 -16q0 -11 12.5 -22.5t14.5 -15.5t3.5 -14.5t5.5 -17t14 -10.5t14 -7.5t9.5 -16.5t11.5 -17t15.5 -4t15.5 -3t17.5 -15.5t22.5 -12.5l15 1
q10 0 22 -8.5t18 -9.5zM482 417q70 0 120 -49.5t50 -120.5t-50 -120.5t-120 -49.5t-120 49.5t-50 120.5t50 120.5t120 49.5zM525 292h52v68h-191v-68h54v-175h85v175z" />
    <glyph glyph-name="f_f" unicode="&#xfb00;" horiz-adv-x="830" 
d="M170 0h-70v650h275v-60h-205v-230h165v-60h-165v-300zM585 0h-70v650h275v-60h-205v-230h165v-60h-165v-300z" />
    <glyph glyph-name="fi" unicode="&#xfb01;" horiz-adv-x="645" 
d="M170 0h-70v650h275v-60h-205v-230h165v-60h-165v-300zM545 0h-70v650h70v-650z" />
    <glyph glyph-name="fl" unicode="&#xfb02;" horiz-adv-x="748" 
d="M170 0h-70v650h275v-60h-205v-230h165v-60h-165v-300zM475 0v650h70v-590h183v-60h-253z" />
    <glyph glyph-name="f_f_i" unicode="&#xfb03;" horiz-adv-x="1100" 
d="M170 0h-70v650h275v-60h-205v-230h165v-60h-165v-300zM585 0h-70v650h275v-60h-205v-230h165v-60h-165v-300zM1000 0h-70v650h70v-650z" />
    <glyph glyph-name="f_f_l" unicode="&#xfb04;" horiz-adv-x="1203" 
d="M170 0h-70v650h275v-60h-205v-230h165v-60h-165v-300zM585 0h-70v650h275v-60h-205v-230h165v-60h-165v-300zM930 0v650h70v-590h183v-60h-253z" />
    <glyph glyph-name="acute.case" horiz-adv-x="317" 
d="M277 793l-38 -38l-113 -57l-26 26l123 123z" />
    <glyph glyph-name="dieresis.case" horiz-adv-x="380" 
d="M155 715h-70v110h70v-110zM295 715h-70v110h70v-110z" />
    <glyph glyph-name="thin-slash" horiz-adv-x="310" 
d="M90 -60h-45l175 770h45z" />
    <glyph glyph-name="eslash" horiz-adv-x="386" 
d="M82 244l-23 45l249 127l23 -45z" />
    <glyph glyph-name="barra" horiz-adv-x="490" 
d="M115 305v50h260v-50h-260z" />
    <glyph glyph-name="circumflex.case" horiz-adv-x="368" 
d="M184 760l-88 -62l-26 26l98 113h32l98 -113l-26 -26z" />
    <glyph glyph-name="ring.case" horiz-adv-x="380" 
d="M275 780v-20q0 -75 -85 -75t-85 75v20q0 75 85 75t85 -75zM155 780v-20q0 -31 35 -31t35 31v20q0 31 -35 31t-35 -31z" />
    <glyph glyph-name="caron.case" horiz-adv-x="368" 
d="M184 778l88 62l26 -26l-98 -113h-32l-98 113l26 26z" />
    <glyph glyph-name="tilde.case" horiz-adv-x="366" 
d="M226 759q-15 0 -43 -19t-53.5 -19t-43.5 20t-21 54l41 14q10 -28 34 -28q15 0 43 19t53.5 19t43.5 -20t21 -54l-41 -14q-10 28 -34 28z" />
    <glyph glyph-name="thinbar" horiz-adv-x="260" 
d="M105 -100v850h50v-850h-50z" />
    <glyph glyph-name="breve.case" horiz-adv-x="380" 
d="M147 816v-20q0 -31 43 -31t43 31v20h55v-26q0 -75 -98 -75t-98 75v26h55z" />
    <glyph glyph-name="hungarumlaut.case" horiz-adv-x="497" 
d="M277 793l-38 -38l-113 -57l-26 26l123 123zM457 793l-38 -38l-113 -57l-26 26l123 123z" />
    <glyph glyph-name="grave.case" horiz-adv-x="317" 
d="M128 755l-38 38l54 54l123 -123l-26 -26z" />
    <glyph glyph-name="dotaccent.case" horiz-adv-x="380" 
d="M230 715h-80v110h80v-110z" />
    <glyph glyph-name="macron.case" horiz-adv-x="366" 
d="M75 740v60h216v-60h-216z" />
    <glyph glyph-name="ringacute" horiz-adv-x="380" 
d="M275 780v-20q0 -75 -85 -75t-85 75v20q0 75 85 75q26 0 45 -8l70 70l54 -54l-38 -38l-51 -15q5 -15 5 -30zM155 780v-20q0 -31 35 -31t35 31v20q0 31 -35 31t-35 -31z" />
    <glyph glyph-name="ringacute.case" horiz-adv-x="380" 
d="M275 780v-20q0 -75 -85 -75t-85 75v20q0 75 85 75q26 0 45 -8l70 70l54 -54l-38 -38l-51 -15q5 -15 5 -30zM155 780v-20q0 -31 35 -31t35 31v20q0 31 -35 31t-35 -31z" />
    </font>
</defs>
</svg>
